<?xml version="1.0" encoding="UTF-8" standalone="no"?>
<!-- Created with Inkscape (http://www.inkscape.org/) -->
<svg
   xmlns:dc="http://purl.org/dc/elements/1.1/"
   xmlns:cc="http://creativecommons.org/ns#"
   xmlns:rdf="http://www.w3.org/1999/02/22-rdf-syntax-ns#"
   xmlns:svg="http://www.w3.org/2000/svg"
   xmlns="http://www.w3.org/2000/svg"
   xmlns:sodipodi="http://sodipodi.sourceforge.net/DTD/sodipodi-0.dtd"
   xmlns:inkscape="http://www.inkscape.org/namespaces/inkscape"
   width="210mm"
   height="297mm"
   id="svg2"
   sodipodi:version="0.32"
   inkscape:version="0.46"
   sodipodi:docname="example_part5.svg"
   inkscape:output_extension="org.inkscape.output.svg.inkscape">
  <defs
     id="defs4">
    <marker
       inkscape:stockid="Arrow2Lend"
       orient="auto"
       refY="0.0"
       refX="0.0"
       id="Arrow2Lend"
       style="overflow:visible;">
      <path
         id="path4188"
         style="font-size:12.0;fill-rule:evenodd;stroke-width:0.62500000;stroke-linejoin:round;"
         d="M 8.7185878,4.0337352 L -2.2072895,0.016013256 L 8.7185884,-4.0017078 C 6.9730900,-1.6296469 6.9831476,1.6157441 8.7185878,4.0337352 z "
         transform="scale(1.1) rotate(180) translate(1,0)" />
    </marker>
    <inkscape:perspective
       sodipodi:type="inkscape:persp3d"
       inkscape:vp_x="0 : 526.18109 : 1"
       inkscape:vp_y="0 : 1000 : 0"
       inkscape:vp_z="744.09448 : 526.18109 : 1"
       inkscape:persp3d-origin="372.04724 : 350.78739 : 1"
       id="perspective10" />
  </defs>
  <sodipodi:namedview
     id="base"
     pagecolor="#ffffff"
     bordercolor="#666666"
     borderopacity="1.0"
     inkscape:pageopacity="0.0"
     inkscape:pageshadow="2"
     inkscape:zoom="1.75"
     inkscape:cx="127.70501"
     inkscape:cy="559.61098"
     inkscape:document-units="px"
     inkscape:current-layer="layer1"
     showgrid="false"
     inkscape:window-width="1440"
     inkscape:window-height="814"
     inkscape:window-x="-4"
     inkscape:window-y="-4" />
  <metadata
     id="metadata7">
    <rdf:RDF>
      <cc:Work
         rdf:about="">
        <dc:format>image/svg+xml</dc:format>
        <dc:type
           rdf:resource="http://purl.org/dc/dcmitype/StillImage" />
      </cc:Work>
    </rdf:RDF>
  </metadata>
  <g
     inkscape:label="Camada 1"
     inkscape:groupmode="layer"
     id="layer1">
    <rect
       id="rect2385"
       width="198"
       height="198"
       x="143.14285"
       y="375.64789"
       style="fill:none;stroke:#000000;stroke-width:2;stroke-miterlimit:4;stroke-dasharray:none;stroke-opacity:1" />
    <rect
       style="fill:none;stroke:#000000;stroke-width:2;stroke-miterlimit:4;stroke-dasharray:none;stroke-opacity:1"
       y="375.64789"
       x="143.14285"
       height="198"
       width="198"
       id="rect3157" />
    <path
       style="fill:none;fill-rule:evenodd;stroke:#000000;stroke-width:1px;stroke-linecap:butt;stroke-linejoin:miter;stroke-opacity:1"
       d="M 260.85715,376.36218 L 260.85715,573.50504"
       id="path3161" />
    <path
       style="fill:none;fill-rule:evenodd;stroke:#000000;stroke-width:1px;stroke-linecap:butt;stroke-linejoin:miter;stroke-opacity:1"
       d="M 143.57174,438.64788 L 260.42826,438.64788"
       id="path3163" />
    <path
       style="fill:none;fill-rule:evenodd;stroke:#ff0000;stroke-width:1px;stroke-linecap:butt;stroke-linejoin:miter;stroke-opacity:1"
       d="M 261.11695,457.21932 L 341.26538,457.21932"
       id="path3165" />
    <path
       transform="matrix(1.0411408,0,0,1.0411408,240.60527,1718.6548)"
       d="M -68.81664,-1167.7637 A 3.4723995,3.4723995 0 1 1 -75.761439,-1167.7637 A 3.4723995,3.4723995 0 1 1 -68.81664,-1167.7637 z"
       sodipodi:ry="3.4723995"
       sodipodi:rx="3.4723995"
       sodipodi:cy="-1167.7637"
       sodipodi:cx="-72.28904"
       id="path3406"
       style="fill:#000000;fill-opacity:1;stroke:none;stroke-opacity:1"
       sodipodi:type="arc" />
    <path
       sodipodi:type="arc"
       style="fill:#000000;fill-opacity:1;stroke:none;stroke-opacity:1"
       id="path3408"
       sodipodi:cx="-72.28904"
       sodipodi:cy="-1167.7637"
       sodipodi:rx="3.4723995"
       sodipodi:ry="3.4723995"
       d="M -68.81664,-1167.7637 A 3.4723995,3.4723995 0 1 1 -75.761439,-1167.7637 A 3.4723995,3.4723995 0 1 1 -68.81664,-1167.7637 z"
       transform="matrix(1.0411408,0,0,1.0411408,387.46241,1752.9405)" />
    <path
       transform="matrix(1.0411408,0,0,1.0411408,358.89098,1661.5119)"
       d="M -68.81664,-1167.7637 A 3.4723995,3.4723995 0 1 1 -75.761439,-1167.7637 A 3.4723995,3.4723995 0 1 1 -68.81664,-1167.7637 z"
       sodipodi:ry="3.4723995"
       sodipodi:rx="3.4723995"
       sodipodi:cy="-1167.7637"
       sodipodi:cx="-72.28904"
       id="path3410"
       style="fill:#000000;fill-opacity:1;stroke:none;stroke-opacity:1"
       sodipodi:type="arc" />
    <path
       sodipodi:type="arc"
       style="fill:#000000;fill-opacity:1;stroke:none;stroke-opacity:1"
       id="path7323"
       sodipodi:cx="-72.28904"
       sodipodi:cy="-1167.7637"
       sodipodi:rx="3.4723995"
       sodipodi:ry="3.4723995"
       d="M -68.81664,-1167.7637 A 3.4723995,3.4723995 0 1 1 -75.761439,-1167.7637 A 3.4723995,3.4723995 0 1 1 -68.81664,-1167.7637 z"
       transform="matrix(1.0411408,0,0,1.0411408,396.60527,1681.5119)" />
    <path
       transform="matrix(1.0411408,0,0,1.0411408,376.03385,1612.369)"
       d="M -68.81664,-1167.7637 A 3.4723995,3.4723995 0 1 1 -75.761439,-1167.7637 A 3.4723995,3.4723995 0 1 1 -68.81664,-1167.7637 z"
       sodipodi:ry="3.4723995"
       sodipodi:rx="3.4723995"
       sodipodi:cy="-1167.7637"
       sodipodi:cx="-72.28904"
       id="path7325"
       style="fill:#000000;fill-opacity:1;stroke:none;stroke-opacity:1"
       sodipodi:type="arc" />
    <path
       sodipodi:type="arc"
       style="fill:#000000;fill-opacity:1;stroke:none;stroke-opacity:1"
       id="path7327"
       sodipodi:cx="-72.28904"
       sodipodi:cy="-1167.7637"
       sodipodi:rx="3.4723995"
       sodipodi:ry="3.4723995"
       d="M -68.81664,-1167.7637 A 3.4723995,3.4723995 0 1 1 -75.761439,-1167.7637 A 3.4723995,3.4723995 0 1 1 -68.81664,-1167.7637 z"
       transform="matrix(1.0411408,0,0,1.0411408,326.60527,1609.5119)" />
    <path
       transform="matrix(1.0411408,0,0,1.0411408,322.60527,1731.5119)"
       d="M -68.81664,-1167.7637 A 3.4723995,3.4723995 0 1 1 -75.761439,-1167.7637 A 3.4723995,3.4723995 0 1 1 -68.81664,-1167.7637 z"
       sodipodi:ry="3.4723995"
       sodipodi:rx="3.4723995"
       sodipodi:cy="-1167.7637"
       sodipodi:cx="-72.28904"
       id="path7329"
       style="fill:#000000;fill-opacity:1;stroke:none;stroke-opacity:1"
       sodipodi:type="arc" />
    <path
       sodipodi:type="arc"
       style="fill:#000000;fill-opacity:1;stroke:none;stroke-opacity:1"
       id="path7331"
       sodipodi:cx="-72.28904"
       sodipodi:cy="-1167.7637"
       sodipodi:rx="3.4723995"
       sodipodi:ry="3.4723995"
       d="M -68.81664,-1167.7637 A 3.4723995,3.4723995 0 1 1 -75.761439,-1167.7637 A 3.4723995,3.4723995 0 1 1 -68.81664,-1167.7637 z"
       transform="matrix(1.0411408,0,0,1.0411408,344.60527,1771.5119)" />
    <path
       sodipodi:type="arc"
       style="fill:#000000;fill-opacity:1;stroke:none;stroke-opacity:1"
       id="path7333"
       sodipodi:cx="-72.28904"
       sodipodi:cy="-1167.7637"
       sodipodi:rx="3.4723995"
       sodipodi:ry="3.4723995"
       d="M -68.81664,-1167.7637 A 3.4723995,3.4723995 0 1 1 -75.761439,-1167.7637 A 3.4723995,3.4723995 0 1 1 -68.81664,-1167.7637 z"
       transform="matrix(1.0411408,0,0,1.0411408,240.60527,1618.6548)" />
    <path
       transform="matrix(1.0411408,0,0,1.0411408,280.60527,1638.6548)"
       d="M -68.81664,-1167.7637 A 3.4723995,3.4723995 0 1 1 -75.761439,-1167.7637 A 3.4723995,3.4723995 0 1 1 -68.81664,-1167.7637 z"
       sodipodi:ry="3.4723995"
       sodipodi:rx="3.4723995"
       sodipodi:cy="-1167.7637"
       sodipodi:cx="-72.28904"
       id="path7335"
       style="fill:#000000;fill-opacity:1;stroke:none;stroke-opacity:1"
       sodipodi:type="arc" />
    <path
       sodipodi:type="arc"
       style="fill:#000000;fill-opacity:1;stroke:none;stroke-opacity:1"
       id="path7400"
       sodipodi:cx="-72.28904"
       sodipodi:cy="-1167.7637"
       sodipodi:rx="3.4723995"
       sodipodi:ry="3.4723995"
       d="M -68.81664,-1167.7637 A 3.4723995,3.4723995 0 1 1 -75.761439,-1167.7637 A 3.4723995,3.4723995 0 1 1 -68.81664,-1167.7637 z"
       transform="matrix(1.0411408,0,0,1.0411408,326.31956,1659.7976)" />
    <path
       style="fill:none;fill-rule:evenodd;stroke:#ff0000;stroke-width:1px;stroke-linecap:butt;stroke-linejoin:miter;marker-end:url(#Arrow2Lend);stroke-opacity:1"
       d="M 270.30333,487.06197 L 270.30333,463.06184"
       id="path3653" />
  </g>
</svg>
