<?xml version="1.0" encoding="UTF-8" standalone="no"?>
<!-- Created with Inkscape (http://www.inkscape.org/) -->
<svg
   xmlns:dc="http://purl.org/dc/elements/1.1/"
   xmlns:cc="http://creativecommons.org/ns#"
   xmlns:rdf="http://www.w3.org/1999/02/22-rdf-syntax-ns#"
   xmlns:svg="http://www.w3.org/2000/svg"
   xmlns="http://www.w3.org/2000/svg"
   xmlns:sodipodi="http://sodipodi.sourceforge.net/DTD/sodipodi-0.dtd"
   xmlns:inkscape="http://www.inkscape.org/namespaces/inkscape"
   version="1.0"
   width="210mm"
   height="297mm"
   id="svg2"
   sodipodi:version="0.32"
   inkscape:version="0.46"
   sodipodi:docname="kd-tree-distribution-ani5.svg"
   inkscape:output_extension="org.inkscape.output.svg.inkscape">
  <metadata
     id="metadata3585">
    <rdf:RDF>
      <cc:Work
         rdf:about="">
        <dc:format>image/svg+xml</dc:format>
        <dc:type
           rdf:resource="http://purl.org/dc/dcmitype/StillImage" />
      </cc:Work>
    </rdf:RDF>
  </metadata>
  <sodipodi:namedview
     inkscape:window-height="720"
     inkscape:window-width="1264"
     inkscape:pageshadow="2"
     inkscape:pageopacity="0.0"
     guidetolerance="10.0"
     gridtolerance="10.0"
     objecttolerance="10.0"
     borderopacity="1.0"
     bordercolor="#666666"
     pagecolor="#ffffff"
     id="base"
     showgrid="false"
     inkscape:zoom="1.6398134"
     inkscape:cx="261.66883"
     inkscape:cy="598.27834"
     inkscape:window-x="0"
     inkscape:window-y="44"
     inkscape:current-layer="svg2" />
  <defs
     id="defs4">
    <marker
       inkscape:stockid="Arrow2Lend"
       orient="auto"
       refY="0.0"
       refX="0.0"
       id="Arrow2Lend"
       style="overflow:visible;">
      <path
         id="path4188"
         style="font-size:12.0;fill-rule:evenodd;stroke-width:0.62500000;stroke-linejoin:round;"
         d="M 8.7185878,4.0337352 L -2.2072895,0.016013256 L 8.7185884,-4.0017078 C 6.9730900,-1.6296469 6.9831476,1.6157441 8.7185878,4.0337352 z "
         transform="scale(1.1) rotate(180) translate(1,0)" />
    </marker>
    <marker
       inkscape:stockid="Arrow1Lend"
       orient="auto"
       refY="0.0"
       refX="0.0"
       id="Arrow1Lend"
       style="overflow:visible;">
      <path
         id="path4170"
         d="M 0.0,0.0 L 5.0,-5.0 L -12.5,0.0 L 5.0,5.0 L 0.0,0.0 z "
         style="fill-rule:evenodd;stroke:#000000;stroke-width:1.0pt;marker-start:none;"
         transform="scale(0.8) rotate(180) translate(12.5,0)" />
    </marker>
    <inkscape:perspective
       sodipodi:type="inkscape:persp3d"
       inkscape:vp_x="0 : 526.18109 : 1"
       inkscape:vp_y="0 : 1000 : 0"
       inkscape:vp_z="744.09448 : 526.18109 : 1"
       inkscape:persp3d-origin="372.04724 : 350.78739 : 1"
       id="perspective3587" />
  </defs>
  <rect
     style="fill:none;stroke:#000000;stroke-width:2;stroke-miterlimit:4;stroke-dasharray:none;stroke-opacity:1"
     id="rect3425"
     y="353.36218"
     x="226"
     height="198"
     width="198" />
  <rect
     style="fill:none;stroke:#000000;stroke-width:2;stroke-miterlimit:4;stroke-dasharray:none;stroke-opacity:1"
     id="rect3427"
     y="353.36218"
     x="226"
     height="198"
     width="198" />
  <path
     style="fill:none;fill-rule:evenodd;stroke:#000000;stroke-width:1px;stroke-linecap:butt;stroke-linejoin:miter;stroke-opacity:1"
     id="path3429"
     d="M 317.71429,354.07647 L 317.71429,551.21933" />
  <path
     style="fill:none;fill-rule:evenodd;stroke:#000000;stroke-width:1px;stroke-linecap:butt;stroke-linejoin:miter;stroke-opacity:1"
     id="path3431"
     d="M 226.28571,456.36218 L 317.14286,456.36218" />
  <path
     style="fill:none;fill-rule:evenodd;stroke:#000000;stroke-width:1px;stroke-linecap:butt;stroke-linejoin:miter;stroke-opacity:1"
     id="path3433"
     d="M 317.71429,476.93361 L 424,476.93361" />
  <path
     style="fill:#ff0000;fill-opacity:1;stroke:none;stroke-opacity:1"
     id="path3435"
     d="M 295.52888,479.99127 C 295.52888,481.98797 293.91027,483.60652 291.91362,483.60652 C 289.91697,483.60652 288.29836,481.98797 288.29836,479.99127 C 288.29836,477.99457 289.91697,476.37601 291.91362,476.37601 C 293.91027,476.37601 295.52888,477.99457 295.52888,479.99127 L 295.52888,479.99127 z" />
  <path
     style="fill:#000000;fill-opacity:1;stroke:none;stroke-opacity:1"
     id="path3437"
     d="M 251.8146,480.56267 C 251.8146,482.55937 250.19599,484.17792 248.19934,484.17792 C 246.20269,484.17792 244.58408,482.55937 244.58408,480.56267 C 244.58408,478.56597 246.20269,476.94741 248.19934,476.94741 C 250.19599,476.94741 251.8146,478.56597 251.8146,480.56267 L 251.8146,480.56267 z" />
  <path
     style="fill:#000000;fill-opacity:1;stroke:none;stroke-opacity:1"
     id="path3439"
     d="M 398.67174,514.84837 C 398.67174,516.84507 397.05313,518.46362 395.05648,518.46362 C 393.05983,518.46362 391.44122,516.84507 391.44122,514.84837 C 391.44122,512.85167 393.05983,511.23311 395.05648,511.23311 C 397.05313,511.23311 398.67174,512.85167 398.67174,514.84837 L 398.67174,514.84837 z" />
  <path
     style="fill:#000000;fill-opacity:1;stroke:none;stroke-opacity:1"
     id="path3441"
     d="M 375.8146,419.41977 C 375.8146,421.41647 374.19599,423.03502 372.19934,423.03502 C 370.20269,423.03502 368.58408,421.41647 368.58408,419.41977 C 368.58408,417.42307 370.20269,415.80451 372.19934,415.80451 C 374.19599,415.80451 375.8146,417.42307 375.8146,419.41977 L 375.8146,419.41977 z" />
</svg>
