<?xml version="1.0" encoding="UTF-8" standalone="no"?>
<!-- Created with Inkscape (http://www.inkscape.org/) -->
<svg
   xmlns:svg="http://www.w3.org/2000/svg"
   xmlns="http://www.w3.org/2000/svg"
   version="1.0"
   width="210mm"
   height="297mm"
   id="svg2">
  <defs
     id="defs4" />
  <g
     id="layer1">
    <g
       id="g3412">
      <rect
         width="198"
         height="198"
         x="6"
         y="353.36218"
         id="rect2385"
         style="fill:none;stroke:#000000;stroke-width:2;stroke-miterlimit:4;stroke-dasharray:none;stroke-opacity:1" />
      <rect
         width="198"
         height="198"
         x="6"
         y="353.36218"
         id="rect3157"
         style="fill:none;stroke:#000000;stroke-width:2;stroke-miterlimit:4;stroke-dasharray:none;stroke-opacity:1" />
      <path
         d="M 97.714286,354.07647 L 97.714286,551.21933"
         id="path3161"
         style="fill:none;fill-rule:evenodd;stroke:#000000;stroke-width:1px;stroke-linecap:butt;stroke-linejoin:miter;stroke-opacity:1" />
      <path
         d="M 6.2857143,420.36218 L 97.142857,420.36218"
         id="path3163"
         style="fill:none;fill-rule:evenodd;stroke:#000000;stroke-width:1px;stroke-linecap:butt;stroke-linejoin:miter;stroke-opacity:1" />
      <path
         d="M 97.714286,476.93361 L 204,476.93361"
         id="path3165"
         style="fill:none;fill-rule:evenodd;stroke:#000000;stroke-width:1px;stroke-linecap:butt;stroke-linejoin:miter;stroke-opacity:1" />
      <path
         d="M -68.81664,-1167.7637 A 3.4723995,3.4723995 0 1 1 -75.761439,-1167.7637 A 3.4723995,3.4723995 0 1 1 -68.81664,-1167.7637 z"
         transform="matrix(1.0411408,0,0,1.0411408,161.17669,1623.7977)"
         id="path3216"
         style="fill:#ff0000;fill-opacity:1;stroke:none;stroke-opacity:1" />
      <path
         d="M -68.81664,-1167.7637 A 3.4723995,3.4723995 0 1 1 -75.761439,-1167.7637 A 3.4723995,3.4723995 0 1 1 -68.81664,-1167.7637 z"
         transform="matrix(1.0411408,0,0,1.0411408,103.46241,1696.3691)"
         id="path3406"
         style="fill:#000000;fill-opacity:1;stroke:none;stroke-opacity:1" />
      <path
         d="M -68.81664,-1167.7637 A 3.4723995,3.4723995 0 1 1 -75.761439,-1167.7637 A 3.4723995,3.4723995 0 1 1 -68.81664,-1167.7637 z"
         transform="matrix(1.0411408,0,0,1.0411408,250.31955,1730.6548)"
         id="path3408"
         style="fill:#000000;fill-opacity:1;stroke:none;stroke-opacity:1" />
      <path
         d="M -68.81664,-1167.7637 A 3.4723995,3.4723995 0 1 1 -75.761439,-1167.7637 A 3.4723995,3.4723995 0 1 1 -68.81664,-1167.7637 z"
         transform="matrix(1.0411408,0,0,1.0411408,227.46241,1635.2262)"
         id="path3410"
         style="fill:#000000;fill-opacity:1;stroke:none;stroke-opacity:1" />
    </g>
    <rect
       width="198"
       height="198"
       x="226"
       y="353.36218"
       id="rect3425"
       style="fill:none;stroke:#000000;stroke-width:2;stroke-miterlimit:4;stroke-dasharray:none;stroke-opacity:1" />
    <rect
       width="198"
       height="198"
       x="226"
       y="353.36218"
       id="rect3427"
       style="fill:none;stroke:#000000;stroke-width:2;stroke-miterlimit:4;stroke-dasharray:none;stroke-opacity:1" />
    <path
       d="M 317.71429,354.07647 L 317.71429,551.21933"
       id="path3429"
       style="fill:none;fill-rule:evenodd;stroke:#000000;stroke-width:1px;stroke-linecap:butt;stroke-linejoin:miter;stroke-opacity:1" />
    <path
       d="M 226.28571,420.36218 L 317.14286,420.36218"
       id="path3431"
       style="fill:none;fill-rule:evenodd;stroke:#000000;stroke-width:1px;stroke-linecap:butt;stroke-linejoin:miter;stroke-opacity:1" />
    <path
       d="M 317.71429,476.93361 L 424,476.93361"
       id="path3433"
       style="fill:none;fill-rule:evenodd;stroke:#000000;stroke-width:1px;stroke-linecap:butt;stroke-linejoin:miter;stroke-opacity:1" />
    <path
       d="M -68.81664,-1167.7637 A 3.4723995,3.4723995 0 1 1 -75.761439,-1167.7637 A 3.4723995,3.4723995 0 1 1 -68.81664,-1167.7637 z"
       transform="matrix(1.0411408,0,0,1.0411408,375.17669,1653.7977)"
       id="path3435"
       style="fill:#ff0000;fill-opacity:1;stroke:none;stroke-opacity:1" />
    <path
       d="M -68.81664,-1167.7637 A 3.4723995,3.4723995 0 1 1 -75.761439,-1167.7637 A 3.4723995,3.4723995 0 1 1 -68.81664,-1167.7637 z"
       transform="matrix(1.0411408,0,0,1.0411408,323.46241,1696.3691)"
       id="path3437"
       style="fill:#000000;fill-opacity:1;stroke:none;stroke-opacity:1" />
    <path
       d="M -68.81664,-1167.7637 A 3.4723995,3.4723995 0 1 1 -75.761439,-1167.7637 A 3.4723995,3.4723995 0 1 1 -68.81664,-1167.7637 z"
       transform="matrix(1.0411408,0,0,1.0411408,470.31955,1730.6548)"
       id="path3439"
       style="fill:#000000;fill-opacity:1;stroke:none;stroke-opacity:1" />
    <path
       d="M -68.81664,-1167.7637 A 3.4723995,3.4723995 0 1 1 -75.761439,-1167.7637 A 3.4723995,3.4723995 0 1 1 -68.81664,-1167.7637 z"
       transform="matrix(1.0411408,0,0,1.0411408,447.46241,1635.2262)"
       id="path3441"
       style="fill:#000000;fill-opacity:1;stroke:none;stroke-opacity:1" />
  </g>
</svg>
