<?xml version="1.0" encoding="UTF-8" standalone="no"?>
<!-- Created with Inkscape (http://www.inkscape.org/) -->

<svg
   xmlns:dc="http://purl.org/dc/elements/1.1/"
   xmlns:cc="http://creativecommons.org/ns#"
   xmlns:rdf="http://www.w3.org/1999/02/22-rdf-syntax-ns#"
   xmlns:svg="http://www.w3.org/2000/svg"
   xmlns="http://www.w3.org/2000/svg"
   xmlns:sodipodi="http://sodipodi.sourceforge.net/DTD/sodipodi-0.dtd"
   xmlns:inkscape="http://www.inkscape.org/namespaces/inkscape"
   width="210mm"
   height="297mm"
   id="svg2"
   version="1.1"
   inkscape:version="0.47 r22583"
   sodipodi:docname="cuia2.svg">
  <defs
     id="defs4">
    <inkscape:perspective
       sodipodi:type="inkscape:persp3d"
       inkscape:vp_x="0 : 526.18109 : 1"
       inkscape:vp_y="0 : 1000 : 0"
       inkscape:vp_z="744.09448 : 526.18109 : 1"
       inkscape:persp3d-origin="372.04724 : 350.78739 : 1"
       id="perspective10" />
  </defs>
  <sodipodi:namedview
     id="base"
     pagecolor="#ffffff"
     bordercolor="#666666"
     borderopacity="1.0"
     inkscape:pageopacity="0.0"
     inkscape:pageshadow="2"
     inkscape:zoom="0.43"
     inkscape:cx="279.45889"
     inkscape:cy="643.86566"
     inkscape:document-units="px"
     inkscape:current-layer="layer1"
     showgrid="false"
     inkscape:window-width="1440"
     inkscape:window-height="838"
     inkscape:window-x="-8"
     inkscape:window-y="-8"
     inkscape:window-maximized="1" />
  <metadata
     id="metadata7">
    <rdf:RDF>
      <cc:Work
         rdf:about="">
        <dc:format>image/svg+xml</dc:format>
        <dc:type
           rdf:resource="http://purl.org/dc/dcmitype/StillImage" />
        <dc:title></dc:title>
      </cc:Work>
    </rdf:RDF>
  </metadata>
  <g
     inkscape:label="Camada 1"
     inkscape:groupmode="layer"
     id="layer1">
    <path
       style="fill:#90682d;fill-opacity:1;fill-rule:nonzero;stroke:none;stroke-width:0.2;stroke-miterlimit:4;stroke-dasharray:none"
       id="path3648"
       d="m 332.03228,313.41785 c 1.30002,3.29721 3.32905,6.07421 5.23954,8.85868 3.15851,4.59474 6.9745,8.45066 10.13974,13.035 0.55887,0.80943 1.06364,1.67192 1.59545,2.50789 2.08583,3.4375 3.13368,7.12121 3.23445,11.39403 0.052,2.20564 -0.17911,4.25974 -0.36128,6.44717 -0.8259,7.73849 -3.10353,15.05342 -5.46372,22.25587 -1.22302,3.68883 -2.52891,7.33757 -3.6549,11.07334 -0.7024,2.33039 -1.31418,4.35498 -1.65555,6.80659 -0.14598,1.0484 -0.1625,2.11746 -0.24374,3.17619 0.083,0.99261 0.0615,2.00649 0.24891,2.97782 0.79751,4.13415 3.20475,7.62833 5.55968,10.59803 3.27681,4.13225 5.12235,5.67845 8.90704,9.38829 8.46139,7.89601 17.85838,14.14519 27.49379,19.63814 4.44215,2.53237 8.69217,4.63334 13.20132,6.92665 4.99603,2.34719 3.81336,1.8159 8.07691,3.74541 0.54529,0.24677 1.40336,0.0863 1.63773,0.73414 0.16864,0.46617 -0.86876,0.23332 -1.15208,0.60829 -1.10362,2.45862 -0.50412,1.66516 -1.42113,2.73215 -0.25578,-0.13078 -0.51156,-0.26156 -0.76734,-0.39234 -0.25614,-0.27037 2.88663,-4.67755 3.14278,-4.40718 l 0,0 c 0.38244,0.34692 0.76488,0.69385 1.14733,1.04078 0.36881,0.68982 1.0455,1.2499 1.10642,2.06947 0.29417,3.95776 -0.94371,4.22165 -3.60212,5.18272 -4.33944,1.5688 -8.98286,0.17464 -13.27295,-0.74877 -2.36938,-0.8209 -4.77857,-1.48762 -7.10814,-2.46269 -2.65366,-1.11071 -5.26028,-2.39389 -7.82248,-3.78667 -5.9289,-3.22287 -10.32399,-6.15979 -15.67505,-10.65882 -5.81357,-4.88791 -7.46536,-7.05688 -12.58395,-12.68938 -1.5746,-2.09198 -3.23248,-4.09551 -4.72379,-6.27596 -4.06231,-5.93954 -7.52393,-12.8973 -8.55939,-20.63393 -0.18406,-1.37525 -0.1975,-2.77634 -0.29624,-4.16451 0.0933,-1.36392 0.11388,-2.73809 0.27975,-4.09176 0.80351,-6.55763 3.30556,-12.89619 5.38397,-18.96325 2.24788,-6.70983 4.43124,-13.4832 5.80127,-20.55236 0.34227,-2.19618 0.93405,-4.98621 0.69355,-7.24674 -0.23323,-2.19237 -1.41089,-3.88221 -2.51451,-5.52724 -1.96645,-2.36474 -3.95505,-4.7049 -5.90312,-7.09199 -1.40526,-1.72196 -3.1135,-3.83696 -4.38261,-5.71037 -0.67675,-0.99899 -1.28505,-2.0638 -1.92757,-3.0957 -0.5249,-1.01204 -1.0893,-1.9953 -1.5747,-3.03612 -1.23917,-2.6571 -2.32728,-5.69323 -2.30743,-8.81142 0.002,-0.28547 0.0598,-0.5663 0.0896,-0.84945 0,-0.34364 3.99453,-0.34364 3.99453,0 z" />
    <path
       d="m 444.976,313.41785 c -0.92718,3.29721 -2.37427,6.07421 -3.73682,8.85868 -2.25264,4.59474 -4.97419,8.45066 -7.23162,13.035 -0.39858,0.80943 -0.75858,1.67192 -1.13787,2.50789 -1.4876,3.4375 -2.23492,7.12121 -2.30679,11.39403 -0.0371,2.20564 0.12774,4.25974 0.25766,6.44717 0.58903,7.73849 2.21342,15.05342 3.8967,22.25587 0.87225,3.68883 1.80361,7.33757 2.60666,11.07334 0.50095,2.33039 0.93727,4.35498 1.18073,6.80659 0.10411,1.0484 0.11589,2.11746 0.17384,3.17619 -0.0592,0.99261 -0.0439,2.00649 -0.17752,2.97782 -0.56879,4.13415 -2.28562,7.62833 -3.96514,10.59803 -2.33701,4.13225 -3.65324,5.67845 -6.35247,9.38829 -6.03462,7.89601 -12.73651,14.14519 -19.60844,19.63814 -3.16812,2.53237 -6.19922,4.63334 -9.41512,6.92665 -3.56315,2.34719 -2.71968,1.8159 -5.76042,3.74541 -0.38889,0.24677 -1.00087,0.0863 -1.16802,0.73414 -0.12028,0.46617 0.6196,0.23332 0.82166,0.60829 0.7871,2.45862 0.35953,1.66516 1.01354,2.73215 0.18242,-0.13078 0.36484,-0.26156 0.54726,-0.39234 0.18269,-0.27037 -2.05873,-4.67755 -2.24141,-4.40718 l 0,0 c -0.27276,0.34692 -0.54551,0.69385 -0.81827,1.04078 -0.26303,0.68982 -0.74565,1.2499 -0.7891,2.06947 -0.20979,3.95776 0.67305,4.22165 2.56902,5.18272 3.09487,1.5688 6.40653,0.17464 9.46621,-0.74877 1.68983,-0.8209 3.40805,-1.48762 5.06949,-2.46269 1.89258,-1.11071 3.75161,-2.39389 5.57896,-3.78667 4.22846,-3.22287 7.36302,-6.15979 11.17937,-10.65882 4.14622,-4.88791 5.32427,-7.05688 8.97482,-12.68938 1.123,-2.09198 2.30539,-4.09551 3.36899,-6.27596 2.89722,-5.93954 5.36603,-12.8973 6.10451,-20.63393 0.13127,-1.37525 0.14086,-2.77634 0.21128,-4.16451 -0.0665,-1.36392 -0.0812,-2.73809 -0.19951,-4.09176 -0.57307,-6.55763 -2.35752,-12.89619 -3.83983,-18.96325 -1.60318,-6.70983 -3.16034,-13.4832 -4.13744,-20.55236 -0.2441,-2.19618 -0.66616,-4.98621 -0.49464,-7.24674 0.16635,-2.19237 1.00624,-3.88221 1.79334,-5.52724 1.40246,-2.36474 2.82073,-4.7049 4.21008,-7.09199 1.00222,-1.72196 2.22053,-3.83696 3.12565,-5.71037 0.48266,-0.99899 0.9165,-2.0638 1.37474,-3.0957 0.37436,-1.01204 0.77689,-1.9953 1.12307,-3.03612 0.88377,-2.6571 1.6598,-5.69323 1.64565,-8.81142 -0.001,-0.28547 -0.0426,-0.5663 -0.0639,-0.84945 0,-0.34364 -2.84888,-0.34364 -2.84888,0 z"
       id="path3658"
       style="fill:#90682d;fill-opacity:1;fill-rule:nonzero;stroke:none;stroke-width:0.2;stroke-miterlimit:4;stroke-dasharray:none" />
    <path
       style="fill:#90682d;fill-opacity:1;fill-rule:nonzero;stroke:none;stroke-width:0.2;stroke-miterlimit:4;stroke-dasharray:none"
       id="path3674"
       d="m 320.95803,309.09715 c 7.13789,0.64573 14.25423,1.59911 21.37192,2.5069 2.43897,0.26104 4.8773,0.53111 7.31692,0.78311 2.76876,0.28601 5.53639,0.59142 8.30813,0.83091 6.93102,0.59889 12.45268,0.93143 19.44423,1.11411 8.1975,0.21419 14.3737,0.10737 22.60336,0.0564 3.35535,-0.0703 6.71054,-0.15302 10.06605,-0.21079 6.12076,-0.10536 15.72821,-0.24354 21.95835,-0.19106 5.19497,0.0438 9.8608,0.1689 14.99586,0.55909 1.38389,0.10515 2.76311,0.28709 4.14467,0.43064 2.19828,0.42674 4.5544,0.0114 3.44467,3.68647 -0.10774,0.35679 -0.4889,0.47437 -0.74596,0.69038 -1.46706,1.23276 -0.18546,0.017 -1.15554,0.9615 -0.0242,0.0615 -0.0484,0.12302 -0.0725,0.18453 -0.051,0.17255 -2.05675,-0.70472 -2.00576,-0.87728 l 0,0 c 0.11722,-0.33339 0.23443,-0.66678 0.35166,-1.00017 0.68416,-0.87891 0.52965,-0.83163 1.41693,-1.37944 0.22577,-0.1394 0.5088,-0.55486 0.70132,-0.35482 1.69056,1.75663 -0.0613,2.0407 -0.92271,2.41139 -1.28978,0.24489 -2.57497,0.52877 -3.86936,0.73466 -8.24976,1.31219 -16.56458,1.89103 -24.87402,2.27198 -3.83637,0.17588 -7.67424,0.31694 -11.51293,0.38419 -4.57422,0.0801 -9.14932,0.0386 -13.72398,0.0579 -3.8754,-0.0837 -7.75216,-0.10039 -11.62619,-0.25109 -15.3858,-0.59851 -30.75389,-2.33422 -45.90683,-5.67629 -4.94161,-1.08749 -6.07108,-1.29877 -10.76352,-2.46148 -2.88647,-0.71522 -5.81103,-1.41783 -8.64336,-2.42069 -0.38268,-0.1355 -0.75608,-0.30713 -1.13413,-0.46069 -0.13834,-0.0716 0.69442,-2.45203 0.83276,-2.38039 z" />
    <path
       style="fill:#90682d;fill-opacity:1;fill-rule:nonzero;stroke:none;stroke-width:0.2;stroke-miterlimit:4;stroke-dasharray:none"
       id="path3676"
       d="m 359.92117,381.07896 c 0.0722,-0.32293 0.11434,-0.65815 0.2167,-0.9688 0.58454,-1.77394 1.7593,-3.84705 2.66308,-5.34695 1.5985,-2.65288 2.8016,-4.35905 4.56419,-6.98148 6.63448,-9.50531 13.56736,-18.69632 20.67994,-27.67391 2.56994,-3.24382 5.1433,-6.48475 7.7752,-9.6542 2.86611,-3.45147 5.81137,-6.80428 8.71705,-10.20642 7.24207,-7.66243 11.49463,-12.59926 19.41198,-19.23573 6.88629,-5.7722 13.56308,-10.30077 21.29377,-14.18044 8.91105,-4.47203 11.81378,-4.86144 20.93575,-7.47839 6.71698,-0.9924 8.69448,-1.68042 15.05886,-1.32893 1.53575,0.0848 5.502,0.17277 7.25968,1.81698 0.38074,0.35616 0.4867,1.00751 0.73004,1.51126 0.0773,0.16182 -1.80361,1.49242 -1.88094,1.3306 l 0,0 c -0.0352,1.06265 0.069,0.14968 -1.9296,0.35455 -0.92074,0.0944 -1.83701,0.2466 -2.75295,0.39481 -7.57932,1.2265 -5.08658,0.81198 -13.63778,2.91555 -7.8557,2.6031 -11.93519,3.64463 -19.60514,7.5267 -3.48804,1.76544 -6.91935,3.71999 -10.23242,5.92865 -10.61375,7.07568 -19.88278,16.56266 -29.01692,26.11251 -2.98545,3.25201 -5.99251,6.4749 -8.95635,9.75603 -2.74841,3.04263 -5.44639,6.15203 -8.17979,9.2146 -2.43736,2.73089 -4.90122,5.42672 -7.33243,8.16571 -5.11955,5.76767 -10.12244,11.68738 -15.28387,17.40029 -2.96944,3.52025 -6.0466,6.96226 -8.52614,11.0285 -0.0233,0.16964 -1.99525,-0.23185 -1.97191,-0.40149 z" />
    <text
       xml:space="preserve"
       style="font-size:200px;font-style:normal;font-weight:normal;line-height:125%;fill:#000000;fill-opacity:1;stroke:none;font-family:Bitstream Vera Sans"
       x="34.88372"
       y="452.36218"
       id="text3696"
       sodipodi:linespacing="125%"><tspan
         sodipodi:role="line"
         id="tspan3698"
         x="34.88372"
         y="452.36218"
         style="font-size:200px;font-style:normal;font-variant:normal;font-weight:bold;font-stretch:normal;text-align:start;line-height:125%;writing-mode:lr-tb;text-anchor:start;font-family:Berlin Sans FB Demi;-inkscape-font-specification:Berlin Sans FB Demi Bold">CO   CH</tspan><tspan
         sodipodi:role="line"
         x="34.88372"
         y="702.36218"
         id="tspan3700"
         style="font-size:200px;font-style:normal;font-variant:normal;font-weight:bold;font-stretch:normal;text-align:start;line-height:125%;writing-mode:lr-tb;text-anchor:start;font-family:Berlin Sans FB Demi;-inkscape-font-specification:Berlin Sans FB Demi Bold">SURFING</tspan></text>
  </g>
</svg>
