<?xml version="1.0" encoding="UTF-8" standalone="no"?>
<!-- Created with Inkscape (http://www.inkscape.org/) -->
<svg
   xmlns:dc="http://purl.org/dc/elements/1.1/"
   xmlns:cc="http://creativecommons.org/ns#"
   xmlns:rdf="http://www.w3.org/1999/02/22-rdf-syntax-ns#"
   xmlns:svg="http://www.w3.org/2000/svg"
   xmlns="http://www.w3.org/2000/svg"
   xmlns:sodipodi="http://sodipodi.sourceforge.net/DTD/sodipodi-0.dtd"
   xmlns:inkscape="http://www.inkscape.org/namespaces/inkscape"
   version="1.0"
   width="744.09448"
   height="1052.3622"
   id="svg2"
   sodipodi:version="0.32"
   inkscape:version="0.46"
   sodipodi:docname="interactingregions.svg"
   inkscape:output_extension="org.inkscape.output.svg.inkscape">
  <metadata
     id="metadata135">
    <rdf:RDF>
      <cc:Work
         rdf:about="">
        <dc:format>image/svg+xml</dc:format>
        <dc:type
           rdf:resource="http://purl.org/dc/dcmitype/StillImage" />
      </cc:Work>
    </rdf:RDF>
  </metadata>
  <sodipodi:namedview
     inkscape:window-height="816"
     inkscape:window-width="1432"
     inkscape:pageshadow="2"
     inkscape:pageopacity="0.0"
     guidetolerance="10.0"
     gridtolerance="10.0"
     objecttolerance="10.0"
     borderopacity="1.0"
     bordercolor="#666666"
     pagecolor="#ffffff"
     id="base"
     showgrid="false"
     inkscape:zoom="0.93884027"
     inkscape:cx="329.25382"
     inkscape:cy="472.48133"
     inkscape:window-x="0"
     inkscape:window-y="0"
     inkscape:current-layer="svg2" />
  <defs
     id="defs4">
    <inkscape:perspective
       sodipodi:type="inkscape:persp3d"
       inkscape:vp_x="0 : 526.18109 : 1"
       inkscape:vp_y="0 : 1000 : 0"
       inkscape:vp_z="744.09448 : 526.18109 : 1"
       inkscape:persp3d-origin="372.04724 : 350.78739 : 1"
       id="perspective137" />
    <linearGradient
       id="linearGradient3683">
      <stop
         id="stop3685"
         style="stop-color:#949494;stop-opacity:1"
         offset="0" />
      <stop
         id="stop3687"
         style="stop-color:#ffffff;stop-opacity:0"
         offset="1" />
    </linearGradient>
    <marker
       refX="0"
       refY="0"
       orient="auto"
       id="TriangleInL"
       style="overflow:visible">
      <path
         d="M 5.77,0 L -2.88,5 L -2.88,-5 L 5.77,0 z"
         transform="scale(-0.8,-0.8)"
         id="path3768"
         style="fill-rule:evenodd;stroke:#000000;stroke-width:1pt;marker-start:none" />
    </marker>
    <marker
       refX="0"
       refY="0"
       orient="auto"
       id="TriangleOutL"
       style="overflow:visible">
      <path
         d="M 5.77,0 L -2.88,5 L -2.88,-5 L 5.77,0 z"
         transform="scale(0.8,0.8)"
         id="path3777"
         style="fill-rule:evenodd;stroke:#000000;stroke-width:1pt;marker-start:none" />
    </marker>
    <marker
       refX="0"
       refY="0"
       orient="auto"
       id="DotL"
       style="overflow:visible">
      <path
         d="M -2.5,-1 C -2.5,1.76 -4.74,4 -7.5,4 C -10.26,4 -12.5,1.76 -12.5,-1 C -12.5,-3.76 -10.26,-6 -7.5,-6 C -4.74,-6 -2.5,-3.76 -2.5,-1 z"
         transform="matrix(0.8,0,0,0.8,5.92,0.8)"
         id="path3696"
         style="fill-rule:evenodd;stroke:#000000;stroke-width:1pt;marker-start:none;marker-end:none" />
    </marker>
    <marker
       refX="0"
       refY="0"
       orient="auto"
       id="Arrow2Mend"
       style="overflow:visible">
      <path
         d="M 8.7185878,4.0337352 L -2.2072895,0.016013256 L 8.7185884,-4.0017078 C 6.97309,-1.6296469 6.9831476,1.6157441 8.7185878,4.0337352 z"
         transform="scale(-0.6,-0.6)"
         id="path3661"
         style="font-size:12px;fill-rule:evenodd;stroke-width:0.625;stroke-linejoin:round" />
    </marker>
    <marker
       refX="0"
       refY="0"
       orient="auto"
       id="Arrow2Lend"
       style="overflow:visible">
      <path
         d="M 8.7185878,4.0337352 L -2.2072895,0.016013256 L 8.7185884,-4.0017078 C 6.97309,-1.6296469 6.9831476,1.6157441 8.7185878,4.0337352 z"
         transform="matrix(-1.1,0,0,-1.1,-1.1,0)"
         id="path3655"
         style="font-size:12px;fill-rule:evenodd;stroke-width:0.625;stroke-linejoin:round" />
    </marker>
    <marker
       refX="0"
       refY="0"
       orient="auto"
       id="Tail"
       style="overflow:visible">
      <g
         transform="scale(-1.2,-1.2)"
         id="g3670">
        <path
           d="M -3.8048674,-3.9585227 L 0.54352094,0"
           id="path3672"
           style="fill:none;fill-rule:evenodd;stroke:#000000;stroke-width:0.80000001;stroke-linecap:round;marker-start:none;marker-end:none" />
        <path
           d="M -1.2866832,-3.9585227 L 3.0617053,0"
           id="path3674"
           style="fill:none;fill-rule:evenodd;stroke:#000000;stroke-width:0.80000001;stroke-linecap:round;marker-start:none;marker-end:none" />
        <path
           d="M 1.3053582,-3.9585227 L 5.6537466,0"
           id="path3676"
           style="fill:none;fill-rule:evenodd;stroke:#000000;stroke-width:0.80000001;stroke-linecap:round;marker-start:none;marker-end:none" />
        <path
           d="M -3.8048674,4.1775838 L 0.54352094,0.21974226"
           id="path3678"
           style="fill:none;fill-rule:evenodd;stroke:#000000;stroke-width:0.80000001;stroke-linecap:round;marker-start:none;marker-end:none" />
        <path
           d="M -1.2866832,4.1775838 L 3.0617053,0.21974226"
           id="path3680"
           style="fill:none;fill-rule:evenodd;stroke:#000000;stroke-width:0.80000001;stroke-linecap:round;marker-start:none;marker-end:none" />
        <path
           d="M 1.3053582,4.1775838 L 5.6537466,0.21974226"
           id="path3682"
           style="fill:none;fill-rule:evenodd;stroke:#000000;stroke-width:0.80000001;stroke-linecap:round;marker-start:none;marker-end:none" />
      </g>
    </marker>
    <marker
       refX="0"
       refY="0"
       orient="auto"
       id="Arrow1Lend"
       style="overflow:visible">
      <path
         d="M 0,0 L 5,-5 L -12.5,0 L 5,5 L 0,0 z"
         transform="matrix(-0.8,0,0,-0.8,-10,0)"
         id="path3637"
         style="fill-rule:evenodd;stroke:#000000;stroke-width:1pt;marker-start:none" />
    </marker>
  </defs>
  <text
     xml:space="preserve"
     style="font-size:19px;font-style:normal;font-weight:normal;fill:#000000;fill-opacity:1;stroke:none;stroke-width:1px;stroke-linecap:butt;stroke-linejoin:miter;stroke-opacity:1;font-family:Bitstream Vera Sans"
     x="107.79853"
     y="761.32843"
     id="text2681"><tspan
       sodipodi:role="line"
       id="tspan2683"
       x="107.79853"
       y="761.32843">Area of Interest</tspan><tspan
       sodipodi:role="line"
       x="107.79853"
       y="785.07843"
       id="tspan2685">of player A</tspan></text>
  <g
     id="g10564"
     transform="matrix(0.6069256,0,0,0.6069256,107.10898,144.46045)">
    <g
       id="g10566"
       transform="translate(-8.5714286,87.142857)">
      <path
         style="fill:#999999;fill-opacity:1;stroke:none;stroke-width:0.45456862;stroke-miterlimit:4;stroke-dasharray:none;stroke-dashoffset:0;stroke-opacity:1"
         id="path10568"
         d="M 238.33111,345.75635 C 257.56012,334.80531 275.87896,324.40705 279.03963,322.64911 L 284.78628,319.45286 L 338.0826,319.45286 L 391.37893,319.45286 L 369.3947,331.93668 C 357.30335,338.8028 339.01043,349.20106 328.74376,355.04393 L 310.07711,365.66733 L 256.72317,365.66733 L 203.36927,365.66733 L 238.33111,345.75635 z" />
      <path
         style="fill:#999999;fill-opacity:1;stroke:#999999;stroke-width:0.11841249;stroke-miterlimit:4;stroke-dasharray:none;stroke-dashoffset:0;stroke-opacity:1"
         id="path10570"
         d="M 233.64177,358.08443 L 233.67492,348.48957 L 254.73642,335.97529 C 266.32023,329.09244 277.34365,322.55846 279.23288,321.45535 L 282.66786,319.44967 L 335.65342,319.48333 L 388.63896,319.51698 L 384.54914,321.95027 C 382.29973,323.28858 370.80719,330.1229 359.01018,337.13765 C 347.21315,344.1524 330.83942,353.89393 322.62408,358.78551 L 307.68711,367.6793 L 270.64786,367.6793 L 233.6086,367.6793 L 233.64177,358.08443 z" />
      <rect
         style="fill:#999999;fill-opacity:1;fill-rule:evenodd;stroke:#000000;stroke-width:0.83962035px;stroke-linecap:butt;stroke-linejoin:miter;stroke-opacity:1"
         id="rect10572"
         y="365.7175"
         x="203.69934"
         height="131.31982"
         width="106.81792" />
      <path
         style="fill:none;fill-rule:evenodd;stroke:#000000;stroke-width:0.83484888px;stroke-linecap:butt;stroke-linejoin:miter;stroke-opacity:1"
         id="path10574"
         d="M 257.28372,365.57173 C 257.28372,495.86384 257.28372,496.92313 257.28372,496.92313" />
      <path
         style="fill:none;fill-rule:evenodd;stroke:#000000;stroke-width:1.00615406px;stroke-linecap:butt;stroke-linejoin:miter;stroke-opacity:1"
         id="path10576"
         d="M 203.06943,365.50812 C 284.1944,318.6706 284.63978,318.79383 284.63978,318.79383" />
      <path
         style="fill:#999999;fill-opacity:1;stroke:#999999;stroke-width:0.45830086;stroke-miterlimit:4;stroke-dasharray:none;stroke-dashoffset:0;stroke-opacity:1"
         id="path10578"
         d="M 311.15877,430.78774 L 311.15877,365.34776 L 331.87076,353.40125 C 373.579,329.34427 389.70056,320.08921 390.32176,319.84574 C 390.828,319.6473 390.95711,332.91033 390.95711,385.12817 L 390.95711,450.65962 L 388.28869,452.11234 C 386.82106,452.91132 368.96697,463.16413 348.61296,474.89636 C 328.25893,486.62858 311.50511,496.22769 311.38221,496.22769 C 311.25933,496.22769 311.15877,466.77971 311.15877,430.78773 L 311.15877,430.78774 z" />
      <path
         style="fill:none;fill-rule:evenodd;stroke:#000000;stroke-width:1.01230812px;stroke-linecap:butt;stroke-linejoin:miter;stroke-opacity:1"
         id="path10580"
         d="M 309.64379,365.79692 C 391.26496,318.67292 391.71306,318.79691 391.71306,318.79691" />
      <path
         style="fill:none;fill-rule:evenodd;stroke:#000000;stroke-width:1px;stroke-linecap:butt;stroke-linejoin:miter;stroke-opacity:1"
         id="path10582"
         d="M 310.14271,497.07632 C 390.77148,450.52528 391.21414,450.64775 391.21414,450.64775" />
      <path
         style="fill:none;fill-rule:evenodd;stroke:#000000;stroke-width:0.89999998;stroke-linecap:butt;stroke-linejoin:miter;stroke-miterlimit:4;stroke-dasharray:none;stroke-opacity:1"
         id="path10584"
         d="M 284.14287,318.87878 C 391.28573,318.87878 391.64287,318.87878 391.64287,318.87878" />
      <path
         style="fill:none;fill-rule:evenodd;stroke:#000000;stroke-width:0.83681208px;stroke-linecap:butt;stroke-linejoin:miter;stroke-opacity:1"
         id="path10586"
         d="M 391.12893,318.79536 C 391.12893,449.70097 391.12893,450.76525 391.12893,450.76525" />
    </g>
    <g
       id="g10588"
       transform="matrix(1.6208173,0,0,1.4383491,16.320392,-3.3140145e-2)">
      <rect
         style="fill:#000000;fill-opacity:1;fill-rule:evenodd;stroke:#ffffff;stroke-width:0.50825578;stroke-linecap:butt;stroke-linejoin:miter;stroke-miterlimit:4;stroke-dasharray:none;stroke-opacity:1"
         id="rect10590"
         y="318.89517"
         x="112.89534"
         height="9.4390364"
         width="29.406229" />
      <rect
         style="fill:#000000;fill-opacity:1;fill-rule:evenodd;stroke:#ffffff;stroke-width:0.50825578;stroke-linecap:butt;stroke-linejoin:miter;stroke-miterlimit:4;stroke-dasharray:none;stroke-opacity:1"
         id="rect10592"
         y="330.33093"
         x="112.89534"
         height="9.4390364"
         width="29.406229" />
      <rect
         style="fill:#000000;fill-opacity:1;fill-rule:evenodd;stroke:#ffffff;stroke-width:0.50825578;stroke-linecap:butt;stroke-linejoin:miter;stroke-miterlimit:4;stroke-dasharray:none;stroke-opacity:1"
         id="rect10594"
         y="341.76669"
         x="112.89534"
         height="9.4390364"
         width="29.406229" />
      <rect
         style="fill:#000000;fill-opacity:1;fill-rule:evenodd;stroke:#ffffff;stroke-width:0.50825578;stroke-linecap:butt;stroke-linejoin:miter;stroke-miterlimit:4;stroke-dasharray:none;stroke-opacity:1"
         id="rect10596"
         y="357.19589"
         x="130.82951"
         height="45.924541"
         width="11.072716" />
      <g
         id="g10598"
         transform="matrix(0.2541279,0,0,0.2541279,100.33416,244.34367)">
        <path
           style="fill:#000000;fill-opacity:1;stroke:#ffffff;stroke-width:2;stroke-miterlimit:4;stroke-dasharray:none;stroke-dashoffset:0;stroke-opacity:1"
           id="path10600"
           d="M 97.142856,522.00507 C 97.142856,530.48659 90.267229,537.36221 81.785713,537.36221 C 73.304198,537.36221 66.428571,530.48659 66.428571,522.00507 C 66.428571,513.52355 73.304198,506.64793 81.785714,506.64793 C 90.267229,506.64793 97.142856,513.52355 97.142856,522.00507 z" />
        <path
           style="fill:#000000;fill-opacity:1;stroke:#ffffff;stroke-width:2;stroke-miterlimit:4;stroke-dasharray:none;stroke-dashoffset:0;stroke-opacity:1"
           id="path10602"
           transform="translate(0,-10)"
           d="M 87.857142,567.00507 C 87.857142,570.35823 85.138871,573.0765 81.785713,573.0765 C 78.432555,573.0765 75.714284,570.35823 75.714284,567.00507 C 75.714284,563.65191 78.432555,560.93364 81.785713,560.93364 C 85.138871,560.93364 87.857142,563.65191 87.857142,567.00507 z" />
      </g>
    </g>
    <g
       id="g10604"
       transform="matrix(-1.6208173,0,0,-1.4383491,481.94796,1038.4774)">
      <rect
         style="fill:#000000;fill-opacity:1;fill-rule:evenodd;stroke:#ffffff;stroke-width:0.50825578;stroke-linecap:butt;stroke-linejoin:miter;stroke-miterlimit:4;stroke-dasharray:none;stroke-opacity:1"
         id="rect10606"
         y="318.89517"
         x="112.89534"
         height="9.4390364"
         width="29.406229" />
      <rect
         style="fill:#000000;fill-opacity:1;fill-rule:evenodd;stroke:#ffffff;stroke-width:0.50825578;stroke-linecap:butt;stroke-linejoin:miter;stroke-miterlimit:4;stroke-dasharray:none;stroke-opacity:1"
         id="rect10608"
         y="330.33093"
         x="112.89534"
         height="9.4390364"
         width="29.406229" />
      <rect
         style="fill:#000000;fill-opacity:1;fill-rule:evenodd;stroke:#ffffff;stroke-width:0.50825578;stroke-linecap:butt;stroke-linejoin:miter;stroke-miterlimit:4;stroke-dasharray:none;stroke-opacity:1"
         id="rect10610"
         y="341.76669"
         x="112.89534"
         height="9.4390364"
         width="29.406229" />
      <rect
         style="fill:#000000;fill-opacity:1;fill-rule:evenodd;stroke:#ffffff;stroke-width:0.50825578;stroke-linecap:butt;stroke-linejoin:miter;stroke-miterlimit:4;stroke-dasharray:none;stroke-opacity:1"
         id="rect10612"
         y="357.19589"
         x="130.82951"
         height="45.924541"
         width="11.072716" />
      <g
         id="g10614"
         transform="matrix(0.2541279,0,0,0.2541279,100.33416,244.34367)">
        <path
           style="fill:#000000;fill-opacity:1;stroke:#ffffff;stroke-width:2;stroke-miterlimit:4;stroke-dasharray:none;stroke-dashoffset:0;stroke-opacity:1"
           id="path10616"
           d="M 97.142856,522.00507 C 97.142856,530.48659 90.267229,537.36221 81.785713,537.36221 C 73.304198,537.36221 66.428571,530.48659 66.428571,522.00507 C 66.428571,513.52355 73.304198,506.64793 81.785714,506.64793 C 90.267229,506.64793 97.142856,513.52355 97.142856,522.00507 z" />
        <path
           style="fill:#000000;fill-opacity:1;stroke:#ffffff;stroke-width:2;stroke-miterlimit:4;stroke-dasharray:none;stroke-dashoffset:0;stroke-opacity:1"
           id="path10618"
           transform="translate(0,-10)"
           d="M 87.857142,567.00507 C 87.857142,570.35823 85.138871,573.0765 81.785713,573.0765 C 78.432555,573.0765 75.714284,570.35823 75.714284,567.00507 C 75.714284,563.65191 78.432555,560.93364 81.785713,560.93364 C 85.138871,560.93364 87.857142,563.65191 87.857142,567.00507 z" />
      </g>
    </g>
  </g>
  <path
     style="fill:none;fill-opacity:1;stroke:#000000;stroke-width:2;stroke-miterlimit:4;stroke-dasharray:none;stroke-dashoffset:0;stroke-opacity:0.96078431"
     id="path3681"
     d="M 479.81876,661.72559 C 479.81876,730.17148 424.3324,785.65785 355.88652,785.65785 C 287.44063,785.65785 231.95427,730.17148 231.95427,661.72559 C 231.95427,593.2797 287.44063,537.79335 355.88652,537.79335 C 424.3324,537.79335 479.81876,593.2797 479.81876,661.72559 z" />
  <g
     id="g10550"
     transform="matrix(1.650302,0,0,1.650302,200.15131,-734.51964)">
    <path
       style="fill:none;fill-opacity:1;fill-rule:evenodd;stroke:#000000;stroke-width:10.7881031;stroke-miterlimit:4;stroke-dasharray:none;stroke-dashoffset:0;stroke-opacity:1"
       id="path10552"
       transform="matrix(0.1853894,0,0,0.1853894,76.917801,818.86541)"
       d="M 132.85714,59.505039 C 132.86308,80.811652 115.59233,98.087226 94.285712,98.087226 C 72.979098,98.087226 55.708341,80.811652 55.714283,59.505039 C 55.708341,38.198426 72.979098,20.922852 94.285712,20.922852 C 115.59233,20.922852 132.86308,38.198426 132.85714,59.505039 L 132.85714,59.505039 z" />
    <path
       style="fill:none;fill-rule:evenodd;stroke:#000000;stroke-width:2;stroke-linecap:round;stroke-linejoin:miter;stroke-miterlimit:4;stroke-dasharray:none;stroke-opacity:1"
       id="path10554"
       d="M 94.397373,838.15537 C 94.397373,860.04262 94.397373,860.04262 94.397373,860.04262 L 94.397373,860.04262" />
    <path
       style="fill:none;fill-rule:evenodd;stroke:#000000;stroke-width:2;stroke-linecap:round;stroke-linejoin:miter;stroke-miterlimit:4;stroke-dasharray:none;stroke-opacity:1"
       id="path10556"
       d="M 94.511385,840.69767 L 104.81132,849.87398" />
    <path
       style="fill:none;fill-rule:evenodd;stroke:#000000;stroke-width:2;stroke-linecap:round;stroke-linejoin:miter;stroke-miterlimit:4;stroke-dasharray:none;stroke-opacity:1"
       id="path10558"
       d="M 94.676665,860.18617 L 104.9766,869.36248" />
    <path
       style="fill:none;fill-rule:evenodd;stroke:#000000;stroke-width:2;stroke-linecap:round;stroke-linejoin:miter;stroke-miterlimit:4;stroke-dasharray:none;stroke-opacity:1"
       id="path10560"
       d="M 94.224016,840.69767 L 83.924078,849.87398" />
    <path
       style="fill:none;fill-rule:evenodd;stroke:#000000;stroke-width:2;stroke-linecap:round;stroke-linejoin:miter;stroke-miterlimit:4;stroke-dasharray:none;stroke-opacity:1"
       id="path10562"
       d="M 94.058736,860.18617 L 83.758799,869.36248" />
  </g>
  <text
     style="font-size:60.04455185px;font-style:normal;font-weight:normal;text-align:center;text-anchor:middle;fill:#000000;fill-opacity:1;stroke:none;stroke-width:1px;stroke-linecap:butt;stroke-linejoin:miter;stroke-opacity:1;font-family:Bitstream Vera Sans"
     xml:space="preserve"
     id="text10652"
     y="719.88373"
     x="355.77621"><tspan
       style="font-size:23.10422707px;text-align:center;text-anchor:middle"
       id="tspan10654"
       y="719.88373"
       x="355.77621">A</tspan></text>
  <text
     style="font-size:60.04455185px;font-style:normal;font-weight:normal;fill:#000000;fill-opacity:1;stroke:none;stroke-width:1px;stroke-linecap:butt;stroke-linejoin:miter;stroke-opacity:1;font-family:Bitstream Vera Sans"
     xml:space="preserve"
     id="text10660"
     y="523.00024"
     x="217.11145"><tspan
       style="font-size:23.10422707px"
       id="tspan10662"
       y="523.00024"
       x="217.11145">Server 1</tspan></text>
  <g
     id="g10676"
     transform="matrix(0.6069256,0,0,0.6069256,341.45186,144.46045)">
    <g
       id="g10678"
       transform="translate(-8.5714286,87.142857)">
      <path
         style="fill:#999999;fill-opacity:1;stroke:none;stroke-width:0.45456862;stroke-miterlimit:4;stroke-dasharray:none;stroke-dashoffset:0;stroke-opacity:1"
         id="path10680"
         d="M 238.33111,345.75635 C 257.56012,334.80531 275.87896,324.40705 279.03963,322.64911 L 284.78628,319.45286 L 338.0826,319.45286 L 391.37893,319.45286 L 369.3947,331.93668 C 357.30335,338.8028 339.01043,349.20106 328.74376,355.04393 L 310.07711,365.66733 L 256.72317,365.66733 L 203.36927,365.66733 L 238.33111,345.75635 z" />
      <path
         style="fill:#999999;fill-opacity:1;stroke:#999999;stroke-width:0.11841249;stroke-miterlimit:4;stroke-dasharray:none;stroke-dashoffset:0;stroke-opacity:1"
         id="path10682"
         d="M 233.64177,358.08443 L 233.67492,348.48957 L 254.73642,335.97529 C 266.32023,329.09244 277.34365,322.55846 279.23288,321.45535 L 282.66786,319.44967 L 335.65342,319.48333 L 388.63896,319.51698 L 384.54914,321.95027 C 382.29973,323.28858 370.80719,330.1229 359.01018,337.13765 C 347.21315,344.1524 330.83942,353.89393 322.62408,358.78551 L 307.68711,367.6793 L 270.64786,367.6793 L 233.6086,367.6793 L 233.64177,358.08443 z" />
      <rect
         style="fill:#999999;fill-opacity:1;fill-rule:evenodd;stroke:#000000;stroke-width:0.83962035px;stroke-linecap:butt;stroke-linejoin:miter;stroke-opacity:1"
         id="rect10684"
         y="365.7175"
         x="203.69934"
         height="131.31982"
         width="106.81792" />
      <path
         style="fill:none;fill-rule:evenodd;stroke:#000000;stroke-width:0.83484888px;stroke-linecap:butt;stroke-linejoin:miter;stroke-opacity:1"
         id="path10686"
         d="M 257.28372,365.57173 C 257.28372,495.86384 257.28372,496.92313 257.28372,496.92313" />
      <path
         style="fill:none;fill-rule:evenodd;stroke:#000000;stroke-width:1.00615406px;stroke-linecap:butt;stroke-linejoin:miter;stroke-opacity:1"
         id="path10688"
         d="M 203.06943,365.50812 C 284.1944,318.6706 284.63978,318.79383 284.63978,318.79383" />
      <path
         style="fill:#999999;fill-opacity:1;stroke:#999999;stroke-width:0.45830086;stroke-miterlimit:4;stroke-dasharray:none;stroke-dashoffset:0;stroke-opacity:1"
         id="path10690"
         d="M 311.15877,430.78774 L 311.15877,365.34776 L 331.87076,353.40125 C 373.579,329.34427 389.70056,320.08921 390.32176,319.84574 C 390.828,319.6473 390.95711,332.91033 390.95711,385.12817 L 390.95711,450.65962 L 388.28869,452.11234 C 386.82106,452.91132 368.96697,463.16413 348.61296,474.89636 C 328.25893,486.62858 311.50511,496.22769 311.38221,496.22769 C 311.25933,496.22769 311.15877,466.77971 311.15877,430.78773 L 311.15877,430.78774 z" />
      <path
         style="fill:none;fill-rule:evenodd;stroke:#000000;stroke-width:1.01230812px;stroke-linecap:butt;stroke-linejoin:miter;stroke-opacity:1"
         id="path10692"
         d="M 309.64379,365.79692 C 391.26496,318.67292 391.71306,318.79691 391.71306,318.79691" />
      <path
         style="fill:none;fill-rule:evenodd;stroke:#000000;stroke-width:1px;stroke-linecap:butt;stroke-linejoin:miter;stroke-opacity:1"
         id="path10694"
         d="M 310.14271,497.07632 C 390.77148,450.52528 391.21414,450.64775 391.21414,450.64775" />
      <path
         style="fill:none;fill-rule:evenodd;stroke:#000000;stroke-width:0.89999998;stroke-linecap:butt;stroke-linejoin:miter;stroke-miterlimit:4;stroke-dasharray:none;stroke-opacity:1"
         id="path10696"
         d="M 284.14287,318.87878 C 391.28573,318.87878 391.64287,318.87878 391.64287,318.87878" />
      <path
         style="fill:none;fill-rule:evenodd;stroke:#000000;stroke-width:0.83681208px;stroke-linecap:butt;stroke-linejoin:miter;stroke-opacity:1"
         id="path10698"
         d="M 391.12893,318.79536 C 391.12893,449.70097 391.12893,450.76525 391.12893,450.76525" />
    </g>
    <g
       id="g10700"
       transform="matrix(1.6208173,0,0,1.4383491,16.320392,-3.3140145e-2)">
      <rect
         style="fill:#000000;fill-opacity:1;fill-rule:evenodd;stroke:#ffffff;stroke-width:0.50825578;stroke-linecap:butt;stroke-linejoin:miter;stroke-miterlimit:4;stroke-dasharray:none;stroke-opacity:1"
         id="rect10702"
         y="318.89517"
         x="112.89534"
         height="9.4390364"
         width="29.406229" />
      <rect
         style="fill:#000000;fill-opacity:1;fill-rule:evenodd;stroke:#ffffff;stroke-width:0.50825578;stroke-linecap:butt;stroke-linejoin:miter;stroke-miterlimit:4;stroke-dasharray:none;stroke-opacity:1"
         id="rect10704"
         y="330.33093"
         x="112.89534"
         height="9.4390364"
         width="29.406229" />
      <rect
         style="fill:#000000;fill-opacity:1;fill-rule:evenodd;stroke:#ffffff;stroke-width:0.50825578;stroke-linecap:butt;stroke-linejoin:miter;stroke-miterlimit:4;stroke-dasharray:none;stroke-opacity:1"
         id="rect10706"
         y="341.76669"
         x="112.89534"
         height="9.4390364"
         width="29.406229" />
      <rect
         style="fill:#000000;fill-opacity:1;fill-rule:evenodd;stroke:#ffffff;stroke-width:0.50825578;stroke-linecap:butt;stroke-linejoin:miter;stroke-miterlimit:4;stroke-dasharray:none;stroke-opacity:1"
         id="rect10708"
         y="357.19589"
         x="130.82951"
         height="45.924541"
         width="11.072716" />
      <g
         id="g10710"
         transform="matrix(0.2541279,0,0,0.2541279,100.33416,244.34367)">
        <path
           style="fill:#000000;fill-opacity:1;stroke:#ffffff;stroke-width:2;stroke-miterlimit:4;stroke-dasharray:none;stroke-dashoffset:0;stroke-opacity:1"
           id="path10712"
           d="M 97.142856,522.00507 C 97.142856,530.48659 90.267229,537.36221 81.785713,537.36221 C 73.304198,537.36221 66.428571,530.48659 66.428571,522.00507 C 66.428571,513.52355 73.304198,506.64793 81.785714,506.64793 C 90.267229,506.64793 97.142856,513.52355 97.142856,522.00507 z" />
        <path
           style="fill:#000000;fill-opacity:1;stroke:#ffffff;stroke-width:2;stroke-miterlimit:4;stroke-dasharray:none;stroke-dashoffset:0;stroke-opacity:1"
           id="path10714"
           transform="translate(0,-10)"
           d="M 87.857142,567.00507 C 87.857142,570.35823 85.138871,573.0765 81.785713,573.0765 C 78.432555,573.0765 75.714284,570.35823 75.714284,567.00507 C 75.714284,563.65191 78.432555,560.93364 81.785713,560.93364 C 85.138871,560.93364 87.857142,563.65191 87.857142,567.00507 z" />
      </g>
    </g>
    <g
       id="g10716"
       transform="matrix(-1.6208173,0,0,-1.4383491,481.94796,1038.4774)">
      <rect
         style="fill:#000000;fill-opacity:1;fill-rule:evenodd;stroke:#ffffff;stroke-width:0.50825578;stroke-linecap:butt;stroke-linejoin:miter;stroke-miterlimit:4;stroke-dasharray:none;stroke-opacity:1"
         id="rect10718"
         y="318.89517"
         x="112.89534"
         height="9.4390364"
         width="29.406229" />
      <rect
         style="fill:#000000;fill-opacity:1;fill-rule:evenodd;stroke:#ffffff;stroke-width:0.50825578;stroke-linecap:butt;stroke-linejoin:miter;stroke-miterlimit:4;stroke-dasharray:none;stroke-opacity:1"
         id="rect10720"
         y="330.33093"
         x="112.89534"
         height="9.4390364"
         width="29.406229" />
      <rect
         style="fill:#000000;fill-opacity:1;fill-rule:evenodd;stroke:#ffffff;stroke-width:0.50825578;stroke-linecap:butt;stroke-linejoin:miter;stroke-miterlimit:4;stroke-dasharray:none;stroke-opacity:1"
         id="rect10722"
         y="341.76669"
         x="112.89534"
         height="9.4390364"
         width="29.406229" />
      <rect
         style="fill:#000000;fill-opacity:1;fill-rule:evenodd;stroke:#ffffff;stroke-width:0.50825578;stroke-linecap:butt;stroke-linejoin:miter;stroke-miterlimit:4;stroke-dasharray:none;stroke-opacity:1"
         id="rect10724"
         y="357.19589"
         x="130.82951"
         height="45.924541"
         width="11.072716" />
      <g
         id="g10726"
         transform="matrix(0.2541279,0,0,0.2541279,100.33416,244.34367)">
        <path
           style="fill:#000000;fill-opacity:1;stroke:#ffffff;stroke-width:2;stroke-miterlimit:4;stroke-dasharray:none;stroke-dashoffset:0;stroke-opacity:1"
           id="path10728"
           d="M 97.142856,522.00507 C 97.142856,530.48659 90.267229,537.36221 81.785713,537.36221 C 73.304198,537.36221 66.428571,530.48659 66.428571,522.00507 C 66.428571,513.52355 73.304198,506.64793 81.785714,506.64793 C 90.267229,506.64793 97.142856,513.52355 97.142856,522.00507 z" />
        <path
           style="fill:#000000;fill-opacity:1;stroke:#ffffff;stroke-width:2;stroke-miterlimit:4;stroke-dasharray:none;stroke-dashoffset:0;stroke-opacity:1"
           id="path10730"
           transform="translate(0,-10)"
           d="M 87.857142,567.00507 C 87.857142,570.35823 85.138871,573.0765 81.785713,573.0765 C 78.432555,573.0765 75.714284,570.35823 75.714284,567.00507 C 75.714284,563.65191 78.432555,560.93364 81.785713,560.93364 C 85.138871,560.93364 87.857142,563.65191 87.857142,567.00507 z" />
      </g>
    </g>
  </g>
  <text
     style="font-size:60.04455185px;font-style:normal;font-weight:normal;fill:#000000;fill-opacity:1;stroke:none;stroke-width:1px;stroke-linecap:butt;stroke-linejoin:miter;stroke-opacity:1;font-family:Bitstream Vera Sans"
     xml:space="preserve"
     id="text10732"
     y="523.00024"
     x="448.15372"><tspan
       style="font-size:23.10422707px"
       id="tspan10734"
       y="523.00024"
       x="448.15372">Server 2</tspan><tspan
       style="font-size:19.8036232px"
       id="tspan10736"
       y="551.88055"
       x="448.15372" /></text>
  <path
     style="fill:none;fill-rule:evenodd;stroke:#000000;stroke-width:2;stroke-linecap:butt;stroke-linejoin:miter;marker-end:url(#TriangleOutL);stroke-miterlimit:4;stroke-dasharray:none;stroke-opacity:1"
     id="path10738"
     d="M 345.6012,472.87863 L 445.21924,472.87863" />
  <path
     style="fill:none;fill-rule:evenodd;stroke:#000000;stroke-width:5.35373878;stroke-linecap:butt;stroke-linejoin:miter;stroke-miterlimit:4;stroke-dasharray:none;stroke-opacity:1"
     id="path3647"
     d="M 410.65388,357.65064 C 408.30192,374.29643 410.46957,390.35982 410.49657,413.07601 C 410.90585,431.85295 413.84775,455.8511 407.81551,476.28433 C 402.24205,499.05083 402.04184,514.10657 403.52603,538.27665 C 402.16789,556.91882 398.96857,575.23012 409.34777,591.42122 C 415.74935,615.34778 414.78234,638.11298 407.28863,659.16763 C 400.31408,676.72977 390.40764,689.85533 399.32869,706.88975 C 403.65955,722.05897 390.63078,748.24025 410.09853,754.47312 C 416.77731,773.08895 409.56638,780.19557 410.92,799.41607"
     sodipodi:nodetypes="ccccccccc" />
  <text
     style="font-size:30.63118362px;font-style:normal;font-weight:normal;fill:#000000;fill-opacity:1;stroke:none;stroke-width:1px;stroke-linecap:butt;stroke-linejoin:miter;stroke-opacity:1;font-family:Bitstream Vera Sans"
     xml:space="preserve"
     id="text3652"
     y="378.77536"
     x="197.88087"><tspan
       id="tspan3654"
       y="378.77536"
       x="197.88087">Region 1</tspan></text>
  <text
     style="font-size:30.63118362px;font-style:normal;font-weight:normal;fill:#000000;fill-opacity:1;stroke:none;stroke-width:1px;stroke-linecap:butt;stroke-linejoin:miter;stroke-opacity:1;font-family:Bitstream Vera Sans"
     xml:space="preserve"
     id="text3656"
     y="378.77536"
     x="477.88086"><tspan
       id="tspan3658"
       y="378.77536"
       x="477.88086">Region 2</tspan></text>
  <path
     style="fill:none;fill-opacity:1;stroke:#000000;stroke-width:2;stroke-miterlimit:4;stroke-dasharray:none;stroke-dashoffset:0;stroke-opacity:0.96078431"
     id="path3705"
     d="M 571.81876,661.72559 C 571.81876,730.17148 516.33241,785.65785 447.88652,785.65785 C 379.44063,785.65785 323.95428,730.17148 323.95428,661.72559 C 323.95428,593.2797 379.44063,537.79335 447.88652,537.79335 C 516.33241,537.79335 571.81876,593.2797 571.81876,661.72559 z" />
  <g
     id="g3707"
     transform="matrix(1.650302,0,0,1.650302,292.15131,-734.51964)">
    <path
       style="fill:none;fill-opacity:1;fill-rule:evenodd;stroke:#000000;stroke-width:10.7881031;stroke-miterlimit:4;stroke-dasharray:none;stroke-dashoffset:0;stroke-opacity:1"
       id="path3709"
       transform="matrix(0.1853894,0,0,0.1853894,76.917801,818.86541)"
       d="M 132.85714,59.505039 C 132.86308,80.811652 115.59233,98.087226 94.285712,98.087226 C 72.979098,98.087226 55.708341,80.811652 55.714283,59.505039 C 55.708341,38.198426 72.979098,20.922852 94.285712,20.922852 C 115.59233,20.922852 132.86308,38.198426 132.85714,59.505039 L 132.85714,59.505039 z" />
    <path
       style="fill:none;fill-rule:evenodd;stroke:#000000;stroke-width:2;stroke-linecap:round;stroke-linejoin:miter;stroke-miterlimit:4;stroke-dasharray:none;stroke-opacity:1"
       id="path3711"
       d="M 94.397373,838.15537 C 94.397373,860.04262 94.397373,860.04262 94.397373,860.04262 L 94.397373,860.04262" />
    <path
       style="fill:none;fill-rule:evenodd;stroke:#000000;stroke-width:2;stroke-linecap:round;stroke-linejoin:miter;stroke-miterlimit:4;stroke-dasharray:none;stroke-opacity:1"
       id="path3713"
       d="M 94.511385,840.69767 L 104.81132,849.87398" />
    <path
       style="fill:none;fill-rule:evenodd;stroke:#000000;stroke-width:2;stroke-linecap:round;stroke-linejoin:miter;stroke-miterlimit:4;stroke-dasharray:none;stroke-opacity:1"
       id="path3715"
       d="M 94.676665,860.18617 L 104.9766,869.36248" />
    <path
       style="fill:none;fill-rule:evenodd;stroke:#000000;stroke-width:2;stroke-linecap:round;stroke-linejoin:miter;stroke-miterlimit:4;stroke-dasharray:none;stroke-opacity:1"
       id="path3717"
       d="M 94.224016,840.69767 L 83.924078,849.87398" />
    <path
       style="fill:none;fill-rule:evenodd;stroke:#000000;stroke-width:2;stroke-linecap:round;stroke-linejoin:miter;stroke-miterlimit:4;stroke-dasharray:none;stroke-opacity:1"
       id="path3719"
       d="M 94.058736,860.18617 L 83.758799,869.36248" />
  </g>
  <text
     style="font-size:60.04455185px;font-style:normal;font-weight:normal;text-align:center;text-anchor:middle;fill:#000000;fill-opacity:1;stroke:none;stroke-width:1px;stroke-linecap:butt;stroke-linejoin:miter;stroke-opacity:1;font-family:Bitstream Vera Sans"
     xml:space="preserve"
     id="text3757"
     y="719.88373"
     x="447.77621"><tspan
       style="font-size:23.10422707px;text-align:center;text-anchor:middle"
       id="tspan3759"
       y="719.88373"
       x="447.77621">B</tspan></text>
  <path
     style="fill:none;fill-rule:evenodd;stroke:#000000;stroke-width:2;stroke-linecap:butt;stroke-linejoin:miter;marker-mid:none;marker-end:url(#TriangleOutL);stroke-miterlimit:4;stroke-dasharray:none;stroke-opacity:1"
     id="path10648"
     d="M 174.2051,655.19418 L 174.2051,470.16933 L 205.84674,470.16933" />
  <path
     style="fill:none;fill-rule:evenodd;stroke:#000000;stroke-width:2;stroke-linecap:butt;stroke-linejoin:miter;marker-end:none;stroke-miterlimit:4;stroke-dasharray:none;stroke-opacity:1"
     id="path3761"
     d="M 173.57296,654.33819 L 314.26443,654.33819" />
  <path
     style="fill:none;fill-rule:evenodd;stroke:#000000;stroke-width:2;stroke-linecap:butt;stroke-linejoin:miter;marker-mid:none;marker-end:none;stroke-miterlimit:4;stroke-dasharray:none;stroke-opacity:1"
     id="path4923"
     d="M 146.20511,683.39173 L 146.20511,452.40502 L 206.31138,452.40502" />
  <path
     style="fill:none;fill-rule:evenodd;stroke:#000000;stroke-width:2;stroke-linecap:butt;stroke-linejoin:miter;marker-end:url(#TriangleOutL);stroke-miterlimit:4;stroke-dasharray:none;stroke-opacity:1"
     id="path4925"
     d="M 145.57296,682.3231 L 303.94438,682.3231" />
  <path
     style="fill:none;fill-rule:evenodd;stroke:#000000;stroke-width:2;stroke-linecap:butt;stroke-linejoin:miter;marker-mid:none;marker-end:none;stroke-miterlimit:4;stroke-dasharray:none;stroke-opacity:1"
     id="path8356"
     d="M 625.7133,655.19418 L 625.7133,470.16933 L 594.07166,470.16933" />
  <path
     style="fill:none;fill-rule:evenodd;stroke:#000000;stroke-width:2;stroke-linecap:butt;stroke-linejoin:miter;marker-end:url(#TriangleOutL);stroke-miterlimit:4;stroke-dasharray:none;stroke-opacity:1"
     id="path8358"
     d="M 626.34543,654.33819 L 504.9216,654.33819" />
  <path
     style="fill:none;fill-rule:evenodd;stroke:#000000;stroke-width:2;stroke-linecap:butt;stroke-linejoin:miter;marker-mid:none;marker-end:url(#TriangleOutL);stroke-miterlimit:4;stroke-dasharray:none;stroke-opacity:1"
     id="path8360"
     d="M 653.71329,683.39173 L 653.71329,452.40502 L 593.60702,452.40502" />
  <path
     style="fill:none;fill-rule:evenodd;stroke:#000000;stroke-width:2;stroke-linecap:butt;stroke-linejoin:miter;marker-end:none;stroke-miterlimit:4;stroke-dasharray:none;stroke-opacity:1"
     id="path8362"
     d="M 654.34544,682.3231 L 495.97402,682.3231" />
  <path
     style="fill:none;fill-rule:evenodd;stroke:#000000;stroke-width:2;stroke-linecap:butt;stroke-linejoin:miter;marker-end:url(#TriangleOutL);stroke-miterlimit:4;stroke-dasharray:none;stroke-opacity:1"
     id="path11218"
     d="M 454.45124,450.87863 L 354.8332,450.87863" />
  <text
     style="font-size:40px;font-style:normal;font-weight:normal;fill:#000000;fill-opacity:1;stroke:none;stroke-width:1px;stroke-linecap:butt;stroke-linejoin:miter;stroke-opacity:1;font-family:Bitstream Vera Sans"
     xml:space="preserve"
     id="text11220"
     transform="matrix(0,-1,1,0,0,0)"
     y="404.0643"
     x="-390.39813"><tspan
       style="font-size:20px;text-align:center;text-anchor:middle"
       id="tspan11222"
       y="404.0643"
       x="-390.39813">Border</tspan></text>
  <text
     id="text2687"
     y="761.32843"
     x="692.17291"
     style="font-size:19px;font-style:normal;font-weight:normal;text-align:end;text-anchor:end;fill:#000000;fill-opacity:1;stroke:none;stroke-width:1px;stroke-linecap:butt;stroke-linejoin:miter;stroke-opacity:1;font-family:Bitstream Vera Sans"
     xml:space="preserve"><tspan
       y="761.32843"
       x="692.17291"
       id="tspan2689"
       sodipodi:role="line">Area of Interest</tspan><tspan
       id="tspan2691"
       y="785.07843"
       x="692.17291"
       sodipodi:role="line">of player B</tspan></text>
</svg>
