<?xml version="1.0" encoding="UTF-8" standalone="no"?>
<!-- Created with Inkscape (http://www.inkscape.org/) -->

<svg
   xmlns:dc="http://purl.org/dc/elements/1.1/"
   xmlns:cc="http://creativecommons.org/ns#"
   xmlns:rdf="http://www.w3.org/1999/02/22-rdf-syntax-ns#"
   xmlns:svg="http://www.w3.org/2000/svg"
   xmlns="http://www.w3.org/2000/svg"
   xmlns:sodipodi="http://sodipodi.sourceforge.net/DTD/sodipodi-0.dtd"
   xmlns:inkscape="http://www.inkscape.org/namespaces/inkscape"
   width="210mm"
   height="297mm"
   id="svg2"
   version="1.1"
   inkscape:version="0.47 r22583"
   sodipodi:docname="cuia3.svg">
  <defs
     id="defs4">
    <inkscape:perspective
       sodipodi:type="inkscape:persp3d"
       inkscape:vp_x="0 : 526.18109 : 1"
       inkscape:vp_y="0 : 1000 : 0"
       inkscape:vp_z="744.09448 : 526.18109 : 1"
       inkscape:persp3d-origin="372.04724 : 350.78739 : 1"
       id="perspective10" />
  </defs>
  <sodipodi:namedview
     id="base"
     pagecolor="#ffffff"
     bordercolor="#666666"
     borderopacity="1.0"
     inkscape:pageopacity="0.0"
     inkscape:pageshadow="2"
     inkscape:zoom="0.43"
     inkscape:cx="278.50704"
     inkscape:cy="1013.3281"
     inkscape:document-units="px"
     inkscape:current-layer="layer1"
     showgrid="false"
     inkscape:window-width="1440"
     inkscape:window-height="838"
     inkscape:window-x="-8"
     inkscape:window-y="-8"
     inkscape:window-maximized="1" />
  <metadata
     id="metadata7">
    <rdf:RDF>
      <cc:Work
         rdf:about="">
        <dc:format>image/svg+xml</dc:format>
        <dc:type
           rdf:resource="http://purl.org/dc/dcmitype/StillImage" />
        <dc:title></dc:title>
      </cc:Work>
    </rdf:RDF>
  </metadata>
  <g
     inkscape:label="Camada 1"
     inkscape:groupmode="layer"
     id="layer1">
    <g
       id="g3782"
       transform="translate(-72.093023,-11.627907)">
      <path
         id="path3648"
         d="m -50.868103,363.58848 c -4.281101,0.23805 -5.001875,5.29262 -3.805484,8.59225 3.17388,15.39842 15.668143,26.4234 26.339311,37.00308 4.839529,4.03764 10.247937,9.86315 8.041066,16.74467 -3.132046,22.26122 -16.205801,41.53017 -21.360358,63.19308 -4.459924,17.96587 4.194108,35.99128 15.297694,49.58728 23.5948534,27.74911 55.952986,48.52703 91.423376,57.37313 11.507575,2.52964 25.31578,5.79028 35.709318,-1.65144 3.93485,-4.68774 1.68538,-11.99033 -3.278941,-14.88686 -1.691821,-1.83863 -3.943327,0.5018 -5.528721,0.23934 C 55.929609,565.63404 19.277989,549.9067 -9.6540006,523.65812 -17.421633,516.89439 -26.494005,507.44921 -24.205786,496.08631 c 6.475569,-24.56935 21.7886249,-47.2346 21.2053977,-73.40514 -0.069126,-10.31717 -5.5536628,-19.68041 -12.7165987,-26.63506 -9.461465,-10.10004 -19.995772,-19.61865 -27.037539,-31.61995 -2.517445,-1.29915 -5.417393,-0.58007 -8.113577,-0.83768 z"
         style="fill:#90682d;fill-opacity:1;fill-rule:nonzero;stroke:none" />
      <path
         id="path3658"
         d="m 170.28074,363.66028 c -4.88869,0.55491 -4.53558,6.67897 -7.01262,9.83681 -8.09746,15.41316 -23.16494,28.23158 -23.98173,46.67103 -1.49899,26.98359 11.03218,51.91444 15.26981,78.02437 0.52083,15.34389 -11.47104,27.16071 -20.9182,37.57616 -17.74428,18.11728 -39.537671,32.68754 -62.036554,43.60749 -4.408456,-2.05792 -7.089852,3.97218 -7.850306,7.32376 -1.001607,5.18867 2.504447,10.58017 7.802438,11.32071 11.212189,3.17057 22.412537,-2.61291 32.358572,-7.10835 27.70633,-14.8634 49.88763,-39.93003 61.46215,-69.07312 5.6169,-15.65978 4.76083,-33.08788 -0.60922,-48.73611 -4.83067,-17.51728 -11.68235,-35.16155 -11.64492,-53.48539 2.63316,-9.42113 10.94933,-15.81002 15.31767,-24.3168 5.36448,-8.83447 10.84514,-19.11024 9.09487,-29.72585 -1.51347,-2.52991 -4.78954,-1.80307 -7.25196,-1.91471 z"
         style="fill:#90682d;fill-opacity:1;fill-rule:nonzero;stroke:none" />
      <path
         id="path3674"
         d="m -66.975589,357.86829 c -2.669653,2.11959 -4.833597,8.42611 -0.143603,9.50174 66.439174,16.68173 135.6051,19.5079 203.842932,16.20216 14.43248,-0.44516 28.84022,-1.81833 43.15448,-3.44542 4.15948,2.56009 9.51931,-0.72059 11.08137,-4.8107 1.81116,-4.43022 -2.23805,-9.1293 -6.95803,-8.38234 -30.27273,-3.55022 -60.92958,-1.52778 -91.361488,-1.48961 -42.831671,0.84702 -85.7434295,-0.34118 -128.310176,-5.39785 -10.34204,-0.83939 -21.162021,-2.87682 -31.305485,-2.17798 z"
         style="fill:#90682d;fill-opacity:1;fill-rule:nonzero;stroke:none" />
      <path
         id="path3676"
         d="m 230.33079,308.85175 c -41.87469,2.06214 -81.8663,19.41995 -114.44292,45.33418 -29.873624,23.59833 -56.089799,51.43918 -81.695044,79.50482 -9.25505,10.90236 -19.461764,21.33445 -26.997391,33.60313 -1.4387985,2.67073 -3.334681,6.88794 0.5983465,8.08965 3.3645365,1.72676 7.5715085,0.51904 9.0948655,-3.11141 12.009933,-14.20788 26.675552,-25.72378 39.909581,-38.74234 31.441338,-28.6761 61.493352,-59.21585 97.686162,-81.78856 28.12691,-16.50895 60.42795,-25.60649 92.7437,-28.8403 3.47771,0.89788 6.47775,-1.62179 8.47259,-4.06876 2.1312,-4.8894 -4.04073,-8.21753 -7.99391,-8.97519 -5.68532,-1.01703 -11.6035,-0.94245 -17.37598,-1.00522 z"
         style="fill:#90682d;fill-opacity:1;fill-rule:nonzero;stroke:none" />
    </g>
    <text
       xml:space="preserve"
       style="font-size:153.17668152px;font-style:normal;font-weight:normal;line-height:80.00000119%;fill:#000000;fill-opacity:1;stroke:none;font-family:Berlin Sans FB Demi;-inkscape-font-specification:Berlin Sans FB Demi"
       x="192.78548"
       y="463.29211"
       id="text3732"
       sodipodi:linespacing="80.000001%"><tspan
         sodipodi:role="line"
         x="192.78548"
         y="463.29211"
         id="tspan3736"
         style="font-size:140px;font-style:normal;font-variant:normal;font-weight:bold;font-stretch:normal;text-align:start;line-height:80.00000119%;writing-mode:lr-tb;text-anchor:start;font-family:Berlin Sans FB Demi;-inkscape-font-specification:Berlin Sans FB Demi Bold"><tspan
           style="fill:#f6921e;fill-opacity:1"
           id="tspan4361">Couch</tspan><tspan
           style="fill:#659ba2;fill-opacity:1"
           id="tspan3849">Surfing</tspan></tspan><tspan
         sodipodi:role="line"
         x="192.78548"
         y="583.24438"
         style="font-size:153.17668152px;font-style:normal;font-variant:normal;font-weight:bold;font-stretch:normal;text-align:start;line-height:80.00000119%;writing-mode:lr-tb;text-anchor:start;fill:#007500;fill-opacity:1;font-family:Berlin Sans FB Demi;-inkscape-font-specification:Berlin Sans FB Demi Bold"
         id="tspan3790">Brasil</tspan></text>
    <text
       xml:space="preserve"
       style="font-size:153.17668152px;font-style:normal;font-weight:normal;fill:#000000;fill-opacity:1;stroke:none;font-family:Berlin Sans FB Demi;-inkscape-font-specification:Berlin Sans FB Demi"
       x="195.96185"
       y="342.53033"
       id="text3758"><tspan
         sodipodi:role="line"
         id="tspan3760"
         x="195.96185"
         y="342.53033"
         style="font-size:99.56484985px"
         rotate="0 0 2.6760805 0">1ยบ Encontro Sul</tspan></text>
    <path
       style="fill:none;stroke:#000000;stroke-width:1px;stroke-linecap:butt;stroke-linejoin:miter;stroke-opacity:1"
       d="m -121.22093,350.90869 c 23.837209,-15.11628 60.174418,-29.65116 60.174418,-29.65116 l 36.918605,0.2907 13.372093,1.45349 3.4883721,33.72093 -113.9534881,-5.81396 z"
       id="path3847" />
  </g>
</svg>
