<?xml version="1.0" encoding="UTF-8" standalone="no"?>
<!-- Created with Inkscape (http://www.inkscape.org/) -->

<svg
   xmlns:dc="http://purl.org/dc/elements/1.1/"
   xmlns:cc="http://creativecommons.org/ns#"
   xmlns:rdf="http://www.w3.org/1999/02/22-rdf-syntax-ns#"
   xmlns:svg="http://www.w3.org/2000/svg"
   xmlns="http://www.w3.org/2000/svg"
   xmlns:sodipodi="http://sodipodi.sourceforge.net/DTD/sodipodi-0.dtd"
   xmlns:inkscape="http://www.inkscape.org/namespaces/inkscape"
   width="210mm"
   height="297mm"
   id="svg2"
   version="1.1"
   inkscape:version="0.47 r22583"
   sodipodi:docname="Novo documento 1">
  <defs
     id="defs4">
    <inkscape:perspective
       sodipodi:type="inkscape:persp3d"
       inkscape:vp_x="0 : 526.18109 : 1"
       inkscape:vp_y="0 : 1000 : 0"
       inkscape:vp_z="744.09448 : 526.18109 : 1"
       inkscape:persp3d-origin="372.04724 : 350.78739 : 1"
       id="perspective10" />
  </defs>
  <sodipodi:namedview
     id="base"
     pagecolor="#ffffff"
     bordercolor="#666666"
     borderopacity="1.0"
     inkscape:pageopacity="0.0"
     inkscape:pageshadow="2"
     inkscape:zoom="0.86"
     inkscape:cx="246.03144"
     inkscape:cy="500.1687"
     inkscape:document-units="px"
     inkscape:current-layer="layer1"
     showgrid="false"
     inkscape:window-width="1440"
     inkscape:window-height="838"
     inkscape:window-x="-8"
     inkscape:window-y="-8"
     inkscape:window-maximized="1" />
  <metadata
     id="metadata7">
    <rdf:RDF>
      <cc:Work
         rdf:about="">
        <dc:format>image/svg+xml</dc:format>
        <dc:type
           rdf:resource="http://purl.org/dc/dcmitype/StillImage" />
        <dc:title></dc:title>
      </cc:Work>
    </rdf:RDF>
  </metadata>
  <g
     inkscape:label="Camada 1"
     inkscape:groupmode="layer"
     id="layer1">
    <path
       style="fill:#90682d;fill-opacity:1;fill-rule:nonzero;stroke:none"
       id="path3648"
       d="m 110.91433,342.89677 c 5.59044,11.65415 14.31578,21.46958 22.53139,31.31145 13.58242,16.24033 29.99219,29.86927 43.60353,46.07284 2.40326,2.86095 4.57391,5.90949 6.86086,8.86424 8.96958,12.15004 13.47562,25.17028 13.90894,40.27277 0.22367,7.79593 -0.77022,15.05627 -1.55359,22.78785 -3.55158,27.35205 -13.34597,53.20703 -23.49539,78.66446 -5.2593,13.03836 -10.87498,25.935 -15.71705,39.13928 -3.0205,8.23686 -5.65131,15.39287 -7.11927,24.0582 -0.62775,3.70562 -0.69878,7.48427 -1.04817,11.22641 0.35679,3.50842 0.26461,7.09203 1.07038,10.52525 3.4295,14.61236 13.78126,26.96272 23.90807,37.45928 14.09115,14.60564 22.02746,20.07075 38.3026,33.18336 36.38616,27.90882 76.79564,49.99685 118.23042,69.41196 19.10238,8.9508 37.37859,16.37677 56.76909,24.4826 21.48424,8.29626 16.39846,6.41839 34.73283,13.23833 2.34485,0.87223 6.03479,0.30503 7.04264,2.59487 0.72521,1.64767 -3.73591,0.82468 -4.95423,2.15 -4.74588,8.69012 -2.16784,5.88562 -6.11125,9.65693 -1.09992,-0.46224 -2.19983,-0.92448 -3.29974,-1.38673 -1.10149,-0.95564 12.41325,-16.53305 13.51474,-15.57742 l 0,0 c 1.64461,1.22623 3.28922,2.45247 4.93384,3.6787 1.58596,2.43821 4.49594,4.41782 4.75789,7.31464 1.26499,13.98889 -4.0582,14.92165 -15.49004,18.3186 -18.66071,5.545 -38.62863,0.61725 -57.07714,-2.64658 -10.18896,-2.9015 -20.5491,-5.25808 -30.56686,-8.7045 -11.41141,-3.92587 -22.62056,-8.46132 -33.63866,-13.38416 -25.4958,-11.39142 -44.39586,-21.77208 -67.4068,-37.67414 -24.99986,-17.27655 -32.10299,-24.9429 -54.11424,-44.85122 -6.77118,-7.39423 -13.90052,-14.47578 -20.31354,-22.18271 -17.46897,-20.99358 -32.35483,-45.58615 -36.80758,-72.93163 -0.79151,-4.86088 -0.84928,-9.81311 -1.27392,-14.71966 0.401,-4.82084 0.48973,-9.67791 1.203,-14.46253 3.45531,-23.17828 14.21479,-45.58223 23.1525,-67.02656 9.66643,-23.71621 19.05546,-47.65702 24.94695,-72.64331 1.47184,-7.76252 4.01664,-17.62402 2.98246,-25.61398 -1.00299,-7.74901 -6.0672,-13.72186 -10.81307,-19.53628 -8.45623,-8.35829 -17.00775,-16.6297 -25.38493,-25.067 -6.04299,-6.08635 -13.38887,-13.5619 -18.84635,-20.18356 -2.91021,-3.53099 -5.52606,-7.29462 -8.28909,-10.94193 -2.2572,-3.5771 -4.68427,-7.05248 -6.7716,-10.73129 -5.328757,-9.39167 -10.007893,-20.12302 -9.922562,-31.14443 0.0078,-1.00898 0.256961,-2.0016 0.385442,-3.0024 0,-1.21463 17.1775,-1.21463 17.1775,0 z" />
    <path
       d="m 596.60161,342.89677 c -3.98708,11.65415 -10.20995,21.46958 -16.06928,31.31145 -9.68692,16.24033 -21.3903,29.86927 -31.09784,46.07284 -1.714,2.86095 -3.26209,5.90949 -4.89314,8.86424 -6.39706,12.15004 -9.61075,25.17028 -9.91979,40.27277 -0.15952,7.79593 0.54932,15.05627 1.10801,22.78785 2.53297,27.35205 9.51829,53.20703 16.75681,78.66446 3.75091,13.03836 7.75599,25.935 11.20933,39.13928 2.1542,8.23686 4.03049,15.39287 5.07743,24.0582 0.44771,3.70562 0.49837,7.48427 0.74755,11.22641 -0.25446,3.50842 -0.18872,7.09203 -0.76339,10.52525 -2.44591,14.61236 -9.82873,26.96272 -17.05113,37.45928 -10.04974,14.60564 -15.70988,20.07075 -27.31724,33.18336 -25.95044,27.90882 -54.7703,49.99685 -84.3214,69.41196 -13.62373,8.9508 -26.65824,16.37677 -40.48745,24.4826 -15.32247,8.29626 -11.69531,6.41839 -24.7713,13.23833 -1.67234,0.87223 -4.30399,0.30503 -5.02278,2.59487 -0.51722,1.64767 2.66443,0.82468 3.53333,2.15 3.38474,8.69012 1.5461,5.88562 4.35852,9.65693 0.78446,-0.46224 1.56891,-0.92448 2.35336,-1.38673 0.78558,-0.95564 -8.85307,-16.53305 -9.63865,-15.57742 l 0,0 c -1.17293,1.22623 -2.34586,2.45247 -3.51879,3.6787 -1.1311,2.43821 -3.20649,4.41782 -3.39331,7.31464 -0.90218,13.98889 2.89429,14.92165 11.04743,18.3186 13.30873,5.545 27.54976,0.61725 40.70715,-2.64658 7.26672,-2.9015 14.65553,-5.25808 21.80015,-8.7045 8.13857,-3.92587 16.13288,-8.46132 23.99094,-13.38416 18.18349,-11.39142 31.66292,-21.77208 48.07422,-37.67414 17.82979,-17.27655 22.89571,-24.9429 38.59403,-44.85122 4.82918,-7.39423 9.91379,-14.47578 14.48753,-22.18271 12.45879,-20.99358 23.07531,-45.58615 26.251,-72.93163 0.5645,-4.86088 0.6057,-9.81311 0.90855,-14.71966 -0.28599,-4.82084 -0.34927,-9.67791 -0.85797,-14.46253 -2.46432,-23.17828 -10.13793,-45.58223 -16.51226,-67.02656 -6.89406,-23.71621 -13.59027,-47.65702 -17.79205,-72.64331 -1.04971,-7.76252 -2.86465,-17.62402 -2.12708,-25.61398 0.71533,-7.74901 4.3271,-13.72186 7.71183,-19.53628 6.03095,-8.35829 12.12985,-16.6297 18.10442,-25.067 4.30983,-6.08635 9.54888,-13.5619 13.44113,-20.18356 2.07555,-3.53099 3.94116,-7.29462 5.91174,-10.94193 1.60983,-3.5771 3.3408,-7.05248 4.82948,-10.73129 3.80044,-9.39167 7.13758,-20.12302 7.07672,-31.14443 -0.006,-1.00898 -0.18326,-2.0016 -0.27489,-3.0024 0,-1.21463 -12.25092,-1.21463 -12.25092,0 z"
       id="path3658"
       style="fill:#90682d;fill-opacity:1;fill-rule:nonzero;stroke:none" />
    <path
       style="fill:#90682d;fill-opacity:1;fill-rule:nonzero;stroke:none"
       id="path3674"
       d="m 63.292226,327.62503 c 30.694747,2.28236 61.296864,5.65213 91.904754,8.86076 10.48822,0.92266 20.97368,1.87724 31.46467,2.76796 11.90637,1.0109 23.80792,2.09039 35.72711,2.93689 29.80521,2.11678 53.54975,3.29218 83.61522,3.93787 35.25138,0.75707 61.81064,0.37949 97.20032,0.19938 14.42888,-0.24834 28.85706,-0.54087 43.28663,-0.74503 26.32085,-0.37241 67.63537,-0.86082 94.42658,-0.67531 22.33974,0.15469 42.40403,0.59698 64.48608,1.97611 5.95109,0.37167 11.88212,1.01475 17.82317,1.52212 9.45318,1.50834 19.58511,0.0402 14.81298,13.03002 -0.46329,1.26108 -2.10239,1.67666 -3.20784,2.44016 -6.30872,4.35726 -0.7975,0.06 -4.9691,3.39848 -0.10399,0.2174 -0.20797,0.43481 -0.31195,0.65222 -0.21926,0.6099 -8.84455,-2.49087 -8.6253,-3.10077 l 0,0 c 0.50408,-1.17838 1.00815,-2.35676 1.51223,-3.53515 2.9421,-3.10656 2.27765,-2.93944 6.09319,-4.87572 0.97088,-0.49269 2.18796,-1.96118 3.01585,-1.25411 7.26986,6.20889 -0.26367,7.21294 -3.96787,8.52319 -5.54642,0.86555 -11.07308,1.86896 -16.63926,2.59666 -35.4761,4.63803 -71.23201,6.68394 -106.96475,8.03044 -16.49736,0.62167 -33.00122,1.12025 -49.50858,1.35794 -19.67031,0.28324 -39.34446,0.13648 -59.01668,0.20472 -16.6652,-0.29583 -33.33629,-0.35483 -49.99561,-0.88748 -66.16293,-2.11546 -132.24971,-8.25044 -197.41128,-20.06314 -21.2502,-3.84377 -26.1072,-4.59058 -46.28593,-8.70022 -12.412583,-2.52798 -24.988929,-5.0114 -37.168692,-8.55605 -1.64562,-0.47892 -3.251352,-1.08556 -4.877028,-1.62833 -0.594932,-0.25322 2.986154,-8.66683 3.581086,-8.41361 z" />
    <path
       style="fill:#90682d;fill-opacity:1;fill-rule:nonzero;stroke:none"
       id="path3676"
       d="m 230.8438,582.04829 c 0.31063,-1.14142 0.4917,-2.32628 0.93188,-3.42426 2.51368,-6.2701 7.56545,-13.5976 11.45191,-18.89908 6.87397,-9.37673 12.04763,-15.40726 19.62721,-24.67639 28.53001,-33.59699 58.34316,-66.08306 88.92909,-97.81478 11.05145,-11.46546 22.11753,-22.92069 33.43541,-34.12324 12.325,-12.19941 24.99039,-24.05006 37.48558,-36.07509 31.14275,-27.08324 49.42986,-44.53271 83.47654,-67.98963 29.61284,-20.40216 58.32475,-36.40859 91.56874,-50.12147 38.3198,-15.80662 50.8023,-17.18302 90.02912,-26.43274 28.88476,-3.50769 37.38852,-5.93952 64.757,-4.69719 6.60414,0.29978 23.66003,0.61066 31.21854,6.42223 1.63727,1.25886 2.09291,3.56108 3.13936,5.34162 0.33256,0.57194 -7.756,5.27501 -8.08856,4.70306 l 0,0 c -0.15138,3.75599 0.29672,0.52905 -8.29775,1.25317 -3.95944,0.33359 -7.89965,0.87161 -11.83843,1.3955 -32.59302,4.33509 -21.8736,2.86996 -58.64596,10.30512 -33.78158,9.20079 -51.32441,12.88215 -84.3072,26.60352 -14.99946,6.24001 -29.75499,13.14847 -44.00204,20.9551 -45.6419,25.00934 -85.50111,58.54154 -124.7803,92.29595 -12.83822,11.49439 -25.76935,22.88584 -38.51464,34.48318 -11.81884,10.75431 -23.42088,21.74463 -35.17519,32.56944 -10.4813,9.65246 -21.07652,19.181 -31.53137,28.86211 -22.01539,20.3861 -43.52912,41.3096 -65.72461,61.50217 -12.76933,12.44252 -26.00194,24.60845 -36.6646,38.98077 -0.10035,0.59961 -8.58007,-0.81947 -8.47973,-1.41907 z" />
  </g>
</svg>
