<?xml version="1.0" encoding="UTF-8" standalone="no"?>
<!-- Created with Inkscape (http://www.inkscape.org/) -->

<svg
   xmlns:dc="http://purl.org/dc/elements/1.1/"
   xmlns:cc="http://creativecommons.org/ns#"
   xmlns:rdf="http://www.w3.org/1999/02/22-rdf-syntax-ns#"
   xmlns:svg="http://www.w3.org/2000/svg"
   xmlns="http://www.w3.org/2000/svg"
   xmlns:sodipodi="http://sodipodi.sourceforge.net/DTD/sodipodi-0.dtd"
   xmlns:inkscape="http://www.inkscape.org/namespaces/inkscape"
   width="210mm"
   height="297mm"
   id="svg2"
   version="1.1"
   inkscape:version="0.47 r22583"
   sodipodi:docname="cuia6.svg">
  <defs
     id="defs4">
    <inkscape:path-effect
       effect="interpolate"
       id="path-effect4459"
       is_visible="true"
       trajectory="M 0,0 0,0"
       equidistant_spacing="true"
       steps="5" />
    <inkscape:perspective
       sodipodi:type="inkscape:persp3d"
       inkscape:vp_x="0 : 526.18109 : 1"
       inkscape:vp_y="0 : 1000 : 0"
       inkscape:vp_z="744.09448 : 526.18109 : 1"
       inkscape:persp3d-origin="372.04724 : 350.78739 : 1"
       id="perspective10" />
  </defs>
  <sodipodi:namedview
     id="base"
     pagecolor="#ffffff"
     bordercolor="#666666"
     borderopacity="1.0"
     inkscape:pageopacity="0.0"
     inkscape:pageshadow="2"
     inkscape:zoom="0.60811183"
     inkscape:cx="338.35845"
     inkscape:cy="611.61989"
     inkscape:document-units="px"
     inkscape:current-layer="layer1"
     showgrid="false"
     inkscape:window-width="1440"
     inkscape:window-height="838"
     inkscape:window-x="-8"
     inkscape:window-y="-8"
     inkscape:window-maximized="1" />
  <metadata
     id="metadata7">
    <rdf:RDF>
      <cc:Work
         rdf:about="">
        <dc:format>image/svg+xml</dc:format>
        <dc:type
           rdf:resource="http://purl.org/dc/dcmitype/StillImage" />
        <dc:title />
      </cc:Work>
    </rdf:RDF>
  </metadata>
  <g
     inkscape:label="Camada 1"
     inkscape:groupmode="layer"
     id="layer1">
    <g
       id="g4608"
       transform="translate(-1.5182131e-8,271.33167)">
      <text
         sodipodi:linespacing="80.000001%"
         id="text3732"
         y="387.76697"
         x="116.89391"
         style="font-size:63.12844467px;font-style:normal;font-weight:normal;line-height:80.00000119%;fill:#000000;fill-opacity:1;stroke:none;font-family:Berlin Sans FB Demi;-inkscape-font-specification:Berlin Sans FB Demi"
         xml:space="preserve"><tspan
           id="tspan3790"
           style="font-size:63.12844467px;font-style:normal;font-variant:normal;font-weight:bold;font-stretch:normal;text-align:start;line-height:80.00000119%;writing-mode:lr-tb;text-anchor:start;fill:#007500;fill-opacity:1;font-family:Berlin Sans FB Demi;-inkscape-font-specification:Berlin Sans FB Demi Bold"
           y="387.76697"
           x="116.89391"
           sodipodi:role="line"><tspan
   id="tspan4548"
   style="font-size:57.6979599px;font-style:normal;font-variant:normal;font-weight:bold;font-stretch:normal;text-align:start;line-height:80.00000119%;writing-mode:lr-tb;text-anchor:start;fill:#000000;font-family:Berlin Sans FB Demi;-inkscape-font-specification:Berlin Sans FB Demi Bold"><tspan
     id="tspan4361"
     style="fill:#f6921e;fill-opacity:1">Couch</tspan><tspan
     id="tspan3849"
     style="fill:#659ba2;fill-opacity:1">Surfing </tspan></tspan>Brasil</tspan></text>
      <text
         id="text3758"
         y="337.99762"
         x="239.71024"
         style="font-size:63.12844467px;font-style:normal;font-weight:normal;fill:#000000;fill-opacity:1;stroke:none;font-family:Berlin Sans FB Demi;-inkscape-font-specification:Berlin Sans FB Demi"
         xml:space="preserve"><tspan
           rotate="0 0 2.6760805 0"
           style="font-size:41.03348923px"
           y="337.99762"
           x="239.71024"
           id="tspan3760"
           sodipodi:role="line">1ยบ Encontro Sul</tspan></text>
      <g
         transform="translate(-8.0072934,0)"
         id="g4595">
        <g
           id="g4583"
           transform="translate(44.082018,0)">
          <g
             transform="translate(123.33258,-6.5777375)"
             id="g4563">
            <path
               style="fill:#90682d;fill-opacity:1;fill-rule:nonzero;stroke:none"
               d="m 33.630332,96.777568 c -3.088642,0.177344 -3.608647,3.942882 -2.745501,6.401022 2.289827,11.47146 11.303941,19.68481 19.002766,27.56642 3.491528,3.00794 7.393479,7.34781 5.80131,12.47438 -2.259647,16.58409 -11.691838,30.939 -15.410646,47.07735 -3.217654,13.38415 3.025881,26.81265 11.036675,36.94135 17.022748,20.67244 40.367853,36.1515 65.958324,42.74163 8.30226,1.88452 18.26433,4.31362 25.76286,-1.23028 2.83883,-3.49226 1.21593,-8.93252 -2.36563,-11.09036 -1.22058,-1.36974 -2.84495,0.37383 -3.98875,0.1783 C 110.68064,247.29673 84.237952,235.58024 63.364673,216.02567 57.760635,210.98685 51.21528,203.95041 52.866139,195.48532 57.538004,177.18173 68.585765,160.29666 68.16499,140.80022 68.115113,133.11418 64.158243,126.13879 58.990469,120.95773 52.164399,113.43345 44.564317,106.3423 39.48396,97.40162 37.667729,96.433786 35.575526,96.969483 33.630332,96.777568 z"
               id="path3648" />
            <path
               style="fill:#90682d;fill-opacity:1;fill-rule:nonzero;stroke:none"
               d="m 193.18043,96.831054 c -3.527,0.413396 -3.27224,4.975676 -5.05932,7.328196 -5.842,11.48244 -16.71259,21.03186 -17.30187,34.76881 -1.08146,20.10214 7.95928,38.67503 11.01656,58.12631 0.37576,11.43084 -8.2759,20.23409 -15.09165,27.99335 -12.80179,13.49695 -28.52486,24.35145 -44.75691,32.48655 -3.18052,-1.5331 -5.11504,2.95918 -5.66368,5.45603 -0.72262,3.86543 1.80686,7.88198 5.62915,8.43366 8.08915,2.362 16.16975,-1.94655 23.34542,-5.29555 19.98902,-11.07288 35.99194,-29.74693 44.3425,-51.45784 4.05237,-11.66617 3.43475,-24.64969 -0.43953,-36.30725 -3.48514,-13.04996 -8.42835,-26.19453 -8.40135,-39.84535 1.89972,-7.01852 7.89951,-11.7781 11.0511,-18.11544 3.87025,-6.58148 7.82433,-14.23668 6.56158,-22.145061 -1.0919,-1.884719 -3.45546,-1.343246 -5.232,-1.426415 z"
               id="path3658" />
            <path
               style="fill:#90682d;fill-opacity:1;fill-rule:nonzero;stroke:none"
               d="m 22.009429,92.516158 c -1.926048,1.579045 -3.487252,6.277254 -0.103609,7.078576 47.933224,12.427486 97.83369,14.532916 147.06457,12.070226 10.41246,-0.33164 20.80707,-1.35461 31.13424,-2.56676 3.0009,1.90721 6.8678,-0.53682 7.99477,-3.58386 1.30668,-3.3004 -1.61467,-6.801111 -5.01994,-6.244642 C 181.23889,96.62487 159.12119,98.131541 137.16578,98.159975 106.26443,98.790985 75.305303,97.905804 44.595087,94.138706 37.133719,93.51338 29.327531,91.995543 22.009429,92.516158 z"
               id="path3674" />
            <path
               style="fill:#90682d;fill-opacity:1;fill-rule:nonzero;stroke:none"
               d="M 236.50415,55.999999 C 206.29323,57.536243 177.44087,70.4674 153.93814,89.772893 132.38551,107.35309 113.47158,128.09387 94.998414,149.0021 c -6.677151,8.122 -14.040888,15.89366 -19.477543,25.03354 -1.038036,1.98963 -2.40584,5.13135 0.431683,6.0266 2.427379,1.28639 5.462541,0.38667 6.561583,-2.31793 8.664689,-10.58454 19.245353,-19.16361 28.793173,-28.86213 22.68368,-21.36301 44.36501,-44.1144 70.47668,-60.930543 20.29245,-12.298773 43.59636,-19.076227 66.91089,-21.485342 2.50903,0.668904 4.67344,-1.208191 6.11264,-3.031128 1.53758,-3.642488 -2.91523,-6.121865 -5.76729,-6.686303 -4.10173,-0.757665 -8.37146,-0.702104 -12.53608,-0.748865 z"
               id="path3676" />
          </g>
          <text
             xml:space="preserve"
             style="font-size:297.53643799px;font-style:normal;font-weight:normal;line-height:80.00000119%;fill:#000000;fill-opacity:1;stroke:none;font-family:Berlin Sans FB Demi;-inkscape-font-specification:Berlin Sans FB Demi"
             x="-16.436111"
             y="266.54889"
             id="text4573"
             sodipodi:linespacing="80.000001%"><tspan
               sodipodi:role="line"
               x="-16.436111"
               y="266.54889"
               style="font-size:297.53643799px;font-style:normal;font-variant:normal;font-weight:bold;font-stretch:normal;text-align:start;line-height:80.00000119%;writing-mode:lr-tb;text-anchor:start;fill:#007500;fill-opacity:1;font-family:Berlin Sans FB Demi;-inkscape-font-specification:Berlin Sans FB Demi Bold"
               id="tspan4575"><tspan
                 style="font-size:271.94155884px;font-style:normal;font-variant:normal;font-weight:bold;font-stretch:normal;text-align:start;line-height:80.00000119%;writing-mode:lr-tb;text-anchor:start;fill:#000000;font-family:Berlin Sans FB Demi;-inkscape-font-specification:Berlin Sans FB Demi Bold"
                 id="tspan4577"><tspan
                   style="fill:#f6921e;fill-opacity:1"
                   id="tspan4579"><tspan
   style="fill:#000000"
   id="tspan2862">I</tspan>     C</tspan><tspan
                   style="fill:#659ba2;fill-opacity:1"
                   id="tspan4581">S</tspan></tspan></tspan></text>
        </g>
      </g>
    </g>
  </g>
</svg>
