<?xml version="1.0" encoding="UTF-8" standalone="no"?>
<!-- Created with Inkscape (http://www.inkscape.org/) -->

<svg
   xmlns:dc="http://purl.org/dc/elements/1.1/"
   xmlns:cc="http://creativecommons.org/ns#"
   xmlns:rdf="http://www.w3.org/1999/02/22-rdf-syntax-ns#"
   xmlns:svg="http://www.w3.org/2000/svg"
   xmlns="http://www.w3.org/2000/svg"
   xmlns:sodipodi="http://sodipodi.sourceforge.net/DTD/sodipodi-0.dtd"
   xmlns:inkscape="http://www.inkscape.org/namespaces/inkscape"
   width="210mm"
   height="297mm"
   id="svg2"
   version="1.1"
   inkscape:version="0.47 r22583"
   sodipodi:docname="cuia9.svg"
   inkscape:export-filename="C:\Users\Eduardo\Desktop\logo encontro cs poa\cuia8-mini.png"
   inkscape:export-xdpi="76.074036"
   inkscape:export-ydpi="76.074036">
  <defs
     id="defs4">
    <inkscape:path-effect
       effect="interpolate"
       id="path-effect4459"
       is_visible="true"
       trajectory="M 0,0 0,0"
       equidistant_spacing="true"
       steps="5" />
    <inkscape:perspective
       sodipodi:type="inkscape:persp3d"
       inkscape:vp_x="0 : 526.18109 : 1"
       inkscape:vp_y="0 : 1000 : 0"
       inkscape:vp_z="744.09448 : 526.18109 : 1"
       inkscape:persp3d-origin="372.04724 : 350.78739 : 1"
       id="perspective10" />
    <inkscape:perspective
       id="perspective2921"
       inkscape:persp3d-origin="0.5 : 0.33333333 : 1"
       inkscape:vp_z="1 : 0.5 : 1"
       inkscape:vp_y="0 : 1000 : 0"
       inkscape:vp_x="0 : 0.5 : 1"
       sodipodi:type="inkscape:persp3d" />
  </defs>
  <sodipodi:namedview
     id="base"
     pagecolor="#ffffff"
     bordercolor="#666666"
     borderopacity="1.0"
     inkscape:pageopacity="0.0"
     inkscape:pageshadow="2"
     inkscape:zoom="0.60811183"
     inkscape:cx="543.09053"
     inkscape:cy="953.37509"
     inkscape:document-units="px"
     inkscape:current-layer="layer1"
     showgrid="false"
     inkscape:window-width="1440"
     inkscape:window-height="838"
     inkscape:window-x="-8"
     inkscape:window-y="-8"
     inkscape:window-maximized="1" />
  <metadata
     id="metadata7">
    <rdf:RDF>
      <cc:Work
         rdf:about="">
        <dc:format>image/svg+xml</dc:format>
        <dc:type
           rdf:resource="http://purl.org/dc/dcmitype/StillImage" />
        <dc:title></dc:title>
      </cc:Work>
    </rdf:RDF>
  </metadata>
  <g
     inkscape:label="Camada 1"
     inkscape:groupmode="layer"
     id="layer1">
    <path
       style="fill:#659ba2;fill-opacity:1;fill-rule:nonzero;stroke:none"
       d="m 175.77365,73.741877 c -4.89964,0.47837 -4.54573,5.75757 -7.02831,8.47978 -8.11559,13.28681 -23.2168,24.336843 -24.03541,40.232443 -1.50235,23.26104 11.05687,44.7525 15.30398,67.2604 0.522,13.22709 -11.49672,23.41371 -20.96503,32.39227 -17.78398,15.61789 -39.62617,28.17808 -62.17541,37.59155 -4.41832,-1.77401 -7.10571,3.42419 -7.86787,6.3134 -1.00385,4.47286 2.51006,9.12057 7.8199,9.75894 11.23729,2.73318 22.4627,-2.25243 32.431,-6.12771 27.76835,-12.81289 49.99929,-34.42141 61.59972,-59.54401 5.62948,-13.49942 4.7715,-28.52319 -0.61058,-42.01264 -4.84149,-15.10066 -11.7085,-30.31079 -11.67099,-46.10673 2.63906,-8.12142 10.97384,-13.62893 15.35198,-20.96213 5.37647,-7.615723 10.8694,-16.473873 9.11521,-25.624983 -1.51685,-2.18089 -4.80026,-1.55433 -7.26819,-1.65058 z"
       id="path3658" />
    <path
       style="fill:#000000;fill-opacity:1;fill-rule:nonzero;stroke:none"
       d="m 237.90702,15.420738 c -34.0956,2.123849 -66.65795,20.001129 -93.1828,46.690909 -24.32398,24.30458 -45.66996,52.978633 -66.51852,81.884193 -7.53574,11.22864 -15.84633,21.97293 -21.98207,34.60879 -1.17151,2.75066 -2.7152,7.09407 0.48719,8.33176 2.73951,1.77843 6.16494,0.53456 7.40531,-3.20454 9.77885,-14.63308 21.72002,-26.49363 32.49556,-39.9018 25.60047,-29.53429 50.0697,-60.988013 79.53895,-84.236273 22.90176,-17.00303 49.20223,-26.37282 75.51466,-29.70342 2.83166,0.92476 5.27438,-1.67032 6.89864,-4.19052 1.73528,-5.03574 -3.29009,-8.46347 -6.50889,-9.2438 -4.62914,-1.047459 -9.44791,-0.970649 -14.14803,-1.035299 z"
       id="path3676" />
    <text
       xml:space="preserve"
       style="font-size:94.33274078px;font-style:normal;font-weight:normal;line-height:80.00000119%;fill:#000000;fill-opacity:1;stroke:none;font-family:Berlin Sans FB Demi;-inkscape-font-specification:Berlin Sans FB Demi"
       x="222.02255"
       y="190.67874"
       id="text3732"
       sodipodi:linespacing="80.000001%"><tspan
         sodipodi:role="line"
         x="222.02255"
         y="190.67874"
         id="tspan3736"
         style="font-size:86.21797943000000000px;font-style:normal;font-variant:normal;font-weight:bold;font-stretch:normal;text-align:start;line-height:80.00000119000000600%;writing-mode:lr-tb;text-anchor:start;font-family:Berlin Sans FB Demi;-inkscape-font-specification:Berlin Sans FB Demi Bold;fill:#000000">CouchSurfing</tspan><tspan
         sodipodi:role="line"
         x="222.02255"
         y="264.55048"
         style="font-size:94.33274077999999500px;font-style:normal;font-variant:normal;font-weight:bold;font-stretch:normal;text-align:start;line-height:80.00000119000000600%;writing-mode:lr-tb;text-anchor:start;fill:#000000;fill-opacity:1;font-family:Berlin Sans FB Demi;-inkscape-font-specification:Berlin Sans FB Demi Bold"
         id="tspan3790">Brasil</tspan></text>
    <text
       xml:space="preserve"
       style="font-size:94.33274078px;font-style:normal;font-weight:normal;fill:#000000;fill-opacity:1;stroke:none;font-family:Berlin Sans FB Demi;-inkscape-font-specification:Berlin Sans FB Demi"
       x="223.9787"
       y="116.30849"
       id="text3758"><tspan
         sodipodi:role="line"
         id="tspan3760"
         x="223.9787"
         y="116.30849"
         style="font-size:61.31628418px"
         rotate="0 0 2.6760805 0">1ยบ Encontro Sul</tspan></text>
    <path
       style="fill:#f6921e;fill-opacity:1;fill-rule:nonzero;stroke:none"
       d="m -14.07389,74.226587 c -4.39397,0.20849 -5.13375,4.63548 -3.90581,7.52542 3.25757,13.48653 16.08127,23.142633 27.03383,32.408723 4.96713,3.53631 10.51815,8.63852 8.25309,14.66561 -3.21463,19.49725 -16.63311,36.37373 -21.92359,55.34694 -4.57751,15.7352 4.3047,31.52254 15.70107,43.43044 24.21699,24.30375 57.42835,42.50185 93.83402,50.2496 11.81101,2.21555 25.98331,5.07134 36.65092,-1.4464 4.03858,-4.1057 1.7298,-10.5016 -3.36541,-13.03848 -1.73643,-1.61035 -4.0473,0.4395 -5.6745,0.20962 C 95.53989,251.18584 57.92183,237.41125 28.22695,214.42173 20.25451,208.4978 10.94292,200.22534 13.29148,190.27327 19.93779,168.75449 35.65461,148.9034 35.05602,125.98223 34.98502,116.94607 29.35592,108.74539 22.00411,102.65422 12.29317,93.808227 1.48109,85.471447 -5.74635,74.960257 c -2.58382,-1.13784 -5.56024,-0.50805 -8.32754,-0.73367 z"
       id="path3648" />
    <path
       style="fill:#007500;fill-opacity:1;fill-rule:nonzero;stroke:none"
       d="m -29.453651,64.796307 c -2.33459,2.30456 -4.22693,9.16148 -0.12559,10.33099 58.100321,18.13757 118.585171,21.21039 178.258391,17.61616 12.62105,-0.48402 25.22046,-1.97701 37.73812,-3.74611 3.63742,2.78352 8.32453,-0.78347 9.69054,-5.23055 1.58384,-4.81684 -1.95716,-9.92604 -6.08472,-9.11389 -26.47316,-3.86005 -53.28225,-1.66111 -79.89461,-1.61961 -37.45583,0.92095 -74.98169,-0.37096 -112.20584,-5.86892 -9.04399,-0.91265 -18.50596,-3.1279 -27.376291,-2.36807 z"
       id="path3674" />
  </g>
</svg>
