<?xml version="1.0" encoding="UTF-8" standalone="no"?>
<!-- Created with Inkscape (http://www.inkscape.org/) -->

<svg
   xmlns:dc="http://purl.org/dc/elements/1.1/"
   xmlns:cc="http://creativecommons.org/ns#"
   xmlns:rdf="http://www.w3.org/1999/02/22-rdf-syntax-ns#"
   xmlns:svg="http://www.w3.org/2000/svg"
   xmlns="http://www.w3.org/2000/svg"
   xmlns:sodipodi="http://sodipodi.sourceforge.net/DTD/sodipodi-0.dtd"
   xmlns:inkscape="http://www.inkscape.org/namespaces/inkscape"
   width="210mm"
   height="297mm"
   id="svg2"
   version="1.1"
   inkscape:version="0.47 r22583"
   sodipodi:docname="jangada.svg"
   inkscape:export-filename="C:\Users\Eduardo\Desktop\logo encontro cs poa\jangada.png"
   inkscape:export-xdpi="300.02936"
   inkscape:export-ydpi="300.02936">
  <defs
     id="defs4">
    <inkscape:path-effect
       effect="sketch"
       id="path-effect3233"
       is_visible="true"
       nbiter_approxstrokes="5"
       strokelength="100"
       strokelength_rdm="0.3;1"
       strokeoverlap="0.3"
       strokeoverlap_rdm="0.3;1"
       ends_tolerance="0.1;1"
       parallel_offset="5;1"
       tremble_size="5;1"
       tremble_frequency="1"
       nbtangents="5"
       tgt_places_rdmness="1;1"
       tgtscale="10"
       tgtlength="100"
       tgtlength_rdm="0.3;1" />
    <inkscape:path-effect
       effect="interpolate"
       id="path-effect4459"
       is_visible="true"
       trajectory="M 0,0 0,0"
       equidistant_spacing="true"
       steps="5" />
    <inkscape:perspective
       sodipodi:type="inkscape:persp3d"
       inkscape:vp_x="0 : 526.18109 : 1"
       inkscape:vp_y="0 : 1000 : 0"
       inkscape:vp_z="744.09448 : 526.18109 : 1"
       inkscape:persp3d-origin="372.04724 : 350.78739 : 1"
       id="perspective10" />
    <inkscape:perspective
       id="perspective2921"
       inkscape:persp3d-origin="0.5 : 0.33333333 : 1"
       inkscape:vp_z="1 : 0.5 : 1"
       inkscape:vp_y="0 : 1000 : 0"
       inkscape:vp_x="0 : 0.5 : 1"
       sodipodi:type="inkscape:persp3d" />
  </defs>
  <sodipodi:namedview
     id="base"
     pagecolor="#ffffff"
     bordercolor="#666666"
     borderopacity="1.0"
     inkscape:pageopacity="0.0"
     inkscape:pageshadow="2"
     inkscape:zoom="0.98901497"
     inkscape:cx="323.47754"
     inkscape:cy="865.52288"
     inkscape:document-units="px"
     inkscape:current-layer="layer1"
     showgrid="false"
     inkscape:window-width="1440"
     inkscape:window-height="838"
     inkscape:window-x="-8"
     inkscape:window-y="-8"
     inkscape:window-maximized="1" />
  <metadata
     id="metadata7">
    <rdf:RDF>
      <cc:Work
         rdf:about="">
        <dc:format>image/svg+xml</dc:format>
        <dc:type
           rdf:resource="http://purl.org/dc/dcmitype/StillImage" />
        <dc:title></dc:title>
      </cc:Work>
    </rdf:RDF>
  </metadata>
  <g
     inkscape:label="Camada 1"
     inkscape:groupmode="layer"
     id="layer1">
    <text
       xml:space="preserve"
       style="font-size:39.46736145px;font-style:normal;font-weight:normal;line-height:80.00000119%;fill:#659ba2;fill-opacity:1;stroke:none;font-family:Berlin Sans FB Demi;-inkscape-font-specification:Berlin Sans FB Demi"
       x="79.806992"
       y="434.85785"
       id="text3732"
       sodipodi:linespacing="80.000001%"><tspan
         sodipodi:role="line"
         x="79.806992"
         y="434.85785"
         style="font-size:39.46736145px;font-style:normal;font-variant:normal;font-weight:bold;font-stretch:normal;text-align:start;line-height:80.00000119%;writing-mode:lr-tb;text-anchor:start;fill:#659ba2;fill-opacity:1;font-family:Berlin Sans FB Demi;-inkscape-font-specification:Berlin Sans FB Demi Bold"
         id="tspan3790"><tspan
           id="tspan2833"
           style="font-size:36.07226944px;font-style:normal;font-variant:normal;font-weight:bold;font-stretch:normal;text-align:start;line-height:80.00000119%;writing-mode:lr-tb;text-anchor:start;fill:#659ba2;fill-opacity:1;font-family:Berlin Sans FB Demi;-inkscape-font-specification:Berlin Sans FB Demi Bold"><tspan
   id="tspan4183"
   style="fill:#f6921e;fill-opacity:1">Couch</tspan>Surfing </tspan><tspan
           style="fill:#000000;fill-opacity:1"
           id="tspan3615">Brasil / Fortaleza-CE</tspan></tspan></text>
    <text
       xml:space="preserve"
       style="font-size:83.74969482px;font-style:normal;font-weight:normal;fill:#000000;fill-opacity:1;stroke:none;font-family:Berlin Sans FB Demi;-inkscape-font-specification:Berlin Sans FB Demi"
       x="80.004929"
       y="399.72733"
       id="text3758"><tspan
         sodipodi:role="line"
         id="tspan3760"
         x="80.004929"
         y="399.72733"
         style="font-size:54.43730545px"
         rotate="0 0 2.6760805 0">3ยบ Encontro do Nordeste</tspan></text>
    <g
       id="g3420"
       transform="matrix(1.0315428,0,0,1.0315428,-2.5478816,-10.33346)">
      <path
         sodipodi:nodetypes="csscscscccccsscsccc"
         d="m 420.07815,97.903033 c 0.72063,3.100287 1.27607,4.985697 1.40766,8.380377 0.36379,9.38373 -1.53863,18.70874 -4.31645,27.62597 -1.16261,3.73219 -2.66087,7.35143 -3.9913,11.02714 -6.52738,15.53173 -14.94445,30.34876 -25.60853,43.43786 -6.29788,7.73004 -9.52554,10.42893 -16.62371,17.25127 -12.85652,11.12727 -25.78223,20.28344 -41.3727,28.07563 -10.46731,5.23161 -10.80021,4.63155 -21.55235,10.46334 -3.32565,1.61881 -9.94221,2.00351 -13.26786,3.62231 -7.53498,0.86775 -5.76194,-1.85789 -5.22016,-2.31427 l 0,0 c 3.13108,-1.7782 6.26215,-3.55641 9.39322,-5.33462 5.48137,-3.10302 17.68215,-9.99578 22.95228,-13.03956 5.92887,-3.42423 17.29459,-10.02617 23.11661,-13.90046 7.65864,-5.09647 10.66705,-7.82579 17.73158,-13.58308 6.55763,-6.39853 9.68385,-9.08771 15.51911,-16.27072 10.13169,-12.47176 18.40155,-26.47158 25.06543,-41.05841 5.44104,-13.6981 11.23313,-27.7705 10.81665,-42.788334 -0.11275,-0.420764 5.83778,-2.015206 5.95052,-1.594443 z"
         id="path2864"
         style="fill:#659ba2;fill-opacity:1;fill-rule:nonzero;stroke:none" />
      <path
         d="m 283.36619,288.66869 c 2.81155,-0.52093 5.65842,-0.81946 8.47576,-1.30228 7.9474,-1.36195 16.43334,-3.16592 24.25938,-4.6312 18.34055,-3.43394 26.51316,-4.7524 45.69329,-8.04432 9.87731,-1.57315 19.73471,-3.27676 29.63191,-4.71947 19.57245,-2.85308 44.48203,-5.88127 64.13756,-7.92991 15.88299,-1.65544 40.46803,-3.83341 56.78477,-4.81265 7.19879,-0.43203 14.41075,-0.60617 21.61613,-0.90926 19.60268,-0.002 10.79695,-0.44851 26.43734,0.85228 0.54589,-0.15303 2.70997,7.56702 2.16408,7.72004 l 0,0 c -14.37406,2.11325 -6.18909,0.94891 -24.56524,3.41955 -12.35125,1.6653 -35.1863,4.76457 -46.74631,6.22603 -41.36447,5.22946 -82.84897,9.43016 -124.31276,13.77699 -16.67688,1.54705 -30.7513,2.97741 -47.28471,4.08499 -5.25671,0.35215 -10.52017,0.60426 -15.78445,0.81472 -4.51677,0.18058 -11.14658,0.32723 -16.00774,0.12103 -1.12851,-0.0479 -2.25062,-0.19494 -3.37592,-0.29241 -0.3093,0.0794 -1.43239,-4.29471 -1.12309,-4.37413 z"
         id="path2860"
         style="fill:#f6921e;fill-opacity:1;fill-rule:nonzero;stroke:none" />
      <path
         id="path2852"
         d="m 526.55739,257.83576 c -42.19744,10.62651 -82.48178,27.42555 -123.7304,41.03764 -22.86654,7.75288 -46.11292,15.12953 -70.21486,17.55609 -5.15444,-0.14239 -10.85631,-0.6195 -14.93588,-4.05734 -3.6002,-3.3349 -3.11941,-8.83281 -2.53169,-13.25545 0.95179,-5.93659 3.59686,-11.51085 4.86438,-17.35701 0.0329,-2.02825 -2.26341,-2.77376 -3.48245,-3.95784 -1.36315,-1.01476 -3.04219,-0.0867 -3.59302,1.39298 -5.71261,8.12124 -9.48835,18.2565 -8.14784,28.31294 0.95328,5.92938 4.63898,11.17255 9.78405,14.17305 3.75694,2.62451 8.3488,3.78249 12.7469,4.89755 14.00808,2.40523 28.29515,0.13058 42.13024,-2.33518 34.22017,-6.75193 67.0252,-18.91906 99.6458,-31.10569 21.20545,-8.39014 42.87993,-15.56338 63.9543,-24.27949 0.69668,-3.08764 -2.00402,-5.49778 -3.15079,-8.11468 -0.7247,-1.22675 -1.71465,-2.9749 -3.33874,-2.90757 z"
         style="fill:#f6921e;fill-opacity:1;fill-rule:nonzero;stroke:none" />
      <path
         id="path2936"
         d="m 641.8861,301.44795 c -3.10406,0.67257 -6.12513,2.19328 -9.23389,3.06059 -18.04551,6.39258 -37.54404,7.92961 -56.60821,6.63329 -7.98596,-0.8347 -16.26357,-1.33453 -23.89162,-4.01559 -4.56351,-1.5862 -8.33875,-4.67341 -12.37337,-7.2357 -13.60676,-7.55632 -29.84121,-7.98536 -44.99612,-6.6667 -8.58995,0.94405 -17.22503,2.6361 -25.1451,6.05148 -2.12879,2.04366 -0.10244,5.9916 2.47058,6.40589 4.93726,-0.25538 9.72501,-1.75123 14.66793,-2.13737 15.15289,-2.09961 31.06631,-3.54077 45.72883,1.83495 6.69373,2.90499 12.12358,8.32523 19.32406,10.20908 11.95948,3.89918 24.63892,4.98475 37.13469,5.33774 19.23089,0.0884 39.11533,-3.26747 55.74863,-13.31321 2.12687,-2.1416 -0.43832,-5.75294 -2.82641,-6.16445 z"
         style="fill:#659ba2;fill-opacity:1;fill-rule:nonzero;stroke:none" />
      <path
         id="path2942"
         d="m 154.146,301.51062 c -24.70501,0.24746 -49.9939,3.97274 -72.103476,15.34492 -1.524416,0.95538 -1.679016,3.01422 -0.431161,4.25634 1.128187,1.69041 3.408476,1.77218 4.975166,0.69411 20.336621,-7.65681 41.956491,-11.9758 63.733751,-12.08689 13.275,-0.34018 26.90597,-0.61463 39.60683,3.80448 12.91771,4.17106 25.43088,10.0283 39.0862,11.21448 23.32148,2.62417 46.87338,-2.64386 68.3225,-11.43131 1.50908,-0.65004 0.33961,-2.82222 -0.15477,-3.94679 -0.97147,-1.71498 -2.7476,-3.60535 -4.89756,-2.54274 -6.11806,2.46579 -12.51114,4.29004 -18.84649,6.16783 -17.51751,4.94715 -36.4116,6.84684 -54.17374,1.9444 -17.35615,-4.48298 -33.85465,-12.92582 -52.06081,-13.24195 -4.34688,-0.25284 -8.70458,-0.17964 -13.05644,-0.17688 z"
         style="fill:#659ba2;fill-opacity:1;fill-rule:nonzero;stroke:none" />
      <path
         id="path2990"
         d="m 212.68292,118.88016 c -6.45916,-0.0152 -14.19641,0.94105 -18.042,6.78954 -1.94891,3.15909 -2.23827,7.07787 -1.70299,10.67803 -2.3001,-2.36601 -3.73743,-5.42177 -4.94177,-8.38001 -2.08595,-2.1548 -5.88018,-1.00143 -7.56191,1.02816 -1.2172,2.53085 0.5363,5.20803 1.30455,7.57296 4.48618,9.12828 13.17475,15.17208 21.72457,20.19686 8.41454,4.72217 18.83007,7.81682 28.29015,4.35723 5.84616,-2.02455 10.40936,-7.00954 11.55291,-13.13384 2.28591,-9.68102 -2.79889,-20.32308 -11.60789,-24.77013 -5.74841,-3.23886 -12.45369,-4.44296 -19.01562,-4.3388 z m -2.5317,8.62323 c 7.69585,0.20079 16.48508,1.02904 21.86763,7.18603 4.06222,4.71322 4.88076,13.08211 -0.0663,17.36807 -6.1391,4.05733 -14.16696,1.98829 -20.05453,-1.49249 -3.27044,-1.84684 -6.87047,-3.78731 -9.56294,-6.24631 1.49833,-2.35848 -0.71943,-4.86538 -0.86436,-7.27885 -0.51913,-2.65966 -1.11374,-6.16734 1.09651,-8.19874 2.20991,-1.39223 5.05258,-1.10712 7.58402,-1.33771 z"
         style="fill:#f6921e;fill-opacity:1;fill-rule:nonzero;stroke:none" />
      <path
         id="path2992"
         d="m 137.97027,132.69256 c -7.16426,0.37437 -14.23872,2.12995 -20.66259,5.2845 -1.15362,3.1634 2.0736,7.40667 5.48349,6.00309 6.44774,-0.92217 12.96709,-4.15481 19.49071,-2.29953 3.48444,2.77837 4.96722,7.79261 9.45926,9.37843 7.89119,3.97696 17.53318,1.94383 24.95627,-2.15923 2.17309,-2.11441 0.13157,-5.9075 -2.36586,-6.73276 -2.45251,-0.84097 -4.44351,1.40011 -6.78375,1.66182 -4.52754,1.28744 -10.33912,2.02819 -14.05573,-1.52915 -3.15154,-3.53349 -5.76398,-8.51971 -10.93381,-9.20917 -1.50265,-0.34455 -3.04606,-0.45609 -4.58799,-0.398 z"
         style="fill:#f6921e;fill-opacity:1;fill-rule:nonzero;stroke:none" />
      <path
         id="path2994"
         d="m 261.83532,133.61704 c -5.73036,0.2225 -11.57351,1.11165 -16.64946,3.83623 -1.24072,3.35487 2.50988,7.75678 5.95887,5.94782 7.849,-1.79719 16.55941,-2.00132 23.94605,1.64726 9.42617,3.14574 20.40136,1.25988 28.21343,-4.77595 1.95795,-2.1892 -0.13278,-5.34042 -2.36586,-6.3237 -2.24898,-0.85925 -4.04246,1.45168 -6.1247,1.87942 -6.22654,2.59548 -13.60653,3.35259 -19.8246,0.30006 -4.19928,-1.55107 -8.62137,-2.85841 -13.15373,-2.51114 z"
         style="fill:#f6921e;fill-opacity:1;fill-rule:nonzero;stroke:none" />
      <path
         id="path2996"
         d="m 219.77093,59.912303 c -2.91364,0.121771 -5.25594,3.962553 -3.1508,6.323703 1.55572,5.291668 -2.05692,10.173249 -4.84227,14.349932 -3.74746,7.158218 -4.73824,16.218753 -1.33771,23.691772 1.73142,2.67807 4.32914,4.92167 6.7217,6.79908 2.90354,0.15031 5.8492,-2.47246 5.4061,-5.50559 -3.06166,-2.39632 -6.60219,-5.627848 -5.9593,-9.927052 -0.45199,-5.510434 1.25369,-11.119291 4.95325,-15.257207 3.55327,-5.66904 5.10209,-13.841762 0.74072,-19.479649 -0.67492,-0.637281 -1.587,-1.073314 -2.53169,-0.994989 z"
         style="fill:#f6921e;fill-opacity:1;fill-rule:nonzero;stroke:none" />
      <path
         style="fill:#f6921e;fill-opacity:1;fill-rule:nonzero;stroke:none"
         d="m 211.37754,165.84292 c 2.91365,0.12177 5.25595,3.96255 3.15081,6.3237 -1.55572,5.29167 2.05692,10.17325 4.84226,14.34993 3.74746,7.15822 4.73825,16.21876 1.33772,23.69178 -1.73142,2.67807 -4.32915,4.92166 -6.7217,6.79908 -2.90354,0.1503 -5.8492,-2.47247 -5.4061,-5.5056 3.06165,-2.39631 6.60219,-5.62784 5.9593,-9.92705 0.45199,-5.51043 -1.2537,-11.11929 -4.95326,-15.2572 -3.55326,-5.66904 -5.10209,-13.84177 -0.74071,-19.47965 0.67491,-0.63728 1.58699,-1.07332 2.53168,-0.99499 z"
         id="path3263" />
      <path
         d="m 293.1865,236.70655 c 23.26379,2.1345 46.52218,4.32203 69.79507,6.35711 33.48203,2.69944 66.97134,5.33984 100.50928,7.25505 10.21849,0.58354 20.44387,1.03946 30.66572,1.56079 11.21808,0.14647 6.38727,0.35569 14.50415,-0.23301 0.31228,-0.15904 2.56142,4.25728 2.24915,4.41632 l 0,0 c -7.9218,3.64273 -3.20968,1.94515 -14.43087,4.18602 -15.98463,1.19846 -19.79734,1.75426 -36.42003,1.79977 -33.8725,0.0927 -67.69061,-2.99804 -101.16773,-8.01689 -7.16434,-1.19067 -14.34651,-2.27867 -21.49304,-3.57202 -10.30176,-1.86437 -19.70029,-3.89287 -29.7948,-6.3359 -1.17963,-0.28549 -10.67209,-2.74832 -13.11993,-3.46374 -0.92701,-0.27094 -1.83485,-0.60361 -2.75227,-0.90541 -0.21554,-0.10286 1.23976,-3.151 1.4553,-3.04809 z"
         id="path2912"
         style="fill:#659ba2;fill-opacity:1;fill-rule:nonzero;stroke:none" />
      <path
         id="path2862"
         d="m 418.0816,96.117048 c -2.25765,0.802095 -4.77944,3.052975 -4.34478,5.527712 7.3827,8.37793 15.44324,16.10495 22.7658,24.56671 21.12459,23.61941 40.90982,49.02843 54.02516,78.03866 5.46513,12.6396 7.6865,27.32878 2.98497,40.56234 -2.08076,5.9239 -5.6408,11.5524 -6.25738,17.96506 1.67816,1.37379 3.93352,3.31505 6.16892,2.50958 2.32266,-1.61431 3.01019,-4.62091 4.67645,-6.79908 9.17602,-16.11379 11.68639,-36.22513 5.52981,-53.88934 -7.78275,-26.01844 -24.75293,-47.94508 -42.16676,-68.29741 -12.58534,-14.53311 -25.77779,-28.85929 -41.75705,-39.697794 -0.50017,-0.215937 -1.08747,-0.683239 -1.62514,-0.486438 z"
         style="fill:#659ba2;fill-opacity:1;fill-rule:nonzero;stroke:none" />
    </g>
  </g>
</svg>
