<?xml version="1.0" encoding="UTF-8" standalone="no"?>
<!-- Created with Inkscape (http://www.inkscape.org/) -->
<svg
   xmlns:dc="http://purl.org/dc/elements/1.1/"
   xmlns:cc="http://creativecommons.org/ns#"
   xmlns:rdf="http://www.w3.org/1999/02/22-rdf-syntax-ns#"
   xmlns:svg="http://www.w3.org/2000/svg"
   xmlns="http://www.w3.org/2000/svg"
   xmlns:sodipodi="http://sodipodi.sourceforge.net/DTD/sodipodi-0.dtd"
   xmlns:inkscape="http://www.inkscape.org/namespaces/inkscape"
   id="svg3819"
   sodipodi:version="0.32"
   inkscape:version="0.46"
   width="450"
   height="315"
   xml:space="preserve"
   sodipodi:docname="balmigxtb.svg"
   inkscape:output_extension="org.inkscape.output.svg.inkscape"><metadata
     id="metadata3824"><rdf:RDF><cc:Work
         rdf:about=""><dc:format>image/svg+xml</dc:format><dc:type
           rdf:resource="http://purl.org/dc/dcmitype/StillImage" /></cc:Work></rdf:RDF></metadata><defs
     id="defs3822"><inkscape:perspective
       sodipodi:type="inkscape:persp3d"
       inkscape:vp_x="0 : 526.18109 : 1"
       inkscape:vp_y="0 : 1000 : 0"
       inkscape:vp_z="744.09448 : 526.18109 : 1"
       inkscape:persp3d-origin="372.04724 : 350.78739 : 1"
       id="perspective3826" /></defs><sodipodi:namedview
     inkscape:window-height="667"
     inkscape:window-width="640"
     inkscape:pageshadow="2"
     inkscape:pageopacity="0.0"
     guidetolerance="10.0"
     gridtolerance="10.0"
     objecttolerance="10.0"
     borderopacity="1.0"
     bordercolor="#666666"
     pagecolor="#ffffff"
     id="base"
     showgrid="false"
     inkscape:zoom="1.2088889"
     inkscape:cx="225"
     inkscape:cy="157.5"
     inkscape:window-x="535"
     inkscape:window-y="60"
     inkscape:current-layer="g3828" /><g
     id="g3828"
     inkscape:groupmode="layer"
     inkscape:label="balmigxtb"
     transform="matrix(1.25,0,0,-1.25,0,315)"><g
       id="g3830"
       transform="scale(0.1,0.1)"><path
         d="M 552,160 L 3464,160"
         style="fill:none;stroke:#000000;stroke-opacity:1;stroke-width:2.5;stroke-linecap:butt;stroke-linejoin:miter;stroke-miterlimit:10;stroke-dasharray:5,10;stroke-dashoffset:0"
         id="path3832" /><path
         d="M 552,160 L 583.5,160 M 3464,160 L 3432.5,160"
         style="fill:none;stroke:#000000;stroke-opacity:1;stroke-width:10;stroke-linecap:butt;stroke-linejoin:miter;stroke-miterlimit:10;stroke-dasharray:none"
         id="path3834" /><g
         id="g3836"
         transform="scale(10,10)"><text
           transform="matrix(1,0,0,-1,45.9525,13.3352)"
           id="text3838"><tspan
             style="fill:#000000;fill-opacity:1;fill-rule:nonzero;stroke:none;font-family:Helvetica;font-variant:normal;font-weight:normal;font-size:8;writing-mode:lr;-inkscape-font-specification:Helvetica"
             x="0"
             y="0"
             id="tspan3840">0</tspan></text>
</g><path
         d="M 552,613 L 3464,613"
         style="fill:none;stroke:#000000;stroke-opacity:1;stroke-width:2.5;stroke-linecap:butt;stroke-linejoin:miter;stroke-miterlimit:10;stroke-dasharray:5,10;stroke-dashoffset:0"
         id="path3842" /><path
         d="M 552,613 L 583.5,613 M 3464,613 L 3432.5,613"
         style="fill:none;stroke:#000000;stroke-opacity:1;stroke-width:10;stroke-linecap:butt;stroke-linejoin:miter;stroke-miterlimit:10;stroke-dasharray:none"
         id="path3844" /><g
         id="g3846"
         transform="scale(10,10)"><text
           transform="matrix(1,0,0,-1,28.1619,58.6352)"
           id="text3848"><tspan
             style="fill:#000000;fill-opacity:1;fill-rule:nonzero;stroke:none;font-family:Helvetica;font-variant:normal;font-weight:normal;font-size:8;writing-mode:lr;-inkscape-font-specification:Helvetica"
             x="0 4.448 8.896 13.344 17.792"
             y="0"
             sodipodi:role="line"
             id="tspan3850">50000</tspan></text>
</g><path
         d="M 552,1065.5 L 3464,1065.5"
         style="fill:none;stroke:#000000;stroke-opacity:1;stroke-width:2.5;stroke-linecap:butt;stroke-linejoin:miter;stroke-miterlimit:10;stroke-dasharray:5,10;stroke-dashoffset:0"
         id="path3852" /><path
         d="M 552,1065.5 L 583.5,1065.5 M 3464,1065.5 L 3432.5,1065.5"
         style="fill:none;stroke:#000000;stroke-opacity:1;stroke-width:10;stroke-linecap:butt;stroke-linejoin:miter;stroke-miterlimit:10;stroke-dasharray:none"
         id="path3854" /><g
         id="g3856"
         transform="scale(10,10)"><text
           transform="matrix(1,0,0,-1,23.7142,103.885)"
           id="text3858"><tspan
             style="fill:#000000;fill-opacity:1;fill-rule:nonzero;stroke:none;font-family:Helvetica;font-variant:normal;font-weight:normal;font-size:8;writing-mode:lr;-inkscape-font-specification:Helvetica"
             x="0 4.448 8.896 13.344 17.792 22.24"
             y="0"
             sodipodi:role="line"
             id="tspan3860">100000</tspan></text>
</g><path
         d="M 552,1518.5 L 3464,1518.5"
         style="fill:none;stroke:#000000;stroke-opacity:1;stroke-width:2.5;stroke-linecap:butt;stroke-linejoin:miter;stroke-miterlimit:10;stroke-dasharray:5,10;stroke-dashoffset:0"
         id="path3862" /><path
         d="M 552,1518.5 L 583.5,1518.5 M 3464,1518.5 L 3432.5,1518.5"
         style="fill:none;stroke:#000000;stroke-opacity:1;stroke-width:10;stroke-linecap:butt;stroke-linejoin:miter;stroke-miterlimit:10;stroke-dasharray:none"
         id="path3864" /><g
         id="g3866"
         transform="scale(10,10)"><text
           transform="matrix(1,0,0,-1,23.7142,149.185)"
           id="text3868"><tspan
             style="fill:#000000;fill-opacity:1;fill-rule:nonzero;stroke:none;font-family:Helvetica;font-variant:normal;font-weight:normal;font-size:8;writing-mode:lr;-inkscape-font-specification:Helvetica"
             x="0 4.448 8.896 13.344 17.792 22.24"
             y="0"
             sodipodi:role="line"
             id="tspan3870">150000</tspan></text>
</g><path
         d="M 552,1971 L 3464,1971"
         style="fill:none;stroke:#000000;stroke-opacity:1;stroke-width:2.5;stroke-linecap:butt;stroke-linejoin:miter;stroke-miterlimit:10;stroke-dasharray:5,10;stroke-dashoffset:0"
         id="path3872" /><path
         d="M 552,1971 L 583.5,1971 M 3464,1971 L 3432.5,1971"
         style="fill:none;stroke:#000000;stroke-opacity:1;stroke-width:10;stroke-linecap:butt;stroke-linejoin:miter;stroke-miterlimit:10;stroke-dasharray:none"
         id="path3874" /><g
         id="g3876"
         transform="scale(10,10)"><text
           transform="matrix(1,0,0,-1,23.7142,194.435)"
           id="text3878"><tspan
             style="fill:#000000;fill-opacity:1;fill-rule:nonzero;stroke:none;font-family:Helvetica;font-variant:normal;font-weight:normal;font-size:8;writing-mode:lr;-inkscape-font-specification:Helvetica"
             x="0 4.448 8.896 13.344 17.792 22.24"
             y="0"
             sodipodi:role="line"
             id="tspan3880">200000</tspan></text>
</g><path
         d="M 552,2424 L 3464,2424"
         style="fill:none;stroke:#000000;stroke-opacity:1;stroke-width:2.5;stroke-linecap:butt;stroke-linejoin:miter;stroke-miterlimit:10;stroke-dasharray:5,10;stroke-dashoffset:0"
         id="path3882" /><path
         d="M 552,2424 L 583.5,2424 M 3464,2424 L 3432.5,2424"
         style="fill:none;stroke:#000000;stroke-opacity:1;stroke-width:10;stroke-linecap:butt;stroke-linejoin:miter;stroke-miterlimit:10;stroke-dasharray:none"
         id="path3884" /><g
         id="g3886"
         transform="scale(10,10)"><text
           transform="matrix(1,0,0,-1,23.7142,239.735)"
           id="text3888"><tspan
             style="fill:#000000;fill-opacity:1;fill-rule:nonzero;stroke:none;font-family:Helvetica;font-variant:normal;font-weight:normal;font-size:8;writing-mode:lr;-inkscape-font-specification:Helvetica"
             x="0 4.448 8.896 13.344 17.792 22.24"
             y="0"
             sodipodi:role="line"
             id="tspan3890">250000</tspan></text>
</g><path
         d="M 1134.5,160 L 1134.5,2424"
         style="fill:none;stroke:#000000;stroke-opacity:1;stroke-width:2.5;stroke-linecap:butt;stroke-linejoin:miter;stroke-miterlimit:10;stroke-dasharray:5,10;stroke-dashoffset:0"
         id="path3892" /><path
         d="M 1134.5,160 L 1134.5,191.5 M 1134.5,2424 L 1134.5,2392.5"
         style="fill:none;stroke:#000000;stroke-opacity:1;stroke-width:10;stroke-linecap:butt;stroke-linejoin:miter;stroke-miterlimit:10;stroke-dasharray:none"
         id="path3894" /><g
         id="g3896"
         transform="scale(10,10)"><text
           transform="matrix(1,0,0,-1,93.223,5.33516)"
           id="text3898"><tspan
             style="fill:#000000;fill-opacity:1;fill-rule:nonzero;stroke:none;font-family:Helvetica;font-variant:normal;font-weight:normal;font-size:8;writing-mode:lr;-inkscape-font-specification:Helvetica"
             x="0 5.336 8 12.448 18.672 24.448 28.896 35.12"
             y="0"
             sodipodi:role="line"
             id="tspan3900">ProGReGA</tspan></text>
</g><path
         d="M 1717,160 L 1717,2424"
         style="fill:none;stroke:#000000;stroke-opacity:1;stroke-width:2.5;stroke-linecap:butt;stroke-linejoin:miter;stroke-miterlimit:10;stroke-dasharray:5,10;stroke-dashoffset:0"
         id="path3902" /><path
         d="M 1717,160 L 1717,191.5 M 1717,2424 L 1717,2392.5"
         style="fill:none;stroke:#000000;stroke-opacity:1;stroke-width:10;stroke-linecap:butt;stroke-linejoin:miter;stroke-miterlimit:10;stroke-dasharray:none"
         id="path3904" /><g
         id="g3906"
         transform="scale(10,10)"><text
           transform="matrix(1,0,0,-1,143.581,5.33516)"
           id="text3908"><tspan
             style="fill:#000000;fill-opacity:1;fill-rule:nonzero;stroke:none;font-family:Helvetica;font-variant:normal;font-weight:normal;font-size:8;writing-mode:lr;-inkscape-font-specification:Helvetica"
             x="0 5.336 8 12.448 18.672 24.448 28.896 35.12 40.456 45.128 50.464"
             y="0"
             sodipodi:role="line"
             id="tspan3910">ProGReGA−KH</tspan></text>
</g><path
         d="M 2299,160 L 2299,2424"
         style="fill:none;stroke:#000000;stroke-opacity:1;stroke-width:2.5;stroke-linecap:butt;stroke-linejoin:miter;stroke-miterlimit:10;stroke-dasharray:5,10;stroke-dashoffset:0"
         id="path3912" /><path
         d="M 2299,160 L 2299,191.5 M 2299,2424 L 2299,2392.5"
         style="fill:none;stroke:#000000;stroke-opacity:1;stroke-width:10;stroke-linecap:butt;stroke-linejoin:miter;stroke-miterlimit:10;stroke-dasharray:none"
         id="path3914" /><g
         id="g3916"
         transform="scale(10,10)"><text
           transform="matrix(1,0,0,-1,202.225,5.33516)"
           id="text3918"><tspan
             style="fill:#000000;fill-opacity:1;fill-rule:nonzero;stroke:none;font-family:Helvetica;font-variant:normal;font-weight:normal;font-size:8;writing-mode:lr;-inkscape-font-specification:Helvetica"
             x="0 5.336 8 12.448 18.672 24.448 28.896 35.12 40.456 45.128 50.464"
             y="0"
             sodipodi:role="line"
             id="tspan3920">ProGReGA−KF</tspan></text>
</g><path
         d="M 2881.5,160 L 2881.5,2232.5 M 2881.5,2392.5 L 2881.5,2424"
         style="fill:none;stroke:#000000;stroke-opacity:1;stroke-width:2.5;stroke-linecap:butt;stroke-linejoin:miter;stroke-miterlimit:10;stroke-dasharray:5,10;stroke-dashoffset:0"
         id="path3922" /><path
         d="M 2881.5,160 L 2881.5,191.5 M 2881.5,2424 L 2881.5,2392.5"
         style="fill:none;stroke:#000000;stroke-opacity:1;stroke-width:10;stroke-linecap:butt;stroke-linejoin:miter;stroke-miterlimit:10;stroke-dasharray:none"
         id="path3924" /><g
         id="g3926"
         transform="scale(10,10)"><text
           transform="matrix(1,0,0,-1,275.038,5.33516)"
           id="text3928"><tspan
             style="fill:#000000;fill-opacity:1;fill-rule:nonzero;stroke:none;font-family:Helvetica;font-variant:normal;font-weight:normal;font-size:8;writing-mode:lr;-inkscape-font-specification:Helvetica"
             x="0 5.336 10.224 15.56 21.336"
             y="0"
             sodipodi:role="line"
             id="tspan3930">BFBCT</tspan></text>
</g><path
         d="M 552,160 L 3464,160 L 3464,2424 L 552,2424 L 552,160 z"
         style="fill:none;stroke:#000000;stroke-opacity:1;stroke-width:10;stroke-linecap:butt;stroke-linejoin:miter;stroke-miterlimit:10;stroke-dasharray:none"
         id="path3932" /><g
         id="g3934"
         transform="scale(10,10)"><text
           transform="matrix(0,1,1,0,10.6648,86.5191)"
           id="text3936"><tspan
             style="fill:#000000;fill-opacity:1;fill-rule:nonzero;stroke:none;font-family:Helvetica;font-variant:normal;font-weight:normal;font-size:8;writing-mode:lr;-inkscape-font-specification:Helvetica"
             x="0 6.664 8.44 12.888 15.552 20 24 28.448 32.896 36.896 39.12 43.568 48.016 50.24 52.016 56.464 60.912 65.36 69.808 74.256 76.92 81.368"
             y="0"
             sodipodi:role="line"
             id="tspan3938">Migrações de jogadores</tspan></text>
<text
           transform="matrix(1,0,0,-1,256.309,232.585)"
           id="text3940"><tspan
             style="fill:#000000;fill-opacity:1;fill-rule:nonzero;stroke:none;font-family:Helvetica;font-variant:normal;font-weight:normal;font-size:8;writing-mode:lr;-inkscape-font-specification:Helvetica"
             x="0 5.336 12 14.224 20.888 25.336 29.336 31.112 37.776 42.224 46.672 48.896"
             y="0"
             sodipodi:role="line"
             id="tspan3942">Em movimento</tspan></text>
</g><path
         d="M 3144.5,2332.5 L 3368,2332.5 L 3368,2372.5 L 3144.5,2372.5 L 3144.5,2332.5 z"
         style="fill:#333333;fill-opacity:1;fill-rule:nonzero;stroke:none"
         id="path3944" /><path
         d="M 3144.5,2332.5 L 3144.5,2372.5 L 3368,2372.5 L 3368,2332.5"
         style="fill:none;stroke:#333333;stroke-opacity:1;stroke-width:5;stroke-linecap:butt;stroke-linejoin:miter;stroke-miterlimit:10;stroke-dasharray:none"
         id="path3946" /><path
         d="M 3144.5,2332.5 L 3368,2332.5 L 3368,2372.5 L 3144.5,2372.5 L 3144.5,2332.5 z"
         style="fill:none;stroke:#000000;stroke-opacity:1;stroke-width:10;stroke-linecap:butt;stroke-linejoin:miter;stroke-miterlimit:10;stroke-dasharray:none"
         id="path3948" /><path
         d="M 989,160 L 1280.5,160 L 1280.5,859 L 989,859 L 989,160 z"
         style="fill:#333333;fill-opacity:1;fill-rule:nonzero;stroke:none"
         id="path3950" /><path
         d="M 989,160 L 989,859 L 1280.5,859 L 1280.5,160"
         style="fill:none;stroke:#333333;stroke-opacity:1;stroke-width:5;stroke-linecap:butt;stroke-linejoin:miter;stroke-miterlimit:10;stroke-dasharray:none"
         id="path3952" /><path
         d="M 989,160 L 1280,160 L 1280,858.5 L 989,858.5 L 989,160 z"
         style="fill:none;stroke:#000000;stroke-opacity:1;stroke-width:10;stroke-linecap:butt;stroke-linejoin:miter;stroke-miterlimit:10;stroke-dasharray:none"
         id="path3954" /><path
         d="M 1571,160 L 1863,160 L 1863,1014.5 L 1571,1014.5 L 1571,160 z"
         style="fill:#333333;fill-opacity:1;fill-rule:nonzero;stroke:none"
         id="path3956" /><path
         d="M 1571,160 L 1571,1014.5 L 1863,1014.5 L 1863,160"
         style="fill:none;stroke:#333333;stroke-opacity:1;stroke-width:5;stroke-linecap:butt;stroke-linejoin:miter;stroke-miterlimit:10;stroke-dasharray:none"
         id="path3958" /><path
         d="M 1571,160 L 1862.5,160 L 1862.5,1014 L 1571,1014 L 1571,160 z"
         style="fill:none;stroke:#000000;stroke-opacity:1;stroke-width:10;stroke-linecap:butt;stroke-linejoin:miter;stroke-miterlimit:10;stroke-dasharray:none"
         id="path3960" /><path
         d="M 2153.5,160 L 2445.5,160 L 2445.5,1147.5 L 2153.5,1147.5 L 2153.5,160 z"
         style="fill:#333333;fill-opacity:1;fill-rule:nonzero;stroke:none"
         id="path3962" /><path
         d="M 2153.5,160 L 2153.5,1147.5 L 2445.5,1147.5 L 2445.5,160"
         style="fill:none;stroke:#333333;stroke-opacity:1;stroke-width:5;stroke-linecap:butt;stroke-linejoin:miter;stroke-miterlimit:10;stroke-dasharray:none"
         id="path3964" /><path
         d="M 2153.5,160 L 2445,160 L 2445,1147 L 2153.5,1147 L 2153.5,160 z"
         style="fill:none;stroke:#000000;stroke-opacity:1;stroke-width:10;stroke-linecap:butt;stroke-linejoin:miter;stroke-miterlimit:10;stroke-dasharray:none"
         id="path3966" /><path
         d="M 2736,160 L 3027.5,160 L 3027.5,1487.5 L 2736,1487.5 L 2736,160 z"
         style="fill:#333333;fill-opacity:1;fill-rule:nonzero;stroke:none"
         id="path3968" /><path
         d="M 2736,160 L 2736,1487.5 L 3027.5,1487.5 L 3027.5,160"
         style="fill:none;stroke:#333333;stroke-opacity:1;stroke-width:5;stroke-linecap:butt;stroke-linejoin:miter;stroke-miterlimit:10;stroke-dasharray:none"
         id="path3970" /><path
         d="M 2736,160 L 3027,160 L 3027,1487 L 2736,1487 L 2736,160 z"
         style="fill:none;stroke:#000000;stroke-opacity:1;stroke-width:10;stroke-linecap:butt;stroke-linejoin:miter;stroke-miterlimit:10;stroke-dasharray:none"
         id="path3972" /><g
         id="g3974"
         transform="scale(10,10)"><text
           transform="matrix(1,0,0,-1,266.525,224.585)"
           id="text3976"><tspan
             style="fill:#000000;fill-opacity:1;fill-rule:nonzero;stroke:none;font-family:Helvetica;font-variant:normal;font-weight:normal;font-size:8;writing-mode:lr;-inkscape-font-specification:Helvetica"
             x="0 5.336 12 14.224 16.888 21.336 25.784 30.232 34.68 38.68"
             y="0"
             sodipodi:role="line"
             id="tspan3978">Em repouso</tspan></text>
</g><path
         d="M 3144.5,2252.5 L 3368,2252.5 L 3368,2292.5 L 3144.5,2292.5 L 3144.5,2252.5 z"
         style="fill:#878787;fill-opacity:1;fill-rule:nonzero;stroke:none"
         id="path3980" /><path
         d="M 3144.5,2252.5 L 3144.5,2292.5 L 3368,2292.5 L 3368,2252.5"
         style="fill:none;stroke:#878787;stroke-opacity:1;stroke-width:5;stroke-linecap:butt;stroke-linejoin:miter;stroke-miterlimit:10;stroke-dasharray:none"
         id="path3982" /><path
         d="M 3144.5,2252.5 L 3368,2252.5 L 3368,2292.5 L 3144.5,2292.5 L 3144.5,2252.5 z"
         style="fill:none;stroke:#000000;stroke-opacity:1;stroke-width:10;stroke-linecap:butt;stroke-linejoin:miter;stroke-miterlimit:10;stroke-dasharray:none"
         id="path3984" /><path
         d="M 989,858.5 L 1280.5,858.5 L 1280.5,1822.5 L 989,1822.5 L 989,858.5 z"
         style="fill:#878787;fill-opacity:1;fill-rule:nonzero;stroke:none"
         id="path3986" /><path
         d="M 989,858.5 L 989,1822.5 L 1280.5,1822.5 L 1280.5,858.5"
         style="fill:none;stroke:#878787;stroke-opacity:1;stroke-width:5;stroke-linecap:butt;stroke-linejoin:miter;stroke-miterlimit:10;stroke-dasharray:none"
         id="path3988" /><path
         d="M 989,858.5 L 1280,858.5 L 1280,1822 L 989,1822 L 989,858.5 z"
         style="fill:none;stroke:#000000;stroke-opacity:1;stroke-width:10;stroke-linecap:butt;stroke-linejoin:miter;stroke-miterlimit:10;stroke-dasharray:none"
         id="path3990" /><path
         d="M 1571,1014 L 1863,1014 L 1863,1474.5 L 1571,1474.5 L 1571,1014 z"
         style="fill:#878787;fill-opacity:1;fill-rule:nonzero;stroke:none"
         id="path3992" /><path
         d="M 1571,1014 L 1571,1474.5 L 1863,1474.5 L 1863,1014"
         style="fill:none;stroke:#878787;stroke-opacity:1;stroke-width:5;stroke-linecap:butt;stroke-linejoin:miter;stroke-miterlimit:10;stroke-dasharray:none"
         id="path3994" /><path
         d="M 1571,1014 L 1862.5,1014 L 1862.5,1474 L 1571,1474 L 1571,1014 z"
         style="fill:none;stroke:#000000;stroke-opacity:1;stroke-width:10;stroke-linecap:butt;stroke-linejoin:miter;stroke-miterlimit:10;stroke-dasharray:none"
         id="path3996" /><path
         d="M 2153.5,1147 L 2445.5,1147 L 2445.5,1455 L 2153.5,1455 L 2153.5,1147 z"
         style="fill:#878787;fill-opacity:1;fill-rule:nonzero;stroke:none"
         id="path3998" /><path
         d="M 2153.5,1147 L 2153.5,1455 L 2445.5,1455 L 2445.5,1147"
         style="fill:none;stroke:#878787;stroke-opacity:1;stroke-width:5;stroke-linecap:butt;stroke-linejoin:miter;stroke-miterlimit:10;stroke-dasharray:none"
         id="path4000" /><path
         d="M 2153.5,1147 L 2445,1147 L 2445,1454.5 L 2153.5,1454.5 L 2153.5,1147 z"
         style="fill:none;stroke:#000000;stroke-opacity:1;stroke-width:10;stroke-linecap:butt;stroke-linejoin:miter;stroke-miterlimit:10;stroke-dasharray:none"
         id="path4002" /><path
         d="M 2736,1487 L 3027.5,1487 L 3027.5,2011 L 2736,2011 L 2736,1487 z"
         style="fill:#878787;fill-opacity:1;fill-rule:nonzero;stroke:none"
         id="path4004" /><path
         d="M 2736,1487 L 2736,2011 L 3027.5,2011 L 3027.5,1487"
         style="fill:none;stroke:#878787;stroke-opacity:1;stroke-width:5;stroke-linecap:butt;stroke-linejoin:miter;stroke-miterlimit:10;stroke-dasharray:none"
         id="path4006" /><path
         d="M 2736,1487 L 3027,1487 L 3027,2010.5 L 2736,2010.5 L 2736,1487 z"
         style="fill:none;stroke:#000000;stroke-opacity:1;stroke-width:10;stroke-linecap:butt;stroke-linejoin:miter;stroke-miterlimit:10;stroke-dasharray:none"
         id="path4008" /><path
         d="M 552,160 L 3464,160 L 3464,2424 L 552,2424 L 552,160 z"
         style="fill:none;stroke:#000000;stroke-opacity:1;stroke-width:10;stroke-linecap:butt;stroke-linejoin:miter;stroke-miterlimit:10;stroke-dasharray:none"
         id="path4010" /></g></g></svg>