<?xml version="1.0" encoding="UTF-8" standalone="no"?>
<!-- Created with Inkscape (http://www.inkscape.org/) -->
<svg
   xmlns:dc="http://purl.org/dc/elements/1.1/"
   xmlns:cc="http://creativecommons.org/ns#"
   xmlns:rdf="http://www.w3.org/1999/02/22-rdf-syntax-ns#"
   xmlns:svg="http://www.w3.org/2000/svg"
   xmlns="http://www.w3.org/2000/svg"
   xmlns:sodipodi="http://sodipodi.sourceforge.net/DTD/sodipodi-0.dtd"
   xmlns:inkscape="http://www.inkscape.org/namespaces/inkscape"
   version="1.0"
   width="1052.3622"
   height="744.09448"
   id="svg3951"
   sodipodi:version="0.32"
   inkscape:version="0.46"
   sodipodi:docname="vilanova.svg"
   inkscape:output_extension="org.inkscape.output.svg.inkscape">
  <metadata
     id="metadata2937">
    <rdf:RDF>
      <cc:Work
         rdf:about="">
        <dc:format>image/svg+xml</dc:format>
        <dc:type
           rdf:resource="http://purl.org/dc/dcmitype/StillImage" />
      </cc:Work>
    </rdf:RDF>
  </metadata>
  <sodipodi:namedview
     inkscape:window-height="814"
     inkscape:window-width="1440"
     inkscape:pageshadow="2"
     inkscape:pageopacity="0.0"
     guidetolerance="10.0"
     gridtolerance="10.0"
     objecttolerance="10.0"
     borderopacity="1.0"
     bordercolor="#666666"
     pagecolor="#ffffff"
     id="base"
     showgrid="false"
     inkscape:zoom="0.73105266"
     inkscape:cx="368.37254"
     inkscape:cy="537.35673"
     inkscape:window-x="-4"
     inkscape:window-y="-4"
     inkscape:current-layer="svg3951"
     showguides="true"
     inkscape:guide-bbox="true" />
  <defs
     id="defs3953">
    <inkscape:perspective
       sodipodi:type="inkscape:persp3d"
       inkscape:vp_x="0 : 372.04724 : 1"
       inkscape:vp_y="0 : 1000 : 0"
       inkscape:vp_z="1052.3622 : 372.04724 : 1"
       inkscape:persp3d-origin="526.18109 : 248.03149 : 1"
       id="perspective2939" />
  </defs>
  <path
     d="M 265.37891,516.50407 L 265.37891,366.50407 L 415.37891,366.50407 L 415.37891,516.50407 L 265.37891,516.50407 z"
     id="path5083"
     style="fill:#ffffff;fill-opacity:1;fill-rule:evenodd;stroke:#000000;stroke-width:5;stroke-linecap:butt;stroke-linejoin:miter;stroke-miterlimit:4;stroke-dasharray:none;stroke-dashoffset:0;stroke-opacity:1" />
  <text
     x="339.93848"
     y="388.45987"
     id="text5087"
     xml:space="preserve"
     style="font-size:38.83468628px;font-style:normal;font-weight:normal;text-align:center;text-anchor:middle;fill:#000000;fill-opacity:1;stroke:none;stroke-width:1px;stroke-linecap:butt;stroke-linejoin:miter;stroke-opacity:1;font-family:Bitstream Vera Sans"><tspan
       x="339.93848"
       y="388.45987"
       id="tspan5089"
       style="font-size:22px;font-style:normal;font-variant:normal;font-weight:normal;font-stretch:normal;font-family:Calibri;-inkscape-font-specification:Calibri">Espaço de Ação</tspan></text>
  <path
     style="fill:none;fill-rule:evenodd;stroke:#000000;stroke-width:1.39803648;stroke-linecap:butt;stroke-linejoin:miter;stroke-miterlimit:4;stroke-dasharray:none;stroke-opacity:1"
     id="path4945"
     d="M 342.48752,453.17329 L 381.51119,460.00795" />
  <path
     style="fill:none;fill-rule:evenodd;stroke:#000000;stroke-width:1.39795673;stroke-linecap:butt;stroke-linejoin:miter;stroke-miterlimit:4;stroke-dasharray:none;stroke-opacity:1"
     id="path4947"
     d="M 317.5741,430.24413 L 337.19617,447.66147 L 338.95995,449.20478" />
  <path
     style="fill:#000000;fill-opacity:1;fill-rule:evenodd;stroke:#000000;stroke-width:1.39803648;stroke-linecap:round;stroke-linejoin:round;stroke-miterlimit:4;stroke-dasharray:none;stroke-dashoffset:0;stroke-opacity:1"
     id="path4951"
     d="M 319.98553,425.76741 C 319.98553,429.54208 316.92555,432.60206 313.15088,432.60206 C 309.3762,432.60206 306.31622,429.54208 306.31622,425.76741 C 306.31622,421.99273 309.3762,418.93275 313.15088,418.93275 C 316.92555,418.93276 319.98553,421.99273 319.98553,425.76741 z" />
  <path
     style="fill:#ffffff;fill-opacity:1;fill-rule:evenodd;stroke:#000000;stroke-width:1.39803648;stroke-linecap:round;stroke-linejoin:round;stroke-miterlimit:4;stroke-dasharray:none;stroke-dashoffset:0;stroke-opacity:1"
     id="path4963"
     d="M 387.17746,459.90902 C 387.17746,463.6837 384.11747,466.74367 380.34282,466.74367 C 376.56813,466.74367 373.50817,463.6837 373.50817,459.90902 C 373.50817,456.13434 376.56813,453.07436 380.34282,453.07436 C 384.11747,453.07436 387.17746,456.13434 387.17746,459.90902 z" />
  <path
     style="fill:#ffffff;fill-opacity:1;fill-rule:evenodd;stroke:#000000;stroke-width:1.39803648;stroke-linecap:round;stroke-linejoin:round;stroke-miterlimit:4;stroke-dasharray:none;stroke-dashoffset:0;stroke-opacity:1"
     id="path4965"
     d="M 348.82661,453.04952 C 348.82661,456.82419 345.76664,459.88417 341.99196,459.88417 C 338.21728,459.88417 335.1573,456.82419 335.1573,453.04952 C 335.1573,449.27484 338.21728,446.21486 341.99196,446.21486 C 345.76664,446.21486 348.82661,449.27484 348.82661,453.04952 z" />
  <path
     d="M 460.3753,516.50407 L 460.3753,366.50407 L 610.37531,366.50407 L 610.37531,516.50407 L 460.3753,516.50407 z"
     id="path5099"
     style="fill:#ffffff;fill-opacity:1;fill-rule:evenodd;stroke:#000000;stroke-width:5;stroke-linecap:butt;stroke-linejoin:miter;stroke-miterlimit:4;stroke-dasharray:none;stroke-dashoffset:0;stroke-opacity:1" />
  <path
     d="M 506.94845,465.40953 L 538.36582,453.06305"
     id="path4971"
     style="fill:none;fill-rule:evenodd;stroke:#000000;stroke-width:1.39803648;stroke-linecap:butt;stroke-linejoin:miter;stroke-miterlimit:4;stroke-dasharray:none;stroke-opacity:1" />
  <path
     d="M 537.48393,453.17329 L 576.5076,460.00795"
     id="path4973"
     style="fill:none;fill-rule:evenodd;stroke:#000000;stroke-width:1.39803648;stroke-linecap:butt;stroke-linejoin:miter;stroke-miterlimit:4;stroke-dasharray:none;stroke-opacity:1" />
  <path
     d="M 512.57051,430.24413 L 532.19258,447.66147 L 533.95636,449.20478"
     id="path4975"
     style="fill:none;fill-rule:evenodd;stroke:#000000;stroke-width:1.39795673;stroke-linecap:butt;stroke-linejoin:miter;stroke-miterlimit:4;stroke-dasharray:none;stroke-opacity:1" />
  <path
     d="M 514.98194,425.76741 C 514.98194,429.54208 511.92196,432.60206 508.14729,432.60206 C 504.37261,432.60206 501.31263,429.54208 501.31263,425.76741 C 501.31263,421.99273 504.37261,418.93275 508.14729,418.93275 C 511.92196,418.93276 514.98194,421.99273 514.98194,425.76741 z"
     id="path4979"
     style="fill:#ffffff;fill-opacity:1;fill-rule:evenodd;stroke:#000000;stroke-width:1.39803648;stroke-linecap:round;stroke-linejoin:round;stroke-miterlimit:4;stroke-dasharray:none;stroke-dashoffset:0;stroke-opacity:1" />
  <path
     d="M 515.20668,465.09684 C 515.20668,468.87152 512.1467,471.9315 508.37202,471.9315 C 504.59735,471.9315 501.53737,468.87152 501.53737,465.09684 C 501.53737,461.32217 504.59735,458.26219 508.37202,458.26219 C 512.1467,458.26219 515.20668,461.32217 515.20668,465.09684 z"
     id="path4987"
     style="fill:#ffffff;fill-opacity:1;fill-rule:evenodd;stroke:#000000;stroke-width:1.39803648;stroke-linecap:round;stroke-linejoin:round;stroke-miterlimit:4;stroke-dasharray:none;stroke-dashoffset:0;stroke-opacity:1" />
  <path
     d="M 582.17387,459.90902 C 582.17387,463.6837 579.11388,466.74367 575.33923,466.74367 C 571.56454,466.74367 568.50458,463.6837 568.50458,459.90902 C 568.50458,456.13434 571.56454,453.07436 575.33923,453.07436 C 579.11388,453.07436 582.17387,456.13434 582.17387,459.90902 z"
     id="path4991"
     style="fill:#ffffff;fill-opacity:1;fill-rule:evenodd;stroke:#000000;stroke-width:1.39803648;stroke-linecap:round;stroke-linejoin:round;stroke-miterlimit:4;stroke-dasharray:none;stroke-dashoffset:0;stroke-opacity:1" />
  <path
     d="M 543.82302,453.04952 C 543.82302,456.82419 540.76305,459.88417 536.98837,459.88417 C 533.21369,459.88417 530.15371,456.82419 530.15371,453.04952 C 530.15371,449.27484 533.21369,446.21486 536.98837,446.21486 C 540.76305,446.21486 543.82302,449.27484 543.82302,453.04952 z"
     id="path4993"
     style="fill:#000000;fill-opacity:1;fill-rule:evenodd;stroke:#000000;stroke-width:1.39803648;stroke-linecap:round;stroke-linejoin:round;stroke-miterlimit:4;stroke-dasharray:none;stroke-dashoffset:0;stroke-opacity:1" />
  <text
     style="font-size:38.83468628px;font-style:normal;font-weight:normal;text-align:center;text-anchor:middle;fill:#000000;fill-opacity:1;stroke:none;stroke-width:1px;stroke-linecap:butt;stroke-linejoin:miter;stroke-opacity:1;font-family:Bitstream Vera Sans"
     xml:space="preserve"
     id="text2971"
     y="388.45987"
     x="534.93488"><tspan
       style="font-size:22px;font-style:normal;font-variant:normal;font-weight:normal;font-stretch:normal;font-family:Calibri;-inkscape-font-specification:Calibri"
       id="tspan2973"
       y="388.45987"
       x="534.93488">Espaço de Ação</tspan></text>
  <path
     style="fill:none;fill-opacity:1;fill-rule:evenodd;stroke:#000000;stroke-width:5.00000095;stroke-linecap:butt;stroke-linejoin:miter;stroke-miterlimit:4;stroke-dasharray:none;stroke-dashoffset:0;stroke-opacity:1"
     id="path3107"
     d="M 314.011,289.98286 L 314.011,-152.74572 L 756.73962,-152.74572 L 756.73962,289.98286 L 314.011,289.98286 z" />
  <path
     style="fill:none;fill-rule:evenodd;stroke:#000000;stroke-width:1px;stroke-linecap:butt;stroke-linejoin:miter;stroke-opacity:1"
     d="M 398.63617,181.75696 L 508.80748,26.141732"
     id="path4704"
     inkscape:connector-type="polyline"
     sodipodi:nodetypes="cc" />
  <path
     style="fill:none;fill-rule:evenodd;stroke:#000000;stroke-width:1px;stroke-linecap:butt;stroke-linejoin:miter;stroke-opacity:1"
     d="M 342.70081,140.66972 L 508.07015,26.636621"
     id="path4706"
     inkscape:connector-type="polyline"
     sodipodi:nodetypes="cc" />
  <path
     style="fill:none;fill-rule:evenodd;stroke:#000000;stroke-width:1px;stroke-linecap:butt;stroke-linejoin:miter;stroke-opacity:1"
     d="M 398.44471,215.98268 L 509.16885,39.683157"
     id="path4708"
     inkscape:connector-type="polyline"
     inkscape:connection-start="#path3127"
     sodipodi:nodetypes="cc" />
  <path
     style="fill:none;fill-rule:evenodd;stroke:#000000;stroke-width:1px;stroke-linecap:butt;stroke-linejoin:miter;stroke-opacity:1"
     d="M 484.64433,185.70646 L 523.21137,39.683157"
     id="path4710"
     inkscape:connector-type="polyline"
     inkscape:connection-start="#path3135"
     sodipodi:nodetypes="cc" />
  <path
     style="fill:none;fill-rule:evenodd;stroke:#000000;stroke-width:1px;stroke-linecap:butt;stroke-linejoin:miter;stroke-opacity:1"
     d="M 553.25393,172.31086 L 534.59008,32.912444"
     id="path4712"
     inkscape:connector-type="polyline"
     inkscape:connection-start="#path3109"
     sodipodi:nodetypes="cc" />
  <path
     style="fill:none;fill-rule:evenodd;stroke:#000000;stroke-width:1px;stroke-linecap:butt;stroke-linejoin:miter;stroke-opacity:1"
     d="M 593.30653,217.67069 L 540.05512,27.108976"
     id="path4716"
     inkscape:connector-type="polyline"
     inkscape:connection-start="#path3131"
     sodipodi:nodetypes="cc" />
  <path
     style="fill:none;fill-rule:evenodd;stroke:#000000;stroke-width:1px;stroke-linecap:butt;stroke-linejoin:miter;stroke-opacity:1"
     d="M 709.24019,137.17848 L 530.15878,7.1165764"
     id="path4718"
     inkscape:connector-type="polyline"
     sodipodi:nodetypes="cc" />
  <path
     style="fill:#ffffff;fill-opacity:1;fill-rule:evenodd;stroke:#000000;stroke-width:1.39803648;stroke-linecap:round;stroke-linejoin:round;stroke-miterlimit:4;stroke-dasharray:none;stroke-dashoffset:0;stroke-opacity:1"
     id="path3109"
     d="M 561.09725,179.84454 C 561.09725,183.61922 558.03726,186.67919 554.26261,186.67919 C 550.48792,186.67919 547.42796,183.61922 547.42796,179.84454 C 547.42796,176.06986 550.48792,173.00988 554.26261,173.00988 C 558.03726,173.00988 561.09725,176.06986 561.09725,179.84454 z" />
  <path
     d="M 409.81965,175.74921 C 409.81965,179.52389 406.75966,182.58386 402.98501,182.58386 C 399.21032,182.58386 396.15036,179.52389 396.15036,175.74921 C 396.15036,171.97453 399.21032,168.91455 402.98501,168.91455 C 406.75966,168.91455 409.81965,171.97453 409.81965,175.74921 z"
     id="path3123"
     style="fill:#ffffff;fill-opacity:1;fill-rule:evenodd;stroke:#000000;stroke-width:1.39803648;stroke-linecap:round;stroke-linejoin:round;stroke-miterlimit:4;stroke-dasharray:none;stroke-dashoffset:0;stroke-opacity:1" />
  <path
     style="fill:#ffffff;fill-opacity:1;fill-rule:evenodd;stroke:#000000;stroke-width:1.39803648;stroke-linecap:round;stroke-linejoin:round;stroke-miterlimit:4;stroke-dasharray:none;stroke-dashoffset:0;stroke-opacity:1"
     id="path3125"
     d="M 349.86716,141.2721 C 349.86716,145.04678 346.80717,148.10675 343.03252,148.10675 C 339.25783,148.10675 336.19787,145.04678 336.19787,141.2721 C 336.19787,137.49742 339.25783,134.43744 343.03252,134.43744 C 346.80717,134.43744 349.86716,137.49742 349.86716,141.2721 z" />
  <path
     d="M 400.54786,223.51636 C 400.54786,227.29104 397.48787,230.35101 393.71322,230.35101 C 389.93853,230.35101 386.87857,227.29104 386.87857,223.51636 C 386.87857,219.74168 389.93853,216.6817 393.71322,216.6817 C 397.48787,216.6817 400.54786,219.74168 400.54786,223.51636 z"
     id="path3127"
     style="fill:#ffffff;fill-opacity:1;fill-rule:evenodd;stroke:#000000;stroke-width:1.39803648;stroke-linecap:round;stroke-linejoin:round;stroke-miterlimit:4;stroke-dasharray:none;stroke-dashoffset:0;stroke-opacity:1" />
  <path
     d="M 602.24642,225.20437 C 602.24642,228.97905 599.18643,232.03902 595.41178,232.03902 C 591.63709,232.03902 588.57713,228.97905 588.57713,225.20437 C 588.57713,221.42969 591.63709,218.36971 595.41178,218.36971 C 599.18643,218.36971 602.24642,221.42969 602.24642,225.20437 z"
     id="path3131"
     style="fill:#ffffff;fill-opacity:1;fill-rule:evenodd;stroke:#000000;stroke-width:1.39803648;stroke-linecap:round;stroke-linejoin:round;stroke-miterlimit:4;stroke-dasharray:none;stroke-dashoffset:0;stroke-opacity:1" />
  <path
     style="fill:#ffffff;fill-opacity:1;fill-rule:evenodd;stroke:#000000;stroke-width:1.39803648;stroke-linecap:round;stroke-linejoin:round;stroke-miterlimit:4;stroke-dasharray:none;stroke-dashoffset:0;stroke-opacity:1"
     id="path3133"
     d="M 719.46077,141.1513 C 719.46077,144.92598 716.40078,147.98595 712.62613,147.98595 C 708.85144,147.98595 705.79148,144.92598 705.79148,141.1513 C 705.79148,137.37662 708.85144,134.31664 712.62613,134.31664 C 716.40078,134.31664 719.46077,137.37662 719.46077,141.1513 z" />
  <path
     d="M 489.48921,193.24014 C 489.48921,197.01482 486.42922,200.07479 482.65457,200.07479 C 478.87988,200.07479 475.81992,197.01482 475.81992,193.24014 C 475.81992,189.46546 478.87988,186.40548 482.65457,186.40548 C 486.42922,186.40548 489.48921,189.46546 489.48921,193.24014 z"
     id="path3135"
     style="fill:#ffffff;fill-opacity:1;fill-rule:evenodd;stroke:#000000;stroke-width:1.39803648;stroke-linecap:round;stroke-linejoin:round;stroke-miterlimit:4;stroke-dasharray:none;stroke-dashoffset:0;stroke-opacity:1" />
  <text
     style="font-size:38.83468628px;font-style:normal;font-weight:normal;text-align:center;text-anchor:middle;fill:#000000;fill-opacity:1;stroke:none;stroke-width:1px;stroke-linecap:butt;stroke-linejoin:miter;stroke-opacity:1;font-family:Bitstream Vera Sans"
     xml:space="preserve"
     id="text5544"
     y="-123.93317"
     x="534.93488"><tspan
       style="font-size:22px;font-style:normal;font-variant:normal;font-weight:normal;font-stretch:normal;font-family:Calibri;-inkscape-font-specification:Calibri"
       id="tspan5546"
       y="-123.93317"
       x="534.93488">Espaço Social</tspan></text>
  <path
     style="fill:none;fill-rule:evenodd;stroke:#000000;stroke-width:1;stroke-linecap:butt;stroke-linejoin:miter;stroke-miterlimit:4;stroke-dasharray:4, 4;stroke-dashoffset:0;stroke-opacity:1"
     d="M 343.01668,364.00407 L 527.4132,16.429018"
     id="path5685"
     inkscape:connector-type="polyline"
     sodipodi:nodetypes="cc"
     inkscape:connection-end="#g5661" />
  <path
     style="fill:none;fill-rule:evenodd;stroke:#000000;stroke-width:1;stroke-linecap:butt;stroke-linejoin:miter;stroke-miterlimit:4;stroke-dasharray:4, 4;stroke-dashoffset:0;stroke-opacity:1"
     d="M 535.70772,364.00407 L 529.10453,26.004252"
     id="path5687"
     inkscape:connector-type="polyline"
     inkscape:connection-end="#g5661"
     sodipodi:nodetypes="cc" />
  <path
     style="fill:none;fill-rule:evenodd;stroke:#000000;stroke-width:1.00000012px;stroke-linecap:butt;stroke-linejoin:miter;stroke-opacity:1"
     d="M 678.33797,209.11477 L 538.90413,13.625519"
     id="path5721"
     inkscape:connector-type="polyline"
     sodipodi:nodetypes="cc" />
  <g
     id="g5723">
    <path
       style="fill:#ffffff;fill-opacity:1;fill-rule:evenodd;stroke:#000000;stroke-width:5;stroke-linecap:butt;stroke-linejoin:miter;stroke-miterlimit:4;stroke-dasharray:none;stroke-dashoffset:0;stroke-opacity:1"
       id="path5115"
       d="M 655.37168,516.50407 L 655.37168,366.50407 L 805.37169,366.50407 L 805.37169,516.50407 L 655.37168,516.50407 z" />
    <path
       d="M 768.35688,436.46337 L 758.54585,461.48702"
       id="path4997"
       style="fill:none;fill-rule:evenodd;stroke:#000000;stroke-width:1.39803648;stroke-linecap:butt;stroke-linejoin:miter;stroke-miterlimit:4;stroke-dasharray:none;stroke-opacity:1" />
    <path
       d="M 700.01034,442.19566 L 731.42771,429.84918"
       id="path4999"
       style="fill:none;fill-rule:evenodd;stroke:#000000;stroke-width:1.39803648;stroke-linecap:butt;stroke-linejoin:miter;stroke-miterlimit:4;stroke-dasharray:none;stroke-opacity:1" />
    <path
       d="M 730.54582,429.95942 L 769.56949,436.79408"
       id="path5001"
       style="fill:none;fill-rule:evenodd;stroke:#000000;stroke-width:1.39803648;stroke-linecap:butt;stroke-linejoin:miter;stroke-miterlimit:4;stroke-dasharray:none;stroke-opacity:1" />
    <path
       d="M 765.1352,460.68583 C 765.1352,464.46051 762.07521,467.52049 758.30053,467.52049 C 754.52586,467.52049 751.46587,464.46051 751.46587,460.68583 C 751.46587,456.91115 754.52586,453.85118 758.30053,453.85118 C 762.07521,453.85118 765.1352,456.91115 765.1352,460.68583 z"
       id="path5005"
       style="fill:#000000;fill-opacity:1;fill-rule:evenodd;stroke:#000000;stroke-width:1.39803648;stroke-linecap:round;stroke-linejoin:round;stroke-miterlimit:4;stroke-dasharray:none;stroke-dashoffset:0;stroke-opacity:1" />
    <path
       d="M 722.66584,470.82872 L 700.88581,440.62434"
       id="path5011"
       style="fill:none;fill-rule:evenodd;stroke:#000000;stroke-width:1.39795673;stroke-linecap:butt;stroke-linejoin:miter;stroke-miterlimit:4;stroke-dasharray:none;stroke-opacity:1" />
    <path
       d="M 708.26857,441.88297 C 708.26857,445.65765 705.20859,448.71763 701.43391,448.71763 C 697.65924,448.71763 694.59926,445.65765 694.59926,441.88297 C 694.59926,438.1083 697.65924,435.04832 701.43391,435.04832 C 705.20859,435.04832 708.26857,438.1083 708.26857,441.88297 z"
       id="path5015"
       style="fill:#ffffff;fill-opacity:1;fill-rule:evenodd;stroke:#000000;stroke-width:1.39803648;stroke-linecap:round;stroke-linejoin:round;stroke-miterlimit:4;stroke-dasharray:none;stroke-dashoffset:0;stroke-opacity:1" />
    <path
       style="fill:#ffffff;fill-opacity:1;fill-rule:evenodd;stroke:#000000;stroke-width:1.39803648;stroke-linecap:round;stroke-linejoin:round;stroke-miterlimit:4;stroke-dasharray:none;stroke-dashoffset:0;stroke-opacity:1"
       id="path5017"
       d="M 729.37632,470.22556 C 729.37632,474.00024 726.31634,477.06022 722.54166,477.06022 C 718.76699,477.06022 715.70701,474.00024 715.70701,470.22556 C 715.70701,466.45089 718.76699,463.39091 722.54166,463.39091 C 726.31634,463.39091 729.37632,466.45089 729.37632,470.22556 z" />
    <path
       d="M 775.23576,436.69515 C 775.23576,440.46983 772.17577,443.5298 768.40112,443.5298 C 764.62643,443.5298 761.56647,440.46983 761.56647,436.69515 C 761.56647,432.92047 764.62643,429.86049 768.40112,429.86049 C 772.17577,429.86049 775.23576,432.92047 775.23576,436.69515 z"
       id="path5019"
       style="fill:#ffffff;fill-opacity:1;fill-rule:evenodd;stroke:#000000;stroke-width:1.39803648;stroke-linecap:round;stroke-linejoin:round;stroke-miterlimit:4;stroke-dasharray:none;stroke-dashoffset:0;stroke-opacity:1" />
    <path
       d="M 736.88491,429.83565 C 736.88491,433.61032 733.82494,436.6703 730.05026,436.6703 C 726.27558,436.6703 723.2156,433.61032 723.2156,429.83565 C 723.2156,426.06097 726.27558,423.00099 730.05026,423.00099 C 733.82494,423.00099 736.88491,426.06097 736.88491,429.83565 z"
       id="path5021"
       style="fill:#ffffff;fill-opacity:1;fill-rule:evenodd;stroke:#000000;stroke-width:1.39803648;stroke-linecap:round;stroke-linejoin:round;stroke-miterlimit:4;stroke-dasharray:none;stroke-dashoffset:0;stroke-opacity:1" />
    <text
       style="font-size:38.83468628px;font-style:normal;font-weight:normal;text-align:center;text-anchor:middle;fill:#000000;fill-opacity:1;stroke:none;stroke-width:1px;stroke-linecap:butt;stroke-linejoin:miter;stroke-opacity:1;font-family:Bitstream Vera Sans"
       xml:space="preserve"
       id="text2977"
       y="388.45987"
       x="729.93127"><tspan
         style="font-size:22px;font-style:normal;font-variant:normal;font-weight:normal;font-stretch:normal;font-family:Calibri;-inkscape-font-specification:Calibri"
         id="tspan2979"
         y="388.45987"
         x="729.93127">Espaço de Ação</tspan></text>
  </g>
  <path
     style="fill:#ffffff;fill-opacity:1;fill-rule:evenodd;stroke:#000000;stroke-width:1.39803648;stroke-linecap:round;stroke-linejoin:round;stroke-miterlimit:4;stroke-dasharray:none;stroke-dashoffset:0;stroke-opacity:1"
     id="path3129"
     d="M 686.24742,210.84498 C 686.24742,214.61966 683.18743,217.67963 679.41278,217.67963 C 675.63809,217.67963 672.57813,214.61966 672.57813,210.84498 C 672.57813,207.0703 675.63809,204.01032 679.41278,204.01032 C 683.18743,204.01032 686.24742,207.0703 686.24742,210.84498 z" />
  <path
     style="fill:none;fill-rule:evenodd;stroke:#000000;stroke-width:1;stroke-linecap:butt;stroke-linejoin:miter;stroke-miterlimit:4;stroke-dasharray:4, 4;stroke-dashoffset:0;stroke-opacity:1"
     d="M 730.45142,364.00407 L 535.94982,19.164799"
     id="path5737"
     inkscape:connector-type="polyline"
     inkscape:connection-start="#g5723"
     inkscape:connection-end="#g5661"
     sodipodi:nodetypes="cc" />
  <g
     id="g5661"
     transform="translate(0,58)">
    <path
       d="M 501.73493,-110.46027 C 513.40551,-117.10674 524.52368,-123.41771 526.44197,-124.48465 L 529.92976,-126.42453 L 562.27666,-126.42453 L 594.62357,-126.42453 L 581.28078,-118.84778 C 573.94223,-114.68056 562.83979,-108.36959 556.60868,-104.8234 L 545.27942,-98.375786 L 512.89754,-98.375786 L 480.5157,-98.375786 L 501.73493,-110.46027 z"
       id="path10680"
       style="fill:#999999;fill-opacity:1;stroke:none;stroke-width:0.45456862;stroke-miterlimit:4;stroke-dasharray:none;stroke-dashoffset:0;stroke-opacity:1" />
    <path
       d="M 498.88885,-102.97804 L 498.90897,-108.80141 L 511.69173,-116.39665 C 518.72225,-120.57402 525.41264,-124.53966 526.55926,-125.20917 L 528.64404,-126.42647 L 560.80233,-126.40604 L 592.96061,-126.38562 L 590.4784,-124.90879 C 589.11317,-124.09653 582.13806,-119.94861 574.97815,-115.69118 C 567.81823,-111.43375 557.88059,-105.52136 552.89449,-102.55254 L 543.82886,-97.15467 L 521.34879,-97.15467 L 498.86872,-97.15467 L 498.88885,-102.97804 z"
       id="path10682"
       style="fill:#999999;fill-opacity:1;stroke:#999999;stroke-width:0.07186757;stroke-miterlimit:4;stroke-dasharray:none;stroke-dashoffset:0;stroke-opacity:1" />
    <rect
       width="64.830528"
       height="79.701363"
       x="480.71603"
       y="-98.345337"
       id="rect10684"
       style="fill:#999999;fill-opacity:1;fill-rule:evenodd;stroke:#000000;stroke-width:0.50958711px;stroke-linecap:butt;stroke-linejoin:miter;stroke-opacity:1" />
    <path
       d="M 513.23776,-98.433808 C 513.23776,-19.356191 513.23776,-18.713281 513.23776,-18.713281"
       id="path10686"
       style="fill:none;fill-rule:evenodd;stroke:#000000;stroke-width:0.50669116px;stroke-linecap:butt;stroke-linejoin:miter;stroke-opacity:1" />
    <path
       d="M 480.33372,-98.472415 C 529.57054,-126.8993 529.84085,-126.82451 529.84085,-126.82451"
       id="path10688"
       style="fill:none;fill-rule:evenodd;stroke:#000000;stroke-width:0.61066067px;stroke-linecap:butt;stroke-linejoin:miter;stroke-opacity:1" />
    <path
       d="M 545.9359,-58.852542 L 545.9359,-98.569742 L 558.50654,-105.82038 C 583.82034,-120.42118 593.60493,-126.03831 593.98195,-126.18608 C 594.2892,-126.30652 594.36756,-118.25685 594.36756,-86.564504 L 594.36756,-46.79179 L 592.74803,-45.910097 C 591.85728,-45.425175 581.02118,-39.202483 568.66781,-32.081892 C 556.31443,-24.961307 546.14611,-19.135362 546.07151,-19.135362 C 545.99694,-19.135362 545.9359,-37.008094 545.9359,-58.852548 L 545.9359,-58.852542 z"
       id="path10690"
       style="fill:#999999;fill-opacity:1;stroke:#999999;stroke-width:0.27815452;stroke-miterlimit:4;stroke-dasharray:none;stroke-dashoffset:0;stroke-opacity:1" />
    <path
       d="M 545.01642,-98.297135 C 594.5544,-126.8979 594.82636,-126.82264 594.82636,-126.82264"
       id="path10692"
       style="fill:none;fill-rule:evenodd;stroke:#000000;stroke-width:0.61439574px;stroke-linecap:butt;stroke-linejoin:miter;stroke-opacity:1" />
    <path
       d="M 545.31923,-18.620306 C 594.25489,-46.873324 594.52356,-46.798994 594.52356,-46.798994"
       id="path10694"
       style="fill:none;fill-rule:evenodd;stroke:#000000;stroke-width:0.60692561px;stroke-linecap:butt;stroke-linejoin:miter;stroke-opacity:1" />
    <path
       d="M 529.53926,-126.77296 C 594.56701,-126.77296 594.78376,-126.77296 594.78376,-126.77296"
       id="path10696"
       style="fill:none;fill-rule:evenodd;stroke:#000000;stroke-width:0.546233;stroke-linecap:butt;stroke-linejoin:miter;stroke-miterlimit:4;stroke-dasharray:none;stroke-opacity:1" />
    <path
       d="M 594.47184,-126.82358 C 594.47184,-47.373619 594.47184,-46.72768 594.47184,-46.72768"
       id="path10698"
       style="fill:none;fill-rule:evenodd;stroke:#000000;stroke-width:0.50788265px;stroke-linecap:butt;stroke-linejoin:miter;stroke-opacity:1" />
    <rect
       width="28.927362"
       height="8.2400045"
       x="483.25006"
       y="-94.831787"
       id="rect10702"
       style="fill:#000000;fill-opacity:1;fill-rule:evenodd;stroke:#ffffff;stroke-width:0.47099572;stroke-linecap:butt;stroke-linejoin:miter;stroke-miterlimit:4;stroke-dasharray:none;stroke-opacity:1" />
    <rect
       width="28.927362"
       height="8.2400045"
       x="483.25006"
       y="-84.848701"
       id="rect10704"
       style="fill:#000000;fill-opacity:1;fill-rule:evenodd;stroke:#ffffff;stroke-width:0.47099572;stroke-linecap:butt;stroke-linejoin:miter;stroke-miterlimit:4;stroke-dasharray:none;stroke-opacity:1" />
    <rect
       width="28.927362"
       height="8.2400045"
       x="483.25006"
       y="-74.865616"
       id="rect10706"
       style="fill:#000000;fill-opacity:1;fill-rule:evenodd;stroke:#ffffff;stroke-width:0.47099572;stroke-linecap:butt;stroke-linejoin:miter;stroke-miterlimit:4;stroke-dasharray:none;stroke-opacity:1" />
    <rect
       width="10.892402"
       height="40.09079"
       x="500.89218"
       y="-61.39637"
       id="rect10708"
       style="fill:#000000;fill-opacity:1;fill-rule:evenodd;stroke:#ffffff;stroke-width:0.47099572;stroke-linecap:butt;stroke-linejoin:miter;stroke-miterlimit:4;stroke-dasharray:none;stroke-opacity:1" />
    <path
       style="fill:#000000;fill-opacity:1;stroke:#ffffff;stroke-width:0.47099584;stroke-miterlimit:4;stroke-dasharray:none;stroke-dashoffset:0;stroke-opacity:1"
       id="path10712"
       d="M 495.17813,-44.108187 C 495.17813,-42.226593 493.4593,-40.701262 491.33901,-40.701262 C 489.21872,-40.701262 487.49988,-42.226593 487.49988,-44.108187 C 487.49988,-45.98978 489.21872,-47.515111 491.33901,-47.515111 C 493.4593,-47.515111 495.17813,-45.98978 495.17813,-44.108187 z" />
    <path
       style="fill:#000000;fill-opacity:1;stroke:#ffffff;stroke-width:0.47099584;stroke-miterlimit:4;stroke-dasharray:none;stroke-dashoffset:0;stroke-opacity:1"
       id="path10714"
       d="M 492.8568,-36.343563 C 492.8568,-35.599677 492.17726,-34.996639 491.33901,-34.996639 C 490.50075,-34.996639 489.82121,-35.599677 489.82121,-36.343563 C 489.82121,-37.087449 490.50075,-37.690487 491.33901,-37.690487 C 492.17726,-37.690487 492.8568,-37.087449 492.8568,-36.343563 z" />
    <rect
       transform="scale(-1,-1)"
       width="28.927362"
       height="8.2400045"
       x="-543.73755"
       y="21.305565"
       id="rect10718"
       style="fill:#000000;fill-opacity:1;fill-rule:evenodd;stroke:#ffffff;stroke-width:0.47099572;stroke-linecap:butt;stroke-linejoin:miter;stroke-miterlimit:4;stroke-dasharray:none;stroke-opacity:1" />
    <rect
       transform="scale(-1,-1)"
       width="28.927362"
       height="8.2400045"
       x="-543.73755"
       y="31.288652"
       id="rect10720"
       style="fill:#000000;fill-opacity:1;fill-rule:evenodd;stroke:#ffffff;stroke-width:0.47099572;stroke-linecap:butt;stroke-linejoin:miter;stroke-miterlimit:4;stroke-dasharray:none;stroke-opacity:1" />
    <rect
       transform="scale(-1,-1)"
       width="28.927362"
       height="8.2400045"
       x="-543.73755"
       y="41.271736"
       id="rect10722"
       style="fill:#000000;fill-opacity:1;fill-rule:evenodd;stroke:#ffffff;stroke-width:0.47099572;stroke-linecap:butt;stroke-linejoin:miter;stroke-miterlimit:4;stroke-dasharray:none;stroke-opacity:1" />
    <rect
       transform="scale(-1,-1)"
       width="10.892402"
       height="40.09079"
       x="-526.09546"
       y="54.740978"
       id="rect10724"
       style="fill:#000000;fill-opacity:1;fill-rule:evenodd;stroke:#ffffff;stroke-width:0.47099572;stroke-linecap:butt;stroke-linejoin:miter;stroke-miterlimit:4;stroke-dasharray:none;stroke-opacity:1" />
    <path
       style="fill:#000000;fill-opacity:1;stroke:#ffffff;stroke-width:0.47099584;stroke-miterlimit:4;stroke-dasharray:none;stroke-dashoffset:0;stroke-opacity:1"
       id="path10728"
       d="M 531.80948,-72.029167 C 531.80948,-73.910761 533.52831,-75.436092 535.6486,-75.436092 C 537.76889,-75.436092 539.48773,-73.910761 539.48773,-72.029167 C 539.48773,-70.147574 537.76889,-68.622243 535.6486,-68.622243 C 533.52831,-68.622243 531.80948,-70.147574 531.80948,-72.029167 z" />
    <path
       style="fill:#000000;fill-opacity:1;stroke:#ffffff;stroke-width:0.47099584;stroke-miterlimit:4;stroke-dasharray:none;stroke-dashoffset:0;stroke-opacity:1"
       id="path10730"
       d="M 534.13081,-79.793788 C 534.13081,-80.537674 534.81035,-81.140712 535.6486,-81.140712 C 536.48686,-81.140712 537.1664,-80.537674 537.1664,-79.793788 C 537.1664,-79.049902 536.48686,-78.446864 535.6486,-78.446864 C 534.81035,-78.446864 534.13081,-79.049902 534.13081,-79.793788 z" />
  </g>
  <g
     id="g5906"
     transform="translate(-19.988236,0)">
    <path
       d="M 463.0004,588.59474 C 463.0004,592.36942 459.94041,595.42939 456.16576,595.42939 C 452.39107,595.42939 449.33111,592.36942 449.33111,588.59474 C 449.33111,584.82006 452.39107,581.76008 456.16576,581.76008 C 459.94041,581.76008 463.0004,584.82006 463.0004,588.59474 z"
       id="path5956"
       style="fill:#000000;fill-opacity:1;fill-rule:evenodd;stroke:#000000;stroke-width:1.39803648;stroke-linecap:round;stroke-linejoin:round;stroke-miterlimit:4;stroke-dasharray:none;stroke-dashoffset:0;stroke-opacity:1" />
    <path
       d="M 463.00042,558.71065 C 463.00042,562.48533 459.94043,565.54531 456.16575,565.54531 C 452.39108,565.54531 449.33109,562.48533 449.33109,558.71065 C 449.33109,554.93597 452.39108,551.876 456.16575,551.876 C 459.94043,551.876 463.00042,554.93597 463.00042,558.71065 z"
       id="path5958"
       style="fill:#ffffff;fill-opacity:1;fill-rule:evenodd;stroke:#000000;stroke-width:1.39803648;stroke-linecap:round;stroke-linejoin:round;stroke-miterlimit:4;stroke-dasharray:none;stroke-dashoffset:0;stroke-opacity:1" />
    <text
       id="text5960"
       y="565.58478"
       x="473.97406"
       style="font-size:40px;font-style:normal;font-weight:normal;fill:#000000;fill-opacity:1;stroke:none;stroke-width:1px;stroke-linecap:butt;stroke-linejoin:miter;stroke-opacity:1;font-family:Bitstream Vera Sans"
       xml:space="preserve"><tspan
         style="font-size:24px;font-style:normal;font-variant:normal;font-weight:normal;font-stretch:normal;font-family:Calibri;-inkscape-font-specification:Calibri"
         y="565.58478"
         x="473.97406"
         id="tspan5962"
         sodipodi:role="line">Cliente/Par comum</tspan><tspan
         style="font-size:24px;font-style:italic;font-variant:normal;font-weight:normal;font-stretch:normal;font-family:Calibri;-inkscape-font-specification:Calibri Italic"
         id="tspan5964"
         y="595.58478"
         x="473.97406"
         sodipodi:role="line">Super-peer</tspan></text>
    <rect
       y="543.69855"
       x="439.77679"
       height="58.81929"
       width="231.17349"
       id="rect5973"
       style="fill:none;fill-opacity:1;stroke:#000000;stroke-width:1.398;stroke-miterlimit:4;stroke-dasharray:none;stroke-dashoffset:0;stroke-opacity:1" />
  </g>
</svg>
