<?xml version="1.0" encoding="UTF-8" standalone="no"?>
<!-- Created with Inkscape (http://www.inkscape.org/) -->
<svg
   xmlns:dc="http://purl.org/dc/elements/1.1/"
   xmlns:cc="http://creativecommons.org/ns#"
   xmlns:rdf="http://www.w3.org/1999/02/22-rdf-syntax-ns#"
   xmlns:svg="http://www.w3.org/2000/svg"
   xmlns="http://www.w3.org/2000/svg"
   xmlns:sodipodi="http://sodipodi.sourceforge.net/DTD/sodipodi-0.dtd"
   xmlns:inkscape="http://www.inkscape.org/namespaces/inkscape"
   id="svg2858"
   sodipodi:version="0.32"
   inkscape:version="0.46"
   width="450"
   height="315"
   xml:space="preserve"
   sodipodi:docname="avg.svg"
   inkscape:output_extension="org.inkscape.output.svg.inkscape"><metadata
     id="metadata2863"><rdf:RDF><cc:Work
         rdf:about=""><dc:format>image/svg+xml</dc:format><dc:type
           rdf:resource="http://purl.org/dc/dcmitype/StillImage" /></cc:Work></rdf:RDF></metadata><defs
     id="defs2861"><inkscape:perspective
       sodipodi:type="inkscape:persp3d"
       inkscape:vp_x="0 : 526.18109 : 1"
       inkscape:vp_y="0 : 1000 : 0"
       inkscape:vp_z="744.09448 : 526.18109 : 1"
       inkscape:persp3d-origin="372.04724 : 350.78739 : 1"
       id="perspective2865" /></defs><sodipodi:namedview
     inkscape:window-height="667"
     inkscape:window-width="640"
     inkscape:pageshadow="2"
     inkscape:pageopacity="0.0"
     guidetolerance="10.0"
     gridtolerance="10.0"
     objecttolerance="10.0"
     borderopacity="1.0"
     bordercolor="#666666"
     pagecolor="#ffffff"
     id="base"
     showgrid="false"
     inkscape:zoom="1.2088889"
     inkscape:cx="225"
     inkscape:cy="157.5"
     inkscape:window-x="140"
     inkscape:window-y="68"
     inkscape:current-layer="g2867" /><g
     id="g2867"
     inkscape:groupmode="layer"
     inkscape:label="avg"
     transform="matrix(1.25,0,0,-1.25,0,315)"><g
       id="g2869"
       transform="scale(0.1,0.1)"><path
         d="M 567,270 L 3447,270"
         style="fill:none;stroke:#000000;stroke-opacity:1;stroke-width:2.5;stroke-linecap:butt;stroke-linejoin:miter;stroke-miterlimit:10;stroke-dasharray:5,10;stroke-dashoffset:0"
         id="path2871" /><path
         d="M 567,270 L 598.5,270 M 3447,270 L 3415.5,270"
         style="fill:none;stroke:#000000;stroke-opacity:1;stroke-width:10;stroke-linecap:butt;stroke-linejoin:miter;stroke-miterlimit:10;stroke-dasharray:none"
         id="path2873" /><g
         id="g2875"
         transform="scale(10,10)"><text
           transform="matrix(1,0,0,-1,46.2961,24)"
           id="text2877"><tspan
             style="fill:#000000;fill-opacity:1;fill-rule:nonzero;stroke:none;font-family:Helvetica;font-variant:normal;font-weight:normal;font-size:9;writing-mode:lr;-inkscape-font-specification:Helvetica"
             x="0"
             y="0"
             id="tspan2879">0</tspan></text>
</g><path
         d="M 567,538 L 3447,538"
         style="fill:none;stroke:#000000;stroke-opacity:1;stroke-width:2.5;stroke-linecap:butt;stroke-linejoin:miter;stroke-miterlimit:10;stroke-dasharray:5,10;stroke-dashoffset:0"
         id="path2881" /><path
         d="M 567,538 L 598.5,538 M 3447,538 L 3415.5,538"
         style="fill:none;stroke:#000000;stroke-opacity:1;stroke-width:10;stroke-linecap:butt;stroke-linejoin:miter;stroke-miterlimit:10;stroke-dasharray:none"
         id="path2883" /><g
         id="g2885"
         transform="scale(10,10)"><text
           transform="matrix(1,0,0,-1,26.2805,50.8)"
           id="text2887"><tspan
             style="fill:#000000;fill-opacity:1;fill-rule:nonzero;stroke:none;font-family:Helvetica;font-variant:normal;font-weight:normal;font-size:9;writing-mode:lr;-inkscape-font-specification:Helvetica"
             x="0 5.004 10.008 15.012 20.016"
             y="0"
             sodipodi:role="line"
             id="tspan2889">10000</tspan></text>
</g><path
         d="M 567,805.5 L 3447,805.5"
         style="fill:none;stroke:#000000;stroke-opacity:1;stroke-width:2.5;stroke-linecap:butt;stroke-linejoin:miter;stroke-miterlimit:10;stroke-dasharray:5,10;stroke-dashoffset:0"
         id="path2891" /><path
         d="M 567,805.5 L 598.5,805.5 M 3447,805.5 L 3415.5,805.5"
         style="fill:none;stroke:#000000;stroke-opacity:1;stroke-width:10;stroke-linecap:butt;stroke-linejoin:miter;stroke-miterlimit:10;stroke-dasharray:none"
         id="path2893" /><g
         id="g2895"
         transform="scale(10,10)"><text
           transform="matrix(1,0,0,-1,26.2805,77.55)"
           id="text2897"><tspan
             style="fill:#000000;fill-opacity:1;fill-rule:nonzero;stroke:none;font-family:Helvetica;font-variant:normal;font-weight:normal;font-size:9;writing-mode:lr;-inkscape-font-specification:Helvetica"
             x="0 5.004 10.008 15.012 20.016"
             y="0"
             sodipodi:role="line"
             id="tspan2899">20000</tspan></text>
</g><path
         d="M 567,1073.5 L 3447,1073.5"
         style="fill:none;stroke:#000000;stroke-opacity:1;stroke-width:2.5;stroke-linecap:butt;stroke-linejoin:miter;stroke-miterlimit:10;stroke-dasharray:5,10;stroke-dashoffset:0"
         id="path2901" /><path
         d="M 567,1073.5 L 598.5,1073.5 M 3447,1073.5 L 3415.5,1073.5"
         style="fill:none;stroke:#000000;stroke-opacity:1;stroke-width:10;stroke-linecap:butt;stroke-linejoin:miter;stroke-miterlimit:10;stroke-dasharray:none"
         id="path2903" /><g
         id="g2905"
         transform="scale(10,10)"><text
           transform="matrix(1,0,0,-1,26.2805,104.35)"
           id="text2907"><tspan
             style="fill:#000000;fill-opacity:1;fill-rule:nonzero;stroke:none;font-family:Helvetica;font-variant:normal;font-weight:normal;font-size:9;writing-mode:lr;-inkscape-font-specification:Helvetica"
             x="0 5.004 10.008 15.012 20.016"
             y="0"
             sodipodi:role="line"
             id="tspan2909">30000</tspan></text>
</g><path
         d="M 567,1341 L 3447,1341"
         style="fill:none;stroke:#000000;stroke-opacity:1;stroke-width:2.5;stroke-linecap:butt;stroke-linejoin:miter;stroke-miterlimit:10;stroke-dasharray:5,10;stroke-dashoffset:0"
         id="path2911" /><path
         d="M 567,1341 L 598.5,1341 M 3447,1341 L 3415.5,1341"
         style="fill:none;stroke:#000000;stroke-opacity:1;stroke-width:10;stroke-linecap:butt;stroke-linejoin:miter;stroke-miterlimit:10;stroke-dasharray:none"
         id="path2913" /><g
         id="g2915"
         transform="scale(10,10)"><text
           transform="matrix(1,0,0,-1,26.2805,131.1)"
           id="text2917"><tspan
             style="fill:#000000;fill-opacity:1;fill-rule:nonzero;stroke:none;font-family:Helvetica;font-variant:normal;font-weight:normal;font-size:9;writing-mode:lr;-inkscape-font-specification:Helvetica"
             x="0 5.004 10.008 15.012 20.016"
             y="0"
             sodipodi:role="line"
             id="tspan2919">40000</tspan></text>
</g><path
         d="M 567,1609 L 3447,1609"
         style="fill:none;stroke:#000000;stroke-opacity:1;stroke-width:2.5;stroke-linecap:butt;stroke-linejoin:miter;stroke-miterlimit:10;stroke-dasharray:5,10;stroke-dashoffset:0"
         id="path2921" /><path
         d="M 567,1609 L 598.5,1609 M 3447,1609 L 3415.5,1609"
         style="fill:none;stroke:#000000;stroke-opacity:1;stroke-width:10;stroke-linecap:butt;stroke-linejoin:miter;stroke-miterlimit:10;stroke-dasharray:none"
         id="path2923" /><g
         id="g2925"
         transform="scale(10,10)"><text
           transform="matrix(1,0,0,-1,26.2805,157.9)"
           id="text2927"><tspan
             style="fill:#000000;fill-opacity:1;fill-rule:nonzero;stroke:none;font-family:Helvetica;font-variant:normal;font-weight:normal;font-size:9;writing-mode:lr;-inkscape-font-specification:Helvetica"
             x="0 5.004 10.008 15.012 20.016"
             y="0"
             sodipodi:role="line"
             id="tspan2929">50000</tspan></text>
</g><path
         d="M 567,1876.5 L 3447,1876.5"
         style="fill:none;stroke:#000000;stroke-opacity:1;stroke-width:2.5;stroke-linecap:butt;stroke-linejoin:miter;stroke-miterlimit:10;stroke-dasharray:5,10;stroke-dashoffset:0"
         id="path2931" /><path
         d="M 567,1876.5 L 598.5,1876.5 M 3447,1876.5 L 3415.5,1876.5"
         style="fill:none;stroke:#000000;stroke-opacity:1;stroke-width:10;stroke-linecap:butt;stroke-linejoin:miter;stroke-miterlimit:10;stroke-dasharray:none"
         id="path2933" /><g
         id="g2935"
         transform="scale(10,10)"><text
           transform="matrix(1,0,0,-1,26.2805,184.65)"
           id="text2937"><tspan
             style="fill:#000000;fill-opacity:1;fill-rule:nonzero;stroke:none;font-family:Helvetica;font-variant:normal;font-weight:normal;font-size:9;writing-mode:lr;-inkscape-font-specification:Helvetica"
             x="0 5.004 10.008 15.012 20.016"
             y="0"
             sodipodi:role="line"
             id="tspan2939">60000</tspan></text>
</g><path
         d="M 567,2144.5 L 621,2144.5 M 2612,2144.5 L 3447,2144.5"
         style="fill:none;stroke:#000000;stroke-opacity:1;stroke-width:2.5;stroke-linecap:butt;stroke-linejoin:miter;stroke-miterlimit:10;stroke-dasharray:5,10;stroke-dashoffset:0"
         id="path2941" /><path
         d="M 567,2144.5 L 598.5,2144.5 M 3447,2144.5 L 3415.5,2144.5"
         style="fill:none;stroke:#000000;stroke-opacity:1;stroke-width:10;stroke-linecap:butt;stroke-linejoin:miter;stroke-miterlimit:10;stroke-dasharray:none"
         id="path2943" /><g
         id="g2945"
         transform="scale(10,10)"><text
           transform="matrix(1,0,0,-1,26.2805,211.45)"
           id="text2947"><tspan
             style="fill:#000000;fill-opacity:1;fill-rule:nonzero;stroke:none;font-family:Helvetica;font-variant:normal;font-weight:normal;font-size:9;writing-mode:lr;-inkscape-font-specification:Helvetica"
             x="0 5.004 10.008 15.012 20.016"
             y="0"
             sodipodi:role="line"
             id="tspan2949">70000</tspan></text>
</g><path
         d="M 567,2412 L 3447,2412"
         style="fill:none;stroke:#000000;stroke-opacity:1;stroke-width:2.5;stroke-linecap:butt;stroke-linejoin:miter;stroke-miterlimit:10;stroke-dasharray:5,10;stroke-dashoffset:0"
         id="path2951" /><path
         d="M 567,2412 L 598.5,2412 M 3447,2412 L 3415.5,2412"
         style="fill:none;stroke:#000000;stroke-opacity:1;stroke-width:10;stroke-linecap:butt;stroke-linejoin:miter;stroke-miterlimit:10;stroke-dasharray:none"
         id="path2953" /><g
         id="g2955"
         transform="scale(10,10)"><text
           transform="matrix(1,0,0,-1,26.2805,238.2)"
           id="text2957"><tspan
             style="fill:#000000;fill-opacity:1;fill-rule:nonzero;stroke:none;font-family:Helvetica;font-variant:normal;font-weight:normal;font-size:9;writing-mode:lr;-inkscape-font-specification:Helvetica"
             x="0 5.004 10.008 15.012 20.016"
             y="0"
             sodipodi:role="line"
             id="tspan2959">80000</tspan></text>
</g><path
         d="M 567,270 L 567,2412"
         style="fill:none;stroke:#000000;stroke-opacity:1;stroke-width:2.5;stroke-linecap:butt;stroke-linejoin:miter;stroke-miterlimit:10;stroke-dasharray:5,10;stroke-dashoffset:0"
         id="path2961" /><path
         d="M 567,270 L 567,301.5 M 567,2412 L 567,2380.5"
         style="fill:none;stroke:#000000;stroke-opacity:1;stroke-width:10;stroke-linecap:butt;stroke-linejoin:miter;stroke-miterlimit:10;stroke-dasharray:none"
         id="path2963" /><g
         id="g2965"
         transform="scale(10,10)"><text
           transform="matrix(1,0,0,-1,52.9473,15)"
           id="text2967"><tspan
             style="fill:#000000;fill-opacity:1;fill-rule:nonzero;stroke:none;font-family:Helvetica;font-variant:normal;font-weight:normal;font-size:9;writing-mode:lr;-inkscape-font-specification:Helvetica"
             x="0 5.004"
             y="0"
             sodipodi:role="line"
             id="tspan2969">25</tspan></text>
</g><path
         d="M 978.5,270 L 978.5,1930.5 M 978.5,2380.5 L 978.5,2412"
         style="fill:none;stroke:#000000;stroke-opacity:1;stroke-width:2.5;stroke-linecap:butt;stroke-linejoin:miter;stroke-miterlimit:10;stroke-dasharray:5,10;stroke-dashoffset:0"
         id="path2971" /><path
         d="M 978.5,270 L 978.5,301.5 M 978.5,2412 L 978.5,2380.5"
         style="fill:none;stroke:#000000;stroke-opacity:1;stroke-width:10;stroke-linecap:butt;stroke-linejoin:miter;stroke-miterlimit:10;stroke-dasharray:none"
         id="path2973" /><g
         id="g2975"
         transform="scale(10,10)"><text
           transform="matrix(1,0,0,-1,94.0973,15)"
           id="text2977"><tspan
             style="fill:#000000;fill-opacity:1;fill-rule:nonzero;stroke:none;font-family:Helvetica;font-variant:normal;font-weight:normal;font-size:9;writing-mode:lr;-inkscape-font-specification:Helvetica"
             x="0 5.004"
             y="0"
             sodipodi:role="line"
             id="tspan2979">50</tspan></text>
</g><path
         d="M 1390,270 L 1390,1930.5 M 1390,2380.5 L 1390,2412"
         style="fill:none;stroke:#000000;stroke-opacity:1;stroke-width:2.5;stroke-linecap:butt;stroke-linejoin:miter;stroke-miterlimit:10;stroke-dasharray:5,10;stroke-dashoffset:0"
         id="path2981" /><path
         d="M 1390,270 L 1390,301.5 M 1390,2412 L 1390,2380.5"
         style="fill:none;stroke:#000000;stroke-opacity:1;stroke-width:10;stroke-linecap:butt;stroke-linejoin:miter;stroke-miterlimit:10;stroke-dasharray:none"
         id="path2983" /><g
         id="g2985"
         transform="scale(10,10)"><text
           transform="matrix(1,0,0,-1,135.247,15)"
           id="text2987"><tspan
             style="fill:#000000;fill-opacity:1;fill-rule:nonzero;stroke:none;font-family:Helvetica;font-variant:normal;font-weight:normal;font-size:9;writing-mode:lr;-inkscape-font-specification:Helvetica"
             x="0 5.004"
             y="0"
             sodipodi:role="line"
             id="tspan2989">75</tspan></text>
</g><path
         d="M 1801.5,270 L 1801.5,1930.5 M 1801.5,2380.5 L 1801.5,2412"
         style="fill:none;stroke:#000000;stroke-opacity:1;stroke-width:2.5;stroke-linecap:butt;stroke-linejoin:miter;stroke-miterlimit:10;stroke-dasharray:5,10;stroke-dashoffset:0"
         id="path2991" /><path
         d="M 1801.5,270 L 1801.5,301.5 M 1801.5,2412 L 1801.5,2380.5"
         style="fill:none;stroke:#000000;stroke-opacity:1;stroke-width:10;stroke-linecap:butt;stroke-linejoin:miter;stroke-miterlimit:10;stroke-dasharray:none"
         id="path2993" /><g
         id="g2995"
         transform="scale(10,10)"><text
           transform="matrix(1,0,0,-1,173.895,15)"
           id="text2997"><tspan
             style="fill:#000000;fill-opacity:1;fill-rule:nonzero;stroke:none;font-family:Helvetica;font-variant:normal;font-weight:normal;font-size:9;writing-mode:lr;-inkscape-font-specification:Helvetica"
             x="0 5.004 10.008"
             y="0"
             sodipodi:role="line"
             id="tspan2999">100</tspan></text>
</g><path
         d="M 2212.5,270 L 2212.5,1930.5 M 2212.5,2380.5 L 2212.5,2412"
         style="fill:none;stroke:#000000;stroke-opacity:1;stroke-width:2.5;stroke-linecap:butt;stroke-linejoin:miter;stroke-miterlimit:10;stroke-dasharray:5,10;stroke-dashoffset:0"
         id="path3001" /><path
         d="M 2212.5,270 L 2212.5,301.5 M 2212.5,2412 L 2212.5,2380.5"
         style="fill:none;stroke:#000000;stroke-opacity:1;stroke-width:10;stroke-linecap:butt;stroke-linejoin:miter;stroke-miterlimit:10;stroke-dasharray:none"
         id="path3003" /><g
         id="g3005"
         transform="scale(10,10)"><text
           transform="matrix(1,0,0,-1,214.995,15)"
           id="text3007"><tspan
             style="fill:#000000;fill-opacity:1;fill-rule:nonzero;stroke:none;font-family:Helvetica;font-variant:normal;font-weight:normal;font-size:9;writing-mode:lr;-inkscape-font-specification:Helvetica"
             x="0 5.004 10.008"
             y="0"
             sodipodi:role="line"
             id="tspan3009">125</tspan></text>
</g><path
         d="M 2624,270 L 2624,2412"
         style="fill:none;stroke:#000000;stroke-opacity:1;stroke-width:2.5;stroke-linecap:butt;stroke-linejoin:miter;stroke-miterlimit:10;stroke-dasharray:5,10;stroke-dashoffset:0"
         id="path3011" /><path
         d="M 2624,270 L 2624,301.5 M 2624,2412 L 2624,2380.5"
         style="fill:none;stroke:#000000;stroke-opacity:1;stroke-width:10;stroke-linecap:butt;stroke-linejoin:miter;stroke-miterlimit:10;stroke-dasharray:none"
         id="path3013" /><g
         id="g3015"
         transform="scale(10,10)"><text
           transform="matrix(1,0,0,-1,256.145,15)"
           id="text3017"><tspan
             style="fill:#000000;fill-opacity:1;fill-rule:nonzero;stroke:none;font-family:Helvetica;font-variant:normal;font-weight:normal;font-size:9;writing-mode:lr;-inkscape-font-specification:Helvetica"
             x="0 5.004 10.008"
             y="0"
             sodipodi:role="line"
             id="tspan3019">150</tspan></text>
</g><path
         d="M 3035.5,270 L 3035.5,2412"
         style="fill:none;stroke:#000000;stroke-opacity:1;stroke-width:2.5;stroke-linecap:butt;stroke-linejoin:miter;stroke-miterlimit:10;stroke-dasharray:5,10;stroke-dashoffset:0"
         id="path3021" /><path
         d="M 3035.5,270 L 3035.5,301.5 M 3035.5,2412 L 3035.5,2380.5"
         style="fill:none;stroke:#000000;stroke-opacity:1;stroke-width:10;stroke-linecap:butt;stroke-linejoin:miter;stroke-miterlimit:10;stroke-dasharray:none"
         id="path3023" /><g
         id="g3025"
         transform="scale(10,10)"><text
           transform="matrix(1,0,0,-1,297.295,15)"
           id="text3027"><tspan
             style="fill:#000000;fill-opacity:1;fill-rule:nonzero;stroke:none;font-family:Helvetica;font-variant:normal;font-weight:normal;font-size:9;writing-mode:lr;-inkscape-font-specification:Helvetica"
             x="0 5.004 10.008"
             y="0"
             sodipodi:role="line"
             id="tspan3029">175</tspan></text>
</g><path
         d="M 3447,270 L 3447,2412"
         style="fill:none;stroke:#000000;stroke-opacity:1;stroke-width:2.5;stroke-linecap:butt;stroke-linejoin:miter;stroke-miterlimit:10;stroke-dasharray:5,10;stroke-dashoffset:0"
         id="path3031" /><path
         d="M 3447,270 L 3447,301.5 M 3447,2412 L 3447,2380.5"
         style="fill:none;stroke:#000000;stroke-opacity:1;stroke-width:10;stroke-linecap:butt;stroke-linejoin:miter;stroke-miterlimit:10;stroke-dasharray:none"
         id="path3033" /><g
         id="g3035"
         transform="scale(10,10)"><text
           transform="matrix(1,0,0,-1,338.445,15)"
           id="text3037"><tspan
             style="fill:#000000;fill-opacity:1;fill-rule:nonzero;stroke:none;font-family:Helvetica;font-variant:normal;font-weight:normal;font-size:9;writing-mode:lr;-inkscape-font-specification:Helvetica"
             x="0 5.004 10.008"
             y="0"
             sodipodi:role="line"
             id="tspan3039">200</tspan></text>
</g><path
         d="M 567,270 L 3447,270 L 3447,2412 L 567,2412 L 567,270 z"
         style="fill:none;stroke:#000000;stroke-opacity:1;stroke-width:10;stroke-linecap:butt;stroke-linejoin:miter;stroke-miterlimit:10;stroke-dasharray:none"
         id="path3041" /><g
         id="g3043"
         transform="scale(10,10)"><text
           transform="matrix(0,1,1,0,12,52.0672)"
           id="text3045"><tspan
             style="fill:#000000;fill-opacity:1;fill-rule:nonzero;stroke:none;font-family:Helvetica;font-variant:normal;font-weight:normal;font-size:9;writing-mode:lr;-inkscape-font-specification:Helvetica"
             x="0 6.498 10.998 16.002 18.504 23.508 28.512 31.014 36.018 41.022 46.026 51.03 56.034 58.536 66.033 71.037 76.041 78.039 83.043 85.545 90.549 95.553 98.55 101.052 105.552 107.55 109.548 114.552 119.556 122.058 127.062 129.564 132.561 137.565 142.065 144.567 149.571 154.071 156.573 161.073"
             y="0"
             sodipodi:role="line"
             id="tspan3047">Uso de banda médio por cliente (bytes/s)</tspan></text>
<text
           transform="matrix(1,0,0,-1,159.936,1.5)"
           id="text3049"><tspan
             style="fill:#000000;fill-opacity:1;fill-rule:nonzero;stroke:none;font-family:Helvetica;font-variant:normal;font-weight:normal;font-size:9;writing-mode:lr;-inkscape-font-specification:Helvetica"
             x="0 6.498 11.502 18.999 24.003 27 32.004 34.506 39.51 44.514 47.016 52.02 56.52 61.524 64.026 69.03 72.027 77.031"
             y="0"
             sodipodi:role="line"
             id="tspan3051">Número de avatares</tspan><tspan
             style="fill:#000000;fill-opacity:1;fill-rule:nonzero;stroke:none;font-family:Helvetica;font-variant:normal;font-weight:normal;font-size:9;writing-mode:lr;-inkscape-font-specification:Helvetica"
             x="-57.8906 -51.8876 -49.3856 -46.8836 -41.8796 -36.8756 -33.8786 -28.8746 -23.8706 -19.3706 -17.3726 -12.3686 -4.8716 0.1324 5.1364 7.6384 12.6424 15.1444 20.1484 25.1524 27.6544 29.6524 34.6564 37.1584 42.1624 45.1594 50.1634 54.6634 59.1634"
             y="-229.05"
             sodipodi:role="line"
             id="tspan3053">S/ gerenciamento de interesse</tspan></text>
</g><path
         d="M 2295,2335.5 L 2558,2335.5 M 567,517 L 978.5,774 L 1390,1031.5 L 1801.5,1288.5 L 2212.5,1545.5 L 2624,1803 L 3035.5,2060 L 3447,2317"
         style="fill:none;stroke:#000000;stroke-opacity:1;stroke-width:5;stroke-linecap:butt;stroke-linejoin:miter;stroke-miterlimit:10;stroke-dasharray:none"
         id="path3055" /><path
         d="M 567,493.375 L 567,540.625"
         style="fill:none;stroke:#000000;stroke-opacity:1;stroke-width:5;stroke-linecap:butt;stroke-linejoin:miter;stroke-miterlimit:10;stroke-dasharray:none"
         id="path3057" /><path
         d="M 543.375,517 L 590.625,517"
         style="fill:none;stroke:#000000;stroke-opacity:1;stroke-width:5;stroke-linecap:butt;stroke-linejoin:miter;stroke-miterlimit:10;stroke-dasharray:none"
         id="path3059" /><path
         d="M 978.5,750.375 L 978.5,797.625"
         style="fill:none;stroke:#000000;stroke-opacity:1;stroke-width:5;stroke-linecap:butt;stroke-linejoin:miter;stroke-miterlimit:10;stroke-dasharray:none"
         id="path3061" /><path
         d="M 954.875,774 L 1002.12,774"
         style="fill:none;stroke:#000000;stroke-opacity:1;stroke-width:5;stroke-linecap:butt;stroke-linejoin:miter;stroke-miterlimit:10;stroke-dasharray:none"
         id="path3063" /><path
         d="M 1390,1007.88 L 1390,1055.12"
         style="fill:none;stroke:#000000;stroke-opacity:1;stroke-width:5;stroke-linecap:butt;stroke-linejoin:miter;stroke-miterlimit:10;stroke-dasharray:none"
         id="path3065" /><path
         d="M 1366.38,1031.5 L 1413.62,1031.5"
         style="fill:none;stroke:#000000;stroke-opacity:1;stroke-width:5;stroke-linecap:butt;stroke-linejoin:miter;stroke-miterlimit:10;stroke-dasharray:none"
         id="path3067" /><path
         d="M 1801.5,1264.88 L 1801.5,1312.12"
         style="fill:none;stroke:#000000;stroke-opacity:1;stroke-width:5;stroke-linecap:butt;stroke-linejoin:miter;stroke-miterlimit:10;stroke-dasharray:none"
         id="path3069" /><path
         d="M 1777.88,1288.5 L 1825.12,1288.5"
         style="fill:none;stroke:#000000;stroke-opacity:1;stroke-width:5;stroke-linecap:butt;stroke-linejoin:miter;stroke-miterlimit:10;stroke-dasharray:none"
         id="path3071" /><path
         d="M 2212.5,1521.88 L 2212.5,1569.12"
         style="fill:none;stroke:#000000;stroke-opacity:1;stroke-width:5;stroke-linecap:butt;stroke-linejoin:miter;stroke-miterlimit:10;stroke-dasharray:none"
         id="path3073" /><path
         d="M 2188.88,1545.5 L 2236.12,1545.5"
         style="fill:none;stroke:#000000;stroke-opacity:1;stroke-width:5;stroke-linecap:butt;stroke-linejoin:miter;stroke-miterlimit:10;stroke-dasharray:none"
         id="path3075" /><path
         d="M 2624,1779.38 L 2624,1826.62"
         style="fill:none;stroke:#000000;stroke-opacity:1;stroke-width:5;stroke-linecap:butt;stroke-linejoin:miter;stroke-miterlimit:10;stroke-dasharray:none"
         id="path3077" /><path
         d="M 2600.38,1803 L 2647.62,1803"
         style="fill:none;stroke:#000000;stroke-opacity:1;stroke-width:5;stroke-linecap:butt;stroke-linejoin:miter;stroke-miterlimit:10;stroke-dasharray:none"
         id="path3079" /><path
         d="M 3035.5,2036.38 L 3035.5,2083.62"
         style="fill:none;stroke:#000000;stroke-opacity:1;stroke-width:5;stroke-linecap:butt;stroke-linejoin:miter;stroke-miterlimit:10;stroke-dasharray:none"
         id="path3081" /><path
         d="M 3011.88,2060 L 3059.12,2060"
         style="fill:none;stroke:#000000;stroke-opacity:1;stroke-width:5;stroke-linecap:butt;stroke-linejoin:miter;stroke-miterlimit:10;stroke-dasharray:none"
         id="path3083" /><path
         d="M 3447,2293.38 L 3447,2340.62"
         style="fill:none;stroke:#000000;stroke-opacity:1;stroke-width:5;stroke-linecap:butt;stroke-linejoin:miter;stroke-miterlimit:10;stroke-dasharray:none"
         id="path3085" /><path
         d="M 3423.38,2317 L 3470.62,2317"
         style="fill:none;stroke:#000000;stroke-opacity:1;stroke-width:5;stroke-linecap:butt;stroke-linejoin:miter;stroke-miterlimit:10;stroke-dasharray:none"
         id="path3087" /><path
         d="M 2426.5,2311.88 L 2426.5,2359.12"
         style="fill:none;stroke:#000000;stroke-opacity:1;stroke-width:5;stroke-linecap:butt;stroke-linejoin:miter;stroke-miterlimit:10;stroke-dasharray:none"
         id="path3089" /><path
         d="M 2402.88,2335.5 L 2450.12,2335.5"
         style="fill:none;stroke:#000000;stroke-opacity:1;stroke-width:5;stroke-linecap:butt;stroke-linejoin:miter;stroke-miterlimit:10;stroke-dasharray:none"
         id="path3091" /><g
         id="g3093"
         transform="scale(10,10)"><text
           transform="matrix(1,0,0,-1,195.598,221.55)"
           id="text3095"><tspan
             style="fill:#000000;fill-opacity:1;fill-rule:nonzero;stroke:none;font-family:Helvetica;font-variant:normal;font-weight:normal;font-size:9;writing-mode:lr;-inkscape-font-specification:Helvetica"
             x="0 6.498 9 11.997 16.497 21.501 23.499"
             y="0"
             sodipodi:role="line"
             id="tspan3097">Círculo</tspan></text>
</g><path
         d="M 2295,2245.5 L 2558,2245.5 M 567,396 L 978.5,520.5 L 1390,644 L 1801.5,787.5 L 2212.5,889.5 L 2624,1047.5 L 3035.5,1199 L 3447,1303.5"
         style="fill:none;stroke:#000000;stroke-opacity:1;stroke-width:5;stroke-linecap:butt;stroke-linejoin:miter;stroke-miterlimit:10;stroke-dasharray:none"
         id="path3099" /><path
         d="M 543.375,419.625 L 590.625,372.375"
         style="fill:none;stroke:#000000;stroke-opacity:1;stroke-width:5;stroke-linecap:butt;stroke-linejoin:miter;stroke-miterlimit:10;stroke-dasharray:none"
         id="path3101" /><path
         d="M 543.375,372.375 L 590.625,419.625"
         style="fill:none;stroke:#000000;stroke-opacity:1;stroke-width:5;stroke-linecap:butt;stroke-linejoin:miter;stroke-miterlimit:10;stroke-dasharray:none"
         id="path3103" /><path
         d="M 954.875,544.125 L 1002.12,496.875"
         style="fill:none;stroke:#000000;stroke-opacity:1;stroke-width:5;stroke-linecap:butt;stroke-linejoin:miter;stroke-miterlimit:10;stroke-dasharray:none"
         id="path3105" /><path
         d="M 954.875,496.875 L 1002.12,544.125"
         style="fill:none;stroke:#000000;stroke-opacity:1;stroke-width:5;stroke-linecap:butt;stroke-linejoin:miter;stroke-miterlimit:10;stroke-dasharray:none"
         id="path3107" /><path
         d="M 1366.38,667.625 L 1413.62,620.375"
         style="fill:none;stroke:#000000;stroke-opacity:1;stroke-width:5;stroke-linecap:butt;stroke-linejoin:miter;stroke-miterlimit:10;stroke-dasharray:none"
         id="path3109" /><path
         d="M 1366.38,620.375 L 1413.62,667.625"
         style="fill:none;stroke:#000000;stroke-opacity:1;stroke-width:5;stroke-linecap:butt;stroke-linejoin:miter;stroke-miterlimit:10;stroke-dasharray:none"
         id="path3111" /><path
         d="M 1777.88,811.125 L 1825.12,763.875"
         style="fill:none;stroke:#000000;stroke-opacity:1;stroke-width:5;stroke-linecap:butt;stroke-linejoin:miter;stroke-miterlimit:10;stroke-dasharray:none"
         id="path3113" /><path
         d="M 1777.88,763.875 L 1825.12,811.125"
         style="fill:none;stroke:#000000;stroke-opacity:1;stroke-width:5;stroke-linecap:butt;stroke-linejoin:miter;stroke-miterlimit:10;stroke-dasharray:none"
         id="path3115" /><path
         d="M 2188.88,913.125 L 2236.12,865.875"
         style="fill:none;stroke:#000000;stroke-opacity:1;stroke-width:5;stroke-linecap:butt;stroke-linejoin:miter;stroke-miterlimit:10;stroke-dasharray:none"
         id="path3117" /><path
         d="M 2188.88,865.875 L 2236.12,913.125"
         style="fill:none;stroke:#000000;stroke-opacity:1;stroke-width:5;stroke-linecap:butt;stroke-linejoin:miter;stroke-miterlimit:10;stroke-dasharray:none"
         id="path3119" /><path
         d="M 2600.38,1071.12 L 2647.62,1023.88"
         style="fill:none;stroke:#000000;stroke-opacity:1;stroke-width:5;stroke-linecap:butt;stroke-linejoin:miter;stroke-miterlimit:10;stroke-dasharray:none"
         id="path3121" /><path
         d="M 2600.38,1023.88 L 2647.62,1071.12"
         style="fill:none;stroke:#000000;stroke-opacity:1;stroke-width:5;stroke-linecap:butt;stroke-linejoin:miter;stroke-miterlimit:10;stroke-dasharray:none"
         id="path3123" /><path
         d="M 3011.88,1222.62 L 3059.12,1175.38"
         style="fill:none;stroke:#000000;stroke-opacity:1;stroke-width:5;stroke-linecap:butt;stroke-linejoin:miter;stroke-miterlimit:10;stroke-dasharray:none"
         id="path3125" /><path
         d="M 3011.88,1175.38 L 3059.12,1222.62"
         style="fill:none;stroke:#000000;stroke-opacity:1;stroke-width:5;stroke-linecap:butt;stroke-linejoin:miter;stroke-miterlimit:10;stroke-dasharray:none"
         id="path3127" /><path
         d="M 3423.38,1327.12 L 3470.62,1279.88"
         style="fill:none;stroke:#000000;stroke-opacity:1;stroke-width:5;stroke-linecap:butt;stroke-linejoin:miter;stroke-miterlimit:10;stroke-dasharray:none"
         id="path3129" /><path
         d="M 3423.38,1279.88 L 3470.62,1327.12"
         style="fill:none;stroke:#000000;stroke-opacity:1;stroke-width:5;stroke-linecap:butt;stroke-linejoin:miter;stroke-miterlimit:10;stroke-dasharray:none"
         id="path3131" /><path
         d="M 2402.88,2269.12 L 2450.12,2221.88"
         style="fill:none;stroke:#000000;stroke-opacity:1;stroke-width:5;stroke-linecap:butt;stroke-linejoin:miter;stroke-miterlimit:10;stroke-dasharray:none"
         id="path3133" /><path
         d="M 2402.88,2221.88 L 2450.12,2269.12"
         style="fill:none;stroke:#000000;stroke-opacity:1;stroke-width:5;stroke-linecap:butt;stroke-linejoin:miter;stroke-miterlimit:10;stroke-dasharray:none"
         id="path3135" /><g
         id="g3137"
         transform="scale(10,10)"><text
           transform="matrix(1,0,0,-1,131.564,212.55)"
           id="text3139"><tspan
             style="fill:#000000;fill-opacity:1;fill-rule:nonzero;stroke:none;font-family:Helvetica;font-variant:normal;font-weight:normal;font-size:9;writing-mode:lr;-inkscape-font-specification:Helvetica"
             x="0 6.498 9 11.997 16.497 21.501 23.499 28.503 31.005 35.505 40.509 48.006 50.508 55.512 58.014 63.018 68.022 73.026 78.03 82.53 87.534"
             y="0"
             sodipodi:role="line"
             id="tspan3141">Círculo com atenuação</tspan></text>
</g><path
         d="M 2295,2155.5 L 2558,2155.5 M 567,344 L 978.5,415.5 L 1390,492.5 L 1801.5,565.5 L 2212.5,641.5 L 2624,710 L 3035.5,796.5 L 3447,898"
         style="fill:none;stroke:#000000;stroke-opacity:1;stroke-width:5;stroke-linecap:butt;stroke-linejoin:miter;stroke-miterlimit:10;stroke-dasharray:none"
         id="path3143" /><path
         d="M 567,320.375 L 567,367.625"
         style="fill:none;stroke:#000000;stroke-opacity:1;stroke-width:5;stroke-linecap:butt;stroke-linejoin:miter;stroke-miterlimit:10;stroke-dasharray:none"
         id="path3145" /><path
         d="M 543.375,344 L 590.625,344"
         style="fill:none;stroke:#000000;stroke-opacity:1;stroke-width:5;stroke-linecap:butt;stroke-linejoin:miter;stroke-miterlimit:10;stroke-dasharray:none"
         id="path3147" /><path
         d="M 543.375,367.625 L 590.625,320.375"
         style="fill:none;stroke:#000000;stroke-opacity:1;stroke-width:5;stroke-linecap:butt;stroke-linejoin:miter;stroke-miterlimit:10;stroke-dasharray:none"
         id="path3149" /><path
         d="M 543.375,320.375 L 590.625,367.625"
         style="fill:none;stroke:#000000;stroke-opacity:1;stroke-width:5;stroke-linecap:butt;stroke-linejoin:miter;stroke-miterlimit:10;stroke-dasharray:none"
         id="path3151" /><path
         d="M 978.5,391.875 L 978.5,439.125"
         style="fill:none;stroke:#000000;stroke-opacity:1;stroke-width:5;stroke-linecap:butt;stroke-linejoin:miter;stroke-miterlimit:10;stroke-dasharray:none"
         id="path3153" /><path
         d="M 954.875,415.5 L 1002.12,415.5"
         style="fill:none;stroke:#000000;stroke-opacity:1;stroke-width:5;stroke-linecap:butt;stroke-linejoin:miter;stroke-miterlimit:10;stroke-dasharray:none"
         id="path3155" /><path
         d="M 954.875,439.125 L 1002.12,391.875"
         style="fill:none;stroke:#000000;stroke-opacity:1;stroke-width:5;stroke-linecap:butt;stroke-linejoin:miter;stroke-miterlimit:10;stroke-dasharray:none"
         id="path3157" /><path
         d="M 954.875,391.875 L 1002.12,439.125"
         style="fill:none;stroke:#000000;stroke-opacity:1;stroke-width:5;stroke-linecap:butt;stroke-linejoin:miter;stroke-miterlimit:10;stroke-dasharray:none"
         id="path3159" /><path
         d="M 1390,468.875 L 1390,516.125"
         style="fill:none;stroke:#000000;stroke-opacity:1;stroke-width:5;stroke-linecap:butt;stroke-linejoin:miter;stroke-miterlimit:10;stroke-dasharray:none"
         id="path3161" /><path
         d="M 1366.38,492.5 L 1413.62,492.5"
         style="fill:none;stroke:#000000;stroke-opacity:1;stroke-width:5;stroke-linecap:butt;stroke-linejoin:miter;stroke-miterlimit:10;stroke-dasharray:none"
         id="path3163" /><path
         d="M 1366.38,516.125 L 1413.62,468.875"
         style="fill:none;stroke:#000000;stroke-opacity:1;stroke-width:5;stroke-linecap:butt;stroke-linejoin:miter;stroke-miterlimit:10;stroke-dasharray:none"
         id="path3165" /><path
         d="M 1366.38,468.875 L 1413.62,516.125"
         style="fill:none;stroke:#000000;stroke-opacity:1;stroke-width:5;stroke-linecap:butt;stroke-linejoin:miter;stroke-miterlimit:10;stroke-dasharray:none"
         id="path3167" /><path
         d="M 1801.5,541.875 L 1801.5,589.125"
         style="fill:none;stroke:#000000;stroke-opacity:1;stroke-width:5;stroke-linecap:butt;stroke-linejoin:miter;stroke-miterlimit:10;stroke-dasharray:none"
         id="path3169" /><path
         d="M 1777.88,565.5 L 1825.12,565.5"
         style="fill:none;stroke:#000000;stroke-opacity:1;stroke-width:5;stroke-linecap:butt;stroke-linejoin:miter;stroke-miterlimit:10;stroke-dasharray:none"
         id="path3171" /><path
         d="M 1777.88,589.125 L 1825.12,541.875"
         style="fill:none;stroke:#000000;stroke-opacity:1;stroke-width:5;stroke-linecap:butt;stroke-linejoin:miter;stroke-miterlimit:10;stroke-dasharray:none"
         id="path3173" /><path
         d="M 1777.88,541.875 L 1825.12,589.125"
         style="fill:none;stroke:#000000;stroke-opacity:1;stroke-width:5;stroke-linecap:butt;stroke-linejoin:miter;stroke-miterlimit:10;stroke-dasharray:none"
         id="path3175" /><path
         d="M 2212.5,617.875 L 2212.5,665.125"
         style="fill:none;stroke:#000000;stroke-opacity:1;stroke-width:5;stroke-linecap:butt;stroke-linejoin:miter;stroke-miterlimit:10;stroke-dasharray:none"
         id="path3177" /><path
         d="M 2188.88,641.5 L 2236.12,641.5"
         style="fill:none;stroke:#000000;stroke-opacity:1;stroke-width:5;stroke-linecap:butt;stroke-linejoin:miter;stroke-miterlimit:10;stroke-dasharray:none"
         id="path3179" /><path
         d="M 2188.88,665.125 L 2236.12,617.875"
         style="fill:none;stroke:#000000;stroke-opacity:1;stroke-width:5;stroke-linecap:butt;stroke-linejoin:miter;stroke-miterlimit:10;stroke-dasharray:none"
         id="path3181" /><path
         d="M 2188.88,617.875 L 2236.12,665.125"
         style="fill:none;stroke:#000000;stroke-opacity:1;stroke-width:5;stroke-linecap:butt;stroke-linejoin:miter;stroke-miterlimit:10;stroke-dasharray:none"
         id="path3183" /><path
         d="M 2624,686.375 L 2624,733.625"
         style="fill:none;stroke:#000000;stroke-opacity:1;stroke-width:5;stroke-linecap:butt;stroke-linejoin:miter;stroke-miterlimit:10;stroke-dasharray:none"
         id="path3185" /><path
         d="M 2600.38,710 L 2647.62,710"
         style="fill:none;stroke:#000000;stroke-opacity:1;stroke-width:5;stroke-linecap:butt;stroke-linejoin:miter;stroke-miterlimit:10;stroke-dasharray:none"
         id="path3187" /><path
         d="M 2600.38,733.625 L 2647.62,686.375"
         style="fill:none;stroke:#000000;stroke-opacity:1;stroke-width:5;stroke-linecap:butt;stroke-linejoin:miter;stroke-miterlimit:10;stroke-dasharray:none"
         id="path3189" /><path
         d="M 2600.38,686.375 L 2647.62,733.625"
         style="fill:none;stroke:#000000;stroke-opacity:1;stroke-width:5;stroke-linecap:butt;stroke-linejoin:miter;stroke-miterlimit:10;stroke-dasharray:none"
         id="path3191" /><path
         d="M 3035.5,772.875 L 3035.5,820.125"
         style="fill:none;stroke:#000000;stroke-opacity:1;stroke-width:5;stroke-linecap:butt;stroke-linejoin:miter;stroke-miterlimit:10;stroke-dasharray:none"
         id="path3193" /><path
         d="M 3011.88,796.5 L 3059.12,796.5"
         style="fill:none;stroke:#000000;stroke-opacity:1;stroke-width:5;stroke-linecap:butt;stroke-linejoin:miter;stroke-miterlimit:10;stroke-dasharray:none"
         id="path3195" /><path
         d="M 3011.88,820.125 L 3059.12,772.875"
         style="fill:none;stroke:#000000;stroke-opacity:1;stroke-width:5;stroke-linecap:butt;stroke-linejoin:miter;stroke-miterlimit:10;stroke-dasharray:none"
         id="path3197" /><path
         d="M 3011.88,772.875 L 3059.12,820.125"
         style="fill:none;stroke:#000000;stroke-opacity:1;stroke-width:5;stroke-linecap:butt;stroke-linejoin:miter;stroke-miterlimit:10;stroke-dasharray:none"
         id="path3199" /><path
         d="M 3447,874.375 L 3447,921.625"
         style="fill:none;stroke:#000000;stroke-opacity:1;stroke-width:5;stroke-linecap:butt;stroke-linejoin:miter;stroke-miterlimit:10;stroke-dasharray:none"
         id="path3201" /><path
         d="M 3423.38,898 L 3470.62,898"
         style="fill:none;stroke:#000000;stroke-opacity:1;stroke-width:5;stroke-linecap:butt;stroke-linejoin:miter;stroke-miterlimit:10;stroke-dasharray:none"
         id="path3203" /><path
         d="M 3423.38,921.625 L 3470.62,874.375"
         style="fill:none;stroke:#000000;stroke-opacity:1;stroke-width:5;stroke-linecap:butt;stroke-linejoin:miter;stroke-miterlimit:10;stroke-dasharray:none"
         id="path3205" /><path
         d="M 3423.38,874.375 L 3470.62,921.625"
         style="fill:none;stroke:#000000;stroke-opacity:1;stroke-width:5;stroke-linecap:butt;stroke-linejoin:miter;stroke-miterlimit:10;stroke-dasharray:none"
         id="path3207" /><path
         d="M 2426.5,2131.88 L 2426.5,2179.12"
         style="fill:none;stroke:#000000;stroke-opacity:1;stroke-width:5;stroke-linecap:butt;stroke-linejoin:miter;stroke-miterlimit:10;stroke-dasharray:none"
         id="path3209" /><path
         d="M 2402.88,2155.5 L 2450.12,2155.5"
         style="fill:none;stroke:#000000;stroke-opacity:1;stroke-width:5;stroke-linecap:butt;stroke-linejoin:miter;stroke-miterlimit:10;stroke-dasharray:none"
         id="path3211" /><path
         d="M 2402.88,2179.12 L 2450.12,2131.88"
         style="fill:none;stroke:#000000;stroke-opacity:1;stroke-width:5;stroke-linecap:butt;stroke-linejoin:miter;stroke-miterlimit:10;stroke-dasharray:none"
         id="path3213" /><path
         d="M 2402.88,2131.88 L 2450.12,2179.12"
         style="fill:none;stroke:#000000;stroke-opacity:1;stroke-width:5;stroke-linecap:butt;stroke-linejoin:miter;stroke-miterlimit:10;stroke-dasharray:none"
         id="path3215" /><g
         id="g3217"
         transform="scale(10,10)"><text
           transform="matrix(1,0,0,-1,159.077,203.55)"
           id="text3219"><tspan
             style="fill:#000000;fill-opacity:1;fill-rule:nonzero;stroke:none;font-family:Helvetica;font-variant:normal;font-weight:normal;font-size:9;writing-mode:lr;-inkscape-font-specification:Helvetica"
             x="0 6.498 11.502 18.999 24.003 29.007 31.509 36.513 41.517 44.019 48.519 50.517 55.017 60.021"
             y="0"
             sodipodi:role="line"
             id="tspan3221">Campo de visão</tspan></text>
</g><path
         d="M 2295,2065.5 L 2558,2065.5 M 567,338 L 978.5,402.5 L 1390,474 L 1801.5,536 L 2212.5,603 L 2624,674 L 3035.5,887.5 L 3447,845.5"
         style="fill:none;stroke:#000000;stroke-opacity:1;stroke-width:5;stroke-linecap:butt;stroke-linejoin:miter;stroke-miterlimit:10;stroke-dasharray:none"
         id="path3223" /><path
         d="M 543.375,314.375 L 590.625,314.375 L 590.625,361.625 L 543.375,361.625 L 543.375,314.375 z"
         style="fill:none;stroke:#000000;stroke-opacity:1;stroke-width:5;stroke-linecap:butt;stroke-linejoin:miter;stroke-miterlimit:10;stroke-dasharray:none"
         id="path3225" /><path
         d="M 567,338 L 567,338"
         style="fill:none;stroke:#000000;stroke-opacity:1;stroke-width:5;stroke-linecap:round;stroke-linejoin:miter;stroke-miterlimit:10;stroke-dasharray:none"
         id="path3227" /><path
         d="M 954.875,378.875 L 1002.125,378.875 L 1002.125,426.125 L 954.875,426.125 L 954.875,378.875 z"
         style="fill:none;stroke:#000000;stroke-opacity:1;stroke-width:5;stroke-linecap:butt;stroke-linejoin:miter;stroke-miterlimit:10;stroke-dasharray:none"
         id="path3229" /><path
         d="M 978.5,402.5 L 978.5,402.5"
         style="fill:none;stroke:#000000;stroke-opacity:1;stroke-width:5;stroke-linecap:round;stroke-linejoin:miter;stroke-miterlimit:10;stroke-dasharray:none"
         id="path3231" /><path
         d="M 1366.38,450.375 L 1413.63,450.375 L 1413.63,497.625 L 1366.38,497.625 L 1366.38,450.375 z"
         style="fill:none;stroke:#000000;stroke-opacity:1;stroke-width:5;stroke-linecap:butt;stroke-linejoin:miter;stroke-miterlimit:10;stroke-dasharray:none"
         id="path3233" /><path
         d="M 1390,474 L 1390,474"
         style="fill:none;stroke:#000000;stroke-opacity:1;stroke-width:5;stroke-linecap:round;stroke-linejoin:miter;stroke-miterlimit:10;stroke-dasharray:none"
         id="path3235" /><path
         d="M 1777.88,512.375 L 1825.13,512.375 L 1825.13,559.625 L 1777.88,559.625 L 1777.88,512.375 z"
         style="fill:none;stroke:#000000;stroke-opacity:1;stroke-width:5;stroke-linecap:butt;stroke-linejoin:miter;stroke-miterlimit:10;stroke-dasharray:none"
         id="path3237" /><path
         d="M 1801.5,536 L 1801.5,536"
         style="fill:none;stroke:#000000;stroke-opacity:1;stroke-width:5;stroke-linecap:round;stroke-linejoin:miter;stroke-miterlimit:10;stroke-dasharray:none"
         id="path3239" /><path
         d="M 2188.88,579.375 L 2236.13,579.375 L 2236.13,626.625 L 2188.88,626.625 L 2188.88,579.375 z"
         style="fill:none;stroke:#000000;stroke-opacity:1;stroke-width:5;stroke-linecap:butt;stroke-linejoin:miter;stroke-miterlimit:10;stroke-dasharray:none"
         id="path3241" /><path
         d="M 2212.5,603 L 2212.5,603"
         style="fill:none;stroke:#000000;stroke-opacity:1;stroke-width:5;stroke-linecap:round;stroke-linejoin:miter;stroke-miterlimit:10;stroke-dasharray:none"
         id="path3243" /><path
         d="M 2600.38,650.375 L 2647.63,650.375 L 2647.63,697.625 L 2600.38,697.625 L 2600.38,650.375 z"
         style="fill:none;stroke:#000000;stroke-opacity:1;stroke-width:5;stroke-linecap:butt;stroke-linejoin:miter;stroke-miterlimit:10;stroke-dasharray:none"
         id="path3245" /><path
         d="M 2624,674 L 2624,674"
         style="fill:none;stroke:#000000;stroke-opacity:1;stroke-width:5;stroke-linecap:round;stroke-linejoin:miter;stroke-miterlimit:10;stroke-dasharray:none"
         id="path3247" /><path
         d="M 3011.88,863.875 L 3059.13,863.875 L 3059.13,911.125 L 3011.88,911.125 L 3011.88,863.875 z"
         style="fill:none;stroke:#000000;stroke-opacity:1;stroke-width:5;stroke-linecap:butt;stroke-linejoin:miter;stroke-miterlimit:10;stroke-dasharray:none"
         id="path3249" /><path
         d="M 3035.5,887.5 L 3035.5,887.5"
         style="fill:none;stroke:#000000;stroke-opacity:1;stroke-width:5;stroke-linecap:round;stroke-linejoin:miter;stroke-miterlimit:10;stroke-dasharray:none"
         id="path3251" /><path
         d="M 3423.38,821.875 L 3470.63,821.875 L 3470.63,869.125 L 3423.38,869.125 L 3423.38,821.875 z"
         style="fill:none;stroke:#000000;stroke-opacity:1;stroke-width:5;stroke-linecap:butt;stroke-linejoin:miter;stroke-miterlimit:10;stroke-dasharray:none"
         id="path3253" /><path
         d="M 3447,845.5 L 3447,845.5"
         style="fill:none;stroke:#000000;stroke-opacity:1;stroke-width:5;stroke-linecap:round;stroke-linejoin:miter;stroke-miterlimit:10;stroke-dasharray:none"
         id="path3255" /><path
         d="M 2402.88,2041.88 L 2450.13,2041.88 L 2450.13,2089.13 L 2402.88,2089.13 L 2402.88,2041.88 z"
         style="fill:none;stroke:#000000;stroke-opacity:1;stroke-width:5;stroke-linecap:butt;stroke-linejoin:miter;stroke-miterlimit:10;stroke-dasharray:none"
         id="path3257" /><path
         d="M 2426.5,2065.5 L 2426.5,2065.5"
         style="fill:none;stroke:#000000;stroke-opacity:1;stroke-width:5;stroke-linecap:round;stroke-linejoin:miter;stroke-miterlimit:10;stroke-dasharray:none"
         id="path3259" /><g
         id="g3261"
         transform="scale(10,10)"><text
           transform="matrix(1,0,0,-1,214.094,193.65)"
           id="text3263"><tspan
             style="fill:#000000;fill-opacity:1;fill-rule:nonzero;stroke:none;font-family:Helvetica;font-variant:normal;font-weight:normal;font-size:9;writing-mode:lr;-inkscape-font-specification:Helvetica"
             x="0"
             y="0"
             id="tspan3265">A</tspan></text>
<text
           transform="matrix(1,0,0,-1,220.09712,198.15)"
           id="text3267"><tspan
             style="fill:#000000;fill-opacity:1;fill-rule:nonzero;stroke:none;font-family:Helvetica;font-variant:normal;font-weight:normal;font-size:7.2;writing-mode:lr;-inkscape-font-specification:Helvetica"
             x="0"
             y="0"
             id="tspan3269">3</tspan></text>
</g><path
         d="M 2295,1975.5 L 2558,1975.5 M 567,315.5 L 978.5,358.5 L 1390,407.5 L 1801.5,450.5 L 2212.5,492 L 2624,539.5 L 3035.5,651.5 L 3447,656"
         style="fill:none;stroke:#000000;stroke-opacity:1;stroke-width:5;stroke-linecap:butt;stroke-linejoin:miter;stroke-miterlimit:10;stroke-dasharray:none"
         id="path3271" /><path
         d="M 543.375,291.875 L 590.625,291.875 L 590.625,339.125 L 543.375,339.125 L 543.375,291.875 z"
         style="fill:#000000;fill-opacity:1;fill-rule:nonzero;stroke:none"
         id="path3273" /><path
         d="M 954.875,334.875 L 1002.125,334.875 L 1002.125,382.125 L 954.875,382.125 L 954.875,334.875 z"
         style="fill:#000000;fill-opacity:1;fill-rule:nonzero;stroke:none"
         id="path3275" /><path
         d="M 1366.38,383.875 L 1413.63,383.875 L 1413.63,431.125 L 1366.38,431.125 L 1366.38,383.875 z"
         style="fill:#000000;fill-opacity:1;fill-rule:nonzero;stroke:none"
         id="path3277" /><path
         d="M 1777.88,426.875 L 1825.13,426.875 L 1825.13,474.125 L 1777.88,474.125 L 1777.88,426.875 z"
         style="fill:#000000;fill-opacity:1;fill-rule:nonzero;stroke:none"
         id="path3279" /><path
         d="M 2188.88,468.375 L 2236.13,468.375 L 2236.13,515.625 L 2188.88,515.625 L 2188.88,468.375 z"
         style="fill:#000000;fill-opacity:1;fill-rule:nonzero;stroke:none"
         id="path3281" /><path
         d="M 2600.38,515.875 L 2647.63,515.875 L 2647.63,563.125 L 2600.38,563.125 L 2600.38,515.875 z"
         style="fill:#000000;fill-opacity:1;fill-rule:nonzero;stroke:none"
         id="path3283" /><path
         d="M 3011.88,627.875 L 3059.13,627.875 L 3059.13,675.125 L 3011.88,675.125 L 3011.88,627.875 z"
         style="fill:#000000;fill-opacity:1;fill-rule:nonzero;stroke:none"
         id="path3285" /><path
         d="M 3423.38,632.375 L 3470.63,632.375 L 3470.63,679.625 L 3423.38,679.625 L 3423.38,632.375 z"
         style="fill:#000000;fill-opacity:1;fill-rule:nonzero;stroke:none"
         id="path3287" /><path
         d="M 2402.88,1951.88 L 2450.13,1951.88 L 2450.13,1999.13 L 2402.88,1999.13 L 2402.88,1951.88 z"
         style="fill:#000000;fill-opacity:1;fill-rule:nonzero;stroke:none"
         id="path3289" /><path
         d="M 567,270 L 3447,270 L 3447,2412 L 567,2412 L 567,270 z"
         style="fill:none;stroke:#000000;stroke-opacity:1;stroke-width:10;stroke-linecap:butt;stroke-linejoin:miter;stroke-miterlimit:10;stroke-dasharray:none"
         id="path3291" /></g></g></svg>