<?xml version="1.0" encoding="UTF-8" standalone="no"?>
<!-- Created with Inkscape (http://www.inkscape.org/) -->
<svg
   xmlns:dc="http://purl.org/dc/elements/1.1/"
   xmlns:cc="http://creativecommons.org/ns#"
   xmlns:rdf="http://www.w3.org/1999/02/22-rdf-syntax-ns#"
   xmlns:svg="http://www.w3.org/2000/svg"
   xmlns="http://www.w3.org/2000/svg"
   xmlns:sodipodi="http://sodipodi.sourceforge.net/DTD/sodipodi-0.dtd"
   xmlns:inkscape="http://www.inkscape.org/namespaces/inkscape"
   version="1.0"
   width="1052.3622"
   height="744.09448"
   id="svg3951"
   sodipodi:version="0.32"
   inkscape:version="0.46"
   sodipodi:docname="freemmg.svg"
   inkscape:output_extension="org.inkscape.output.svg.inkscape"
   inkscape:export-filename="C:\svn\trunk\textos\dissertation\defesa_imgs\freemmg.png"
   inkscape:export-xdpi="217"
   inkscape:export-ydpi="217">
  <metadata
     id="metadata2937">
    <rdf:RDF>
      <cc:Work
         rdf:about="">
        <dc:format>image/svg+xml</dc:format>
        <dc:type
           rdf:resource="http://purl.org/dc/dcmitype/StillImage" />
      </cc:Work>
    </rdf:RDF>
  </metadata>
  <sodipodi:namedview
     inkscape:window-height="814"
     inkscape:window-width="1440"
     inkscape:pageshadow="2"
     inkscape:pageopacity="0.0"
     guidetolerance="10.0"
     gridtolerance="10.0"
     objecttolerance="10.0"
     borderopacity="1.0"
     bordercolor="#666666"
     pagecolor="#ffffff"
     id="base"
     showgrid="false"
     inkscape:zoom="0.73105266"
     inkscape:cx="226.42269"
     inkscape:cy="398.57839"
     inkscape:window-x="-4"
     inkscape:window-y="-4"
     inkscape:current-layer="svg3951"
     showguides="true"
     inkscape:guide-bbox="true" />
  <defs
     id="defs3953">
    <inkscape:perspective
       sodipodi:type="inkscape:persp3d"
       inkscape:vp_x="0 : 372.04724 : 1"
       inkscape:vp_y="0 : 1000 : 0"
       inkscape:vp_z="1052.3622 : 372.04724 : 1"
       inkscape:persp3d-origin="526.18109 : 248.03149 : 1"
       id="perspective2939" />
  </defs>
  <path
     style="fill:none;fill-rule:evenodd;stroke:#000000;stroke-width:2;stroke-linecap:butt;stroke-linejoin:miter;stroke-opacity:1;stroke-miterlimit:4;stroke-dasharray:6,6;stroke-dashoffset:0"
     d="M 349.62838,180.44175 L 491.50164,281.04503"
     id="path3556"
     inkscape:connector-type="polyline" />
  <text
     style="font-size:38.83468628px;font-style:normal;font-weight:normal;text-align:center;text-anchor:middle;fill:#000000;fill-opacity:1;stroke:none;stroke-width:1px;stroke-linecap:butt;stroke-linejoin:miter;stroke-opacity:1;font-family:Bitstream Vera Sans"
     xml:space="preserve"
     id="text5544"
     y="376.71475"
     x="500.73761"><tspan
       style="font-size:22px;font-style:normal;font-variant:normal;font-weight:normal;font-stretch:normal;font-family:Calibri;-inkscape-font-specification:Calibri"
       id="tspan5546"
       y="376.71475"
       x="500.73761">Servidor</tspan></text>
  <g
     id="g3562">
    <g
       transform="translate(-68.250545,-315.98271)"
       id="g3520">
      <path
         d="M 265.37891,516.50407 L 265.37891,366.50407 L 415.37891,366.50407 L 415.37891,516.50407 L 265.37891,516.50407 z"
         id="path5083"
         style="fill:#ffffff;fill-opacity:1;fill-rule:evenodd;stroke:#000000;stroke-width:5;stroke-linecap:butt;stroke-linejoin:miter;stroke-miterlimit:4;stroke-dasharray:none;stroke-dashoffset:0;stroke-opacity:1" />
      <text
         x="339.93848"
         y="388.45987"
         id="text5087"
         xml:space="preserve"
         style="font-size:38.83468628px;font-style:normal;font-weight:normal;text-align:center;text-anchor:middle;fill:#000000;fill-opacity:1;stroke:none;stroke-width:1px;stroke-linecap:butt;stroke-linejoin:miter;stroke-opacity:1;font-family:Bitstream Vera Sans"><tspan
           x="339.93848"
           y="388.45987"
           id="tspan5089"
           style="font-size:22px;font-style:normal;font-variant:normal;font-weight:normal;font-stretch:normal;font-family:Calibri;-inkscape-font-specification:Calibri">Segmento</tspan></text>
      <path
         style="fill:none;fill-rule:evenodd;stroke:#000000;stroke-width:1.39803648;stroke-linecap:butt;stroke-linejoin:miter;stroke-miterlimit:4;stroke-dasharray:none;stroke-opacity:1"
         id="path4945"
         d="M 342.48752,453.17329 L 381.51119,460.00795" />
      <path
         style="fill:none;fill-rule:evenodd;stroke:#000000;stroke-width:1.39795673;stroke-linecap:butt;stroke-linejoin:miter;stroke-miterlimit:4;stroke-dasharray:none;stroke-opacity:1"
         id="path4947"
         d="M 317.5741,430.24413 L 337.19617,447.66147 L 338.95995,449.20478" />
      <path
         style="fill:#ffffff;fill-opacity:1;fill-rule:evenodd;stroke:#000000;stroke-width:1.39803648;stroke-linecap:round;stroke-linejoin:round;stroke-miterlimit:4;stroke-dasharray:none;stroke-dashoffset:0;stroke-opacity:1"
         id="path4951"
         d="M 319.98553,425.76741 C 319.98553,429.54208 316.92555,432.60206 313.15088,432.60206 C 309.3762,432.60206 306.31622,429.54208 306.31622,425.76741 C 306.31622,421.99273 309.3762,418.93275 313.15088,418.93275 C 316.92555,418.93276 319.98553,421.99273 319.98553,425.76741 z" />
      <path
         style="fill:#ffffff;fill-opacity:1;fill-rule:evenodd;stroke:#000000;stroke-width:1.39803648;stroke-linecap:round;stroke-linejoin:round;stroke-miterlimit:4;stroke-dasharray:none;stroke-dashoffset:0;stroke-opacity:1"
         id="path4963"
         d="M 387.17746,459.90902 C 387.17746,463.6837 384.11747,466.74367 380.34282,466.74367 C 376.56813,466.74367 373.50817,463.6837 373.50817,459.90902 C 373.50817,456.13434 376.56813,453.07436 380.34282,453.07436 C 384.11747,453.07436 387.17746,456.13434 387.17746,459.90902 z" />
      <path
         style="fill:#ffffff;fill-opacity:1;fill-rule:evenodd;stroke:#000000;stroke-width:1.39803648;stroke-linecap:round;stroke-linejoin:round;stroke-miterlimit:4;stroke-dasharray:none;stroke-dashoffset:0;stroke-opacity:1"
         id="path4965"
         d="M 348.82661,453.04952 C 348.82661,456.82419 345.76664,459.88417 341.99196,459.88417 C 338.21728,459.88417 335.1573,456.82419 335.1573,453.04952 C 335.1573,449.27484 338.21728,446.21486 341.99196,446.21486 C 345.76664,446.21486 348.82661,449.27484 348.82661,453.04952 z" />
    </g>
    <g
       transform="translate(-263.24694,-138.15696)"
       id="g3530">
      <path
         d="M 460.3753,516.50407 L 460.3753,366.50407 L 610.37531,366.50407 L 610.37531,516.50407 L 460.3753,516.50407 z"
         id="path5099"
         style="fill:#ffffff;fill-opacity:1;fill-rule:evenodd;stroke:#000000;stroke-width:5;stroke-linecap:butt;stroke-linejoin:miter;stroke-miterlimit:4;stroke-dasharray:none;stroke-dashoffset:0;stroke-opacity:1" />
      <path
         d="M 506.94845,465.40953 L 538.36582,453.06305"
         id="path4971"
         style="fill:none;fill-rule:evenodd;stroke:#000000;stroke-width:1.39803648;stroke-linecap:butt;stroke-linejoin:miter;stroke-miterlimit:4;stroke-dasharray:none;stroke-opacity:1" />
      <path
         d="M 537.48393,453.17329 L 576.5076,460.00795"
         id="path4973"
         style="fill:none;fill-rule:evenodd;stroke:#000000;stroke-width:1.39803648;stroke-linecap:butt;stroke-linejoin:miter;stroke-miterlimit:4;stroke-dasharray:none;stroke-opacity:1" />
      <path
         d="M 512.57051,430.24413 L 532.19258,447.66147 L 533.95636,449.20478"
         id="path4975"
         style="fill:none;fill-rule:evenodd;stroke:#000000;stroke-width:1.39795673;stroke-linecap:butt;stroke-linejoin:miter;stroke-miterlimit:4;stroke-dasharray:none;stroke-opacity:1" />
      <path
         d="M 514.98194,425.76741 C 514.98194,429.54208 511.92196,432.60206 508.14729,432.60206 C 504.37261,432.60206 501.31263,429.54208 501.31263,425.76741 C 501.31263,421.99273 504.37261,418.93275 508.14729,418.93275 C 511.92196,418.93276 514.98194,421.99273 514.98194,425.76741 z"
         id="path4979"
         style="fill:#ffffff;fill-opacity:1;fill-rule:evenodd;stroke:#000000;stroke-width:1.39803648;stroke-linecap:round;stroke-linejoin:round;stroke-miterlimit:4;stroke-dasharray:none;stroke-dashoffset:0;stroke-opacity:1" />
      <path
         d="M 515.20668,465.09684 C 515.20668,468.87152 512.1467,471.9315 508.37202,471.9315 C 504.59735,471.9315 501.53737,468.87152 501.53737,465.09684 C 501.53737,461.32217 504.59735,458.26219 508.37202,458.26219 C 512.1467,458.26219 515.20668,461.32217 515.20668,465.09684 z"
         id="path4987"
         style="fill:#ffffff;fill-opacity:1;fill-rule:evenodd;stroke:#000000;stroke-width:1.39803648;stroke-linecap:round;stroke-linejoin:round;stroke-miterlimit:4;stroke-dasharray:none;stroke-dashoffset:0;stroke-opacity:1" />
      <path
         d="M 582.17387,459.90902 C 582.17387,463.6837 579.11388,466.74367 575.33923,466.74367 C 571.56454,466.74367 568.50458,463.6837 568.50458,459.90902 C 568.50458,456.13434 571.56454,453.07436 575.33923,453.07436 C 579.11388,453.07436 582.17387,456.13434 582.17387,459.90902 z"
         id="path4991"
         style="fill:#ffffff;fill-opacity:1;fill-rule:evenodd;stroke:#000000;stroke-width:1.39803648;stroke-linecap:round;stroke-linejoin:round;stroke-miterlimit:4;stroke-dasharray:none;stroke-dashoffset:0;stroke-opacity:1" />
      <path
         d="M 543.82302,453.04952 C 543.82302,456.82419 540.76305,459.88417 536.98837,459.88417 C 533.21369,459.88417 530.15371,456.82419 530.15371,453.04952 C 530.15371,449.27484 533.21369,446.21486 536.98837,446.21486 C 540.76305,446.21486 543.82302,449.27484 543.82302,453.04952 z"
         id="path4993"
         style="fill:#ffffff;fill-opacity:1;fill-rule:evenodd;stroke:#000000;stroke-width:1.39803648;stroke-linecap:round;stroke-linejoin:round;stroke-miterlimit:4;stroke-dasharray:none;stroke-dashoffset:0;stroke-opacity:1" />
      <text
         style="font-size:38.83468628px;font-style:normal;font-weight:normal;text-align:center;text-anchor:middle;fill:#000000;fill-opacity:1;stroke:none;stroke-width:1px;stroke-linecap:butt;stroke-linejoin:miter;stroke-opacity:1;font-family:Bitstream Vera Sans"
         xml:space="preserve"
         id="text2971"
         y="388.45987"
         x="534.93488"><tspan
           style="font-size:22px;font-style:normal;font-variant:normal;font-weight:normal;font-stretch:normal;font-family:Calibri;-inkscape-font-specification:Calibri"
           id="tspan2973"
           y="388.45987"
           x="534.93488">Segmento</tspan></text>
    </g>
    <g
       transform="translate(-458.24332,39.668825)"
       id="g3542">
      <path
         d="M 655.37168,516.50407 L 655.37168,366.50407 L 805.37169,366.50407 L 805.37169,516.50407 L 655.37168,516.50407 z"
         id="path5115"
         style="fill:#ffffff;fill-opacity:1;fill-rule:evenodd;stroke:#000000;stroke-width:5;stroke-linecap:butt;stroke-linejoin:miter;stroke-miterlimit:4;stroke-dasharray:none;stroke-dashoffset:0;stroke-opacity:1" />
      <path
         style="fill:none;fill-rule:evenodd;stroke:#000000;stroke-width:1.39803648;stroke-linecap:butt;stroke-linejoin:miter;stroke-miterlimit:4;stroke-dasharray:none;stroke-opacity:1"
         id="path4997"
         d="M 768.35688,436.46337 L 758.54585,461.48702" />
      <path
         style="fill:none;fill-rule:evenodd;stroke:#000000;stroke-width:1.39803648;stroke-linecap:butt;stroke-linejoin:miter;stroke-miterlimit:4;stroke-dasharray:none;stroke-opacity:1"
         id="path4999"
         d="M 700.01034,442.19566 L 731.42771,429.84918" />
      <path
         style="fill:none;fill-rule:evenodd;stroke:#000000;stroke-width:1.39803648;stroke-linecap:butt;stroke-linejoin:miter;stroke-miterlimit:4;stroke-dasharray:none;stroke-opacity:1"
         id="path5001"
         d="M 730.54582,429.95942 L 769.56949,436.79408" />
      <path
         style="fill:#ffffff;fill-opacity:1;fill-rule:evenodd;stroke:#000000;stroke-width:1.39803648;stroke-linecap:round;stroke-linejoin:round;stroke-miterlimit:4;stroke-dasharray:none;stroke-dashoffset:0;stroke-opacity:1"
         id="path5005"
         d="M 765.1352,460.68583 C 765.1352,464.46051 762.07521,467.52049 758.30053,467.52049 C 754.52586,467.52049 751.46587,464.46051 751.46587,460.68583 C 751.46587,456.91115 754.52586,453.85118 758.30053,453.85118 C 762.07521,453.85118 765.1352,456.91115 765.1352,460.68583 z" />
      <path
         style="fill:none;fill-rule:evenodd;stroke:#000000;stroke-width:1.39795673;stroke-linecap:butt;stroke-linejoin:miter;stroke-miterlimit:4;stroke-dasharray:none;stroke-opacity:1"
         id="path5011"
         d="M 722.66584,470.82872 L 700.88581,440.62434" />
      <path
         style="fill:#ffffff;fill-opacity:1;fill-rule:evenodd;stroke:#000000;stroke-width:1.39803648;stroke-linecap:round;stroke-linejoin:round;stroke-miterlimit:4;stroke-dasharray:none;stroke-dashoffset:0;stroke-opacity:1"
         id="path5015"
         d="M 708.26857,441.88297 C 708.26857,445.65765 705.20859,448.71763 701.43391,448.71763 C 697.65924,448.71763 694.59926,445.65765 694.59926,441.88297 C 694.59926,438.1083 697.65924,435.04832 701.43391,435.04832 C 705.20859,435.04832 708.26857,438.1083 708.26857,441.88297 z" />
      <path
         d="M 729.37632,470.22556 C 729.37632,474.00024 726.31634,477.06022 722.54166,477.06022 C 718.76699,477.06022 715.70701,474.00024 715.70701,470.22556 C 715.70701,466.45089 718.76699,463.39091 722.54166,463.39091 C 726.31634,463.39091 729.37632,466.45089 729.37632,470.22556 z"
         id="path5017"
         style="fill:#ffffff;fill-opacity:1;fill-rule:evenodd;stroke:#000000;stroke-width:1.39803648;stroke-linecap:round;stroke-linejoin:round;stroke-miterlimit:4;stroke-dasharray:none;stroke-dashoffset:0;stroke-opacity:1" />
      <path
         style="fill:#ffffff;fill-opacity:1;fill-rule:evenodd;stroke:#000000;stroke-width:1.39803648;stroke-linecap:round;stroke-linejoin:round;stroke-miterlimit:4;stroke-dasharray:none;stroke-dashoffset:0;stroke-opacity:1"
         id="path5019"
         d="M 775.23576,436.69515 C 775.23576,440.46983 772.17577,443.5298 768.40112,443.5298 C 764.62643,443.5298 761.56647,440.46983 761.56647,436.69515 C 761.56647,432.92047 764.62643,429.86049 768.40112,429.86049 C 772.17577,429.86049 775.23576,432.92047 775.23576,436.69515 z" />
      <path
         style="fill:#ffffff;fill-opacity:1;fill-rule:evenodd;stroke:#000000;stroke-width:1.39803648;stroke-linecap:round;stroke-linejoin:round;stroke-miterlimit:4;stroke-dasharray:none;stroke-dashoffset:0;stroke-opacity:1"
         id="path5021"
         d="M 736.88491,429.83565 C 736.88491,433.61032 733.82494,436.6703 730.05026,436.6703 C 726.27558,436.6703 723.2156,433.61032 723.2156,429.83565 C 723.2156,426.06097 726.27558,423.00099 730.05026,423.00099 C 733.82494,423.00099 736.88491,426.06097 736.88491,429.83565 z" />
      <text
         x="729.93127"
         y="388.45987"
         id="text2977"
         xml:space="preserve"
         style="font-size:38.83468628px;font-style:normal;font-weight:normal;text-align:center;text-anchor:middle;fill:#000000;fill-opacity:1;stroke:none;stroke-width:1px;stroke-linecap:butt;stroke-linejoin:miter;stroke-opacity:1;font-family:Bitstream Vera Sans"><tspan
           x="729.93127"
           y="388.45987"
           id="tspan2979"
           style="font-size:22px;font-style:normal;font-variant:normal;font-weight:normal;font-stretch:normal;font-family:Calibri;-inkscape-font-specification:Calibri">Segmento</tspan></text>
    </g>
  </g>
  <g
     id="g5661"
     transform="translate(-14.516683,376.07047)">
    <path
       d="M 501.73493,-110.46027 C 513.40551,-117.10674 524.52368,-123.41771 526.44197,-124.48465 L 529.92976,-126.42453 L 562.27666,-126.42453 L 594.62357,-126.42453 L 581.28078,-118.84778 C 573.94223,-114.68056 562.83979,-108.36959 556.60868,-104.8234 L 545.27942,-98.375786 L 512.89754,-98.375786 L 480.5157,-98.375786 L 501.73493,-110.46027 z"
       id="path10680"
       style="fill:#999999;fill-opacity:1;stroke:none;stroke-width:0.45456862;stroke-miterlimit:4;stroke-dasharray:none;stroke-dashoffset:0;stroke-opacity:1" />
    <path
       d="M 498.88885,-102.97804 L 498.90897,-108.80141 L 511.69173,-116.39665 C 518.72225,-120.57402 525.41264,-124.53966 526.55926,-125.20917 L 528.64404,-126.42647 L 560.80233,-126.40604 L 592.96061,-126.38562 L 590.4784,-124.90879 C 589.11317,-124.09653 582.13806,-119.94861 574.97815,-115.69118 C 567.81823,-111.43375 557.88059,-105.52136 552.89449,-102.55254 L 543.82886,-97.15467 L 521.34879,-97.15467 L 498.86872,-97.15467 L 498.88885,-102.97804 z"
       id="path10682"
       style="fill:#999999;fill-opacity:1;stroke:#999999;stroke-width:0.07186757;stroke-miterlimit:4;stroke-dasharray:none;stroke-dashoffset:0;stroke-opacity:1" />
    <rect
       width="64.830528"
       height="79.701363"
       x="480.71603"
       y="-98.345337"
       id="rect10684"
       style="fill:#999999;fill-opacity:1;fill-rule:evenodd;stroke:#000000;stroke-width:0.50958711px;stroke-linecap:butt;stroke-linejoin:miter;stroke-opacity:1" />
    <path
       d="M 513.23776,-98.433808 C 513.23776,-19.356191 513.23776,-18.713281 513.23776,-18.713281"
       id="path10686"
       style="fill:none;fill-rule:evenodd;stroke:#000000;stroke-width:0.50669116px;stroke-linecap:butt;stroke-linejoin:miter;stroke-opacity:1" />
    <path
       d="M 480.33372,-98.472415 C 529.57054,-126.8993 529.84085,-126.82451 529.84085,-126.82451"
       id="path10688"
       style="fill:none;fill-rule:evenodd;stroke:#000000;stroke-width:0.61066067px;stroke-linecap:butt;stroke-linejoin:miter;stroke-opacity:1" />
    <path
       d="M 545.9359,-58.852542 L 545.9359,-98.569742 L 558.50654,-105.82038 C 583.82034,-120.42118 593.60493,-126.03831 593.98195,-126.18608 C 594.2892,-126.30652 594.36756,-118.25685 594.36756,-86.564504 L 594.36756,-46.79179 L 592.74803,-45.910097 C 591.85728,-45.425175 581.02118,-39.202483 568.66781,-32.081892 C 556.31443,-24.961307 546.14611,-19.135362 546.07151,-19.135362 C 545.99694,-19.135362 545.9359,-37.008094 545.9359,-58.852548 L 545.9359,-58.852542 z"
       id="path10690"
       style="fill:#999999;fill-opacity:1;stroke:#999999;stroke-width:0.27815452;stroke-miterlimit:4;stroke-dasharray:none;stroke-dashoffset:0;stroke-opacity:1" />
    <path
       d="M 545.01642,-98.297135 C 594.5544,-126.8979 594.82636,-126.82264 594.82636,-126.82264"
       id="path10692"
       style="fill:none;fill-rule:evenodd;stroke:#000000;stroke-width:0.61439574px;stroke-linecap:butt;stroke-linejoin:miter;stroke-opacity:1" />
    <path
       d="M 545.31923,-18.620306 C 594.25489,-46.873324 594.52356,-46.798994 594.52356,-46.798994"
       id="path10694"
       style="fill:none;fill-rule:evenodd;stroke:#000000;stroke-width:0.60692561px;stroke-linecap:butt;stroke-linejoin:miter;stroke-opacity:1" />
    <path
       d="M 529.53926,-126.77296 C 594.56701,-126.77296 594.78376,-126.77296 594.78376,-126.77296"
       id="path10696"
       style="fill:none;fill-rule:evenodd;stroke:#000000;stroke-width:0.546233;stroke-linecap:butt;stroke-linejoin:miter;stroke-miterlimit:4;stroke-dasharray:none;stroke-opacity:1" />
    <path
       d="M 594.47184,-126.82358 C 594.47184,-47.373619 594.47184,-46.72768 594.47184,-46.72768"
       id="path10698"
       style="fill:none;fill-rule:evenodd;stroke:#000000;stroke-width:0.50788265px;stroke-linecap:butt;stroke-linejoin:miter;stroke-opacity:1" />
    <rect
       width="28.927362"
       height="8.2400045"
       x="483.25006"
       y="-94.831787"
       id="rect10702"
       style="fill:#000000;fill-opacity:1;fill-rule:evenodd;stroke:#ffffff;stroke-width:0.47099572;stroke-linecap:butt;stroke-linejoin:miter;stroke-miterlimit:4;stroke-dasharray:none;stroke-opacity:1" />
    <rect
       width="28.927362"
       height="8.2400045"
       x="483.25006"
       y="-84.848701"
       id="rect10704"
       style="fill:#000000;fill-opacity:1;fill-rule:evenodd;stroke:#ffffff;stroke-width:0.47099572;stroke-linecap:butt;stroke-linejoin:miter;stroke-miterlimit:4;stroke-dasharray:none;stroke-opacity:1" />
    <rect
       width="28.927362"
       height="8.2400045"
       x="483.25006"
       y="-74.865616"
       id="rect10706"
       style="fill:#000000;fill-opacity:1;fill-rule:evenodd;stroke:#ffffff;stroke-width:0.47099572;stroke-linecap:butt;stroke-linejoin:miter;stroke-miterlimit:4;stroke-dasharray:none;stroke-opacity:1" />
    <rect
       width="10.892402"
       height="40.09079"
       x="500.89218"
       y="-61.39637"
       id="rect10708"
       style="fill:#000000;fill-opacity:1;fill-rule:evenodd;stroke:#ffffff;stroke-width:0.47099572;stroke-linecap:butt;stroke-linejoin:miter;stroke-miterlimit:4;stroke-dasharray:none;stroke-opacity:1" />
    <path
       style="fill:#000000;fill-opacity:1;stroke:#ffffff;stroke-width:0.47099584;stroke-miterlimit:4;stroke-dasharray:none;stroke-dashoffset:0;stroke-opacity:1"
       id="path10712"
       d="M 495.17813,-44.108187 C 495.17813,-42.226593 493.4593,-40.701262 491.33901,-40.701262 C 489.21872,-40.701262 487.49988,-42.226593 487.49988,-44.108187 C 487.49988,-45.98978 489.21872,-47.515111 491.33901,-47.515111 C 493.4593,-47.515111 495.17813,-45.98978 495.17813,-44.108187 z" />
    <path
       style="fill:#000000;fill-opacity:1;stroke:#ffffff;stroke-width:0.47099584;stroke-miterlimit:4;stroke-dasharray:none;stroke-dashoffset:0;stroke-opacity:1"
       id="path10714"
       d="M 492.8568,-36.343563 C 492.8568,-35.599677 492.17726,-34.996639 491.33901,-34.996639 C 490.50075,-34.996639 489.82121,-35.599677 489.82121,-36.343563 C 489.82121,-37.087449 490.50075,-37.690487 491.33901,-37.690487 C 492.17726,-37.690487 492.8568,-37.087449 492.8568,-36.343563 z" />
    <rect
       transform="scale(-1,-1)"
       width="28.927362"
       height="8.2400045"
       x="-543.73755"
       y="21.305565"
       id="rect10718"
       style="fill:#000000;fill-opacity:1;fill-rule:evenodd;stroke:#ffffff;stroke-width:0.47099572;stroke-linecap:butt;stroke-linejoin:miter;stroke-miterlimit:4;stroke-dasharray:none;stroke-opacity:1" />
    <rect
       transform="scale(-1,-1)"
       width="28.927362"
       height="8.2400045"
       x="-543.73755"
       y="31.288652"
       id="rect10720"
       style="fill:#000000;fill-opacity:1;fill-rule:evenodd;stroke:#ffffff;stroke-width:0.47099572;stroke-linecap:butt;stroke-linejoin:miter;stroke-miterlimit:4;stroke-dasharray:none;stroke-opacity:1" />
    <rect
       transform="scale(-1,-1)"
       width="28.927362"
       height="8.2400045"
       x="-543.73755"
       y="41.271736"
       id="rect10722"
       style="fill:#000000;fill-opacity:1;fill-rule:evenodd;stroke:#ffffff;stroke-width:0.47099572;stroke-linecap:butt;stroke-linejoin:miter;stroke-miterlimit:4;stroke-dasharray:none;stroke-opacity:1" />
    <rect
       transform="scale(-1,-1)"
       width="10.892402"
       height="40.09079"
       x="-526.09546"
       y="54.740978"
       id="rect10724"
       style="fill:#000000;fill-opacity:1;fill-rule:evenodd;stroke:#ffffff;stroke-width:0.47099572;stroke-linecap:butt;stroke-linejoin:miter;stroke-miterlimit:4;stroke-dasharray:none;stroke-opacity:1" />
    <path
       style="fill:#000000;fill-opacity:1;stroke:#ffffff;stroke-width:0.47099584;stroke-miterlimit:4;stroke-dasharray:none;stroke-dashoffset:0;stroke-opacity:1"
       id="path10728"
       d="M 531.80948,-72.029167 C 531.80948,-73.910761 533.52831,-75.436092 535.6486,-75.436092 C 537.76889,-75.436092 539.48773,-73.910761 539.48773,-72.029167 C 539.48773,-70.147574 537.76889,-68.622243 535.6486,-68.622243 C 533.52831,-68.622243 531.80948,-70.147574 531.80948,-72.029167 z" />
    <path
       style="fill:#000000;fill-opacity:1;stroke:#ffffff;stroke-width:0.47099584;stroke-miterlimit:4;stroke-dasharray:none;stroke-dashoffset:0;stroke-opacity:1"
       id="path10730"
       d="M 534.13081,-79.793788 C 534.13081,-80.537674 534.81035,-81.140712 535.6486,-81.140712 C 536.48686,-81.140712 537.1664,-80.537674 537.1664,-79.793788 C 537.1664,-79.049902 536.48686,-78.446864 535.6486,-78.446864 C 534.81035,-78.446864 534.13081,-79.049902 534.13081,-79.793788 z" />
  </g>
  <path
     style="fill:none;fill-rule:evenodd;stroke:#000000;stroke-width:2;stroke-linecap:butt;stroke-linejoin:miter;stroke-opacity:1;stroke-miterlimit:4;stroke-dasharray:6,6;stroke-dashoffset:0"
     d="M 349.62837,303.34712 L 465.51171,303.34712"
     id="path3558"
     inkscape:connector-type="polyline"
     inkscape:connection-start="#g3530"
     inkscape:connection-end="#g5661" />
  <path
     style="fill:none;fill-rule:evenodd;stroke:#000000;stroke-width:2;stroke-linecap:butt;stroke-linejoin:miter;stroke-opacity:1;stroke-miterlimit:4;stroke-dasharray:6,6;stroke-dashoffset:0"
     d="M 349.62837,426.25251 L 465.51171,344.13177"
     id="path3560"
     inkscape:connector-type="polyline"
     inkscape:connection-start="#g3542"
     inkscape:connection-end="#g5661" />
</svg>
