<?xml version="1.0" encoding="UTF-8" standalone="no"?>
<!-- Created with Inkscape (http://www.inkscape.org/) -->
<svg
   xmlns:dc="http://purl.org/dc/elements/1.1/"
   xmlns:cc="http://creativecommons.org/ns#"
   xmlns:rdf="http://www.w3.org/1999/02/22-rdf-syntax-ns#"
   xmlns:svg="http://www.w3.org/2000/svg"
   xmlns="http://www.w3.org/2000/svg"
   xmlns:sodipodi="http://sodipodi.sourceforge.net/DTD/sodipodi-0.dtd"
   xmlns:inkscape="http://www.inkscape.org/namespaces/inkscape"
   id="svg2403"
   sodipodi:version="0.32"
   inkscape:version="0.46"
   width="450"
   height="315"
   xml:space="preserve"
   sodipodi:docname="max.svg"
   inkscape:output_extension="org.inkscape.output.svg.inkscape"><metadata
     id="metadata2408"><rdf:RDF><cc:Work
         rdf:about=""><dc:format>image/svg+xml</dc:format><dc:type
           rdf:resource="http://purl.org/dc/dcmitype/StillImage" /></cc:Work></rdf:RDF></metadata><defs
     id="defs2406"><inkscape:perspective
       sodipodi:type="inkscape:persp3d"
       inkscape:vp_x="0 : 526.18109 : 1"
       inkscape:vp_y="0 : 1000 : 0"
       inkscape:vp_z="744.09448 : 526.18109 : 1"
       inkscape:persp3d-origin="372.04724 : 350.78739 : 1"
       id="perspective2410" /></defs><sodipodi:namedview
     inkscape:window-height="814"
     inkscape:window-width="1440"
     inkscape:pageshadow="2"
     inkscape:pageopacity="0.0"
     guidetolerance="10.0"
     gridtolerance="10.0"
     objecttolerance="10.0"
     borderopacity="1.0"
     bordercolor="#666666"
     pagecolor="#ffffff"
     id="base"
     showgrid="false"
     inkscape:zoom="1.2088889"
     inkscape:cx="225"
     inkscape:cy="157.5"
     inkscape:window-x="-4"
     inkscape:window-y="-4"
     inkscape:current-layer="g2412" /><g
     id="g2412"
     inkscape:groupmode="layer"
     inkscape:label="max"
     transform="matrix(1.25,0,0,-1.25,0,315)"><g
       id="g2414"
       transform="scale(0.1,0.1)"><path
         d="M 567,270 L 3447,270"
         style="fill:none;stroke:#000000;stroke-opacity:1;stroke-width:2.5;stroke-linecap:butt;stroke-linejoin:miter;stroke-miterlimit:10;stroke-dasharray:5,10;stroke-dashoffset:0"
         id="path2416" /><path
         d="M 567,270 L 598.5,270 M 3447,270 L 3415.5,270"
         style="fill:none;stroke:#000000;stroke-opacity:1;stroke-width:10;stroke-linecap:butt;stroke-linejoin:miter;stroke-miterlimit:10;stroke-dasharray:none"
         id="path2418" /><g
         id="g2420"
         transform="scale(10,10)"><text
           transform="matrix(1,0,0,-1,46.2961,24)"
           id="text2422"><tspan
             style="fill:#000000;fill-opacity:1;fill-rule:nonzero;stroke:none;font-family:Helvetica;font-variant:normal;font-weight:normal;font-size:9;writing-mode:lr;-inkscape-font-specification:Helvetica"
             x="0"
             y="0"
             id="tspan2424">0</tspan></text>
</g><path
         d="M 567,538 L 3447,538"
         style="fill:none;stroke:#000000;stroke-opacity:1;stroke-width:2.5;stroke-linecap:butt;stroke-linejoin:miter;stroke-miterlimit:10;stroke-dasharray:5,10;stroke-dashoffset:0"
         id="path2426" /><path
         d="M 567,538 L 598.5,538 M 3447,538 L 3415.5,538"
         style="fill:none;stroke:#000000;stroke-opacity:1;stroke-width:10;stroke-linecap:butt;stroke-linejoin:miter;stroke-miterlimit:10;stroke-dasharray:none"
         id="path2428" /><g
         id="g2430"
         transform="scale(10,10)"><text
           transform="matrix(1,0,0,-1,26.2805,50.8)"
           id="text2432"><tspan
             style="fill:#000000;fill-opacity:1;fill-rule:nonzero;stroke:none;font-family:Helvetica;font-variant:normal;font-weight:normal;font-size:9;writing-mode:lr;-inkscape-font-specification:Helvetica"
             x="0 5.004 10.008 15.012 20.016"
             y="0"
             sodipodi:role="line"
             id="tspan2434">10000</tspan></text>
</g><path
         d="M 567,805.5 L 3447,805.5"
         style="fill:none;stroke:#000000;stroke-opacity:1;stroke-width:2.5;stroke-linecap:butt;stroke-linejoin:miter;stroke-miterlimit:10;stroke-dasharray:5,10;stroke-dashoffset:0"
         id="path2436" /><path
         d="M 567,805.5 L 598.5,805.5 M 3447,805.5 L 3415.5,805.5"
         style="fill:none;stroke:#000000;stroke-opacity:1;stroke-width:10;stroke-linecap:butt;stroke-linejoin:miter;stroke-miterlimit:10;stroke-dasharray:none"
         id="path2438" /><g
         id="g2440"
         transform="scale(10,10)"><text
           transform="matrix(1,0,0,-1,26.2805,77.55)"
           id="text2442"><tspan
             style="fill:#000000;fill-opacity:1;fill-rule:nonzero;stroke:none;font-family:Helvetica;font-variant:normal;font-weight:normal;font-size:9;writing-mode:lr;-inkscape-font-specification:Helvetica"
             x="0 5.004 10.008 15.012 20.016"
             y="0"
             sodipodi:role="line"
             id="tspan2444">20000</tspan></text>
</g><path
         d="M 567,1073.5 L 3447,1073.5"
         style="fill:none;stroke:#000000;stroke-opacity:1;stroke-width:2.5;stroke-linecap:butt;stroke-linejoin:miter;stroke-miterlimit:10;stroke-dasharray:5,10;stroke-dashoffset:0"
         id="path2446" /><path
         d="M 567,1073.5 L 598.5,1073.5 M 3447,1073.5 L 3415.5,1073.5"
         style="fill:none;stroke:#000000;stroke-opacity:1;stroke-width:10;stroke-linecap:butt;stroke-linejoin:miter;stroke-miterlimit:10;stroke-dasharray:none"
         id="path2448" /><g
         id="g2450"
         transform="scale(10,10)"><text
           transform="matrix(1,0,0,-1,26.2805,104.35)"
           id="text2452"><tspan
             style="fill:#000000;fill-opacity:1;fill-rule:nonzero;stroke:none;font-family:Helvetica;font-variant:normal;font-weight:normal;font-size:9;writing-mode:lr;-inkscape-font-specification:Helvetica"
             x="0 5.004 10.008 15.012 20.016"
             y="0"
             sodipodi:role="line"
             id="tspan2454">30000</tspan></text>
</g><path
         d="M 567,1341 L 3447,1341"
         style="fill:none;stroke:#000000;stroke-opacity:1;stroke-width:2.5;stroke-linecap:butt;stroke-linejoin:miter;stroke-miterlimit:10;stroke-dasharray:5,10;stroke-dashoffset:0"
         id="path2456" /><path
         d="M 567,1341 L 598.5,1341 M 3447,1341 L 3415.5,1341"
         style="fill:none;stroke:#000000;stroke-opacity:1;stroke-width:10;stroke-linecap:butt;stroke-linejoin:miter;stroke-miterlimit:10;stroke-dasharray:none"
         id="path2458" /><g
         id="g2460"
         transform="scale(10,10)"><text
           transform="matrix(1,0,0,-1,26.2805,131.1)"
           id="text2462"><tspan
             style="fill:#000000;fill-opacity:1;fill-rule:nonzero;stroke:none;font-family:Helvetica;font-variant:normal;font-weight:normal;font-size:9;writing-mode:lr;-inkscape-font-specification:Helvetica"
             x="0 5.004 10.008 15.012 20.016"
             y="0"
             sodipodi:role="line"
             id="tspan2464">40000</tspan></text>
</g><path
         d="M 567,1609 L 3447,1609"
         style="fill:none;stroke:#000000;stroke-opacity:1;stroke-width:2.5;stroke-linecap:butt;stroke-linejoin:miter;stroke-miterlimit:10;stroke-dasharray:5,10;stroke-dashoffset:0"
         id="path2466" /><path
         d="M 567,1609 L 598.5,1609 M 3447,1609 L 3415.5,1609"
         style="fill:none;stroke:#000000;stroke-opacity:1;stroke-width:10;stroke-linecap:butt;stroke-linejoin:miter;stroke-miterlimit:10;stroke-dasharray:none"
         id="path2468" /><g
         id="g2470"
         transform="scale(10,10)"><text
           transform="matrix(1,0,0,-1,26.2805,157.9)"
           id="text2472"><tspan
             style="fill:#000000;fill-opacity:1;fill-rule:nonzero;stroke:none;font-family:Helvetica;font-variant:normal;font-weight:normal;font-size:9;writing-mode:lr;-inkscape-font-specification:Helvetica"
             x="0 5.004 10.008 15.012 20.016"
             y="0"
             sodipodi:role="line"
             id="tspan2474">50000</tspan></text>
</g><path
         d="M 567,1876.5 L 3447,1876.5"
         style="fill:none;stroke:#000000;stroke-opacity:1;stroke-width:2.5;stroke-linecap:butt;stroke-linejoin:miter;stroke-miterlimit:10;stroke-dasharray:5,10;stroke-dashoffset:0"
         id="path2476" /><path
         d="M 567,1876.5 L 598.5,1876.5 M 3447,1876.5 L 3415.5,1876.5"
         style="fill:none;stroke:#000000;stroke-opacity:1;stroke-width:10;stroke-linecap:butt;stroke-linejoin:miter;stroke-miterlimit:10;stroke-dasharray:none"
         id="path2478" /><g
         id="g2480"
         transform="scale(10,10)"><text
           transform="matrix(1,0,0,-1,26.2805,184.65)"
           id="text2482"><tspan
             style="fill:#000000;fill-opacity:1;fill-rule:nonzero;stroke:none;font-family:Helvetica;font-variant:normal;font-weight:normal;font-size:9;writing-mode:lr;-inkscape-font-specification:Helvetica"
             x="0 5.004 10.008 15.012 20.016"
             y="0"
             sodipodi:role="line"
             id="tspan2484">60000</tspan></text>
</g><path
         d="M 567,2144.5 L 621,2144.5 M 2612,2144.5 L 3447,2144.5"
         style="fill:none;stroke:#000000;stroke-opacity:1;stroke-width:2.5;stroke-linecap:butt;stroke-linejoin:miter;stroke-miterlimit:10;stroke-dasharray:5,10;stroke-dashoffset:0"
         id="path2486" /><path
         d="M 567,2144.5 L 598.5,2144.5 M 3447,2144.5 L 3415.5,2144.5"
         style="fill:none;stroke:#000000;stroke-opacity:1;stroke-width:10;stroke-linecap:butt;stroke-linejoin:miter;stroke-miterlimit:10;stroke-dasharray:none"
         id="path2488" /><g
         id="g2490"
         transform="scale(10,10)"><text
           transform="matrix(1,0,0,-1,26.2805,211.45)"
           id="text2492"><tspan
             style="fill:#000000;fill-opacity:1;fill-rule:nonzero;stroke:none;font-family:Helvetica;font-variant:normal;font-weight:normal;font-size:9;writing-mode:lr;-inkscape-font-specification:Helvetica"
             x="0 5.004 10.008 15.012 20.016"
             y="0"
             sodipodi:role="line"
             id="tspan2494">70000</tspan></text>
</g><path
         d="M 567,2412 L 3447,2412"
         style="fill:none;stroke:#000000;stroke-opacity:1;stroke-width:2.5;stroke-linecap:butt;stroke-linejoin:miter;stroke-miterlimit:10;stroke-dasharray:5,10;stroke-dashoffset:0"
         id="path2496" /><path
         d="M 567,2412 L 598.5,2412 M 3447,2412 L 3415.5,2412"
         style="fill:none;stroke:#000000;stroke-opacity:1;stroke-width:10;stroke-linecap:butt;stroke-linejoin:miter;stroke-miterlimit:10;stroke-dasharray:none"
         id="path2498" /><g
         id="g2500"
         transform="scale(10,10)"><text
           transform="matrix(1,0,0,-1,26.2805,238.2)"
           id="text2502"><tspan
             style="fill:#000000;fill-opacity:1;fill-rule:nonzero;stroke:none;font-family:Helvetica;font-variant:normal;font-weight:normal;font-size:9;writing-mode:lr;-inkscape-font-specification:Helvetica"
             x="0 5.004 10.008 15.012 20.016"
             y="0"
             sodipodi:role="line"
             id="tspan2504">80000</tspan></text>
</g><path
         d="M 567,270 L 567,2412"
         style="fill:none;stroke:#000000;stroke-opacity:1;stroke-width:2.5;stroke-linecap:butt;stroke-linejoin:miter;stroke-miterlimit:10;stroke-dasharray:5,10;stroke-dashoffset:0"
         id="path2506" /><path
         d="M 567,270 L 567,301.5 M 567,2412 L 567,2380.5"
         style="fill:none;stroke:#000000;stroke-opacity:1;stroke-width:10;stroke-linecap:butt;stroke-linejoin:miter;stroke-miterlimit:10;stroke-dasharray:none"
         id="path2508" /><g
         id="g2510"
         transform="scale(10,10)"><text
           transform="matrix(1,0,0,-1,52.9473,15)"
           id="text2512"><tspan
             style="fill:#000000;fill-opacity:1;fill-rule:nonzero;stroke:none;font-family:Helvetica;font-variant:normal;font-weight:normal;font-size:9;writing-mode:lr;-inkscape-font-specification:Helvetica"
             x="0 5.004"
             y="0"
             sodipodi:role="line"
             id="tspan2514">25</tspan></text>
</g><path
         d="M 978.5,270 L 978.5,1930.5 M 978.5,2380.5 L 978.5,2412"
         style="fill:none;stroke:#000000;stroke-opacity:1;stroke-width:2.5;stroke-linecap:butt;stroke-linejoin:miter;stroke-miterlimit:10;stroke-dasharray:5,10;stroke-dashoffset:0"
         id="path2516" /><path
         d="M 978.5,270 L 978.5,301.5 M 978.5,2412 L 978.5,2380.5"
         style="fill:none;stroke:#000000;stroke-opacity:1;stroke-width:10;stroke-linecap:butt;stroke-linejoin:miter;stroke-miterlimit:10;stroke-dasharray:none"
         id="path2518" /><g
         id="g2520"
         transform="scale(10,10)"><text
           transform="matrix(1,0,0,-1,94.0973,15)"
           id="text2522"><tspan
             style="fill:#000000;fill-opacity:1;fill-rule:nonzero;stroke:none;font-family:Helvetica;font-variant:normal;font-weight:normal;font-size:9;writing-mode:lr;-inkscape-font-specification:Helvetica"
             x="0 5.004"
             y="0"
             sodipodi:role="line"
             id="tspan2524">50</tspan></text>
</g><path
         d="M 1390,270 L 1390,1930.5 M 1390,2380.5 L 1390,2412"
         style="fill:none;stroke:#000000;stroke-opacity:1;stroke-width:2.5;stroke-linecap:butt;stroke-linejoin:miter;stroke-miterlimit:10;stroke-dasharray:5,10;stroke-dashoffset:0"
         id="path2526" /><path
         d="M 1390,270 L 1390,301.5 M 1390,2412 L 1390,2380.5"
         style="fill:none;stroke:#000000;stroke-opacity:1;stroke-width:10;stroke-linecap:butt;stroke-linejoin:miter;stroke-miterlimit:10;stroke-dasharray:none"
         id="path2528" /><g
         id="g2530"
         transform="scale(10,10)"><text
           transform="matrix(1,0,0,-1,135.247,15)"
           id="text2532"><tspan
             style="fill:#000000;fill-opacity:1;fill-rule:nonzero;stroke:none;font-family:Helvetica;font-variant:normal;font-weight:normal;font-size:9;writing-mode:lr;-inkscape-font-specification:Helvetica"
             x="0 5.004"
             y="0"
             sodipodi:role="line"
             id="tspan2534">75</tspan></text>
</g><path
         d="M 1801.5,270 L 1801.5,1930.5 M 1801.5,2380.5 L 1801.5,2412"
         style="fill:none;stroke:#000000;stroke-opacity:1;stroke-width:2.5;stroke-linecap:butt;stroke-linejoin:miter;stroke-miterlimit:10;stroke-dasharray:5,10;stroke-dashoffset:0"
         id="path2536" /><path
         d="M 1801.5,270 L 1801.5,301.5 M 1801.5,2412 L 1801.5,2380.5"
         style="fill:none;stroke:#000000;stroke-opacity:1;stroke-width:10;stroke-linecap:butt;stroke-linejoin:miter;stroke-miterlimit:10;stroke-dasharray:none"
         id="path2538" /><g
         id="g2540"
         transform="scale(10,10)"><text
           transform="matrix(1,0,0,-1,173.895,15)"
           id="text2542"><tspan
             style="fill:#000000;fill-opacity:1;fill-rule:nonzero;stroke:none;font-family:Helvetica;font-variant:normal;font-weight:normal;font-size:9;writing-mode:lr;-inkscape-font-specification:Helvetica"
             x="0 5.004 10.008"
             y="0"
             sodipodi:role="line"
             id="tspan2544">100</tspan></text>
</g><path
         d="M 2212.5,270 L 2212.5,1930.5 M 2212.5,2380.5 L 2212.5,2412"
         style="fill:none;stroke:#000000;stroke-opacity:1;stroke-width:2.5;stroke-linecap:butt;stroke-linejoin:miter;stroke-miterlimit:10;stroke-dasharray:5,10;stroke-dashoffset:0"
         id="path2546" /><path
         d="M 2212.5,270 L 2212.5,301.5 M 2212.5,2412 L 2212.5,2380.5"
         style="fill:none;stroke:#000000;stroke-opacity:1;stroke-width:10;stroke-linecap:butt;stroke-linejoin:miter;stroke-miterlimit:10;stroke-dasharray:none"
         id="path2548" /><g
         id="g2550"
         transform="scale(10,10)"><text
           transform="matrix(1,0,0,-1,214.995,15)"
           id="text2552"><tspan
             style="fill:#000000;fill-opacity:1;fill-rule:nonzero;stroke:none;font-family:Helvetica;font-variant:normal;font-weight:normal;font-size:9;writing-mode:lr;-inkscape-font-specification:Helvetica"
             x="0 5.004 10.008"
             y="0"
             sodipodi:role="line"
             id="tspan2554">125</tspan></text>
</g><path
         d="M 2624,270 L 2624,2412"
         style="fill:none;stroke:#000000;stroke-opacity:1;stroke-width:2.5;stroke-linecap:butt;stroke-linejoin:miter;stroke-miterlimit:10;stroke-dasharray:5,10;stroke-dashoffset:0"
         id="path2556" /><path
         d="M 2624,270 L 2624,301.5 M 2624,2412 L 2624,2380.5"
         style="fill:none;stroke:#000000;stroke-opacity:1;stroke-width:10;stroke-linecap:butt;stroke-linejoin:miter;stroke-miterlimit:10;stroke-dasharray:none"
         id="path2558" /><g
         id="g2560"
         transform="scale(10,10)"><text
           transform="matrix(1,0,0,-1,256.145,15)"
           id="text2562"><tspan
             style="fill:#000000;fill-opacity:1;fill-rule:nonzero;stroke:none;font-family:Helvetica;font-variant:normal;font-weight:normal;font-size:9;writing-mode:lr;-inkscape-font-specification:Helvetica"
             x="0 5.004 10.008"
             y="0"
             sodipodi:role="line"
             id="tspan2564">150</tspan></text>
</g><path
         d="M 3035.5,270 L 3035.5,2412"
         style="fill:none;stroke:#000000;stroke-opacity:1;stroke-width:2.5;stroke-linecap:butt;stroke-linejoin:miter;stroke-miterlimit:10;stroke-dasharray:5,10;stroke-dashoffset:0"
         id="path2566" /><path
         d="M 3035.5,270 L 3035.5,301.5 M 3035.5,2412 L 3035.5,2380.5"
         style="fill:none;stroke:#000000;stroke-opacity:1;stroke-width:10;stroke-linecap:butt;stroke-linejoin:miter;stroke-miterlimit:10;stroke-dasharray:none"
         id="path2568" /><g
         id="g2570"
         transform="scale(10,10)"><text
           transform="matrix(1,0,0,-1,297.295,15)"
           id="text2572"><tspan
             style="fill:#000000;fill-opacity:1;fill-rule:nonzero;stroke:none;font-family:Helvetica;font-variant:normal;font-weight:normal;font-size:9;writing-mode:lr;-inkscape-font-specification:Helvetica"
             x="0 5.004 10.008"
             y="0"
             sodipodi:role="line"
             id="tspan2574">175</tspan></text>
</g><path
         d="M 3447,270 L 3447,2412"
         style="fill:none;stroke:#000000;stroke-opacity:1;stroke-width:2.5;stroke-linecap:butt;stroke-linejoin:miter;stroke-miterlimit:10;stroke-dasharray:5,10;stroke-dashoffset:0"
         id="path2576" /><path
         d="M 3447,270 L 3447,301.5 M 3447,2412 L 3447,2380.5"
         style="fill:none;stroke:#000000;stroke-opacity:1;stroke-width:10;stroke-linecap:butt;stroke-linejoin:miter;stroke-miterlimit:10;stroke-dasharray:none"
         id="path2578" /><g
         id="g2580"
         transform="scale(10,10)"><text
           transform="matrix(1,0,0,-1,338.445,15)"
           id="text2582"><tspan
             style="fill:#000000;fill-opacity:1;fill-rule:nonzero;stroke:none;font-family:Helvetica;font-variant:normal;font-weight:normal;font-size:9;writing-mode:lr;-inkscape-font-specification:Helvetica"
             x="0 5.004 10.008"
             y="0"
             sodipodi:role="line"
             id="tspan2584">200</tspan></text>
</g><path
         d="M 567,270 L 3447,270 L 3447,2412 L 567,2412 L 567,270 z"
         style="fill:none;stroke:#000000;stroke-opacity:1;stroke-width:10;stroke-linecap:butt;stroke-linejoin:miter;stroke-miterlimit:10;stroke-dasharray:none"
         id="path2586" /><g
         id="g2588"
         transform="scale(10,10)"><text
           transform="matrix(0,1,1,0,12,48.5707)"
           id="text2590"><tspan
             style="fill:#000000;fill-opacity:1;fill-rule:nonzero;stroke:none;font-family:Helvetica;font-variant:normal;font-weight:normal;font-size:9;writing-mode:lr;-inkscape-font-specification:Helvetica"
             x="0 6.498 10.998 16.002 18.504 26.001 31.005 35.505 37.503 45 50.004 52.506 57.51 62.514 65.016 70.02 75.024 80.028 85.032 90.036 92.538 97.542 102.546 105.543 108.045 112.545 114.543 116.541 121.545 126.549 129.051 134.055 136.557 139.554 144.558 149.058 151.56 156.564 161.064 163.566 168.066"
             y="0"
             sodipodi:role="line"
             id="tspan2592">Uso máximo de banda por cliente (bytes/s)</tspan></text>
<text
           transform="matrix(1,0,0,-1,159.936,1.5)"
           id="text2594"><tspan
             style="fill:#000000;fill-opacity:1;fill-rule:nonzero;stroke:none;font-family:Helvetica;font-variant:normal;font-weight:normal;font-size:9;writing-mode:lr;-inkscape-font-specification:Helvetica"
             x="0 6.498 11.502 18.999 24.003 27 32.004 34.506 39.51 44.514 47.016 52.02 56.52 61.524 64.026 69.03 72.027 77.031"
             y="0"
             sodipodi:role="line"
             id="tspan2596">Número de avatares</tspan><tspan
             style="fill:#000000;fill-opacity:1;fill-rule:nonzero;stroke:none;font-family:Helvetica;font-variant:normal;font-weight:normal;font-size:9;writing-mode:lr;-inkscape-font-specification:Helvetica"
             x="-57.8906 -51.8876 -49.3856 -46.8836 -41.8796 -36.8756 -33.8786 -28.8746 -23.8706 -19.3706 -17.3726 -12.3686 -4.8716 0.1324 5.1364 7.6384 12.6424 15.1444 20.1484 25.1524 27.6544 29.6524 34.6564 37.1584 42.1624 45.1594 50.1634 54.6634 59.1634"
             y="-229.05"
             sodipodi:role="line"
             id="tspan2598">S/ gerenciamento de interesse</tspan></text>
</g><path
         d="M 2295,2335.5 L 2558,2335.5 M 567,521.5 L 978.5,787 L 1390,1049 L 1801.5,1309 L 2212.5,1571.5 L 2624,1831 L 3035.5,2082.5 L 3447,2347.5"
         style="fill:none;stroke:#000000;stroke-opacity:1;stroke-width:5;stroke-linecap:butt;stroke-linejoin:miter;stroke-miterlimit:10;stroke-dasharray:none"
         id="path2600" /><path
         d="M 567,497.875 L 567,545.125"
         style="fill:none;stroke:#000000;stroke-opacity:1;stroke-width:5;stroke-linecap:butt;stroke-linejoin:miter;stroke-miterlimit:10;stroke-dasharray:none"
         id="path2602" /><path
         d="M 543.375,521.5 L 590.625,521.5"
         style="fill:none;stroke:#000000;stroke-opacity:1;stroke-width:5;stroke-linecap:butt;stroke-linejoin:miter;stroke-miterlimit:10;stroke-dasharray:none"
         id="path2604" /><path
         d="M 978.5,763.375 L 978.5,810.625"
         style="fill:none;stroke:#000000;stroke-opacity:1;stroke-width:5;stroke-linecap:butt;stroke-linejoin:miter;stroke-miterlimit:10;stroke-dasharray:none"
         id="path2606" /><path
         d="M 954.875,787 L 1002.12,787"
         style="fill:none;stroke:#000000;stroke-opacity:1;stroke-width:5;stroke-linecap:butt;stroke-linejoin:miter;stroke-miterlimit:10;stroke-dasharray:none"
         id="path2608" /><path
         d="M 1390,1025.38 L 1390,1072.62"
         style="fill:none;stroke:#000000;stroke-opacity:1;stroke-width:5;stroke-linecap:butt;stroke-linejoin:miter;stroke-miterlimit:10;stroke-dasharray:none"
         id="path2610" /><path
         d="M 1366.38,1049 L 1413.62,1049"
         style="fill:none;stroke:#000000;stroke-opacity:1;stroke-width:5;stroke-linecap:butt;stroke-linejoin:miter;stroke-miterlimit:10;stroke-dasharray:none"
         id="path2612" /><path
         d="M 1801.5,1285.38 L 1801.5,1332.62"
         style="fill:none;stroke:#000000;stroke-opacity:1;stroke-width:5;stroke-linecap:butt;stroke-linejoin:miter;stroke-miterlimit:10;stroke-dasharray:none"
         id="path2614" /><path
         d="M 1777.88,1309 L 1825.12,1309"
         style="fill:none;stroke:#000000;stroke-opacity:1;stroke-width:5;stroke-linecap:butt;stroke-linejoin:miter;stroke-miterlimit:10;stroke-dasharray:none"
         id="path2616" /><path
         d="M 2212.5,1547.88 L 2212.5,1595.12"
         style="fill:none;stroke:#000000;stroke-opacity:1;stroke-width:5;stroke-linecap:butt;stroke-linejoin:miter;stroke-miterlimit:10;stroke-dasharray:none"
         id="path2618" /><path
         d="M 2188.88,1571.5 L 2236.12,1571.5"
         style="fill:none;stroke:#000000;stroke-opacity:1;stroke-width:5;stroke-linecap:butt;stroke-linejoin:miter;stroke-miterlimit:10;stroke-dasharray:none"
         id="path2620" /><path
         d="M 2624,1807.38 L 2624,1854.62"
         style="fill:none;stroke:#000000;stroke-opacity:1;stroke-width:5;stroke-linecap:butt;stroke-linejoin:miter;stroke-miterlimit:10;stroke-dasharray:none"
         id="path2622" /><path
         d="M 2600.38,1831 L 2647.62,1831"
         style="fill:none;stroke:#000000;stroke-opacity:1;stroke-width:5;stroke-linecap:butt;stroke-linejoin:miter;stroke-miterlimit:10;stroke-dasharray:none"
         id="path2624" /><path
         d="M 3035.5,2058.88 L 3035.5,2106.12"
         style="fill:none;stroke:#000000;stroke-opacity:1;stroke-width:5;stroke-linecap:butt;stroke-linejoin:miter;stroke-miterlimit:10;stroke-dasharray:none"
         id="path2626" /><path
         d="M 3011.88,2082.5 L 3059.12,2082.5"
         style="fill:none;stroke:#000000;stroke-opacity:1;stroke-width:5;stroke-linecap:butt;stroke-linejoin:miter;stroke-miterlimit:10;stroke-dasharray:none"
         id="path2628" /><path
         d="M 3447,2323.88 L 3447,2371.12"
         style="fill:none;stroke:#000000;stroke-opacity:1;stroke-width:5;stroke-linecap:butt;stroke-linejoin:miter;stroke-miterlimit:10;stroke-dasharray:none"
         id="path2630" /><path
         d="M 3423.38,2347.5 L 3470.62,2347.5"
         style="fill:none;stroke:#000000;stroke-opacity:1;stroke-width:5;stroke-linecap:butt;stroke-linejoin:miter;stroke-miterlimit:10;stroke-dasharray:none"
         id="path2632" /><path
         d="M 2426.5,2311.88 L 2426.5,2359.12"
         style="fill:none;stroke:#000000;stroke-opacity:1;stroke-width:5;stroke-linecap:butt;stroke-linejoin:miter;stroke-miterlimit:10;stroke-dasharray:none"
         id="path2634" /><path
         d="M 2402.88,2335.5 L 2450.12,2335.5"
         style="fill:none;stroke:#000000;stroke-opacity:1;stroke-width:5;stroke-linecap:butt;stroke-linejoin:miter;stroke-miterlimit:10;stroke-dasharray:none"
         id="path2636" /><g
         id="g2638"
         transform="scale(10,10)"><text
           transform="matrix(1,0,0,-1,195.598,221.55)"
           id="text2640"><tspan
             style="fill:#000000;fill-opacity:1;fill-rule:nonzero;stroke:none;font-family:Helvetica;font-variant:normal;font-weight:normal;font-size:9;writing-mode:lr;-inkscape-font-specification:Helvetica"
             x="0 6.498 9 11.997 16.497 21.501 23.499"
             y="0"
             sodipodi:role="line"
             id="tspan2642">Círculo</tspan></text>
</g><path
         d="M 2295,2245.5 L 2558,2245.5 M 567,497.5 L 978.5,725 L 1390,902 L 1801.5,1140 L 2212.5,1271.5 L 2624,1539 L 3035.5,1772 L 3447,1938"
         style="fill:none;stroke:#000000;stroke-opacity:1;stroke-width:5;stroke-linecap:butt;stroke-linejoin:miter;stroke-miterlimit:10;stroke-dasharray:none"
         id="path2644" /><path
         d="M 543.375,521.125 L 590.625,473.875"
         style="fill:none;stroke:#000000;stroke-opacity:1;stroke-width:5;stroke-linecap:butt;stroke-linejoin:miter;stroke-miterlimit:10;stroke-dasharray:none"
         id="path2646" /><path
         d="M 543.375,473.875 L 590.625,521.125"
         style="fill:none;stroke:#000000;stroke-opacity:1;stroke-width:5;stroke-linecap:butt;stroke-linejoin:miter;stroke-miterlimit:10;stroke-dasharray:none"
         id="path2648" /><path
         d="M 954.875,748.625 L 1002.12,701.375"
         style="fill:none;stroke:#000000;stroke-opacity:1;stroke-width:5;stroke-linecap:butt;stroke-linejoin:miter;stroke-miterlimit:10;stroke-dasharray:none"
         id="path2650" /><path
         d="M 954.875,701.375 L 1002.12,748.625"
         style="fill:none;stroke:#000000;stroke-opacity:1;stroke-width:5;stroke-linecap:butt;stroke-linejoin:miter;stroke-miterlimit:10;stroke-dasharray:none"
         id="path2652" /><path
         d="M 1366.38,925.625 L 1413.62,878.375"
         style="fill:none;stroke:#000000;stroke-opacity:1;stroke-width:5;stroke-linecap:butt;stroke-linejoin:miter;stroke-miterlimit:10;stroke-dasharray:none"
         id="path2654" /><path
         d="M 1366.38,878.375 L 1413.62,925.625"
         style="fill:none;stroke:#000000;stroke-opacity:1;stroke-width:5;stroke-linecap:butt;stroke-linejoin:miter;stroke-miterlimit:10;stroke-dasharray:none"
         id="path2656" /><path
         d="M 1777.88,1163.62 L 1825.12,1116.38"
         style="fill:none;stroke:#000000;stroke-opacity:1;stroke-width:5;stroke-linecap:butt;stroke-linejoin:miter;stroke-miterlimit:10;stroke-dasharray:none"
         id="path2658" /><path
         d="M 1777.88,1116.38 L 1825.12,1163.62"
         style="fill:none;stroke:#000000;stroke-opacity:1;stroke-width:5;stroke-linecap:butt;stroke-linejoin:miter;stroke-miterlimit:10;stroke-dasharray:none"
         id="path2660" /><path
         d="M 2188.88,1295.12 L 2236.12,1247.88"
         style="fill:none;stroke:#000000;stroke-opacity:1;stroke-width:5;stroke-linecap:butt;stroke-linejoin:miter;stroke-miterlimit:10;stroke-dasharray:none"
         id="path2662" /><path
         d="M 2188.88,1247.88 L 2236.12,1295.12"
         style="fill:none;stroke:#000000;stroke-opacity:1;stroke-width:5;stroke-linecap:butt;stroke-linejoin:miter;stroke-miterlimit:10;stroke-dasharray:none"
         id="path2664" /><path
         d="M 2600.38,1562.62 L 2647.62,1515.38"
         style="fill:none;stroke:#000000;stroke-opacity:1;stroke-width:5;stroke-linecap:butt;stroke-linejoin:miter;stroke-miterlimit:10;stroke-dasharray:none"
         id="path2666" /><path
         d="M 2600.38,1515.38 L 2647.62,1562.62"
         style="fill:none;stroke:#000000;stroke-opacity:1;stroke-width:5;stroke-linecap:butt;stroke-linejoin:miter;stroke-miterlimit:10;stroke-dasharray:none"
         id="path2668" /><path
         d="M 3011.88,1795.62 L 3059.12,1748.38"
         style="fill:none;stroke:#000000;stroke-opacity:1;stroke-width:5;stroke-linecap:butt;stroke-linejoin:miter;stroke-miterlimit:10;stroke-dasharray:none"
         id="path2670" /><path
         d="M 3011.88,1748.38 L 3059.12,1795.62"
         style="fill:none;stroke:#000000;stroke-opacity:1;stroke-width:5;stroke-linecap:butt;stroke-linejoin:miter;stroke-miterlimit:10;stroke-dasharray:none"
         id="path2672" /><path
         d="M 3423.38,1961.62 L 3470.62,1914.38"
         style="fill:none;stroke:#000000;stroke-opacity:1;stroke-width:5;stroke-linecap:butt;stroke-linejoin:miter;stroke-miterlimit:10;stroke-dasharray:none"
         id="path2674" /><path
         d="M 3423.38,1914.38 L 3470.62,1961.62"
         style="fill:none;stroke:#000000;stroke-opacity:1;stroke-width:5;stroke-linecap:butt;stroke-linejoin:miter;stroke-miterlimit:10;stroke-dasharray:none"
         id="path2676" /><path
         d="M 2402.88,2269.12 L 2450.12,2221.88"
         style="fill:none;stroke:#000000;stroke-opacity:1;stroke-width:5;stroke-linecap:butt;stroke-linejoin:miter;stroke-miterlimit:10;stroke-dasharray:none"
         id="path2678" /><path
         d="M 2402.88,2221.88 L 2450.12,2269.12"
         style="fill:none;stroke:#000000;stroke-opacity:1;stroke-width:5;stroke-linecap:butt;stroke-linejoin:miter;stroke-miterlimit:10;stroke-dasharray:none"
         id="path2680" /><g
         id="g2682"
         transform="scale(10,10)"><text
           transform="matrix(1,0,0,-1,131.564,212.55)"
           id="text2684"><tspan
             style="fill:#000000;fill-opacity:1;fill-rule:nonzero;stroke:none;font-family:Helvetica;font-variant:normal;font-weight:normal;font-size:9;writing-mode:lr;-inkscape-font-specification:Helvetica"
             x="0 6.498 9 11.997 16.497 21.501 23.499 28.503 31.005 35.505 40.509 48.006 50.508 55.512 58.014 63.018 68.022 73.026 78.03 82.53 87.534"
             y="0"
             sodipodi:role="line"
             id="tspan2686">Círculo com atenuação</tspan></text>
</g><path
         d="M 2295,2155.5 L 2558,2155.5 M 567,422.5 L 978.5,546 L 1390,714.5 L 1801.5,819 L 2212.5,920.5 L 2624,1070.5 L 3035.5,1188.5 L 3447,1274"
         style="fill:none;stroke:#000000;stroke-opacity:1;stroke-width:5;stroke-linecap:butt;stroke-linejoin:miter;stroke-miterlimit:10;stroke-dasharray:none"
         id="path2688" /><path
         d="M 567,398.875 L 567,446.125"
         style="fill:none;stroke:#000000;stroke-opacity:1;stroke-width:5;stroke-linecap:butt;stroke-linejoin:miter;stroke-miterlimit:10;stroke-dasharray:none"
         id="path2690" /><path
         d="M 543.375,422.5 L 590.625,422.5"
         style="fill:none;stroke:#000000;stroke-opacity:1;stroke-width:5;stroke-linecap:butt;stroke-linejoin:miter;stroke-miterlimit:10;stroke-dasharray:none"
         id="path2692" /><path
         d="M 543.375,446.125 L 590.625,398.875"
         style="fill:none;stroke:#000000;stroke-opacity:1;stroke-width:5;stroke-linecap:butt;stroke-linejoin:miter;stroke-miterlimit:10;stroke-dasharray:none"
         id="path2694" /><path
         d="M 543.375,398.875 L 590.625,446.125"
         style="fill:none;stroke:#000000;stroke-opacity:1;stroke-width:5;stroke-linecap:butt;stroke-linejoin:miter;stroke-miterlimit:10;stroke-dasharray:none"
         id="path2696" /><path
         d="M 978.5,522.375 L 978.5,569.625"
         style="fill:none;stroke:#000000;stroke-opacity:1;stroke-width:5;stroke-linecap:butt;stroke-linejoin:miter;stroke-miterlimit:10;stroke-dasharray:none"
         id="path2698" /><path
         d="M 954.875,546 L 1002.12,546"
         style="fill:none;stroke:#000000;stroke-opacity:1;stroke-width:5;stroke-linecap:butt;stroke-linejoin:miter;stroke-miterlimit:10;stroke-dasharray:none"
         id="path2700" /><path
         d="M 954.875,569.625 L 1002.12,522.375"
         style="fill:none;stroke:#000000;stroke-opacity:1;stroke-width:5;stroke-linecap:butt;stroke-linejoin:miter;stroke-miterlimit:10;stroke-dasharray:none"
         id="path2702" /><path
         d="M 954.875,522.375 L 1002.12,569.625"
         style="fill:none;stroke:#000000;stroke-opacity:1;stroke-width:5;stroke-linecap:butt;stroke-linejoin:miter;stroke-miterlimit:10;stroke-dasharray:none"
         id="path2704" /><path
         d="M 1390,690.875 L 1390,738.125"
         style="fill:none;stroke:#000000;stroke-opacity:1;stroke-width:5;stroke-linecap:butt;stroke-linejoin:miter;stroke-miterlimit:10;stroke-dasharray:none"
         id="path2706" /><path
         d="M 1366.38,714.5 L 1413.62,714.5"
         style="fill:none;stroke:#000000;stroke-opacity:1;stroke-width:5;stroke-linecap:butt;stroke-linejoin:miter;stroke-miterlimit:10;stroke-dasharray:none"
         id="path2708" /><path
         d="M 1366.38,738.125 L 1413.62,690.875"
         style="fill:none;stroke:#000000;stroke-opacity:1;stroke-width:5;stroke-linecap:butt;stroke-linejoin:miter;stroke-miterlimit:10;stroke-dasharray:none"
         id="path2710" /><path
         d="M 1366.38,690.875 L 1413.62,738.125"
         style="fill:none;stroke:#000000;stroke-opacity:1;stroke-width:5;stroke-linecap:butt;stroke-linejoin:miter;stroke-miterlimit:10;stroke-dasharray:none"
         id="path2712" /><path
         d="M 1801.5,795.375 L 1801.5,842.625"
         style="fill:none;stroke:#000000;stroke-opacity:1;stroke-width:5;stroke-linecap:butt;stroke-linejoin:miter;stroke-miterlimit:10;stroke-dasharray:none"
         id="path2714" /><path
         d="M 1777.88,819 L 1825.12,819"
         style="fill:none;stroke:#000000;stroke-opacity:1;stroke-width:5;stroke-linecap:butt;stroke-linejoin:miter;stroke-miterlimit:10;stroke-dasharray:none"
         id="path2716" /><path
         d="M 1777.88,842.625 L 1825.12,795.375"
         style="fill:none;stroke:#000000;stroke-opacity:1;stroke-width:5;stroke-linecap:butt;stroke-linejoin:miter;stroke-miterlimit:10;stroke-dasharray:none"
         id="path2718" /><path
         d="M 1777.88,795.375 L 1825.12,842.625"
         style="fill:none;stroke:#000000;stroke-opacity:1;stroke-width:5;stroke-linecap:butt;stroke-linejoin:miter;stroke-miterlimit:10;stroke-dasharray:none"
         id="path2720" /><path
         d="M 2212.5,896.875 L 2212.5,944.125"
         style="fill:none;stroke:#000000;stroke-opacity:1;stroke-width:5;stroke-linecap:butt;stroke-linejoin:miter;stroke-miterlimit:10;stroke-dasharray:none"
         id="path2722" /><path
         d="M 2188.88,920.5 L 2236.12,920.5"
         style="fill:none;stroke:#000000;stroke-opacity:1;stroke-width:5;stroke-linecap:butt;stroke-linejoin:miter;stroke-miterlimit:10;stroke-dasharray:none"
         id="path2724" /><path
         d="M 2188.88,944.125 L 2236.12,896.875"
         style="fill:none;stroke:#000000;stroke-opacity:1;stroke-width:5;stroke-linecap:butt;stroke-linejoin:miter;stroke-miterlimit:10;stroke-dasharray:none"
         id="path2726" /><path
         d="M 2188.88,896.875 L 2236.12,944.125"
         style="fill:none;stroke:#000000;stroke-opacity:1;stroke-width:5;stroke-linecap:butt;stroke-linejoin:miter;stroke-miterlimit:10;stroke-dasharray:none"
         id="path2728" /><path
         d="M 2624,1046.88 L 2624,1094.12"
         style="fill:none;stroke:#000000;stroke-opacity:1;stroke-width:5;stroke-linecap:butt;stroke-linejoin:miter;stroke-miterlimit:10;stroke-dasharray:none"
         id="path2730" /><path
         d="M 2600.38,1070.5 L 2647.62,1070.5"
         style="fill:none;stroke:#000000;stroke-opacity:1;stroke-width:5;stroke-linecap:butt;stroke-linejoin:miter;stroke-miterlimit:10;stroke-dasharray:none"
         id="path2732" /><path
         d="M 2600.38,1094.12 L 2647.62,1046.88"
         style="fill:none;stroke:#000000;stroke-opacity:1;stroke-width:5;stroke-linecap:butt;stroke-linejoin:miter;stroke-miterlimit:10;stroke-dasharray:none"
         id="path2734" /><path
         d="M 2600.38,1046.88 L 2647.62,1094.12"
         style="fill:none;stroke:#000000;stroke-opacity:1;stroke-width:5;stroke-linecap:butt;stroke-linejoin:miter;stroke-miterlimit:10;stroke-dasharray:none"
         id="path2736" /><path
         d="M 3035.5,1164.88 L 3035.5,1212.12"
         style="fill:none;stroke:#000000;stroke-opacity:1;stroke-width:5;stroke-linecap:butt;stroke-linejoin:miter;stroke-miterlimit:10;stroke-dasharray:none"
         id="path2738" /><path
         d="M 3011.88,1188.5 L 3059.12,1188.5"
         style="fill:none;stroke:#000000;stroke-opacity:1;stroke-width:5;stroke-linecap:butt;stroke-linejoin:miter;stroke-miterlimit:10;stroke-dasharray:none"
         id="path2740" /><path
         d="M 3011.88,1212.12 L 3059.12,1164.88"
         style="fill:none;stroke:#000000;stroke-opacity:1;stroke-width:5;stroke-linecap:butt;stroke-linejoin:miter;stroke-miterlimit:10;stroke-dasharray:none"
         id="path2742" /><path
         d="M 3011.88,1164.88 L 3059.12,1212.12"
         style="fill:none;stroke:#000000;stroke-opacity:1;stroke-width:5;stroke-linecap:butt;stroke-linejoin:miter;stroke-miterlimit:10;stroke-dasharray:none"
         id="path2744" /><path
         d="M 3447,1250.38 L 3447,1297.62"
         style="fill:none;stroke:#000000;stroke-opacity:1;stroke-width:5;stroke-linecap:butt;stroke-linejoin:miter;stroke-miterlimit:10;stroke-dasharray:none"
         id="path2746" /><path
         d="M 3423.38,1274 L 3470.62,1274"
         style="fill:none;stroke:#000000;stroke-opacity:1;stroke-width:5;stroke-linecap:butt;stroke-linejoin:miter;stroke-miterlimit:10;stroke-dasharray:none"
         id="path2748" /><path
         d="M 3423.38,1297.62 L 3470.62,1250.38"
         style="fill:none;stroke:#000000;stroke-opacity:1;stroke-width:5;stroke-linecap:butt;stroke-linejoin:miter;stroke-miterlimit:10;stroke-dasharray:none"
         id="path2750" /><path
         d="M 3423.38,1250.38 L 3470.62,1297.62"
         style="fill:none;stroke:#000000;stroke-opacity:1;stroke-width:5;stroke-linecap:butt;stroke-linejoin:miter;stroke-miterlimit:10;stroke-dasharray:none"
         id="path2752" /><path
         d="M 2426.5,2131.88 L 2426.5,2179.12"
         style="fill:none;stroke:#000000;stroke-opacity:1;stroke-width:5;stroke-linecap:butt;stroke-linejoin:miter;stroke-miterlimit:10;stroke-dasharray:none"
         id="path2754" /><path
         d="M 2402.88,2155.5 L 2450.12,2155.5"
         style="fill:none;stroke:#000000;stroke-opacity:1;stroke-width:5;stroke-linecap:butt;stroke-linejoin:miter;stroke-miterlimit:10;stroke-dasharray:none"
         id="path2756" /><path
         d="M 2402.88,2179.12 L 2450.12,2131.88"
         style="fill:none;stroke:#000000;stroke-opacity:1;stroke-width:5;stroke-linecap:butt;stroke-linejoin:miter;stroke-miterlimit:10;stroke-dasharray:none"
         id="path2758" /><path
         d="M 2402.88,2131.88 L 2450.12,2179.12"
         style="fill:none;stroke:#000000;stroke-opacity:1;stroke-width:5;stroke-linecap:butt;stroke-linejoin:miter;stroke-miterlimit:10;stroke-dasharray:none"
         id="path2760" /><g
         id="g2762"
         transform="scale(10,10)"><text
           transform="matrix(1,0,0,-1,159.077,203.55)"
           id="text2764"><tspan
             style="fill:#000000;fill-opacity:1;fill-rule:nonzero;stroke:none;font-family:Helvetica;font-variant:normal;font-weight:normal;font-size:9;writing-mode:lr;-inkscape-font-specification:Helvetica"
             x="0 6.498 11.502 18.999 24.003 29.007 31.509 36.513 41.517 44.019 48.519 50.517 55.017 60.021"
             y="0"
             sodipodi:role="line"
             id="tspan2766">Campo de visão</tspan></text>
</g><path
         d="M 2295,2065.5 L 2558,2065.5 M 567,460 L 978.5,599.5 L 1390,746.5 L 1801.5,886 L 2212.5,1060 L 2624,1151 L 3035.5,1137.5 L 3447,1373"
         style="fill:none;stroke:#000000;stroke-opacity:1;stroke-width:5;stroke-linecap:butt;stroke-linejoin:miter;stroke-miterlimit:10;stroke-dasharray:none"
         id="path2768" /><path
         d="M 543.375,436.375 L 590.625,436.375 L 590.625,483.625 L 543.375,483.625 L 543.375,436.375 z"
         style="fill:none;stroke:#000000;stroke-opacity:1;stroke-width:5;stroke-linecap:butt;stroke-linejoin:miter;stroke-miterlimit:10;stroke-dasharray:none"
         id="path2770" /><path
         d="M 567,460 L 567,460"
         style="fill:none;stroke:#000000;stroke-opacity:1;stroke-width:5;stroke-linecap:round;stroke-linejoin:miter;stroke-miterlimit:10;stroke-dasharray:none"
         id="path2772" /><path
         d="M 954.875,575.875 L 1002.125,575.875 L 1002.125,623.125 L 954.875,623.125 L 954.875,575.875 z"
         style="fill:none;stroke:#000000;stroke-opacity:1;stroke-width:5;stroke-linecap:butt;stroke-linejoin:miter;stroke-miterlimit:10;stroke-dasharray:none"
         id="path2774" /><path
         d="M 978.5,599.5 L 978.5,599.5"
         style="fill:none;stroke:#000000;stroke-opacity:1;stroke-width:5;stroke-linecap:round;stroke-linejoin:miter;stroke-miterlimit:10;stroke-dasharray:none"
         id="path2776" /><path
         d="M 1366.38,722.875 L 1413.63,722.875 L 1413.63,770.125 L 1366.38,770.125 L 1366.38,722.875 z"
         style="fill:none;stroke:#000000;stroke-opacity:1;stroke-width:5;stroke-linecap:butt;stroke-linejoin:miter;stroke-miterlimit:10;stroke-dasharray:none"
         id="path2778" /><path
         d="M 1390,746.5 L 1390,746.5"
         style="fill:none;stroke:#000000;stroke-opacity:1;stroke-width:5;stroke-linecap:round;stroke-linejoin:miter;stroke-miterlimit:10;stroke-dasharray:none"
         id="path2780" /><path
         d="M 1777.88,862.375 L 1825.13,862.375 L 1825.13,909.625 L 1777.88,909.625 L 1777.88,862.375 z"
         style="fill:none;stroke:#000000;stroke-opacity:1;stroke-width:5;stroke-linecap:butt;stroke-linejoin:miter;stroke-miterlimit:10;stroke-dasharray:none"
         id="path2782" /><path
         d="M 1801.5,886 L 1801.5,886"
         style="fill:none;stroke:#000000;stroke-opacity:1;stroke-width:5;stroke-linecap:round;stroke-linejoin:miter;stroke-miterlimit:10;stroke-dasharray:none"
         id="path2784" /><path
         d="M 2188.88,1036.38 L 2236.13,1036.38 L 2236.13,1083.63 L 2188.88,1083.63 L 2188.88,1036.38 z"
         style="fill:none;stroke:#000000;stroke-opacity:1;stroke-width:5;stroke-linecap:butt;stroke-linejoin:miter;stroke-miterlimit:10;stroke-dasharray:none"
         id="path2786" /><path
         d="M 2212.5,1060 L 2212.5,1060"
         style="fill:none;stroke:#000000;stroke-opacity:1;stroke-width:5;stroke-linecap:round;stroke-linejoin:miter;stroke-miterlimit:10;stroke-dasharray:none"
         id="path2788" /><path
         d="M 2600.38,1127.38 L 2647.63,1127.38 L 2647.63,1174.63 L 2600.38,1174.63 L 2600.38,1127.38 z"
         style="fill:none;stroke:#000000;stroke-opacity:1;stroke-width:5;stroke-linecap:butt;stroke-linejoin:miter;stroke-miterlimit:10;stroke-dasharray:none"
         id="path2790" /><path
         d="M 2624,1151 L 2624,1151"
         style="fill:none;stroke:#000000;stroke-opacity:1;stroke-width:5;stroke-linecap:round;stroke-linejoin:miter;stroke-miterlimit:10;stroke-dasharray:none"
         id="path2792" /><path
         d="M 3011.88,1113.88 L 3059.13,1113.88 L 3059.13,1161.13 L 3011.88,1161.13 L 3011.88,1113.88 z"
         style="fill:none;stroke:#000000;stroke-opacity:1;stroke-width:5;stroke-linecap:butt;stroke-linejoin:miter;stroke-miterlimit:10;stroke-dasharray:none"
         id="path2794" /><path
         d="M 3035.5,1137.5 L 3035.5,1137.5"
         style="fill:none;stroke:#000000;stroke-opacity:1;stroke-width:5;stroke-linecap:round;stroke-linejoin:miter;stroke-miterlimit:10;stroke-dasharray:none"
         id="path2796" /><path
         d="M 3423.38,1349.38 L 3470.63,1349.38 L 3470.63,1396.63 L 3423.38,1396.63 L 3423.38,1349.38 z"
         style="fill:none;stroke:#000000;stroke-opacity:1;stroke-width:5;stroke-linecap:butt;stroke-linejoin:miter;stroke-miterlimit:10;stroke-dasharray:none"
         id="path2798" /><path
         d="M 3447,1373 L 3447,1373"
         style="fill:none;stroke:#000000;stroke-opacity:1;stroke-width:5;stroke-linecap:round;stroke-linejoin:miter;stroke-miterlimit:10;stroke-dasharray:none"
         id="path2800" /><path
         d="M 2402.88,2041.88 L 2450.13,2041.88 L 2450.13,2089.13 L 2402.88,2089.13 L 2402.88,2041.88 z"
         style="fill:none;stroke:#000000;stroke-opacity:1;stroke-width:5;stroke-linecap:butt;stroke-linejoin:miter;stroke-miterlimit:10;stroke-dasharray:none"
         id="path2802" /><path
         d="M 2426.5,2065.5 L 2426.5,2065.5"
         style="fill:none;stroke:#000000;stroke-opacity:1;stroke-width:5;stroke-linecap:round;stroke-linejoin:miter;stroke-miterlimit:10;stroke-dasharray:none"
         id="path2804" /><g
         id="g2806"
         transform="scale(10,10)"><text
           transform="matrix(1,0,0,-1,214.094,193.65)"
           id="text2808"><tspan
             style="fill:#000000;fill-opacity:1;fill-rule:nonzero;stroke:none;font-family:Helvetica;font-variant:normal;font-weight:normal;font-size:9;writing-mode:lr;-inkscape-font-specification:Helvetica"
             x="0"
             y="0"
             id="tspan2810">A</tspan></text>
<text
           transform="matrix(1,0,0,-1,220.09712,198.15)"
           id="text2812"><tspan
             style="fill:#000000;fill-opacity:1;fill-rule:nonzero;stroke:none;font-family:Helvetica;font-variant:normal;font-weight:normal;font-size:7.2;writing-mode:lr;-inkscape-font-specification:Helvetica"
             x="0"
             y="0"
             id="tspan2814">3</tspan></text>
</g><path
         d="M 2295,1975.5 L 2558,1975.5 M 567,396 L 978.5,487 L 1390,572.5 L 1801.5,685 L 2212.5,797.5 L 2624,878 L 3035.5,845.5 L 3447,1044"
         style="fill:none;stroke:#000000;stroke-opacity:1;stroke-width:5;stroke-linecap:butt;stroke-linejoin:miter;stroke-miterlimit:10;stroke-dasharray:none"
         id="path2816" /><path
         d="M 543.375,372.375 L 590.625,372.375 L 590.625,419.625 L 543.375,419.625 L 543.375,372.375 z"
         style="fill:#000000;fill-opacity:1;fill-rule:nonzero;stroke:none"
         id="path2818" /><path
         d="M 954.875,463.375 L 1002.125,463.375 L 1002.125,510.625 L 954.875,510.625 L 954.875,463.375 z"
         style="fill:#000000;fill-opacity:1;fill-rule:nonzero;stroke:none"
         id="path2820" /><path
         d="M 1366.38,548.875 L 1413.63,548.875 L 1413.63,596.125 L 1366.38,596.125 L 1366.38,548.875 z"
         style="fill:#000000;fill-opacity:1;fill-rule:nonzero;stroke:none"
         id="path2822" /><path
         d="M 1777.88,661.375 L 1825.13,661.375 L 1825.13,708.625 L 1777.88,708.625 L 1777.88,661.375 z"
         style="fill:#000000;fill-opacity:1;fill-rule:nonzero;stroke:none"
         id="path2824" /><path
         d="M 2188.88,773.875 L 2236.13,773.875 L 2236.13,821.125 L 2188.88,821.125 L 2188.88,773.875 z"
         style="fill:#000000;fill-opacity:1;fill-rule:nonzero;stroke:none"
         id="path2826" /><path
         d="M 2600.38,854.375 L 2647.63,854.375 L 2647.63,901.625 L 2600.38,901.625 L 2600.38,854.375 z"
         style="fill:#000000;fill-opacity:1;fill-rule:nonzero;stroke:none"
         id="path2828" /><path
         d="M 3011.88,821.875 L 3059.13,821.875 L 3059.13,869.125 L 3011.88,869.125 L 3011.88,821.875 z"
         style="fill:#000000;fill-opacity:1;fill-rule:nonzero;stroke:none"
         id="path2830" /><path
         d="M 3423.38,1020.38 L 3470.63,1020.38 L 3470.63,1067.63 L 3423.38,1067.63 L 3423.38,1020.38 z"
         style="fill:#000000;fill-opacity:1;fill-rule:nonzero;stroke:none"
         id="path2832" /><path
         d="M 2402.88,1951.88 L 2450.13,1951.88 L 2450.13,1999.13 L 2402.88,1999.13 L 2402.88,1951.88 z"
         style="fill:#000000;fill-opacity:1;fill-rule:nonzero;stroke:none"
         id="path2834" /><path
         d="M 567,270 L 3447,270 L 3447,2412 L 567,2412 L 567,270 z"
         style="fill:none;stroke:#000000;stroke-opacity:1;stroke-width:10;stroke-linecap:butt;stroke-linejoin:miter;stroke-miterlimit:10;stroke-dasharray:none"
         id="path2836" /></g></g></svg>