<?xml version="1.0" encoding="UTF-8" standalone="no"?>
<!-- Created with Inkscape (http://www.inkscape.org/) -->
<svg
   xmlns:dc="http://purl.org/dc/elements/1.1/"
   xmlns:cc="http://creativecommons.org/ns#"
   xmlns:rdf="http://www.w3.org/1999/02/22-rdf-syntax-ns#"
   xmlns:svg="http://www.w3.org/2000/svg"
   xmlns="http://www.w3.org/2000/svg"
   xmlns:sodipodi="http://sodipodi.sourceforge.net/DTD/sodipodi-0.dtd"
   xmlns:inkscape="http://www.inkscape.org/namespaces/inkscape"
   width="210mm"
   height="297mm"
   id="svg2"
   sodipodi:version="0.32"
   inkscape:version="0.46"
   sodipodi:docname="divisao.svg"
   inkscape:output_extension="org.inkscape.output.svg.inkscape">
  <defs
     id="defs4">
    <inkscape:perspective
       sodipodi:type="inkscape:persp3d"
       inkscape:vp_x="0 : 526.18109 : 1"
       inkscape:vp_y="0 : 1000 : 0"
       inkscape:vp_z="744.09448 : 526.18109 : 1"
       inkscape:persp3d-origin="372.04724 : 350.78739 : 1"
       id="perspective10" />
  </defs>
  <sodipodi:namedview
     id="base"
     pagecolor="#ffffff"
     bordercolor="#666666"
     borderopacity="1.0"
     inkscape:pageopacity="0.0"
     inkscape:pageshadow="2"
     inkscape:zoom="0.7"
     inkscape:cx="318.47495"
     inkscape:cy="598.49738"
     inkscape:document-units="px"
     inkscape:current-layer="layer1"
     showgrid="false"
     inkscape:window-width="1432"
     inkscape:window-height="814"
     inkscape:window-x="0"
     inkscape:window-y="32" />
  <metadata
     id="metadata7">
    <rdf:RDF>
      <cc:Work
         rdf:about="">
        <dc:format>image/svg+xml</dc:format>
        <dc:type
           rdf:resource="http://purl.org/dc/dcmitype/StillImage" />
      </cc:Work>
    </rdf:RDF>
  </metadata>
  <g
     inkscape:label="Camada 1"
     inkscape:groupmode="layer"
     id="layer1">
    <rect
       style="fill:none;fill-opacity:1;stroke:#000000;stroke-width:3;stroke-miterlimit:4;stroke-dasharray:none;stroke-dashoffset:0;stroke-opacity:1"
       id="rect2383"
       width="597.14288"
       height="597.14288"
       x="80"
       y="146.6479" />
    <path
       style="fill:none;fill-rule:evenodd;stroke:#000000;stroke-width:2;stroke-linecap:butt;stroke-linejoin:miter;stroke-miterlimit:4;stroke-dasharray:none;stroke-opacity:1"
       d="M 80.178572,422.27289 L 609.24826,146.76042"
       id="path3155" />
    <path
       style="fill:none;fill-rule:evenodd;stroke:#000000;stroke-width:2;stroke-linecap:butt;stroke-linejoin:miter;stroke-miterlimit:4;stroke-dasharray:none;stroke-opacity:1"
       d="M 177.70089,371.56977 L 395.91666,743.44491"
       id="path3157" />
    <path
       style="fill:none;fill-rule:evenodd;stroke:#000000;stroke-width:2;stroke-linecap:butt;stroke-linejoin:miter;stroke-miterlimit:4;stroke-dasharray:none;stroke-opacity:1"
       d="M 295.73794,572.72913 L 587.94643,157.71932"
       id="path3159" />
    <path
       style="fill:none;fill-rule:evenodd;stroke:#000000;stroke-width:2;stroke-linecap:butt;stroke-linejoin:miter;stroke-miterlimit:4;stroke-dasharray:none;stroke-opacity:1"
       d="M 468.57143,327.09432 L 675.79205,743.2555"
       id="path3161" />
    <path
       sodipodi:type="arc"
       style="fill:#000000;fill-opacity:1;stroke:none;stroke-opacity:1"
       id="path3216"
       sodipodi:cx="-72.28904"
       sodipodi:cy="-1167.7637"
       sodipodi:rx="3.4723995"
       sodipodi:ry="3.4723995"
       d="M -68.81664,-1167.7637 A 3.4723995,3.4723995 0 1 1 -75.761439,-1167.7637 A 3.4723995,3.4723995 0 1 1 -68.81664,-1167.7637 z"
       transform="matrix(2.4399265,0,0,2.4399265,337.09426,3050.9055)" />
    <path
       transform="matrix(2.4399265,0,0,2.4399265,334.23712,3163.7626)"
       d="M -68.81664,-1167.7637 A 3.4723995,3.4723995 0 1 1 -75.761439,-1167.7637 A 3.4723995,3.4723995 0 1 1 -68.81664,-1167.7637 z"
       sodipodi:ry="3.4723995"
       sodipodi:rx="3.4723995"
       sodipodi:cy="-1167.7637"
       sodipodi:cx="-72.28904"
       id="path3218"
       style="fill:#000000;fill-opacity:1;stroke:none;stroke-opacity:1"
       sodipodi:type="arc" />
    <path
       sodipodi:type="arc"
       style="fill:#000000;fill-opacity:1;stroke:none;stroke-opacity:1"
       id="path3220"
       sodipodi:cx="-72.28904"
       sodipodi:cy="-1167.7637"
       sodipodi:rx="3.4723995"
       sodipodi:ry="3.4723995"
       d="M -68.81664,-1167.7637 A 3.4723995,3.4723995 0 1 1 -75.761439,-1167.7637 A 3.4723995,3.4723995 0 1 1 -68.81664,-1167.7637 z"
       transform="matrix(2.4399265,0,0,2.4399265,539.95141,3096.6197)" />
    <path
       transform="matrix(2.4399265,0,0,2.4399265,561.37998,3226.6197)"
       d="M -68.81664,-1167.7637 A 3.4723995,3.4723995 0 1 1 -75.761439,-1167.7637 A 3.4723995,3.4723995 0 1 1 -68.81664,-1167.7637 z"
       sodipodi:ry="3.4723995"
       sodipodi:rx="3.4723995"
       sodipodi:cy="-1167.7637"
       sodipodi:cx="-72.28904"
       id="path3222"
       style="fill:#000000;fill-opacity:1;stroke:none;stroke-opacity:1"
       sodipodi:type="arc" />
    <path
       sodipodi:type="arc"
       style="fill:#000000;fill-opacity:1;stroke:none;stroke-opacity:1"
       id="path3224"
       sodipodi:cx="-72.28904"
       sodipodi:cy="-1167.7637"
       sodipodi:rx="3.4723995"
       sodipodi:ry="3.4723995"
       d="M -68.81664,-1167.7637 A 3.4723995,3.4723995 0 1 1 -75.761439,-1167.7637 A 3.4723995,3.4723995 0 1 1 -68.81664,-1167.7637 z"
       transform="matrix(2.4399265,0,0,2.4399265,402.80855,3240.9054)" />
    <path
       transform="matrix(2.4399265,0,0,2.4399265,709.95141,3199.4768)"
       d="M -68.81664,-1167.7637 A 3.4723995,3.4723995 0 1 1 -75.761439,-1167.7637 A 3.4723995,3.4723995 0 1 1 -68.81664,-1167.7637 z"
       sodipodi:ry="3.4723995"
       sodipodi:rx="3.4723995"
       sodipodi:cy="-1167.7637"
       sodipodi:cx="-72.28904"
       id="path3230"
       style="fill:#000000;fill-opacity:1;stroke:none;stroke-opacity:1"
       sodipodi:type="arc" />
    <path
       transform="matrix(2.4399265,0,0,2.4399265,812.80855,3238.0483)"
       d="M -68.81664,-1167.7637 A 3.4723995,3.4723995 0 1 1 -75.761439,-1167.7637 A 3.4723995,3.4723995 0 1 1 -68.81664,-1167.7637 z"
       sodipodi:ry="3.4723995"
       sodipodi:rx="3.4723995"
       sodipodi:cy="-1167.7637"
       sodipodi:cx="-72.28904"
       id="path3234"
       style="fill:#000000;fill-opacity:1;stroke:none;stroke-opacity:1"
       sodipodi:type="arc" />
    <path
       sodipodi:type="arc"
       style="fill:#000000;fill-opacity:1;stroke:none;stroke-opacity:1"
       id="path3236"
       sodipodi:cx="-72.28904"
       sodipodi:cy="-1167.7637"
       sodipodi:rx="3.4723995"
       sodipodi:ry="3.4723995"
       d="M -68.81664,-1167.7637 A 3.4723995,3.4723995 0 1 1 -75.761439,-1167.7637 A 3.4723995,3.4723995 0 1 1 -68.81664,-1167.7637 z"
       transform="matrix(2.4399265,0,0,2.4399265,514.23712,3410.9054)" />
    <path
       transform="matrix(2.4399265,0,0,2.4399265,638.52284,3246.6197)"
       d="M -68.81664,-1167.7637 A 3.4723995,3.4723995 0 1 1 -75.761439,-1167.7637 A 3.4723995,3.4723995 0 1 1 -68.81664,-1167.7637 z"
       sodipodi:ry="3.4723995"
       sodipodi:rx="3.4723995"
       sodipodi:cy="-1167.7637"
       sodipodi:cx="-72.28904"
       id="path3238"
       style="fill:#000000;fill-opacity:1;stroke:none;stroke-opacity:1"
       sodipodi:type="arc" />
    <path
       sodipodi:type="arc"
       style="fill:#000000;fill-opacity:1;stroke:none;stroke-opacity:1"
       id="path3240"
       sodipodi:cx="-72.28904"
       sodipodi:cy="-1167.7637"
       sodipodi:rx="3.4723995"
       sodipodi:ry="3.4723995"
       d="M -68.81664,-1167.7637 A 3.4723995,3.4723995 0 1 1 -75.761439,-1167.7637 A 3.4723995,3.4723995 0 1 1 -68.81664,-1167.7637 z"
       transform="matrix(2.4399265,0,0,2.4399265,634.23712,3539.4768)" />
    <path
       transform="matrix(2.4399265,0,0,2.4399265,445.66569,3512.3339)"
       d="M -68.81664,-1167.7637 A 3.4723995,3.4723995 0 1 1 -75.761439,-1167.7637 A 3.4723995,3.4723995 0 1 1 -68.81664,-1167.7637 z"
       sodipodi:ry="3.4723995"
       sodipodi:rx="3.4723995"
       sodipodi:cy="-1167.7637"
       sodipodi:cx="-72.28904"
       id="path3242"
       style="fill:#000000;fill-opacity:1;stroke:none;stroke-opacity:1"
       sodipodi:type="arc" />
    <path
       sodipodi:type="arc"
       style="fill:#000000;fill-opacity:1;stroke:none;stroke-opacity:1"
       id="path3244"
       sodipodi:cx="-72.28904"
       sodipodi:cy="-1167.7637"
       sodipodi:rx="3.4723995"
       sodipodi:ry="3.4723995"
       d="M -68.81664,-1167.7637 A 3.4723995,3.4723995 0 1 1 -75.761439,-1167.7637 A 3.4723995,3.4723995 0 1 1 -68.81664,-1167.7637 z"
       transform="matrix(2.4399265,0,0,2.4399265,357.09426,3288.0482)" />
    <path
       transform="matrix(2.4399265,0,0,2.4399265,321.37997,3479.4768)"
       d="M -68.81664,-1167.7637 A 3.4723995,3.4723995 0 1 1 -75.761439,-1167.7637 A 3.4723995,3.4723995 0 1 1 -68.81664,-1167.7637 z"
       sodipodi:ry="3.4723995"
       sodipodi:rx="3.4723995"
       sodipodi:cy="-1167.7637"
       sodipodi:cx="-72.28904"
       id="path3246"
       style="fill:#000000;fill-opacity:1;stroke:none;stroke-opacity:1"
       sodipodi:type="arc" />
  </g>
</svg>
