<?xml version="1.0" encoding="UTF-8" standalone="no"?>
<!-- Created with Inkscape (http://www.inkscape.org/) -->
<svg
   xmlns:svg="http://www.w3.org/2000/svg"
   xmlns="http://www.w3.org/2000/svg"
   version="1.0"
   width="1052.3622"
   height="744.09448"
   id="svg3951">
  <defs
     id="defs3953" />
  <g
     id="layer1">
    <g
       id="g6847">
      <path
         d="M 117.03926,231.65292 L 117.03926,68.030305 L 280.66188,68.030306 L 280.66188,231.65292 L 117.03926,231.65292 z"
         transform="matrix(0.9167437,0,0,0.9167437,-82.794997,245.22812)"
         id="path5083"
         style="fill:none;fill-opacity:1;fill-rule:evenodd;stroke:#000000;stroke-width:5.45408726;stroke-linecap:butt;stroke-linejoin:miter;stroke-miterlimit:4;stroke-dasharray:none;stroke-dashoffset:0;stroke-opacity:1" />
      <path
         d="M 117.03926,231.65292 L 117.03926,68.030305 L 280.66188,68.030306 L 280.66188,231.65292 L 117.03926,231.65292 z"
         transform="matrix(0.9167437,0,0,0.9167437,-82.794997,245.22812)"
         id="path5085"
         style="fill:none;fill-opacity:1;fill-rule:evenodd;stroke:#000000;stroke-width:5.45408726;stroke-linecap:butt;stroke-linejoin:miter;stroke-miterlimit:4;stroke-dasharray:none;stroke-dashoffset:0;stroke-opacity:1" />
      <text
         x="100.23244"
         y="397.155"
         id="text5087"
         xml:space="preserve"
         style="font-size:40px;font-style:normal;font-weight:normal;text-align:center;text-anchor:middle;fill:#000000;fill-opacity:1;stroke:none;stroke-width:1px;stroke-linecap:butt;stroke-linejoin:miter;stroke-opacity:1;font-family:Bitstream Vera Sans"><tspan
           x="100.23244"
           y="397.155"
           id="tspan5089">C<tspan
   id="tspan5091"
   style="font-size:20px">2,0</tspan></tspan></text>
      <path
         d="M 117.03926,231.65292 L 117.03926,68.030305 L 280.66188,68.030306 L 280.66188,231.65292 L 117.03926,231.65292 z"
         transform="matrix(0.9167437,0,0,0.9167437,-82.794997,245.22812)"
         id="path5093"
         style="fill:none;fill-opacity:1;fill-rule:evenodd;stroke:#000000;stroke-width:5.45408726;stroke-linecap:butt;stroke-linejoin:miter;stroke-miterlimit:4;stroke-dasharray:none;stroke-dashoffset:0;stroke-opacity:1" />
      <path
         d="M 117.03926,231.65292 L 117.03926,68.030305 L 280.66188,68.030306 L 280.66188,231.65292 L 117.03926,231.65292 z"
         transform="matrix(0.9167437,0,0,0.9167437,67.20499,245.22812)"
         id="path5099"
         style="fill:none;fill-opacity:1;fill-rule:evenodd;stroke:#000000;stroke-width:5.45408726;stroke-linecap:butt;stroke-linejoin:miter;stroke-miterlimit:4;stroke-dasharray:none;stroke-dashoffset:0;stroke-opacity:1" />
      <path
         d="M 117.03926,231.65292 L 117.03926,68.030305 L 280.66188,68.030306 L 280.66188,231.65292 L 117.03926,231.65292 z"
         transform="matrix(0.9167437,0,0,0.9167437,67.20499,245.22812)"
         id="path5101"
         style="fill:none;fill-opacity:1;fill-rule:evenodd;stroke:#000000;stroke-width:5.45408726;stroke-linecap:butt;stroke-linejoin:miter;stroke-miterlimit:4;stroke-dasharray:none;stroke-dashoffset:0;stroke-opacity:1" />
      <text
         x="250.23242"
         y="397.155"
         id="text5103"
         xml:space="preserve"
         style="font-size:40px;font-style:normal;font-weight:normal;text-align:center;text-anchor:middle;fill:#000000;fill-opacity:1;stroke:none;stroke-width:1px;stroke-linecap:butt;stroke-linejoin:miter;stroke-opacity:1;font-family:Bitstream Vera Sans"><tspan
           x="250.23242"
           y="397.155"
           id="tspan5105">C<tspan
   id="tspan5107"
   style="font-size:20px">2,1</tspan></tspan></text>
      <path
         d="M 117.03926,231.65292 L 117.03926,68.030305 L 280.66188,68.030306 L 280.66188,231.65292 L 117.03926,231.65292 z"
         transform="matrix(0.9167437,0,0,0.9167437,67.20499,245.22812)"
         id="path5109"
         style="fill:none;fill-opacity:1;fill-rule:evenodd;stroke:#000000;stroke-width:5.45408726;stroke-linecap:butt;stroke-linejoin:miter;stroke-miterlimit:4;stroke-dasharray:none;stroke-dashoffset:0;stroke-opacity:1" />
      <path
         d="M 117.03926,231.65292 L 117.03926,68.030305 L 280.66188,68.030306 L 280.66188,231.65292 L 117.03926,231.65292 z"
         transform="matrix(0.9167437,0,0,0.9167437,217.20499,245.22812)"
         id="path5115"
         style="fill:none;fill-opacity:1;fill-rule:evenodd;stroke:#000000;stroke-width:5.45408726;stroke-linecap:butt;stroke-linejoin:miter;stroke-miterlimit:4;stroke-dasharray:none;stroke-dashoffset:0;stroke-opacity:1" />
      <path
         d="M 117.03926,231.65292 L 117.03926,68.030305 L 280.66188,68.030306 L 280.66188,231.65292 L 117.03926,231.65292 z"
         transform="matrix(0.9167437,0,0,0.9167437,217.20499,245.22812)"
         id="path5117"
         style="fill:none;fill-opacity:1;fill-rule:evenodd;stroke:#000000;stroke-width:5.45408726;stroke-linecap:butt;stroke-linejoin:miter;stroke-miterlimit:4;stroke-dasharray:none;stroke-dashoffset:0;stroke-opacity:1" />
      <text
         x="400.23242"
         y="397.155"
         id="text5119"
         xml:space="preserve"
         style="font-size:40px;font-style:normal;font-weight:normal;text-align:center;text-anchor:middle;fill:#000000;fill-opacity:1;stroke:none;stroke-width:1px;stroke-linecap:butt;stroke-linejoin:miter;stroke-opacity:1;font-family:Bitstream Vera Sans"><tspan
           x="400.23242"
           y="397.155"
           id="tspan5121">C<tspan
   id="tspan5123"
   style="font-size:20px">2,2</tspan></tspan></text>
      <path
         d="M 117.03926,231.65292 L 117.03926,68.030305 L 280.66188,68.030306 L 280.66188,231.65292 L 117.03926,231.65292 z"
         transform="matrix(0.9167437,0,0,0.9167437,217.20499,245.22812)"
         id="path5125"
         style="fill:none;fill-opacity:1;fill-rule:evenodd;stroke:#000000;stroke-width:5.45408726;stroke-linecap:butt;stroke-linejoin:miter;stroke-miterlimit:4;stroke-dasharray:none;stroke-dashoffset:0;stroke-opacity:1" />
      <path
         d="M 117.03926,231.65292 L 117.03926,68.030305 L 280.66188,68.030306 L 280.66188,231.65292 L 117.03926,231.65292 z"
         transform="matrix(0.9167437,0,0,0.9167437,-82.794997,95.22812)"
         id="path5165"
         style="fill:none;fill-opacity:1;fill-rule:evenodd;stroke:#000000;stroke-width:5.45408726;stroke-linecap:butt;stroke-linejoin:miter;stroke-miterlimit:4;stroke-dasharray:none;stroke-dashoffset:0;stroke-opacity:1" />
      <path
         d="M 117.03926,231.65292 L 117.03926,68.030305 L 280.66188,68.030306 L 280.66188,231.65292 L 117.03926,231.65292 z"
         transform="matrix(0.9167437,0,0,0.9167437,-82.794997,95.22812)"
         id="path5167"
         style="fill:none;fill-opacity:1;fill-rule:evenodd;stroke:#000000;stroke-width:5.45408726;stroke-linecap:butt;stroke-linejoin:miter;stroke-miterlimit:4;stroke-dasharray:none;stroke-dashoffset:0;stroke-opacity:1" />
      <text
         x="100.23244"
         y="247.155"
         id="text5169"
         xml:space="preserve"
         style="font-size:40px;font-style:normal;font-weight:normal;text-align:center;text-anchor:middle;fill:#000000;fill-opacity:1;stroke:none;stroke-width:1px;stroke-linecap:butt;stroke-linejoin:miter;stroke-opacity:1;font-family:Bitstream Vera Sans"><tspan
           x="100.23244"
           y="247.155"
           id="tspan5171">C<tspan
   id="tspan5173"
   style="font-size:20px">1,0</tspan></tspan></text>
      <path
         d="M 117.03926,231.65292 L 117.03926,68.030305 L 280.66188,68.030306 L 280.66188,231.65292 L 117.03926,231.65292 z"
         transform="matrix(0.9167437,0,0,0.9167437,-82.794997,95.22812)"
         id="path5175"
         style="fill:none;fill-opacity:1;fill-rule:evenodd;stroke:#000000;stroke-width:5.45408726;stroke-linecap:butt;stroke-linejoin:miter;stroke-miterlimit:4;stroke-dasharray:none;stroke-dashoffset:0;stroke-opacity:1" />
      <path
         d="M 117.03926,231.65292 L 117.03926,68.030305 L 280.66188,68.030306 L 280.66188,231.65292 L 117.03926,231.65292 z"
         transform="matrix(0.9167437,0,0,0.9167437,67.20499,95.22812)"
         id="path5181"
         style="fill:none;fill-opacity:1;fill-rule:evenodd;stroke:#000000;stroke-width:5.45408726;stroke-linecap:butt;stroke-linejoin:miter;stroke-miterlimit:4;stroke-dasharray:none;stroke-dashoffset:0;stroke-opacity:1" />
      <path
         d="M 117.03926,231.65292 L 117.03926,68.030305 L 280.66188,68.030306 L 280.66188,231.65292 L 117.03926,231.65292 z"
         transform="matrix(0.9167437,0,0,0.9167437,67.20499,95.22812)"
         id="path5183"
         style="fill:none;fill-opacity:1;fill-rule:evenodd;stroke:#000000;stroke-width:5.45408726;stroke-linecap:butt;stroke-linejoin:miter;stroke-miterlimit:4;stroke-dasharray:none;stroke-dashoffset:0;stroke-opacity:1" />
      <text
         x="250.23242"
         y="247.155"
         id="text5185"
         xml:space="preserve"
         style="font-size:40px;font-style:normal;font-weight:normal;text-align:center;text-anchor:middle;fill:#000000;fill-opacity:1;stroke:none;stroke-width:1px;stroke-linecap:butt;stroke-linejoin:miter;stroke-opacity:1;font-family:Bitstream Vera Sans"><tspan
           x="250.23242"
           y="247.155"
           id="tspan5187">C<tspan
   id="tspan5189"
   style="font-size:20px">1,1</tspan></tspan></text>
      <path
         d="M 117.03926,231.65292 L 117.03926,68.030305 L 280.66188,68.030306 L 280.66188,231.65292 L 117.03926,231.65292 z"
         transform="matrix(0.9167437,0,0,0.9167437,67.20499,95.22812)"
         id="path5191"
         style="fill:none;fill-opacity:1;fill-rule:evenodd;stroke:#000000;stroke-width:5.45408726;stroke-linecap:butt;stroke-linejoin:miter;stroke-miterlimit:4;stroke-dasharray:none;stroke-dashoffset:0;stroke-opacity:1" />
      <path
         d="M 117.03926,231.65292 L 117.03926,68.030305 L 280.66188,68.030306 L 280.66188,231.65292 L 117.03926,231.65292 z"
         transform="matrix(0.9167437,0,0,0.9167437,217.20499,95.22812)"
         id="path5197"
         style="fill:none;fill-opacity:1;fill-rule:evenodd;stroke:#000000;stroke-width:5.45408726;stroke-linecap:butt;stroke-linejoin:miter;stroke-miterlimit:4;stroke-dasharray:none;stroke-dashoffset:0;stroke-opacity:1" />
      <path
         d="M 117.03926,231.65292 L 117.03926,68.030305 L 280.66188,68.030306 L 280.66188,231.65292 L 117.03926,231.65292 z"
         transform="matrix(0.9167437,0,0,0.9167437,217.20499,95.22812)"
         id="path5199"
         style="fill:none;fill-opacity:1;fill-rule:evenodd;stroke:#000000;stroke-width:5.45408726;stroke-linecap:butt;stroke-linejoin:miter;stroke-miterlimit:4;stroke-dasharray:none;stroke-dashoffset:0;stroke-opacity:1" />
      <text
         x="400.23242"
         y="247.155"
         id="text5201"
         xml:space="preserve"
         style="font-size:40px;font-style:normal;font-weight:normal;text-align:center;text-anchor:middle;fill:#000000;fill-opacity:1;stroke:none;stroke-width:1px;stroke-linecap:butt;stroke-linejoin:miter;stroke-opacity:1;font-family:Bitstream Vera Sans"><tspan
           x="400.23242"
           y="247.155"
           id="tspan5203">C<tspan
   id="tspan5205"
   style="font-size:20px">1,2</tspan></tspan></text>
      <path
         d="M 117.03926,231.65292 L 117.03926,68.030305 L 280.66188,68.030306 L 280.66188,231.65292 L 117.03926,231.65292 z"
         transform="matrix(0.9167437,0,0,0.9167437,217.20499,95.22812)"
         id="path5207"
         style="fill:none;fill-opacity:1;fill-rule:evenodd;stroke:#000000;stroke-width:5.45408726;stroke-linecap:butt;stroke-linejoin:miter;stroke-miterlimit:4;stroke-dasharray:none;stroke-dashoffset:0;stroke-opacity:1" />
      <path
         d="M 117.03926,231.65292 L 117.03926,68.030305 L 280.66188,68.030306 L 280.66188,231.65292 L 117.03926,231.65292 z"
         transform="matrix(0.9167437,0,0,0.9167437,-82.794997,-54.77188)"
         id="path5247"
         style="fill:none;fill-opacity:1;fill-rule:evenodd;stroke:#000000;stroke-width:5.45408726;stroke-linecap:butt;stroke-linejoin:miter;stroke-miterlimit:4;stroke-dasharray:none;stroke-dashoffset:0;stroke-opacity:1" />
      <path
         d="M 117.03926,231.65292 L 117.03926,68.030305 L 280.66188,68.030306 L 280.66188,231.65292 L 117.03926,231.65292 z"
         transform="matrix(0.9167437,0,0,0.9167437,-82.794997,-54.77188)"
         id="path5249"
         style="fill:none;fill-opacity:1;fill-rule:evenodd;stroke:#000000;stroke-width:5.45408726;stroke-linecap:butt;stroke-linejoin:miter;stroke-miterlimit:4;stroke-dasharray:none;stroke-dashoffset:0;stroke-opacity:1" />
      <text
         x="100.23244"
         y="97.155014"
         id="text5251"
         xml:space="preserve"
         style="font-size:40px;font-style:normal;font-weight:normal;text-align:center;text-anchor:middle;fill:#000000;fill-opacity:1;stroke:none;stroke-width:1px;stroke-linecap:butt;stroke-linejoin:miter;stroke-opacity:1;font-family:Bitstream Vera Sans"><tspan
           x="100.23244"
           y="97.155014"
           id="tspan5743">C<tspan
   id="tspan5745"
   style="font-size:20px">0,0</tspan></tspan></text>
      <path
         d="M 117.03926,231.65292 L 117.03926,68.030305 L 280.66188,68.030306 L 280.66188,231.65292 L 117.03926,231.65292 z"
         transform="matrix(0.9167437,0,0,0.9167437,-82.794997,-54.77188)"
         id="path5257"
         style="fill:none;fill-opacity:1;fill-rule:evenodd;stroke:#000000;stroke-width:5.45408726;stroke-linecap:butt;stroke-linejoin:miter;stroke-miterlimit:4;stroke-dasharray:none;stroke-dashoffset:0;stroke-opacity:1" />
      <path
         d="M 117.03926,231.65292 L 117.03926,68.030305 L 280.66188,68.030306 L 280.66188,231.65292 L 117.03926,231.65292 z"
         transform="matrix(0.9167437,0,0,0.9167437,67.20499,-54.77188)"
         id="path5263"
         style="fill:none;fill-opacity:1;fill-rule:evenodd;stroke:#000000;stroke-width:5.45408726;stroke-linecap:butt;stroke-linejoin:miter;stroke-miterlimit:4;stroke-dasharray:none;stroke-dashoffset:0;stroke-opacity:1" />
      <path
         d="M 117.03926,231.65292 L 117.03926,68.030305 L 280.66188,68.030306 L 280.66188,231.65292 L 117.03926,231.65292 z"
         transform="matrix(0.9167437,0,0,0.9167437,67.20499,-54.77188)"
         id="path5265"
         style="fill:none;fill-opacity:1;fill-rule:evenodd;stroke:#000000;stroke-width:5.45408726;stroke-linecap:butt;stroke-linejoin:miter;stroke-miterlimit:4;stroke-dasharray:none;stroke-dashoffset:0;stroke-opacity:1" />
      <text
         x="250.23242"
         y="97.155014"
         id="text5267"
         xml:space="preserve"
         style="font-size:40px;font-style:normal;font-weight:normal;text-align:center;text-anchor:middle;fill:#000000;fill-opacity:1;stroke:none;stroke-width:1px;stroke-linecap:butt;stroke-linejoin:miter;stroke-opacity:1;font-family:Bitstream Vera Sans"><tspan
           x="250.23242"
           y="97.155014"
           id="tspan5269">C<tspan
   id="tspan5271"
   style="font-size:20px">0,1</tspan></tspan></text>
      <path
         d="M 117.03926,231.65292 L 117.03926,68.030305 L 280.66188,68.030306 L 280.66188,231.65292 L 117.03926,231.65292 z"
         transform="matrix(0.9167437,0,0,0.9167437,67.20499,-54.77188)"
         id="path5273"
         style="fill:none;fill-opacity:1;fill-rule:evenodd;stroke:#000000;stroke-width:5.45408726;stroke-linecap:butt;stroke-linejoin:miter;stroke-miterlimit:4;stroke-dasharray:none;stroke-dashoffset:0;stroke-opacity:1" />
      <path
         d="M 117.03926,231.65292 L 117.03926,68.030305 L 280.66188,68.030306 L 280.66188,231.65292 L 117.03926,231.65292 z"
         transform="matrix(0.9167437,0,0,0.9167437,217.20499,-54.77188)"
         id="path5279"
         style="fill:none;fill-opacity:1;fill-rule:evenodd;stroke:#000000;stroke-width:5.45408726;stroke-linecap:butt;stroke-linejoin:miter;stroke-miterlimit:4;stroke-dasharray:none;stroke-dashoffset:0;stroke-opacity:1" />
      <path
         d="M 117.03926,231.65292 L 117.03926,68.030305 L 280.66188,68.030306 L 280.66188,231.65292 L 117.03926,231.65292 z"
         transform="matrix(0.9167437,0,0,0.9167437,217.20499,-54.77188)"
         id="path5281"
         style="fill:none;fill-opacity:1;fill-rule:evenodd;stroke:#000000;stroke-width:5.45408726;stroke-linecap:butt;stroke-linejoin:miter;stroke-miterlimit:4;stroke-dasharray:none;stroke-dashoffset:0;stroke-opacity:1" />
      <text
         x="400.23242"
         y="97.155014"
         id="text5283"
         xml:space="preserve"
         style="font-size:40px;font-style:normal;font-weight:normal;text-align:center;text-anchor:middle;fill:#000000;fill-opacity:1;stroke:none;stroke-width:1px;stroke-linecap:butt;stroke-linejoin:miter;stroke-opacity:1;font-family:Bitstream Vera Sans"><tspan
           x="400.23242"
           y="97.155014"
           id="tspan5285">C<tspan
   id="tspan5287"
   style="font-size:20px">0,2</tspan></tspan></text>
      <path
         d="M 117.03926,231.65292 L 117.03926,68.030305 L 280.66188,68.030306 L 280.66188,231.65292 L 117.03926,231.65292 z"
         transform="matrix(0.9167437,0,0,0.9167437,217.20499,-54.77188)"
         id="path5289"
         style="fill:none;fill-opacity:1;fill-rule:evenodd;stroke:#000000;stroke-width:5.45408726;stroke-linecap:butt;stroke-linejoin:miter;stroke-miterlimit:4;stroke-dasharray:none;stroke-dashoffset:0;stroke-opacity:1" />
    </g>
    <path
       d="M 740.5427,121.10598 L 702.45525,187.07538 L 626.28035,187.07538 L 588.19289,121.10598 L 626.28035,55.136578 L 702.45525,55.136578 L 740.5427,121.10598 z"
       transform="matrix(0,-1.1114681,-1.1110681,0,728.36709,846.70482)"
       id="path5790"
       style="fill:none;fill-opacity:1;fill-rule:evenodd;stroke:#000000;stroke-width:4.49936438;stroke-linecap:butt;stroke-linejoin:miter;stroke-miterlimit:4;stroke-dasharray:none;stroke-dashoffset:0;stroke-opacity:1" />
    <text
       x="593.69293"
       y="121.96284"
       id="text6496"
       xml:space="preserve"
       style="font-size:40px;font-style:normal;font-weight:normal;text-align:center;text-anchor:middle;fill:#000000;fill-opacity:1;stroke:none;stroke-width:1px;stroke-linecap:butt;stroke-linejoin:miter;stroke-opacity:1;font-family:Bitstream Vera Sans"><tspan
         x="593.69293"
         y="121.96284"
         id="tspan6498">C<tspan
   id="tspan6500"
   style="font-size:20px">0,0</tspan></tspan></text>
    <path
       d="M 740.5427,121.10598 L 702.45525,187.07538 L 626.28035,187.07538 L 588.19289,121.10598 L 626.28035,55.136578 L 702.45525,55.136578 L 740.5427,121.10598 z"
       transform="matrix(0,-1.1114681,-1.1110681,0,874.83727,846.70482)"
       id="path6530"
       style="fill:none;fill-opacity:1;fill-rule:evenodd;stroke:#000000;stroke-width:4.49936438;stroke-linecap:butt;stroke-linejoin:miter;stroke-miterlimit:4;stroke-dasharray:none;stroke-dashoffset:0;stroke-opacity:1" />
    <text
       x="740.16315"
       y="121.96284"
       id="text6532"
       xml:space="preserve"
       style="font-size:40px;font-style:normal;font-weight:normal;text-align:center;text-anchor:middle;fill:#000000;fill-opacity:1;stroke:none;stroke-width:1px;stroke-linecap:butt;stroke-linejoin:miter;stroke-opacity:1;font-family:Bitstream Vera Sans"><tspan
         x="740.16315"
         y="121.96284"
         id="tspan6534">C<tspan
   id="tspan6536"
   style="font-size:20px">0,1</tspan></tspan></text>
    <path
       d="M 740.5427,121.10598 L 702.45525,187.07538 L 626.28035,187.07538 L 588.19289,121.10598 L 626.28035,55.136578 L 702.45525,55.136578 L 740.5427,121.10598 z"
       transform="matrix(0,-1.1114681,-1.1110681,0,1021.3393,846.70482)"
       id="path6540"
       style="fill:none;fill-opacity:1;fill-rule:evenodd;stroke:#000000;stroke-width:4.49936438;stroke-linecap:butt;stroke-linejoin:miter;stroke-miterlimit:4;stroke-dasharray:none;stroke-dashoffset:0;stroke-opacity:1" />
    <text
       x="886.66522"
       y="121.96284"
       id="text6542"
       xml:space="preserve"
       style="font-size:40px;font-style:normal;font-weight:normal;text-align:center;text-anchor:middle;fill:#000000;fill-opacity:1;stroke:none;stroke-width:1px;stroke-linecap:butt;stroke-linejoin:miter;stroke-opacity:1;font-family:Bitstream Vera Sans"><tspan
         x="886.66522"
         y="121.96284"
         id="tspan6544">C<tspan
   id="tspan6546"
   style="font-size:20px">0,2</tspan></tspan></text>
    <path
       d="M 740.5427,121.10598 L 702.45525,187.07538 L 626.28035,187.07538 L 588.19289,121.10598 L 626.28035,55.136578 L 702.45525,55.136578 L 740.5427,121.10598 z"
       transform="matrix(0,-1.1114681,-1.1110681,0,801.86497,973.89205)"
       id="path6569"
       style="fill:none;fill-opacity:1;fill-rule:evenodd;stroke:#000000;stroke-width:4.49936438;stroke-linecap:butt;stroke-linejoin:miter;stroke-miterlimit:4;stroke-dasharray:none;stroke-dashoffset:0;stroke-opacity:1" />
    <text
       x="667.1908"
       y="249.15007"
       id="text6571"
       xml:space="preserve"
       style="font-size:40px;font-style:normal;font-weight:normal;text-align:center;text-anchor:middle;fill:#000000;fill-opacity:1;stroke:none;stroke-width:1px;stroke-linecap:butt;stroke-linejoin:miter;stroke-opacity:1;font-family:Bitstream Vera Sans"><tspan
         x="667.1908"
         y="249.15007"
         id="tspan6573">C<tspan
   id="tspan6575"
   style="font-size:20px">1,0</tspan></tspan></text>
    <path
       d="M 740.5427,121.10598 L 702.45525,187.07538 L 626.28035,187.07538 L 588.19289,121.10598 L 626.28035,55.136578 L 702.45525,55.136578 L 740.5427,121.10598 z"
       transform="matrix(0,-1.1114681,-1.1110681,0,948.33515,973.89205)"
       id="path6579"
       style="fill:none;fill-opacity:1;fill-rule:evenodd;stroke:#000000;stroke-width:4.49936438;stroke-linecap:butt;stroke-linejoin:miter;stroke-miterlimit:4;stroke-dasharray:none;stroke-dashoffset:0;stroke-opacity:1" />
    <text
       x="813.66101"
       y="249.15007"
       id="text6581"
       xml:space="preserve"
       style="font-size:40px;font-style:normal;font-weight:normal;text-align:center;text-anchor:middle;fill:#000000;fill-opacity:1;stroke:none;stroke-width:1px;stroke-linecap:butt;stroke-linejoin:miter;stroke-opacity:1;font-family:Bitstream Vera Sans"><tspan
         x="813.66101"
         y="249.15007"
         id="tspan6583">C<tspan
   id="tspan6585"
   style="font-size:20px">1,1</tspan></tspan></text>
    <path
       d="M 740.5427,121.10598 L 702.45525,187.07538 L 626.28035,187.07538 L 588.19289,121.10598 L 626.28035,55.136578 L 702.45525,55.136578 L 740.5427,121.10598 z"
       transform="matrix(0,-1.1114681,-1.1110681,0,1094.8372,973.89205)"
       id="path6589"
       style="fill:none;fill-opacity:1;fill-rule:evenodd;stroke:#000000;stroke-width:4.49936438;stroke-linecap:butt;stroke-linejoin:miter;stroke-miterlimit:4;stroke-dasharray:none;stroke-dashoffset:0;stroke-opacity:1" />
    <text
       x="960.16309"
       y="249.15007"
       id="text6591"
       xml:space="preserve"
       style="font-size:40px;font-style:normal;font-weight:normal;text-align:center;text-anchor:middle;fill:#000000;fill-opacity:1;stroke:none;stroke-width:1px;stroke-linecap:butt;stroke-linejoin:miter;stroke-opacity:1;font-family:Bitstream Vera Sans"><tspan
         x="960.16309"
         y="249.15007"
         id="tspan6593">C<tspan
   id="tspan6595"
   style="font-size:20px">1,2</tspan></tspan></text>
    <path
       d="M 740.5427,121.10598 L 702.45525,187.07538 L 626.28035,187.07538 L 588.19289,121.10598 L 626.28035,55.136578 L 702.45525,55.136578 L 740.5427,121.10598 z"
       transform="matrix(0,-1.1114681,-1.1110681,0,728.36709,1101.2708)"
       id="path6640"
       style="fill:none;fill-opacity:1;fill-rule:evenodd;stroke:#000000;stroke-width:4.49936438;stroke-linecap:butt;stroke-linejoin:miter;stroke-miterlimit:4;stroke-dasharray:none;stroke-dashoffset:0;stroke-opacity:1" />
    <text
       x="593.69293"
       y="376.52887"
       id="text6642"
       xml:space="preserve"
       style="font-size:40px;font-style:normal;font-weight:normal;text-align:center;text-anchor:middle;fill:#000000;fill-opacity:1;stroke:none;stroke-width:1px;stroke-linecap:butt;stroke-linejoin:miter;stroke-opacity:1;font-family:Bitstream Vera Sans"><tspan
         x="593.69293"
         y="376.52887"
         id="tspan6644">C<tspan
   id="tspan6646"
   style="font-size:20px">2,0</tspan></tspan></text>
    <path
       d="M 740.5427,121.10598 L 702.45525,187.07538 L 626.28035,187.07538 L 588.19289,121.10598 L 626.28035,55.136578 L 702.45525,55.136578 L 740.5427,121.10598 z"
       transform="matrix(0,-1.1114681,-1.1110681,0,874.83727,1101.2708)"
       id="path6650"
       style="fill:none;fill-opacity:1;fill-rule:evenodd;stroke:#000000;stroke-width:4.49936438;stroke-linecap:butt;stroke-linejoin:miter;stroke-miterlimit:4;stroke-dasharray:none;stroke-dashoffset:0;stroke-opacity:1" />
    <text
       x="740.16315"
       y="376.52887"
       id="text6652"
       xml:space="preserve"
       style="font-size:40px;font-style:normal;font-weight:normal;text-align:center;text-anchor:middle;fill:#000000;fill-opacity:1;stroke:none;stroke-width:1px;stroke-linecap:butt;stroke-linejoin:miter;stroke-opacity:1;font-family:Bitstream Vera Sans"><tspan
         x="740.16315"
         y="376.52887"
         id="tspan6654">C<tspan
   id="tspan6656"
   style="font-size:20px">2,1</tspan></tspan></text>
    <path
       d="M 740.5427,121.10598 L 702.45525,187.07538 L 626.28035,187.07538 L 588.19289,121.10598 L 626.28035,55.136578 L 702.45525,55.136578 L 740.5427,121.10598 z"
       transform="matrix(0,-1.1114681,-1.1110681,0,1021.3393,1101.2708)"
       id="path6660"
       style="fill:none;fill-opacity:1;fill-rule:evenodd;stroke:#000000;stroke-width:4.49936438;stroke-linecap:butt;stroke-linejoin:miter;stroke-miterlimit:4;stroke-dasharray:none;stroke-dashoffset:0;stroke-opacity:1" />
    <text
       x="886.66522"
       y="376.52887"
       id="text6662"
       xml:space="preserve"
       style="font-size:40px;font-style:normal;font-weight:normal;text-align:center;text-anchor:middle;fill:#000000;fill-opacity:1;stroke:none;stroke-width:1px;stroke-linecap:butt;stroke-linejoin:miter;stroke-opacity:1;font-family:Bitstream Vera Sans"><tspan
         x="886.66522"
         y="376.52887"
         id="tspan6664">C<tspan
   id="tspan6666"
   style="font-size:20px">2,2</tspan></tspan></text>
    <path
       d="M 117.03926,231.65292 L 117.03926,68.030305 L 280.66188,68.030306 L 280.66188,231.65292 L 117.03926,231.65292 z"
       transform="matrix(0.9167437,0,0,0.9167437,170.30845,741.22812)"
       id="path6905"
       style="fill:none;fill-opacity:1;fill-rule:evenodd;stroke:#000000;stroke-width:5.45408726;stroke-linecap:butt;stroke-linejoin:miter;stroke-miterlimit:4;stroke-dasharray:none;stroke-dashoffset:0;stroke-opacity:1" />
    <path
       d="M 117.03926,231.65292 L 117.03926,68.030305 L 280.66188,68.030306 L 280.66188,231.65292 L 117.03926,231.65292 z"
       transform="matrix(0.9167437,0,0,0.9167437,170.30845,741.22812)"
       id="path6907"
       style="fill:none;fill-opacity:1;fill-rule:evenodd;stroke:#000000;stroke-width:5.45408726;stroke-linecap:butt;stroke-linejoin:miter;stroke-miterlimit:4;stroke-dasharray:none;stroke-dashoffset:0;stroke-opacity:1" />
    <text
       x="353.33588"
       y="893.15503"
       id="text6909"
       xml:space="preserve"
       style="font-size:40px;font-style:normal;font-weight:normal;text-align:center;text-anchor:middle;fill:#000000;fill-opacity:1;stroke:none;stroke-width:1px;stroke-linecap:butt;stroke-linejoin:miter;stroke-opacity:1;font-family:Bitstream Vera Sans"><tspan
         x="353.33588"
         y="893.15503"
         id="tspan6911">C<tspan
   id="tspan6913"
   style="font-size:20px">2,0</tspan></tspan></text>
    <path
       d="M 117.03926,231.65292 L 117.03926,68.030305 L 280.66188,68.030306 L 280.66188,231.65292 L 117.03926,231.65292 z"
       transform="matrix(0.9167437,0,0,0.9167437,170.30845,741.22812)"
       id="path6915"
       style="fill:none;fill-opacity:1;fill-rule:evenodd;stroke:#000000;stroke-width:5.45408726;stroke-linecap:butt;stroke-linejoin:miter;stroke-miterlimit:4;stroke-dasharray:none;stroke-dashoffset:0;stroke-opacity:1" />
    <path
       d="M 117.03926,231.65292 L 117.03926,68.030305 L 280.66188,68.030306 L 280.66188,231.65292 L 117.03926,231.65292 z"
       transform="matrix(0.9167437,0,0,0.9167437,320.30844,741.22812)"
       id="path6917"
       style="fill:none;fill-opacity:1;fill-rule:evenodd;stroke:#000000;stroke-width:5.45408726;stroke-linecap:butt;stroke-linejoin:miter;stroke-miterlimit:4;stroke-dasharray:none;stroke-dashoffset:0;stroke-opacity:1" />
    <path
       d="M 117.03926,231.65292 L 117.03926,68.030305 L 280.66188,68.030306 L 280.66188,231.65292 L 117.03926,231.65292 z"
       transform="matrix(0.9167437,0,0,0.9167437,320.30844,741.22812)"
       id="path6919"
       style="fill:none;fill-opacity:1;fill-rule:evenodd;stroke:#000000;stroke-width:5.45408726;stroke-linecap:butt;stroke-linejoin:miter;stroke-miterlimit:4;stroke-dasharray:none;stroke-dashoffset:0;stroke-opacity:1" />
    <text
       x="503.33588"
       y="893.15503"
       id="text6921"
       xml:space="preserve"
       style="font-size:40px;font-style:normal;font-weight:normal;text-align:center;text-anchor:middle;fill:#000000;fill-opacity:1;stroke:none;stroke-width:1px;stroke-linecap:butt;stroke-linejoin:miter;stroke-opacity:1;font-family:Bitstream Vera Sans"><tspan
         x="503.33588"
         y="893.15503"
         id="tspan6923">C<tspan
   id="tspan6925"
   style="font-size:20px">2,1</tspan></tspan></text>
    <path
       d="M 117.03926,231.65292 L 117.03926,68.030305 L 280.66188,68.030306 L 280.66188,231.65292 L 117.03926,231.65292 z"
       transform="matrix(0.9167437,0,0,0.9167437,320.30844,741.22812)"
       id="path6927"
       style="fill:none;fill-opacity:1;fill-rule:evenodd;stroke:#000000;stroke-width:5.45408726;stroke-linecap:butt;stroke-linejoin:miter;stroke-miterlimit:4;stroke-dasharray:none;stroke-dashoffset:0;stroke-opacity:1" />
    <path
       d="M 117.03926,231.65292 L 117.03926,68.030305 L 280.66188,68.030306 L 280.66188,231.65292 L 117.03926,231.65292 z"
       transform="matrix(0.9167437,0,0,0.9167437,470.30844,741.22812)"
       id="path6929"
       style="fill:none;fill-opacity:1;fill-rule:evenodd;stroke:#000000;stroke-width:5.45408726;stroke-linecap:butt;stroke-linejoin:miter;stroke-miterlimit:4;stroke-dasharray:none;stroke-dashoffset:0;stroke-opacity:1" />
    <path
       d="M 117.03926,231.65292 L 117.03926,68.030305 L 280.66188,68.030306 L 280.66188,231.65292 L 117.03926,231.65292 z"
       transform="matrix(0.9167437,0,0,0.9167437,470.30844,741.22812)"
       id="path6931"
       style="fill:none;fill-opacity:1;fill-rule:evenodd;stroke:#000000;stroke-width:5.45408726;stroke-linecap:butt;stroke-linejoin:miter;stroke-miterlimit:4;stroke-dasharray:none;stroke-dashoffset:0;stroke-opacity:1" />
    <text
       x="653.33588"
       y="893.15503"
       id="text6933"
       xml:space="preserve"
       style="font-size:40px;font-style:normal;font-weight:normal;text-align:center;text-anchor:middle;fill:#000000;fill-opacity:1;stroke:none;stroke-width:1px;stroke-linecap:butt;stroke-linejoin:miter;stroke-opacity:1;font-family:Bitstream Vera Sans"><tspan
         x="653.33588"
         y="893.15503"
         id="tspan6935">C<tspan
   id="tspan6937"
   style="font-size:20px">2,2</tspan></tspan></text>
    <path
       d="M 117.03926,231.65292 L 117.03926,68.030305 L 280.66188,68.030306 L 280.66188,231.65292 L 117.03926,231.65292 z"
       transform="matrix(0.9167437,0,0,0.9167437,470.30844,741.22812)"
       id="path6939"
       style="fill:none;fill-opacity:1;fill-rule:evenodd;stroke:#000000;stroke-width:5.45408726;stroke-linecap:butt;stroke-linejoin:miter;stroke-miterlimit:4;stroke-dasharray:none;stroke-dashoffset:0;stroke-opacity:1" />
    <g
       transform="translate(74.999544,0)"
       id="g7067">
      <path
         d="M 117.03926,231.65292 L 117.03926,68.030305 L 280.66188,68.030306 L 280.66188,231.65292 L 117.03926,231.65292 z"
         transform="matrix(0.9167437,0,0,0.9167437,170.30845,591.22812)"
         id="path6941"
         style="fill:none;fill-opacity:1;fill-rule:evenodd;stroke:#000000;stroke-width:5.45408726;stroke-linecap:butt;stroke-linejoin:miter;stroke-miterlimit:4;stroke-dasharray:none;stroke-dashoffset:0;stroke-opacity:1" />
      <path
         d="M 117.03926,231.65292 L 117.03926,68.030305 L 280.66188,68.030306 L 280.66188,231.65292 L 117.03926,231.65292 z"
         transform="matrix(0.9167437,0,0,0.9167437,170.30845,591.22812)"
         id="path6943"
         style="fill:none;fill-opacity:1;fill-rule:evenodd;stroke:#000000;stroke-width:5.45408726;stroke-linecap:butt;stroke-linejoin:miter;stroke-miterlimit:4;stroke-dasharray:none;stroke-dashoffset:0;stroke-opacity:1" />
      <text
         x="353.33588"
         y="743.15503"
         id="text6945"
         xml:space="preserve"
         style="font-size:40px;font-style:normal;font-weight:normal;text-align:center;text-anchor:middle;fill:#000000;fill-opacity:1;stroke:none;stroke-width:1px;stroke-linecap:butt;stroke-linejoin:miter;stroke-opacity:1;font-family:Bitstream Vera Sans"><tspan
           x="353.33588"
           y="743.15503"
           id="tspan6947">C<tspan
   id="tspan6949"
   style="font-size:20px">1,0</tspan></tspan></text>
      <path
         d="M 117.03926,231.65292 L 117.03926,68.030305 L 280.66188,68.030306 L 280.66188,231.65292 L 117.03926,231.65292 z"
         transform="matrix(0.9167437,0,0,0.9167437,170.30845,591.22812)"
         id="path6951"
         style="fill:none;fill-opacity:1;fill-rule:evenodd;stroke:#000000;stroke-width:5.45408726;stroke-linecap:butt;stroke-linejoin:miter;stroke-miterlimit:4;stroke-dasharray:none;stroke-dashoffset:0;stroke-opacity:1" />
      <path
         d="M 117.03926,231.65292 L 117.03926,68.030305 L 280.66188,68.030306 L 280.66188,231.65292 L 117.03926,231.65292 z"
         transform="matrix(0.9167437,0,0,0.9167437,320.30844,591.22812)"
         id="path6953"
         style="fill:none;fill-opacity:1;fill-rule:evenodd;stroke:#000000;stroke-width:5.45408726;stroke-linecap:butt;stroke-linejoin:miter;stroke-miterlimit:4;stroke-dasharray:none;stroke-dashoffset:0;stroke-opacity:1" />
      <path
         d="M 117.03926,231.65292 L 117.03926,68.030305 L 280.66188,68.030306 L 280.66188,231.65292 L 117.03926,231.65292 z"
         transform="matrix(0.9167437,0,0,0.9167437,320.30844,591.22812)"
         id="path6955"
         style="fill:none;fill-opacity:1;fill-rule:evenodd;stroke:#000000;stroke-width:5.45408726;stroke-linecap:butt;stroke-linejoin:miter;stroke-miterlimit:4;stroke-dasharray:none;stroke-dashoffset:0;stroke-opacity:1" />
      <text
         x="503.33588"
         y="743.15503"
         id="text6957"
         xml:space="preserve"
         style="font-size:40px;font-style:normal;font-weight:normal;text-align:center;text-anchor:middle;fill:#000000;fill-opacity:1;stroke:none;stroke-width:1px;stroke-linecap:butt;stroke-linejoin:miter;stroke-opacity:1;font-family:Bitstream Vera Sans"><tspan
           x="503.33588"
           y="743.15503"
           id="tspan6959">C<tspan
   id="tspan6961"
   style="font-size:20px">1,1</tspan></tspan></text>
      <path
         d="M 117.03926,231.65292 L 117.03926,68.030305 L 280.66188,68.030306 L 280.66188,231.65292 L 117.03926,231.65292 z"
         transform="matrix(0.9167437,0,0,0.9167437,320.30844,591.22812)"
         id="path6963"
         style="fill:none;fill-opacity:1;fill-rule:evenodd;stroke:#000000;stroke-width:5.45408726;stroke-linecap:butt;stroke-linejoin:miter;stroke-miterlimit:4;stroke-dasharray:none;stroke-dashoffset:0;stroke-opacity:1" />
      <path
         d="M 117.03926,231.65292 L 117.03926,68.030305 L 280.66188,68.030306 L 280.66188,231.65292 L 117.03926,231.65292 z"
         transform="matrix(0.9167437,0,0,0.9167437,470.30844,591.22812)"
         id="path6965"
         style="fill:none;fill-opacity:1;fill-rule:evenodd;stroke:#000000;stroke-width:5.45408726;stroke-linecap:butt;stroke-linejoin:miter;stroke-miterlimit:4;stroke-dasharray:none;stroke-dashoffset:0;stroke-opacity:1" />
      <path
         d="M 117.03926,231.65292 L 117.03926,68.030305 L 280.66188,68.030306 L 280.66188,231.65292 L 117.03926,231.65292 z"
         transform="matrix(0.9167437,0,0,0.9167437,470.30844,591.22812)"
         id="path6967"
         style="fill:none;fill-opacity:1;fill-rule:evenodd;stroke:#000000;stroke-width:5.45408726;stroke-linecap:butt;stroke-linejoin:miter;stroke-miterlimit:4;stroke-dasharray:none;stroke-dashoffset:0;stroke-opacity:1" />
      <text
         x="653.33588"
         y="743.15503"
         id="text6969"
         xml:space="preserve"
         style="font-size:40px;font-style:normal;font-weight:normal;text-align:center;text-anchor:middle;fill:#000000;fill-opacity:1;stroke:none;stroke-width:1px;stroke-linecap:butt;stroke-linejoin:miter;stroke-opacity:1;font-family:Bitstream Vera Sans"><tspan
           x="653.33588"
           y="743.15503"
           id="tspan6971">C<tspan
   id="tspan6973"
   style="font-size:20px">1,2</tspan></tspan></text>
      <path
         d="M 117.03926,231.65292 L 117.03926,68.030305 L 280.66188,68.030306 L 280.66188,231.65292 L 117.03926,231.65292 z"
         transform="matrix(0.9167437,0,0,0.9167437,470.30844,591.22812)"
         id="path6975"
         style="fill:none;fill-opacity:1;fill-rule:evenodd;stroke:#000000;stroke-width:5.45408726;stroke-linecap:butt;stroke-linejoin:miter;stroke-miterlimit:4;stroke-dasharray:none;stroke-dashoffset:0;stroke-opacity:1" />
    </g>
    <path
       d="M 117.03926,231.65292 L 117.03926,68.030305 L 280.66188,68.030306 L 280.66188,231.65292 L 117.03926,231.65292 z"
       transform="matrix(0.9167437,0,0,0.9167437,170.30845,441.22812)"
       id="path6977"
       style="fill:none;fill-opacity:1;fill-rule:evenodd;stroke:#000000;stroke-width:5.45408726;stroke-linecap:butt;stroke-linejoin:miter;stroke-miterlimit:4;stroke-dasharray:none;stroke-dashoffset:0;stroke-opacity:1" />
    <path
       d="M 117.03926,231.65292 L 117.03926,68.030305 L 280.66188,68.030306 L 280.66188,231.65292 L 117.03926,231.65292 z"
       transform="matrix(0.9167437,0,0,0.9167437,170.30845,441.22812)"
       id="path6979"
       style="fill:none;fill-opacity:1;fill-rule:evenodd;stroke:#000000;stroke-width:5.45408726;stroke-linecap:butt;stroke-linejoin:miter;stroke-miterlimit:4;stroke-dasharray:none;stroke-dashoffset:0;stroke-opacity:1" />
    <text
       x="353.33588"
       y="593.15503"
       id="text6981"
       xml:space="preserve"
       style="font-size:40px;font-style:normal;font-weight:normal;text-align:center;text-anchor:middle;fill:#000000;fill-opacity:1;stroke:none;stroke-width:1px;stroke-linecap:butt;stroke-linejoin:miter;stroke-opacity:1;font-family:Bitstream Vera Sans"><tspan
         x="353.33588"
         y="593.15503"
         id="tspan6983">C<tspan
   id="tspan6985"
   style="font-size:20px">0,0</tspan></tspan></text>
    <path
       d="M 117.03926,231.65292 L 117.03926,68.030305 L 280.66188,68.030306 L 280.66188,231.65292 L 117.03926,231.65292 z"
       transform="matrix(0.9167437,0,0,0.9167437,170.30845,441.22812)"
       id="path6987"
       style="fill:none;fill-opacity:1;fill-rule:evenodd;stroke:#000000;stroke-width:5.45408726;stroke-linecap:butt;stroke-linejoin:miter;stroke-miterlimit:4;stroke-dasharray:none;stroke-dashoffset:0;stroke-opacity:1" />
    <path
       d="M 117.03926,231.65292 L 117.03926,68.030305 L 280.66188,68.030306 L 280.66188,231.65292 L 117.03926,231.65292 z"
       transform="matrix(0.9167437,0,0,0.9167437,320.30844,441.22812)"
       id="path6989"
       style="fill:none;fill-opacity:1;fill-rule:evenodd;stroke:#000000;stroke-width:5.45408726;stroke-linecap:butt;stroke-linejoin:miter;stroke-miterlimit:4;stroke-dasharray:none;stroke-dashoffset:0;stroke-opacity:1" />
    <path
       d="M 117.03926,231.65292 L 117.03926,68.030305 L 280.66188,68.030306 L 280.66188,231.65292 L 117.03926,231.65292 z"
       transform="matrix(0.9167437,0,0,0.9167437,320.30844,441.22812)"
       id="path6991"
       style="fill:none;fill-opacity:1;fill-rule:evenodd;stroke:#000000;stroke-width:5.45408726;stroke-linecap:butt;stroke-linejoin:miter;stroke-miterlimit:4;stroke-dasharray:none;stroke-dashoffset:0;stroke-opacity:1" />
    <text
       x="503.33588"
       y="593.15503"
       id="text6993"
       xml:space="preserve"
       style="font-size:40px;font-style:normal;font-weight:normal;text-align:center;text-anchor:middle;fill:#000000;fill-opacity:1;stroke:none;stroke-width:1px;stroke-linecap:butt;stroke-linejoin:miter;stroke-opacity:1;font-family:Bitstream Vera Sans"><tspan
         x="503.33588"
         y="593.15503"
         id="tspan6995">C<tspan
   id="tspan6997"
   style="font-size:20px">0,1</tspan></tspan></text>
    <path
       d="M 117.03926,231.65292 L 117.03926,68.030305 L 280.66188,68.030306 L 280.66188,231.65292 L 117.03926,231.65292 z"
       transform="matrix(0.9167437,0,0,0.9167437,320.30844,441.22812)"
       id="path6999"
       style="fill:none;fill-opacity:1;fill-rule:evenodd;stroke:#000000;stroke-width:5.45408726;stroke-linecap:butt;stroke-linejoin:miter;stroke-miterlimit:4;stroke-dasharray:none;stroke-dashoffset:0;stroke-opacity:1" />
    <path
       d="M 117.03926,231.65292 L 117.03926,68.030305 L 280.66188,68.030306 L 280.66188,231.65292 L 117.03926,231.65292 z"
       transform="matrix(0.9167437,0,0,0.9167437,470.30844,441.22812)"
       id="path7001"
       style="fill:none;fill-opacity:1;fill-rule:evenodd;stroke:#000000;stroke-width:5.45408726;stroke-linecap:butt;stroke-linejoin:miter;stroke-miterlimit:4;stroke-dasharray:none;stroke-dashoffset:0;stroke-opacity:1" />
    <path
       d="M 117.03926,231.65292 L 117.03926,68.030305 L 280.66188,68.030306 L 280.66188,231.65292 L 117.03926,231.65292 z"
       transform="matrix(0.9167437,0,0,0.9167437,470.30844,441.22812)"
       id="path7003"
       style="fill:none;fill-opacity:1;fill-rule:evenodd;stroke:#000000;stroke-width:5.45408726;stroke-linecap:butt;stroke-linejoin:miter;stroke-miterlimit:4;stroke-dasharray:none;stroke-dashoffset:0;stroke-opacity:1" />
    <text
       x="653.33588"
       y="593.15503"
       id="text7005"
       xml:space="preserve"
       style="font-size:40px;font-style:normal;font-weight:normal;text-align:center;text-anchor:middle;fill:#000000;fill-opacity:1;stroke:none;stroke-width:1px;stroke-linecap:butt;stroke-linejoin:miter;stroke-opacity:1;font-family:Bitstream Vera Sans"><tspan
         x="653.33588"
         y="593.15503"
         id="tspan7007">C<tspan
   id="tspan7009"
   style="font-size:20px">0,2</tspan></tspan></text>
    <path
       d="M 117.03926,231.65292 L 117.03926,68.030305 L 280.66188,68.030306 L 280.66188,231.65292 L 117.03926,231.65292 z"
       transform="matrix(0.9167437,0,0,0.9167437,470.30844,441.22812)"
       id="path7011"
       style="fill:none;fill-opacity:1;fill-rule:evenodd;stroke:#000000;stroke-width:5.45408726;stroke-linecap:butt;stroke-linejoin:miter;stroke-miterlimit:4;stroke-dasharray:none;stroke-dashoffset:0;stroke-opacity:1" />
    <text
       x="6.8965497"
       y="206.16345"
       id="text7127"
       xml:space="preserve"
       style="font-size:40px;font-style:normal;font-weight:normal;fill:#000000;fill-opacity:1;stroke:none;stroke-width:1px;stroke-linecap:butt;stroke-linejoin:miter;stroke-opacity:1;font-family:Bitstream Vera Sans"><tspan
         x="6.8965497"
         y="206.16345"
         id="tspan7129"
         style="font-weight:normal;text-align:end;text-anchor:end;-inkscape-font-specification:Bitstream Vera Sans">(a)</tspan><tspan
         x="6.8965497"
         y="256.16345"
         id="tspan7189"
         style="font-weight:bold;text-align:end;text-anchor:end;-inkscape-font-specification:Bitstream Vera Sans Bold">Divisão em grade:</tspan><tspan
         x="6.8965497"
         y="306.16345"
         id="tspan7169"
         style="text-align:end;text-anchor:end">8 vizinhos</tspan><tspan
         x="6.8965497"
         y="356.16345"
         id="tspan7131"
         style="text-align:end;text-anchor:end">por célula</tspan></text>
    <text
       x="990.80457"
       y="353.28989"
       id="text7133"
       xml:space="preserve"
       style="font-size:40px;font-style:normal;font-weight:normal;fill:#000000;fill-opacity:1;stroke:none;stroke-width:1px;stroke-linecap:butt;stroke-linejoin:miter;stroke-opacity:1;font-family:Bitstream Vera Sans"><tspan
         x="990.80457"
         y="353.28989"
         id="tspan7145"
         style="font-weight:normal;text-align:start;text-anchor:start;-inkscape-font-specification:Bitstream Vera Sans">(b)</tspan><tspan
         x="990.80457"
         y="403.28989"
         id="tspan7191"
         style="font-weight:bold;text-align:start;text-anchor:start;-inkscape-font-specification:Bitstream Vera Sans Bold">Divisão hexagonal:</tspan><tspan
         x="990.80457"
         y="453.28989"
         id="tspan7173"
         style="text-align:start;text-anchor:start">6 vizinhos</tspan><tspan
         x="990.80457"
         y="503.28989"
         id="tspan7137"
         style="text-align:start;text-anchor:start">por célula</tspan></text>
    <text
       x="816.09192"
       y="718.80713"
       id="text7139"
       xml:space="preserve"
       style="font-size:40px;font-style:normal;font-weight:normal;fill:#000000;fill-opacity:1;stroke:none;stroke-width:1px;stroke-linecap:butt;stroke-linejoin:miter;stroke-opacity:1;font-family:Bitstream Vera Sans"><tspan
         x="816.09192"
         y="718.80713"
         id="tspan7141"
         style="font-weight:normal;text-align:start;text-anchor:start;-inkscape-font-specification:Bitstream Vera Sans">(c)</tspan><tspan
         x="816.09192"
         y="768.80713"
         id="tspan7193"
         style="font-weight:bold;text-align:start;text-anchor:start;-inkscape-font-specification:Bitstream Vera Sans Bold">Divisão com</tspan><tspan
         x="816.09192"
         y="818.80713"
         id="tspan7187"
         style="font-weight:bold;text-align:start;text-anchor:start;-inkscape-font-specification:Bitstream Vera Sans Bold">fileiras deslocadas:</tspan><tspan
         x="816.09192"
         y="868.80713"
         id="tspan7185"
         style="text-align:start;text-anchor:start">6 vizinhos</tspan><tspan
         x="816.09192"
         y="918.80713"
         id="tspan7143"
         style="text-align:start;text-anchor:start">por célula</tspan></text>
  </g>
</svg>
