<?xml version="1.0" encoding="UTF-8" standalone="no"?>
<!-- Created with Inkscape (http://www.inkscape.org/) -->
<svg
   xmlns:svg="http://www.w3.org/2000/svg"
   xmlns="http://www.w3.org/2000/svg"
   version="1.0"
   width="1052.3622"
   height="744.09448"
   id="svg3951">
  <defs
     id="defs3953" />
  <g
     id="layer1">
    <path
       d="M 117.03926,231.65292 L 117.03926,68.030305 L 280.66188,68.030306 L 280.66188,231.65292 L 117.03926,231.65292 z"
       transform="matrix(0.9167437,0,0,0.9167437,-4.7949968,429.22814)"
       id="path3961"
       style="fill:none;fill-opacity:1;fill-rule:evenodd;stroke:#000000;stroke-width:5.45408726;stroke-linecap:butt;stroke-linejoin:miter;stroke-miterlimit:4;stroke-dasharray:none;stroke-dashoffset:0;stroke-opacity:1" />
    <path
       d="M 117.03926,231.65292 L 117.03926,68.030305 L 280.66188,68.030306 L 280.66188,231.65292 L 117.03926,231.65292 z"
       transform="matrix(0.9167437,0,0,0.9167437,-4.7949968,429.22814)"
       id="path4478"
       style="fill:none;fill-opacity:1;fill-rule:evenodd;stroke:#000000;stroke-width:5.45408726;stroke-linecap:butt;stroke-linejoin:miter;stroke-miterlimit:4;stroke-dasharray:none;stroke-dashoffset:0;stroke-opacity:1" />
    <text
       x="178.23244"
       y="581.15503"
       id="text4531"
       xml:space="preserve"
       style="font-size:40px;font-style:normal;font-weight:normal;text-align:center;text-anchor:middle;fill:#000000;fill-opacity:1;stroke:none;stroke-width:1px;stroke-linecap:butt;stroke-linejoin:miter;stroke-opacity:1;font-family:Bitstream Vera Sans"><tspan
         x="178.23244"
         y="581.15503"
         id="tspan4533">C<tspan
   id="tspan4950"
   style="font-size:20px">3,0</tspan></tspan></text>
    <path
       d="M 117.03926,231.65292 L 117.03926,68.030305 L 280.66188,68.030306 L 280.66188,231.65292 L 117.03926,231.65292 z"
       transform="matrix(0.9167437,0,0,0.9167437,-4.7949968,429.22814)"
       id="path4952"
       style="fill:none;fill-opacity:1;fill-rule:evenodd;stroke:#000000;stroke-width:5.45408726;stroke-linecap:butt;stroke-linejoin:miter;stroke-miterlimit:4;stroke-dasharray:none;stroke-dashoffset:0;stroke-opacity:1" />
    <path
       d="M 117.03926,231.65292 L 117.03926,68.030305 L 280.66188,68.030306 L 280.66188,231.65292 L 117.03926,231.65292 z"
       transform="matrix(0.9167437,0,0,0.9167437,145.20499,429.22814)"
       id="path4975"
       style="fill:none;fill-opacity:1;fill-rule:evenodd;stroke:#000000;stroke-width:5.45408726;stroke-linecap:butt;stroke-linejoin:miter;stroke-miterlimit:4;stroke-dasharray:none;stroke-dashoffset:0;stroke-opacity:1" />
    <path
       d="M 117.03926,231.65292 L 117.03926,68.030305 L 280.66188,68.030306 L 280.66188,231.65292 L 117.03926,231.65292 z"
       transform="matrix(0.9167437,0,0,0.9167437,145.20499,429.22814)"
       id="path4977"
       style="fill:none;fill-opacity:1;fill-rule:evenodd;stroke:#000000;stroke-width:5.45408726;stroke-linecap:butt;stroke-linejoin:miter;stroke-miterlimit:4;stroke-dasharray:none;stroke-dashoffset:0;stroke-opacity:1" />
    <text
       x="328.23242"
       y="581.15503"
       id="text4979"
       xml:space="preserve"
       style="font-size:40px;font-style:normal;font-weight:normal;text-align:center;text-anchor:middle;fill:#000000;fill-opacity:1;stroke:none;stroke-width:1px;stroke-linecap:butt;stroke-linejoin:miter;stroke-opacity:1;font-family:Bitstream Vera Sans"><tspan
         x="328.23242"
         y="581.15503"
         id="tspan4981">C<tspan
   id="tspan4983"
   style="font-size:20px">3,1</tspan></tspan></text>
    <path
       d="M 117.03926,231.65292 L 117.03926,68.030305 L 280.66188,68.030306 L 280.66188,231.65292 L 117.03926,231.65292 z"
       transform="matrix(0.9167437,0,0,0.9167437,145.20499,429.22814)"
       id="path4985"
       style="fill:none;fill-opacity:1;fill-rule:evenodd;stroke:#000000;stroke-width:5.45408726;stroke-linecap:butt;stroke-linejoin:miter;stroke-miterlimit:4;stroke-dasharray:none;stroke-dashoffset:0;stroke-opacity:1" />
    <path
       d="M 117.03926,231.65292 L 117.03926,68.030305 L 280.66188,68.030306 L 280.66188,231.65292 L 117.03926,231.65292 z"
       transform="matrix(0.9167437,0,0,0.9167437,295.20499,429.22814)"
       id="path4991"
       style="fill:none;fill-opacity:1;fill-rule:evenodd;stroke:#000000;stroke-width:5.45408726;stroke-linecap:butt;stroke-linejoin:miter;stroke-miterlimit:4;stroke-dasharray:none;stroke-dashoffset:0;stroke-opacity:1" />
    <path
       d="M 117.03926,231.65292 L 117.03926,68.030305 L 280.66188,68.030306 L 280.66188,231.65292 L 117.03926,231.65292 z"
       transform="matrix(0.9167437,0,0,0.9167437,295.20499,429.22814)"
       id="path4993"
       style="fill:none;fill-opacity:1;fill-rule:evenodd;stroke:#000000;stroke-width:5.45408726;stroke-linecap:butt;stroke-linejoin:miter;stroke-miterlimit:4;stroke-dasharray:none;stroke-dashoffset:0;stroke-opacity:1" />
    <text
       x="478.23242"
       y="581.15503"
       id="text4995"
       xml:space="preserve"
       style="font-size:40px;font-style:normal;font-weight:normal;text-align:center;text-anchor:middle;fill:#000000;fill-opacity:1;stroke:none;stroke-width:1px;stroke-linecap:butt;stroke-linejoin:miter;stroke-opacity:1;font-family:Bitstream Vera Sans"><tspan
         x="478.23242"
         y="581.15503"
         id="tspan4997">C<tspan
   id="tspan4999"
   style="font-size:20px">3,2</tspan></tspan></text>
    <path
       d="M 117.03926,231.65292 L 117.03926,68.030305 L 280.66188,68.030306 L 280.66188,231.65292 L 117.03926,231.65292 z"
       transform="matrix(0.9167437,0,0,0.9167437,295.20499,429.22814)"
       id="path5001"
       style="fill:none;fill-opacity:1;fill-rule:evenodd;stroke:#000000;stroke-width:5.45408726;stroke-linecap:butt;stroke-linejoin:miter;stroke-miterlimit:4;stroke-dasharray:none;stroke-dashoffset:0;stroke-opacity:1" />
    <path
       d="M 117.03926,231.65292 L 117.03926,68.030305 L 280.66188,68.030306 L 280.66188,231.65292 L 117.03926,231.65292 z"
       transform="matrix(0.9167437,0,0,0.9167437,595.20499,429.22814)"
       id="path5007"
       style="fill:none;fill-opacity:1;fill-rule:evenodd;stroke:#000000;stroke-width:5.45408726;stroke-linecap:butt;stroke-linejoin:miter;stroke-miterlimit:4;stroke-dasharray:none;stroke-dashoffset:0;stroke-opacity:1" />
    <path
       d="M 117.03926,231.65292 L 117.03926,68.030305 L 280.66188,68.030306 L 280.66188,231.65292 L 117.03926,231.65292 z"
       transform="matrix(0.9167437,0,0,0.9167437,595.20499,429.22814)"
       id="path5009"
       style="fill:none;fill-opacity:1;fill-rule:evenodd;stroke:#000000;stroke-width:5.45408726;stroke-linecap:butt;stroke-linejoin:miter;stroke-miterlimit:4;stroke-dasharray:none;stroke-dashoffset:0;stroke-opacity:1" />
    <text
       x="778.23242"
       y="581.15503"
       id="text5011"
       xml:space="preserve"
       style="font-size:40px;font-style:normal;font-weight:normal;text-align:center;text-anchor:middle;fill:#000000;fill-opacity:1;stroke:none;stroke-width:1px;stroke-linecap:butt;stroke-linejoin:miter;stroke-opacity:1;font-family:Bitstream Vera Sans"><tspan
         x="778.23242"
         y="581.15503"
         id="tspan5013">C<tspan
   id="tspan5015"
   style="font-size:20px">3,4</tspan></tspan></text>
    <path
       d="M 117.03926,231.65292 L 117.03926,68.030305 L 280.66188,68.030306 L 280.66188,231.65292 L 117.03926,231.65292 z"
       transform="matrix(0.9167437,0,0,0.9167437,595.20499,429.22814)"
       id="path5017"
       style="fill:none;fill-opacity:1;fill-rule:evenodd;stroke:#000000;stroke-width:5.45408726;stroke-linecap:butt;stroke-linejoin:miter;stroke-miterlimit:4;stroke-dasharray:none;stroke-dashoffset:0;stroke-opacity:1" />
    <path
       d="M 117.03926,231.65292 L 117.03926,68.030305 L 280.66188,68.030306 L 280.66188,231.65292 L 117.03926,231.65292 z"
       transform="matrix(0.9167437,0,0,0.9167437,445.20499,429.22814)"
       id="path5023"
       style="fill:none;fill-opacity:1;fill-rule:evenodd;stroke:#000000;stroke-width:5.45408726;stroke-linecap:butt;stroke-linejoin:miter;stroke-miterlimit:4;stroke-dasharray:none;stroke-dashoffset:0;stroke-opacity:1" />
    <path
       d="M 117.03926,231.65292 L 117.03926,68.030305 L 280.66188,68.030306 L 280.66188,231.65292 L 117.03926,231.65292 z"
       transform="matrix(0.9167437,0,0,0.9167437,445.20499,429.22814)"
       id="path5025"
       style="fill:none;fill-opacity:1;fill-rule:evenodd;stroke:#000000;stroke-width:5.45408726;stroke-linecap:butt;stroke-linejoin:miter;stroke-miterlimit:4;stroke-dasharray:none;stroke-dashoffset:0;stroke-opacity:1" />
    <text
       x="628.23242"
       y="581.15503"
       id="text5027"
       xml:space="preserve"
       style="font-size:40px;font-style:normal;font-weight:normal;text-align:center;text-anchor:middle;fill:#000000;fill-opacity:1;stroke:none;stroke-width:1px;stroke-linecap:butt;stroke-linejoin:miter;stroke-opacity:1;font-family:Bitstream Vera Sans"><tspan
         x="628.23242"
         y="581.15503"
         id="tspan5029">C<tspan
   id="tspan5031"
   style="font-size:20px">3,3</tspan></tspan></text>
    <path
       d="M 117.03926,231.65292 L 117.03926,68.030305 L 280.66188,68.030306 L 280.66188,231.65292 L 117.03926,231.65292 z"
       transform="matrix(0.9167437,0,0,0.9167437,445.20499,429.22814)"
       id="path5033"
       style="fill:none;fill-opacity:1;fill-rule:evenodd;stroke:#000000;stroke-width:5.45408726;stroke-linecap:butt;stroke-linejoin:miter;stroke-miterlimit:4;stroke-dasharray:none;stroke-dashoffset:0;stroke-opacity:1" />
    <path
       d="M 117.03926,231.65292 L 117.03926,68.030305 L 280.66188,68.030306 L 280.66188,231.65292 L 117.03926,231.65292 z"
       transform="matrix(0.9167437,0,0,0.9167437,-4.7949968,279.22812)"
       id="path5083"
       style="fill:none;fill-opacity:1;fill-rule:evenodd;stroke:#000000;stroke-width:5.45408726;stroke-linecap:butt;stroke-linejoin:miter;stroke-miterlimit:4;stroke-dasharray:none;stroke-dashoffset:0;stroke-opacity:1" />
    <path
       d="M 117.03926,231.65292 L 117.03926,68.030305 L 280.66188,68.030306 L 280.66188,231.65292 L 117.03926,231.65292 z"
       transform="matrix(0.9167437,0,0,0.9167437,-4.7949968,279.22812)"
       id="path5085"
       style="fill:none;fill-opacity:1;fill-rule:evenodd;stroke:#000000;stroke-width:5.45408726;stroke-linecap:butt;stroke-linejoin:miter;stroke-miterlimit:4;stroke-dasharray:none;stroke-dashoffset:0;stroke-opacity:1" />
    <text
       x="178.23244"
       y="431.155"
       id="text5087"
       xml:space="preserve"
       style="font-size:40px;font-style:normal;font-weight:normal;text-align:center;text-anchor:middle;fill:#000000;fill-opacity:1;stroke:none;stroke-width:1px;stroke-linecap:butt;stroke-linejoin:miter;stroke-opacity:1;font-family:Bitstream Vera Sans"><tspan
         x="178.23244"
         y="431.155"
         id="tspan5089">C<tspan
   id="tspan5091"
   style="font-size:20px">2,0</tspan></tspan></text>
    <path
       d="M 117.03926,231.65292 L 117.03926,68.030305 L 280.66188,68.030306 L 280.66188,231.65292 L 117.03926,231.65292 z"
       transform="matrix(0.9167437,0,0,0.9167437,-4.7949968,279.22812)"
       id="path5093"
       style="fill:none;fill-opacity:1;fill-rule:evenodd;stroke:#000000;stroke-width:5.45408726;stroke-linecap:butt;stroke-linejoin:miter;stroke-miterlimit:4;stroke-dasharray:none;stroke-dashoffset:0;stroke-opacity:1" />
    <path
       d="M 117.03926,231.65292 L 117.03926,68.030305 L 280.66188,68.030306 L 280.66188,231.65292 L 117.03926,231.65292 z"
       transform="matrix(0.9167437,0,0,0.9167437,145.20499,279.22812)"
       id="path5099"
       style="fill:none;fill-opacity:1;fill-rule:evenodd;stroke:#000000;stroke-width:5.45408726;stroke-linecap:butt;stroke-linejoin:miter;stroke-miterlimit:4;stroke-dasharray:none;stroke-dashoffset:0;stroke-opacity:1" />
    <path
       d="M 117.03926,231.65292 L 117.03926,68.030305 L 280.66188,68.030306 L 280.66188,231.65292 L 117.03926,231.65292 z"
       transform="matrix(0.9167437,0,0,0.9167437,145.20499,279.22812)"
       id="path5101"
       style="fill:none;fill-opacity:1;fill-rule:evenodd;stroke:#000000;stroke-width:5.45408726;stroke-linecap:butt;stroke-linejoin:miter;stroke-miterlimit:4;stroke-dasharray:none;stroke-dashoffset:0;stroke-opacity:1" />
    <text
       x="328.23242"
       y="431.155"
       id="text5103"
       xml:space="preserve"
       style="font-size:40px;font-style:normal;font-weight:normal;text-align:center;text-anchor:middle;fill:#000000;fill-opacity:1;stroke:none;stroke-width:1px;stroke-linecap:butt;stroke-linejoin:miter;stroke-opacity:1;font-family:Bitstream Vera Sans"><tspan
         x="328.23242"
         y="431.155"
         id="tspan5105">C<tspan
   id="tspan5107"
   style="font-size:20px">2,1</tspan></tspan></text>
    <path
       d="M 117.03926,231.65292 L 117.03926,68.030305 L 280.66188,68.030306 L 280.66188,231.65292 L 117.03926,231.65292 z"
       transform="matrix(0.9167437,0,0,0.9167437,145.20499,279.22812)"
       id="path5109"
       style="fill:none;fill-opacity:1;fill-rule:evenodd;stroke:#000000;stroke-width:5.45408726;stroke-linecap:butt;stroke-linejoin:miter;stroke-miterlimit:4;stroke-dasharray:none;stroke-dashoffset:0;stroke-opacity:1" />
    <path
       d="M 117.03926,231.65292 L 117.03926,68.030305 L 280.66188,68.030306 L 280.66188,231.65292 L 117.03926,231.65292 z"
       transform="matrix(0.9167437,0,0,0.9167437,295.20499,279.22812)"
       id="path5115"
       style="fill:none;fill-opacity:1;fill-rule:evenodd;stroke:#000000;stroke-width:5.45408726;stroke-linecap:butt;stroke-linejoin:miter;stroke-miterlimit:4;stroke-dasharray:none;stroke-dashoffset:0;stroke-opacity:1" />
    <path
       d="M 117.03926,231.65292 L 117.03926,68.030305 L 280.66188,68.030306 L 280.66188,231.65292 L 117.03926,231.65292 z"
       transform="matrix(0.9167437,0,0,0.9167437,295.20499,279.22812)"
       id="path5117"
       style="fill:none;fill-opacity:1;fill-rule:evenodd;stroke:#000000;stroke-width:5.45408726;stroke-linecap:butt;stroke-linejoin:miter;stroke-miterlimit:4;stroke-dasharray:none;stroke-dashoffset:0;stroke-opacity:1" />
    <text
       x="478.23242"
       y="431.155"
       id="text5119"
       xml:space="preserve"
       style="font-size:40px;font-style:normal;font-weight:normal;text-align:center;text-anchor:middle;fill:#000000;fill-opacity:1;stroke:none;stroke-width:1px;stroke-linecap:butt;stroke-linejoin:miter;stroke-opacity:1;font-family:Bitstream Vera Sans"><tspan
         x="478.23242"
         y="431.155"
         id="tspan5121">C<tspan
   id="tspan5123"
   style="font-size:20px">2,2</tspan></tspan></text>
    <path
       d="M 117.03926,231.65292 L 117.03926,68.030305 L 280.66188,68.030306 L 280.66188,231.65292 L 117.03926,231.65292 z"
       transform="matrix(0.9167437,0,0,0.9167437,295.20499,279.22812)"
       id="path5125"
       style="fill:none;fill-opacity:1;fill-rule:evenodd;stroke:#000000;stroke-width:5.45408726;stroke-linecap:butt;stroke-linejoin:miter;stroke-miterlimit:4;stroke-dasharray:none;stroke-dashoffset:0;stroke-opacity:1" />
    <path
       d="M 117.03926,231.65292 L 117.03926,68.030305 L 280.66188,68.030306 L 280.66188,231.65292 L 117.03926,231.65292 z"
       transform="matrix(0.9167437,0,0,0.9167437,595.20499,279.22812)"
       id="path5131"
       style="fill:none;fill-opacity:1;fill-rule:evenodd;stroke:#000000;stroke-width:5.45408726;stroke-linecap:butt;stroke-linejoin:miter;stroke-miterlimit:4;stroke-dasharray:none;stroke-dashoffset:0;stroke-opacity:1" />
    <path
       d="M 117.03926,231.65292 L 117.03926,68.030305 L 280.66188,68.030306 L 280.66188,231.65292 L 117.03926,231.65292 z"
       transform="matrix(0.9167437,0,0,0.9167437,595.20499,279.22812)"
       id="path5133"
       style="fill:none;fill-opacity:1;fill-rule:evenodd;stroke:#000000;stroke-width:5.45408726;stroke-linecap:butt;stroke-linejoin:miter;stroke-miterlimit:4;stroke-dasharray:none;stroke-dashoffset:0;stroke-opacity:1" />
    <text
       x="778.23242"
       y="431.155"
       id="text5135"
       xml:space="preserve"
       style="font-size:40px;font-style:normal;font-weight:normal;text-align:center;text-anchor:middle;fill:#000000;fill-opacity:1;stroke:none;stroke-width:1px;stroke-linecap:butt;stroke-linejoin:miter;stroke-opacity:1;font-family:Bitstream Vera Sans"><tspan
         x="778.23242"
         y="431.155"
         id="tspan5137">C<tspan
   id="tspan5139"
   style="font-size:20px">2,4</tspan></tspan></text>
    <path
       d="M 117.03926,231.65292 L 117.03926,68.030305 L 280.66188,68.030306 L 280.66188,231.65292 L 117.03926,231.65292 z"
       transform="matrix(0.9167437,0,0,0.9167437,595.20499,279.22812)"
       id="path5141"
       style="fill:none;fill-opacity:1;fill-rule:evenodd;stroke:#000000;stroke-width:5.45408726;stroke-linecap:butt;stroke-linejoin:miter;stroke-miterlimit:4;stroke-dasharray:none;stroke-dashoffset:0;stroke-opacity:1" />
    <path
       d="M 117.03926,231.65292 L 117.03926,68.030305 L 280.66188,68.030306 L 280.66188,231.65292 L 117.03926,231.65292 z"
       transform="matrix(0.9167437,0,0,0.9167437,445.20499,279.22812)"
       id="path5147"
       style="fill:none;fill-opacity:1;fill-rule:evenodd;stroke:#000000;stroke-width:5.45408726;stroke-linecap:butt;stroke-linejoin:miter;stroke-miterlimit:4;stroke-dasharray:none;stroke-dashoffset:0;stroke-opacity:1" />
    <path
       d="M 117.03926,231.65292 L 117.03926,68.030305 L 280.66188,68.030306 L 280.66188,231.65292 L 117.03926,231.65292 z"
       transform="matrix(0.9167437,0,0,0.9167437,445.20499,279.22812)"
       id="path5149"
       style="fill:none;fill-opacity:1;fill-rule:evenodd;stroke:#000000;stroke-width:5.45408726;stroke-linecap:butt;stroke-linejoin:miter;stroke-miterlimit:4;stroke-dasharray:none;stroke-dashoffset:0;stroke-opacity:1" />
    <text
       x="628.23242"
       y="431.155"
       id="text5151"
       xml:space="preserve"
       style="font-size:40px;font-style:normal;font-weight:normal;text-align:center;text-anchor:middle;fill:#000000;fill-opacity:1;stroke:none;stroke-width:1px;stroke-linecap:butt;stroke-linejoin:miter;stroke-opacity:1;font-family:Bitstream Vera Sans"><tspan
         x="628.23242"
         y="431.155"
         id="tspan5153">C<tspan
   id="tspan5155"
   style="font-size:20px">2,3</tspan></tspan></text>
    <path
       d="M 117.03926,231.65292 L 117.03926,68.030305 L 280.66188,68.030306 L 280.66188,231.65292 L 117.03926,231.65292 z"
       transform="matrix(0.9167437,0,0,0.9167437,445.20499,279.22812)"
       id="path5157"
       style="fill:none;fill-opacity:1;fill-rule:evenodd;stroke:#000000;stroke-width:5.45408726;stroke-linecap:butt;stroke-linejoin:miter;stroke-miterlimit:4;stroke-dasharray:none;stroke-dashoffset:0;stroke-opacity:1" />
    <path
       d="M 117.03926,231.65292 L 117.03926,68.030305 L 280.66188,68.030306 L 280.66188,231.65292 L 117.03926,231.65292 z"
       transform="matrix(0.9167437,0,0,0.9167437,-4.7949968,129.22812)"
       id="path5165"
       style="fill:none;fill-opacity:1;fill-rule:evenodd;stroke:#000000;stroke-width:5.45408726;stroke-linecap:butt;stroke-linejoin:miter;stroke-miterlimit:4;stroke-dasharray:none;stroke-dashoffset:0;stroke-opacity:1" />
    <path
       d="M 117.03926,231.65292 L 117.03926,68.030305 L 280.66188,68.030306 L 280.66188,231.65292 L 117.03926,231.65292 z"
       transform="matrix(0.9167437,0,0,0.9167437,-4.7949968,129.22812)"
       id="path5167"
       style="fill:none;fill-opacity:1;fill-rule:evenodd;stroke:#000000;stroke-width:5.45408726;stroke-linecap:butt;stroke-linejoin:miter;stroke-miterlimit:4;stroke-dasharray:none;stroke-dashoffset:0;stroke-opacity:1" />
    <text
       x="178.23244"
       y="281.155"
       id="text5169"
       xml:space="preserve"
       style="font-size:40px;font-style:normal;font-weight:normal;text-align:center;text-anchor:middle;fill:#000000;fill-opacity:1;stroke:none;stroke-width:1px;stroke-linecap:butt;stroke-linejoin:miter;stroke-opacity:1;font-family:Bitstream Vera Sans"><tspan
         x="178.23244"
         y="281.155"
         id="tspan5171">C<tspan
   id="tspan5173"
   style="font-size:20px">1,0</tspan></tspan></text>
    <path
       d="M 117.03926,231.65292 L 117.03926,68.030305 L 280.66188,68.030306 L 280.66188,231.65292 L 117.03926,231.65292 z"
       transform="matrix(0.9167437,0,0,0.9167437,-4.7949968,129.22812)"
       id="path5175"
       style="fill:none;fill-opacity:1;fill-rule:evenodd;stroke:#000000;stroke-width:5.45408726;stroke-linecap:butt;stroke-linejoin:miter;stroke-miterlimit:4;stroke-dasharray:none;stroke-dashoffset:0;stroke-opacity:1" />
    <path
       d="M 117.03926,231.65292 L 117.03926,68.030305 L 280.66188,68.030306 L 280.66188,231.65292 L 117.03926,231.65292 z"
       transform="matrix(0.9167437,0,0,0.9167437,145.20499,129.22812)"
       id="path5181"
       style="fill:none;fill-opacity:1;fill-rule:evenodd;stroke:#000000;stroke-width:5.45408726;stroke-linecap:butt;stroke-linejoin:miter;stroke-miterlimit:4;stroke-dasharray:none;stroke-dashoffset:0;stroke-opacity:1" />
    <path
       d="M 117.03926,231.65292 L 117.03926,68.030305 L 280.66188,68.030306 L 280.66188,231.65292 L 117.03926,231.65292 z"
       transform="matrix(0.9167437,0,0,0.9167437,145.20499,129.22812)"
       id="path5183"
       style="fill:none;fill-opacity:1;fill-rule:evenodd;stroke:#000000;stroke-width:5.45408726;stroke-linecap:butt;stroke-linejoin:miter;stroke-miterlimit:4;stroke-dasharray:none;stroke-dashoffset:0;stroke-opacity:1" />
    <text
       x="328.23242"
       y="281.155"
       id="text5185"
       xml:space="preserve"
       style="font-size:40px;font-style:normal;font-weight:normal;text-align:center;text-anchor:middle;fill:#000000;fill-opacity:1;stroke:none;stroke-width:1px;stroke-linecap:butt;stroke-linejoin:miter;stroke-opacity:1;font-family:Bitstream Vera Sans"><tspan
         x="328.23242"
         y="281.155"
         id="tspan5187">C<tspan
   id="tspan5189"
   style="font-size:20px">1,1</tspan></tspan></text>
    <path
       d="M 117.03926,231.65292 L 117.03926,68.030305 L 280.66188,68.030306 L 280.66188,231.65292 L 117.03926,231.65292 z"
       transform="matrix(0.9167437,0,0,0.9167437,145.20499,129.22812)"
       id="path5191"
       style="fill:none;fill-opacity:1;fill-rule:evenodd;stroke:#000000;stroke-width:5.45408726;stroke-linecap:butt;stroke-linejoin:miter;stroke-miterlimit:4;stroke-dasharray:none;stroke-dashoffset:0;stroke-opacity:1" />
    <path
       d="M 117.03926,231.65292 L 117.03926,68.030305 L 280.66188,68.030306 L 280.66188,231.65292 L 117.03926,231.65292 z"
       transform="matrix(0.9167437,0,0,0.9167437,295.20499,129.22812)"
       id="path5197"
       style="fill:none;fill-opacity:1;fill-rule:evenodd;stroke:#000000;stroke-width:5.45408726;stroke-linecap:butt;stroke-linejoin:miter;stroke-miterlimit:4;stroke-dasharray:none;stroke-dashoffset:0;stroke-opacity:1" />
    <path
       d="M 117.03926,231.65292 L 117.03926,68.030305 L 280.66188,68.030306 L 280.66188,231.65292 L 117.03926,231.65292 z"
       transform="matrix(0.9167437,0,0,0.9167437,295.20499,129.22812)"
       id="path5199"
       style="fill:none;fill-opacity:1;fill-rule:evenodd;stroke:#000000;stroke-width:5.45408726;stroke-linecap:butt;stroke-linejoin:miter;stroke-miterlimit:4;stroke-dasharray:none;stroke-dashoffset:0;stroke-opacity:1" />
    <text
       x="478.23242"
       y="281.155"
       id="text5201"
       xml:space="preserve"
       style="font-size:40px;font-style:normal;font-weight:normal;text-align:center;text-anchor:middle;fill:#000000;fill-opacity:1;stroke:none;stroke-width:1px;stroke-linecap:butt;stroke-linejoin:miter;stroke-opacity:1;font-family:Bitstream Vera Sans"><tspan
         x="478.23242"
         y="281.155"
         id="tspan5203">C<tspan
   id="tspan5205"
   style="font-size:20px">1,2</tspan></tspan></text>
    <path
       d="M 117.03926,231.65292 L 117.03926,68.030305 L 280.66188,68.030306 L 280.66188,231.65292 L 117.03926,231.65292 z"
       transform="matrix(0.9167437,0,0,0.9167437,295.20499,129.22812)"
       id="path5207"
       style="fill:none;fill-opacity:1;fill-rule:evenodd;stroke:#000000;stroke-width:5.45408726;stroke-linecap:butt;stroke-linejoin:miter;stroke-miterlimit:4;stroke-dasharray:none;stroke-dashoffset:0;stroke-opacity:1" />
    <path
       d="M 117.03926,231.65292 L 117.03926,68.030305 L 280.66188,68.030306 L 280.66188,231.65292 L 117.03926,231.65292 z"
       transform="matrix(0.9167437,0,0,0.9167437,595.20499,129.22812)"
       id="path5213"
       style="fill:none;fill-opacity:1;fill-rule:evenodd;stroke:#000000;stroke-width:5.45408726;stroke-linecap:butt;stroke-linejoin:miter;stroke-miterlimit:4;stroke-dasharray:none;stroke-dashoffset:0;stroke-opacity:1" />
    <path
       d="M 117.03926,231.65292 L 117.03926,68.030305 L 280.66188,68.030306 L 280.66188,231.65292 L 117.03926,231.65292 z"
       transform="matrix(0.9167437,0,0,0.9167437,595.20499,129.22812)"
       id="path5215"
       style="fill:none;fill-opacity:1;fill-rule:evenodd;stroke:#000000;stroke-width:5.45408726;stroke-linecap:butt;stroke-linejoin:miter;stroke-miterlimit:4;stroke-dasharray:none;stroke-dashoffset:0;stroke-opacity:1" />
    <text
       x="778.23242"
       y="281.155"
       id="text5217"
       xml:space="preserve"
       style="font-size:40px;font-style:normal;font-weight:normal;text-align:center;text-anchor:middle;fill:#000000;fill-opacity:1;stroke:none;stroke-width:1px;stroke-linecap:butt;stroke-linejoin:miter;stroke-opacity:1;font-family:Bitstream Vera Sans"><tspan
         x="778.23242"
         y="281.155"
         id="tspan5219">C<tspan
   id="tspan5221"
   style="font-size:20px">1,4</tspan></tspan></text>
    <path
       d="M 117.03926,231.65292 L 117.03926,68.030305 L 280.66188,68.030306 L 280.66188,231.65292 L 117.03926,231.65292 z"
       transform="matrix(0.9167437,0,0,0.9167437,595.20499,129.22812)"
       id="path5223"
       style="fill:none;fill-opacity:1;fill-rule:evenodd;stroke:#000000;stroke-width:5.45408726;stroke-linecap:butt;stroke-linejoin:miter;stroke-miterlimit:4;stroke-dasharray:none;stroke-dashoffset:0;stroke-opacity:1" />
    <path
       d="M 117.03926,231.65292 L 117.03926,68.030305 L 280.66188,68.030306 L 280.66188,231.65292 L 117.03926,231.65292 z"
       transform="matrix(0.9167437,0,0,0.9167437,445.20499,129.22812)"
       id="path5229"
       style="fill:none;fill-opacity:1;fill-rule:evenodd;stroke:#000000;stroke-width:5.45408726;stroke-linecap:butt;stroke-linejoin:miter;stroke-miterlimit:4;stroke-dasharray:none;stroke-dashoffset:0;stroke-opacity:1" />
    <path
       d="M 117.03926,231.65292 L 117.03926,68.030305 L 280.66188,68.030306 L 280.66188,231.65292 L 117.03926,231.65292 z"
       transform="matrix(0.9167437,0,0,0.9167437,445.20499,129.22812)"
       id="path5231"
       style="fill:none;fill-opacity:1;fill-rule:evenodd;stroke:#000000;stroke-width:5.45408726;stroke-linecap:butt;stroke-linejoin:miter;stroke-miterlimit:4;stroke-dasharray:none;stroke-dashoffset:0;stroke-opacity:1" />
    <text
       x="628.23242"
       y="281.155"
       id="text5233"
       xml:space="preserve"
       style="font-size:40px;font-style:normal;font-weight:normal;text-align:center;text-anchor:middle;fill:#000000;fill-opacity:1;stroke:none;stroke-width:1px;stroke-linecap:butt;stroke-linejoin:miter;stroke-opacity:1;font-family:Bitstream Vera Sans"><tspan
         x="628.23242"
         y="281.155"
         id="tspan5235">C<tspan
   id="tspan5237"
   style="font-size:20px">1,3</tspan></tspan></text>
    <path
       d="M 117.03926,231.65292 L 117.03926,68.030305 L 280.66188,68.030306 L 280.66188,231.65292 L 117.03926,231.65292 z"
       transform="matrix(0.9167437,0,0,0.9167437,445.20499,129.22812)"
       id="path5239"
       style="fill:none;fill-opacity:1;fill-rule:evenodd;stroke:#000000;stroke-width:5.45408726;stroke-linecap:butt;stroke-linejoin:miter;stroke-miterlimit:4;stroke-dasharray:none;stroke-dashoffset:0;stroke-opacity:1" />
    <path
       d="M 117.03926,231.65292 L 117.03926,68.030305 L 280.66188,68.030306 L 280.66188,231.65292 L 117.03926,231.65292 z"
       transform="matrix(0.9167437,0,0,0.9167437,-4.7949968,-20.77188)"
       id="path5247"
       style="fill:none;fill-opacity:1;fill-rule:evenodd;stroke:#000000;stroke-width:5.45408726;stroke-linecap:butt;stroke-linejoin:miter;stroke-miterlimit:4;stroke-dasharray:none;stroke-dashoffset:0;stroke-opacity:1" />
    <path
       d="M 117.03926,231.65292 L 117.03926,68.030305 L 280.66188,68.030306 L 280.66188,231.65292 L 117.03926,231.65292 z"
       transform="matrix(0.9167437,0,0,0.9167437,-4.7949968,-20.77188)"
       id="path5249"
       style="fill:none;fill-opacity:1;fill-rule:evenodd;stroke:#000000;stroke-width:5.45408726;stroke-linecap:butt;stroke-linejoin:miter;stroke-miterlimit:4;stroke-dasharray:none;stroke-dashoffset:0;stroke-opacity:1" />
    <text
       x="178.23244"
       y="131.15501"
       id="text5251"
       xml:space="preserve"
       style="font-size:40px;font-style:normal;font-weight:normal;text-align:center;text-anchor:middle;fill:#000000;fill-opacity:1;stroke:none;stroke-width:1px;stroke-linecap:butt;stroke-linejoin:miter;stroke-opacity:1;font-family:Bitstream Vera Sans"><tspan
         x="178.23244"
         y="131.15501"
         id="tspan5743">C<tspan
   id="tspan5745"
   style="font-size:20px">0,0</tspan></tspan></text>
    <path
       d="M 117.03926,231.65292 L 117.03926,68.030305 L 280.66188,68.030306 L 280.66188,231.65292 L 117.03926,231.65292 z"
       transform="matrix(0.9167437,0,0,0.9167437,-4.7949968,-20.77188)"
       id="path5257"
       style="fill:none;fill-opacity:1;fill-rule:evenodd;stroke:#000000;stroke-width:5.45408726;stroke-linecap:butt;stroke-linejoin:miter;stroke-miterlimit:4;stroke-dasharray:none;stroke-dashoffset:0;stroke-opacity:1" />
    <path
       d="M 117.03926,231.65292 L 117.03926,68.030305 L 280.66188,68.030306 L 280.66188,231.65292 L 117.03926,231.65292 z"
       transform="matrix(0.9167437,0,0,0.9167437,145.20499,-20.77188)"
       id="path5263"
       style="fill:none;fill-opacity:1;fill-rule:evenodd;stroke:#000000;stroke-width:5.45408726;stroke-linecap:butt;stroke-linejoin:miter;stroke-miterlimit:4;stroke-dasharray:none;stroke-dashoffset:0;stroke-opacity:1" />
    <path
       d="M 117.03926,231.65292 L 117.03926,68.030305 L 280.66188,68.030306 L 280.66188,231.65292 L 117.03926,231.65292 z"
       transform="matrix(0.9167437,0,0,0.9167437,145.20499,-20.77188)"
       id="path5265"
       style="fill:none;fill-opacity:1;fill-rule:evenodd;stroke:#000000;stroke-width:5.45408726;stroke-linecap:butt;stroke-linejoin:miter;stroke-miterlimit:4;stroke-dasharray:none;stroke-dashoffset:0;stroke-opacity:1" />
    <text
       x="328.23242"
       y="131.15501"
       id="text5267"
       xml:space="preserve"
       style="font-size:40px;font-style:normal;font-weight:normal;text-align:center;text-anchor:middle;fill:#000000;fill-opacity:1;stroke:none;stroke-width:1px;stroke-linecap:butt;stroke-linejoin:miter;stroke-opacity:1;font-family:Bitstream Vera Sans"><tspan
         x="328.23242"
         y="131.15501"
         id="tspan5269">C<tspan
   id="tspan5271"
   style="font-size:20px">0,1</tspan></tspan></text>
    <path
       d="M 117.03926,231.65292 L 117.03926,68.030305 L 280.66188,68.030306 L 280.66188,231.65292 L 117.03926,231.65292 z"
       transform="matrix(0.9167437,0,0,0.9167437,145.20499,-20.77188)"
       id="path5273"
       style="fill:none;fill-opacity:1;fill-rule:evenodd;stroke:#000000;stroke-width:5.45408726;stroke-linecap:butt;stroke-linejoin:miter;stroke-miterlimit:4;stroke-dasharray:none;stroke-dashoffset:0;stroke-opacity:1" />
    <path
       d="M 117.03926,231.65292 L 117.03926,68.030305 L 280.66188,68.030306 L 280.66188,231.65292 L 117.03926,231.65292 z"
       transform="matrix(0.9167437,0,0,0.9167437,295.20499,-20.77188)"
       id="path5279"
       style="fill:none;fill-opacity:1;fill-rule:evenodd;stroke:#000000;stroke-width:5.45408726;stroke-linecap:butt;stroke-linejoin:miter;stroke-miterlimit:4;stroke-dasharray:none;stroke-dashoffset:0;stroke-opacity:1" />
    <path
       d="M 117.03926,231.65292 L 117.03926,68.030305 L 280.66188,68.030306 L 280.66188,231.65292 L 117.03926,231.65292 z"
       transform="matrix(0.9167437,0,0,0.9167437,295.20499,-20.77188)"
       id="path5281"
       style="fill:none;fill-opacity:1;fill-rule:evenodd;stroke:#000000;stroke-width:5.45408726;stroke-linecap:butt;stroke-linejoin:miter;stroke-miterlimit:4;stroke-dasharray:none;stroke-dashoffset:0;stroke-opacity:1" />
    <text
       x="478.23242"
       y="131.15501"
       id="text5283"
       xml:space="preserve"
       style="font-size:40px;font-style:normal;font-weight:normal;text-align:center;text-anchor:middle;fill:#000000;fill-opacity:1;stroke:none;stroke-width:1px;stroke-linecap:butt;stroke-linejoin:miter;stroke-opacity:1;font-family:Bitstream Vera Sans"><tspan
         x="478.23242"
         y="131.15501"
         id="tspan5285">C<tspan
   id="tspan5287"
   style="font-size:20px">0,2</tspan></tspan></text>
    <path
       d="M 117.03926,231.65292 L 117.03926,68.030305 L 280.66188,68.030306 L 280.66188,231.65292 L 117.03926,231.65292 z"
       transform="matrix(0.9167437,0,0,0.9167437,295.20499,-20.77188)"
       id="path5289"
       style="fill:none;fill-opacity:1;fill-rule:evenodd;stroke:#000000;stroke-width:5.45408726;stroke-linecap:butt;stroke-linejoin:miter;stroke-miterlimit:4;stroke-dasharray:none;stroke-dashoffset:0;stroke-opacity:1" />
    <path
       d="M 117.03926,231.65292 L 117.03926,68.030305 L 280.66188,68.030306 L 280.66188,231.65292 L 117.03926,231.65292 z"
       transform="matrix(0.9167437,0,0,0.9167437,595.20499,-20.77188)"
       id="path5295"
       style="fill:none;fill-opacity:1;fill-rule:evenodd;stroke:#000000;stroke-width:5.45408726;stroke-linecap:butt;stroke-linejoin:miter;stroke-miterlimit:4;stroke-dasharray:none;stroke-dashoffset:0;stroke-opacity:1" />
    <path
       d="M 117.03926,231.65292 L 117.03926,68.030305 L 280.66188,68.030306 L 280.66188,231.65292 L 117.03926,231.65292 z"
       transform="matrix(0.9167437,0,0,0.9167437,595.20499,-20.77188)"
       id="path5297"
       style="fill:none;fill-opacity:1;fill-rule:evenodd;stroke:#000000;stroke-width:5.45408726;stroke-linecap:butt;stroke-linejoin:miter;stroke-miterlimit:4;stroke-dasharray:none;stroke-dashoffset:0;stroke-opacity:1" />
    <text
       x="778.23242"
       y="131.15501"
       id="text5299"
       xml:space="preserve"
       style="font-size:40px;font-style:normal;font-weight:normal;text-align:center;text-anchor:middle;fill:#000000;fill-opacity:1;stroke:none;stroke-width:1px;stroke-linecap:butt;stroke-linejoin:miter;stroke-opacity:1;font-family:Bitstream Vera Sans"><tspan
         x="778.23242"
         y="131.15501"
         id="tspan5301">C<tspan
   id="tspan5303"
   style="font-size:20px">0,4</tspan></tspan></text>
    <path
       d="M 117.03926,231.65292 L 117.03926,68.030305 L 280.66188,68.030306 L 280.66188,231.65292 L 117.03926,231.65292 z"
       transform="matrix(0.9167437,0,0,0.9167437,595.20499,-20.77188)"
       id="path5305"
       style="fill:none;fill-opacity:1;fill-rule:evenodd;stroke:#000000;stroke-width:5.45408726;stroke-linecap:butt;stroke-linejoin:miter;stroke-miterlimit:4;stroke-dasharray:none;stroke-dashoffset:0;stroke-opacity:1" />
    <path
       d="M 117.03926,231.65292 L 117.03926,68.030305 L 280.66188,68.030306 L 280.66188,231.65292 L 117.03926,231.65292 z"
       transform="matrix(0.9167437,0,0,0.9167437,445.20499,-20.77188)"
       id="path5311"
       style="fill:none;fill-opacity:1;fill-rule:evenodd;stroke:#000000;stroke-width:5.45408726;stroke-linecap:butt;stroke-linejoin:miter;stroke-miterlimit:4;stroke-dasharray:none;stroke-dashoffset:0;stroke-opacity:1" />
    <path
       d="M 117.03926,231.65292 L 117.03926,68.030305 L 280.66188,68.030306 L 280.66188,231.65292 L 117.03926,231.65292 z"
       transform="matrix(0.9167437,0,0,0.9167437,445.20499,-20.77188)"
       id="path5313"
       style="fill:none;fill-opacity:1;fill-rule:evenodd;stroke:#000000;stroke-width:5.45408726;stroke-linecap:butt;stroke-linejoin:miter;stroke-miterlimit:4;stroke-dasharray:none;stroke-dashoffset:0;stroke-opacity:1" />
    <text
       x="628.23242"
       y="131.15501"
       id="text5315"
       xml:space="preserve"
       style="font-size:40px;font-style:normal;font-weight:normal;text-align:center;text-anchor:middle;fill:#000000;fill-opacity:1;stroke:none;stroke-width:1px;stroke-linecap:butt;stroke-linejoin:miter;stroke-opacity:1;font-family:Bitstream Vera Sans"><tspan
         x="628.23242"
         y="131.15501"
         id="tspan5317">C<tspan
   id="tspan5319"
   style="font-size:20px">0,3</tspan></tspan></text>
    <path
       d="M 117.03926,231.65292 L 117.03926,68.030305 L 280.66188,68.030306 L 280.66188,231.65292 L 117.03926,231.65292 z"
       transform="matrix(0.9167437,0,0,0.9167437,445.20499,-20.77188)"
       id="path5321"
       style="fill:none;fill-opacity:1;fill-rule:evenodd;stroke:#000000;stroke-width:5.45408726;stroke-linecap:butt;stroke-linejoin:miter;stroke-miterlimit:4;stroke-dasharray:none;stroke-dashoffset:0;stroke-opacity:1" />
  </g>
</svg>
