<?xml version="1.0" encoding="UTF-8" standalone="no"?>
<!-- Created with Inkscape (http://www.inkscape.org/) -->
<svg
   xmlns:svg="http://www.w3.org/2000/svg"
   xmlns="http://www.w3.org/2000/svg"
   version="1.0"
   width="744.09448"
   height="1052.3622"
   id="svg2">
  <defs
     id="defs4">
    <linearGradient
       id="linearGradient3683">
      <stop
         id="stop3685"
         style="stop-color:#949494;stop-opacity:1"
         offset="0" />
      <stop
         id="stop3687"
         style="stop-color:#ffffff;stop-opacity:0"
         offset="1" />
    </linearGradient>
    <marker
       refX="0"
       refY="0"
       orient="auto"
       id="TriangleInL"
       style="overflow:visible">
      <path
         d="M 5.77,0 L -2.88,5 L -2.88,-5 L 5.77,0 z"
         transform="scale(-0.8,-0.8)"
         id="path3768"
         style="fill-rule:evenodd;stroke:#000000;stroke-width:1pt;marker-start:none" />
    </marker>
    <marker
       refX="0"
       refY="0"
       orient="auto"
       id="TriangleOutL"
       style="overflow:visible">
      <path
         d="M 5.77,0 L -2.88,5 L -2.88,-5 L 5.77,0 z"
         transform="scale(0.8,0.8)"
         id="path3777"
         style="fill-rule:evenodd;stroke:#000000;stroke-width:1pt;marker-start:none" />
    </marker>
    <marker
       refX="0"
       refY="0"
       orient="auto"
       id="DotL"
       style="overflow:visible">
      <path
         d="M -2.5,-1 C -2.5,1.76 -4.74,4 -7.5,4 C -10.26,4 -12.5,1.76 -12.5,-1 C -12.5,-3.76 -10.26,-6 -7.5,-6 C -4.74,-6 -2.5,-3.76 -2.5,-1 z"
         transform="matrix(0.8,0,0,0.8,5.92,0.8)"
         id="path3696"
         style="fill-rule:evenodd;stroke:#000000;stroke-width:1pt;marker-start:none;marker-end:none" />
    </marker>
    <marker
       refX="0"
       refY="0"
       orient="auto"
       id="Arrow2Mend"
       style="overflow:visible">
      <path
         d="M 8.7185878,4.0337352 L -2.2072895,0.016013256 L 8.7185884,-4.0017078 C 6.97309,-1.6296469 6.9831476,1.6157441 8.7185878,4.0337352 z"
         transform="scale(-0.6,-0.6)"
         id="path3661"
         style="font-size:12px;fill-rule:evenodd;stroke-width:0.625;stroke-linejoin:round" />
    </marker>
    <marker
       refX="0"
       refY="0"
       orient="auto"
       id="Arrow2Lend"
       style="overflow:visible">
      <path
         d="M 8.7185878,4.0337352 L -2.2072895,0.016013256 L 8.7185884,-4.0017078 C 6.97309,-1.6296469 6.9831476,1.6157441 8.7185878,4.0337352 z"
         transform="matrix(-1.1,0,0,-1.1,-1.1,0)"
         id="path3655"
         style="font-size:12px;fill-rule:evenodd;stroke-width:0.625;stroke-linejoin:round" />
    </marker>
    <marker
       refX="0"
       refY="0"
       orient="auto"
       id="Tail"
       style="overflow:visible">
      <g
         transform="scale(-1.2,-1.2)"
         id="g3670">
        <path
           d="M -3.8048674,-3.9585227 L 0.54352094,0"
           id="path3672"
           style="fill:none;fill-rule:evenodd;stroke:#000000;stroke-width:0.80000001;stroke-linecap:round;marker-start:none;marker-end:none" />
        <path
           d="M -1.2866832,-3.9585227 L 3.0617053,0"
           id="path3674"
           style="fill:none;fill-rule:evenodd;stroke:#000000;stroke-width:0.80000001;stroke-linecap:round;marker-start:none;marker-end:none" />
        <path
           d="M 1.3053582,-3.9585227 L 5.6537466,0"
           id="path3676"
           style="fill:none;fill-rule:evenodd;stroke:#000000;stroke-width:0.80000001;stroke-linecap:round;marker-start:none;marker-end:none" />
        <path
           d="M -3.8048674,4.1775838 L 0.54352094,0.21974226"
           id="path3678"
           style="fill:none;fill-rule:evenodd;stroke:#000000;stroke-width:0.80000001;stroke-linecap:round;marker-start:none;marker-end:none" />
        <path
           d="M -1.2866832,4.1775838 L 3.0617053,0.21974226"
           id="path3680"
           style="fill:none;fill-rule:evenodd;stroke:#000000;stroke-width:0.80000001;stroke-linecap:round;marker-start:none;marker-end:none" />
        <path
           d="M 1.3053582,4.1775838 L 5.6537466,0.21974226"
           id="path3682"
           style="fill:none;fill-rule:evenodd;stroke:#000000;stroke-width:0.80000001;stroke-linecap:round;marker-start:none;marker-end:none" />
      </g>
    </marker>
    <marker
       refX="0"
       refY="0"
       orient="auto"
       id="Arrow1Lend"
       style="overflow:visible">
      <path
         d="M 0,0 L 5,-5 L -12.5,0 L 5,5 L 0,0 z"
         transform="matrix(-0.8,0,0,-0.8,-10,0)"
         id="path3637"
         style="fill-rule:evenodd;stroke:#000000;stroke-width:1pt;marker-start:none" />
    </marker>
  </defs>
  <g
     id="layer1">
    <g
       transform="matrix(0.6069256,0,0,0.6069256,107.10898,256.46045)"
       id="g10564">
      <g
         transform="translate(-8.5714286,87.142857)"
         id="g10566">
        <path
           d="M 238.33111,345.75635 C 257.56012,334.80531 275.87896,324.40705 279.03963,322.64911 L 284.78628,319.45286 L 338.0826,319.45286 L 391.37893,319.45286 L 369.3947,331.93668 C 357.30335,338.8028 339.01043,349.20106 328.74376,355.04393 L 310.07711,365.66733 L 256.72317,365.66733 L 203.36927,365.66733 L 238.33111,345.75635 z"
           id="path10568"
           style="fill:#999999;fill-opacity:1;stroke:none;stroke-width:0.45456862;stroke-miterlimit:4;stroke-dasharray:none;stroke-dashoffset:0;stroke-opacity:1" />
        <path
           d="M 233.64177,358.08443 L 233.67492,348.48957 L 254.73642,335.97529 C 266.32023,329.09244 277.34365,322.55846 279.23288,321.45535 L 282.66786,319.44967 L 335.65342,319.48333 L 388.63896,319.51698 L 384.54914,321.95027 C 382.29973,323.28858 370.80719,330.1229 359.01018,337.13765 C 347.21315,344.1524 330.83942,353.89393 322.62408,358.78551 L 307.68711,367.6793 L 270.64786,367.6793 L 233.6086,367.6793 L 233.64177,358.08443 z"
           id="path10570"
           style="fill:#999999;fill-opacity:1;stroke:#999999;stroke-width:0.11841249;stroke-miterlimit:4;stroke-dasharray:none;stroke-dashoffset:0;stroke-opacity:1" />
        <rect
           width="106.81792"
           height="131.31982"
           x="203.69934"
           y="365.7175"
           id="rect10572"
           style="fill:#999999;fill-opacity:1;fill-rule:evenodd;stroke:#000000;stroke-width:0.83962035px;stroke-linecap:butt;stroke-linejoin:miter;stroke-opacity:1" />
        <path
           d="M 257.28372,365.57173 C 257.28372,495.86384 257.28372,496.92313 257.28372,496.92313"
           id="path10574"
           style="fill:none;fill-rule:evenodd;stroke:#000000;stroke-width:0.83484888px;stroke-linecap:butt;stroke-linejoin:miter;stroke-opacity:1" />
        <path
           d="M 203.06943,365.50812 C 284.1944,318.6706 284.63978,318.79383 284.63978,318.79383"
           id="path10576"
           style="fill:none;fill-rule:evenodd;stroke:#000000;stroke-width:1.00615406px;stroke-linecap:butt;stroke-linejoin:miter;stroke-opacity:1" />
        <path
           d="M 311.15877,430.78774 L 311.15877,365.34776 L 331.87076,353.40125 C 373.579,329.34427 389.70056,320.08921 390.32176,319.84574 C 390.828,319.6473 390.95711,332.91033 390.95711,385.12817 L 390.95711,450.65962 L 388.28869,452.11234 C 386.82106,452.91132 368.96697,463.16413 348.61296,474.89636 C 328.25893,486.62858 311.50511,496.22769 311.38221,496.22769 C 311.25933,496.22769 311.15877,466.77971 311.15877,430.78773 L 311.15877,430.78774 z"
           id="path10578"
           style="fill:#999999;fill-opacity:1;stroke:#999999;stroke-width:0.45830086;stroke-miterlimit:4;stroke-dasharray:none;stroke-dashoffset:0;stroke-opacity:1" />
        <path
           d="M 309.64379,365.79692 C 391.26496,318.67292 391.71306,318.79691 391.71306,318.79691"
           id="path10580"
           style="fill:none;fill-rule:evenodd;stroke:#000000;stroke-width:1.01230812px;stroke-linecap:butt;stroke-linejoin:miter;stroke-opacity:1" />
        <path
           d="M 310.14271,497.07632 C 390.77148,450.52528 391.21414,450.64775 391.21414,450.64775"
           id="path10582"
           style="fill:none;fill-rule:evenodd;stroke:#000000;stroke-width:1px;stroke-linecap:butt;stroke-linejoin:miter;stroke-opacity:1" />
        <path
           d="M 284.14287,318.87878 C 391.28573,318.87878 391.64287,318.87878 391.64287,318.87878"
           id="path10584"
           style="fill:none;fill-rule:evenodd;stroke:#000000;stroke-width:0.89999998;stroke-linecap:butt;stroke-linejoin:miter;stroke-miterlimit:4;stroke-dasharray:none;stroke-opacity:1" />
        <path
           d="M 391.12893,318.79536 C 391.12893,449.70097 391.12893,450.76525 391.12893,450.76525"
           id="path10586"
           style="fill:none;fill-rule:evenodd;stroke:#000000;stroke-width:0.83681208px;stroke-linecap:butt;stroke-linejoin:miter;stroke-opacity:1" />
      </g>
      <g
         transform="matrix(1.6208173,0,0,1.4383491,16.320392,-3.3140145e-2)"
         id="g10588">
        <rect
           width="29.406229"
           height="9.4390364"
           x="112.89534"
           y="318.89517"
           id="rect10590"
           style="fill:#000000;fill-opacity:1;fill-rule:evenodd;stroke:#ffffff;stroke-width:0.50825578;stroke-linecap:butt;stroke-linejoin:miter;stroke-miterlimit:4;stroke-dasharray:none;stroke-opacity:1" />
        <rect
           width="29.406229"
           height="9.4390364"
           x="112.89534"
           y="330.33093"
           id="rect10592"
           style="fill:#000000;fill-opacity:1;fill-rule:evenodd;stroke:#ffffff;stroke-width:0.50825578;stroke-linecap:butt;stroke-linejoin:miter;stroke-miterlimit:4;stroke-dasharray:none;stroke-opacity:1" />
        <rect
           width="29.406229"
           height="9.4390364"
           x="112.89534"
           y="341.76669"
           id="rect10594"
           style="fill:#000000;fill-opacity:1;fill-rule:evenodd;stroke:#ffffff;stroke-width:0.50825578;stroke-linecap:butt;stroke-linejoin:miter;stroke-miterlimit:4;stroke-dasharray:none;stroke-opacity:1" />
        <rect
           width="11.072716"
           height="45.924541"
           x="130.82951"
           y="357.19589"
           id="rect10596"
           style="fill:#000000;fill-opacity:1;fill-rule:evenodd;stroke:#ffffff;stroke-width:0.50825578;stroke-linecap:butt;stroke-linejoin:miter;stroke-miterlimit:4;stroke-dasharray:none;stroke-opacity:1" />
        <g
           transform="matrix(0.2541279,0,0,0.2541279,100.33416,244.34367)"
           id="g10598">
          <path
             d="M 97.142856,522.00507 A 15.357142,15.357142 0 1 1 66.428571,522.00507 A 15.357142,15.357142 0 1 1 97.142856,522.00507 z"
             id="path10600"
             style="fill:#000000;fill-opacity:1;stroke:#ffffff;stroke-width:2;stroke-miterlimit:4;stroke-dasharray:none;stroke-dashoffset:0;stroke-opacity:1" />
          <path
             d="M 87.857142,567.00507 A 6.0714288,6.0714288 0 1 1 75.714284,567.00507 A 6.0714288,6.0714288 0 1 1 87.857142,567.00507 z"
             transform="translate(0,-10)"
             id="path10602"
             style="fill:#000000;fill-opacity:1;stroke:#ffffff;stroke-width:2;stroke-miterlimit:4;stroke-dasharray:none;stroke-dashoffset:0;stroke-opacity:1" />
        </g>
      </g>
      <g
         transform="matrix(-1.6208173,0,0,-1.4383491,481.94796,1038.4774)"
         id="g10604">
        <rect
           width="29.406229"
           height="9.4390364"
           x="112.89534"
           y="318.89517"
           id="rect10606"
           style="fill:#000000;fill-opacity:1;fill-rule:evenodd;stroke:#ffffff;stroke-width:0.50825578;stroke-linecap:butt;stroke-linejoin:miter;stroke-miterlimit:4;stroke-dasharray:none;stroke-opacity:1" />
        <rect
           width="29.406229"
           height="9.4390364"
           x="112.89534"
           y="330.33093"
           id="rect10608"
           style="fill:#000000;fill-opacity:1;fill-rule:evenodd;stroke:#ffffff;stroke-width:0.50825578;stroke-linecap:butt;stroke-linejoin:miter;stroke-miterlimit:4;stroke-dasharray:none;stroke-opacity:1" />
        <rect
           width="29.406229"
           height="9.4390364"
           x="112.89534"
           y="341.76669"
           id="rect10610"
           style="fill:#000000;fill-opacity:1;fill-rule:evenodd;stroke:#ffffff;stroke-width:0.50825578;stroke-linecap:butt;stroke-linejoin:miter;stroke-miterlimit:4;stroke-dasharray:none;stroke-opacity:1" />
        <rect
           width="11.072716"
           height="45.924541"
           x="130.82951"
           y="357.19589"
           id="rect10612"
           style="fill:#000000;fill-opacity:1;fill-rule:evenodd;stroke:#ffffff;stroke-width:0.50825578;stroke-linecap:butt;stroke-linejoin:miter;stroke-miterlimit:4;stroke-dasharray:none;stroke-opacity:1" />
        <g
           transform="matrix(0.2541279,0,0,0.2541279,100.33416,244.34367)"
           id="g10614">
          <path
             d="M 97.142856,522.00507 A 15.357142,15.357142 0 1 1 66.428571,522.00507 A 15.357142,15.357142 0 1 1 97.142856,522.00507 z"
             id="path10616"
             style="fill:#000000;fill-opacity:1;stroke:#ffffff;stroke-width:2;stroke-miterlimit:4;stroke-dasharray:none;stroke-dashoffset:0;stroke-opacity:1" />
          <path
             d="M 87.857142,567.00507 A 6.0714288,6.0714288 0 1 1 75.714284,567.00507 A 6.0714288,6.0714288 0 1 1 87.857142,567.00507 z"
             transform="translate(0,-10)"
             id="path10618"
             style="fill:#000000;fill-opacity:1;stroke:#ffffff;stroke-width:2;stroke-miterlimit:4;stroke-dasharray:none;stroke-dashoffset:0;stroke-opacity:1" />
        </g>
      </g>
    </g>
    <path
       d="M 456.75275,869.02673 A 136.39145,136.39145 0 1 1 183.96985,869.02673 A 136.39145,136.39145 0 1 1 456.75275,869.02673 z"
       transform="matrix(0.9086511,0,0,0.9086511,64.789868,-15.916502)"
       id="path3681"
       style="fill:none;fill-opacity:1;stroke:#000000;stroke-width:2.20106483;stroke-miterlimit:4;stroke-dasharray:none;stroke-dashoffset:0;stroke-opacity:0.96078431" />
    <g
       transform="matrix(1.650302,0,0,1.650302,200.15131,-622.51964)"
       id="g10550">
      <path
         d="M 132.85714,59.505039 A 38.57143,38.57143 0 1 1 55.714283,59.505039 A 38.57143,38.57143 0 1 1 132.85714,59.505039 z"
         transform="matrix(0.1853894,0,0,0.1853894,76.917801,818.86541)"
         id="path10552"
         style="fill:none;fill-opacity:1;fill-rule:evenodd;stroke:#000000;stroke-width:10.7881031;stroke-miterlimit:4;stroke-dasharray:none;stroke-dashoffset:0;stroke-opacity:1" />
      <path
         d="M 94.397373,838.15537 C 94.397373,860.04262 94.397373,860.04262 94.397373,860.04262 L 94.397373,860.04262"
         id="path10554"
         style="fill:none;fill-rule:evenodd;stroke:#000000;stroke-width:2;stroke-linecap:round;stroke-linejoin:miter;stroke-miterlimit:4;stroke-dasharray:none;stroke-opacity:1" />
      <path
         d="M 94.511385,840.69767 L 104.81132,849.87398"
         id="path10556"
         style="fill:none;fill-rule:evenodd;stroke:#000000;stroke-width:2;stroke-linecap:round;stroke-linejoin:miter;stroke-miterlimit:4;stroke-dasharray:none;stroke-opacity:1" />
      <path
         d="M 94.676665,860.18617 L 104.9766,869.36248"
         id="path10558"
         style="fill:none;fill-rule:evenodd;stroke:#000000;stroke-width:2;stroke-linecap:round;stroke-linejoin:miter;stroke-miterlimit:4;stroke-dasharray:none;stroke-opacity:1" />
      <path
         d="M 94.224016,840.69767 L 83.924078,849.87398"
         id="path10560"
         style="fill:none;fill-rule:evenodd;stroke:#000000;stroke-width:2;stroke-linecap:round;stroke-linejoin:miter;stroke-miterlimit:4;stroke-dasharray:none;stroke-opacity:1" />
      <path
         d="M 94.058736,860.18617 L 83.758799,869.36248"
         id="path10562"
         style="fill:none;fill-rule:evenodd;stroke:#000000;stroke-width:2;stroke-linecap:round;stroke-linejoin:miter;stroke-miterlimit:4;stroke-dasharray:none;stroke-opacity:1" />
    </g>
    <text
       x="355.77621"
       y="831.88373"
       id="text10652"
       xml:space="preserve"
       style="font-size:60.04455185px;font-style:normal;font-weight:normal;text-align:center;text-anchor:middle;fill:#000000;fill-opacity:1;stroke:none;stroke-width:1px;stroke-linecap:butt;stroke-linejoin:miter;stroke-opacity:1;font-family:Bitstream Vera Sans"><tspan
         x="355.77621"
         y="831.88373"
         id="tspan10654"
         style="font-size:23.10422707px;text-align:center;text-anchor:middle">A</tspan></text>
    <text
       x="217.11145"
       y="635.00024"
       id="text10660"
       xml:space="preserve"
       style="font-size:60.04455185px;font-style:normal;font-weight:normal;fill:#000000;fill-opacity:1;stroke:none;stroke-width:1px;stroke-linecap:butt;stroke-linejoin:miter;stroke-opacity:1;font-family:Bitstream Vera Sans"><tspan
         x="217.11145"
         y="635.00024"
         id="tspan10662"
         style="font-size:23.10422707px">Servidor 1</tspan></text>
    <g
       transform="matrix(0.6069256,0,0,0.6069256,341.45186,256.46045)"
       id="g10676">
      <g
         transform="translate(-8.5714286,87.142857)"
         id="g10678">
        <path
           d="M 238.33111,345.75635 C 257.56012,334.80531 275.87896,324.40705 279.03963,322.64911 L 284.78628,319.45286 L 338.0826,319.45286 L 391.37893,319.45286 L 369.3947,331.93668 C 357.30335,338.8028 339.01043,349.20106 328.74376,355.04393 L 310.07711,365.66733 L 256.72317,365.66733 L 203.36927,365.66733 L 238.33111,345.75635 z"
           id="path10680"
           style="fill:#999999;fill-opacity:1;stroke:none;stroke-width:0.45456862;stroke-miterlimit:4;stroke-dasharray:none;stroke-dashoffset:0;stroke-opacity:1" />
        <path
           d="M 233.64177,358.08443 L 233.67492,348.48957 L 254.73642,335.97529 C 266.32023,329.09244 277.34365,322.55846 279.23288,321.45535 L 282.66786,319.44967 L 335.65342,319.48333 L 388.63896,319.51698 L 384.54914,321.95027 C 382.29973,323.28858 370.80719,330.1229 359.01018,337.13765 C 347.21315,344.1524 330.83942,353.89393 322.62408,358.78551 L 307.68711,367.6793 L 270.64786,367.6793 L 233.6086,367.6793 L 233.64177,358.08443 z"
           id="path10682"
           style="fill:#999999;fill-opacity:1;stroke:#999999;stroke-width:0.11841249;stroke-miterlimit:4;stroke-dasharray:none;stroke-dashoffset:0;stroke-opacity:1" />
        <rect
           width="106.81792"
           height="131.31982"
           x="203.69934"
           y="365.7175"
           id="rect10684"
           style="fill:#999999;fill-opacity:1;fill-rule:evenodd;stroke:#000000;stroke-width:0.83962035px;stroke-linecap:butt;stroke-linejoin:miter;stroke-opacity:1" />
        <path
           d="M 257.28372,365.57173 C 257.28372,495.86384 257.28372,496.92313 257.28372,496.92313"
           id="path10686"
           style="fill:none;fill-rule:evenodd;stroke:#000000;stroke-width:0.83484888px;stroke-linecap:butt;stroke-linejoin:miter;stroke-opacity:1" />
        <path
           d="M 203.06943,365.50812 C 284.1944,318.6706 284.63978,318.79383 284.63978,318.79383"
           id="path10688"
           style="fill:none;fill-rule:evenodd;stroke:#000000;stroke-width:1.00615406px;stroke-linecap:butt;stroke-linejoin:miter;stroke-opacity:1" />
        <path
           d="M 311.15877,430.78774 L 311.15877,365.34776 L 331.87076,353.40125 C 373.579,329.34427 389.70056,320.08921 390.32176,319.84574 C 390.828,319.6473 390.95711,332.91033 390.95711,385.12817 L 390.95711,450.65962 L 388.28869,452.11234 C 386.82106,452.91132 368.96697,463.16413 348.61296,474.89636 C 328.25893,486.62858 311.50511,496.22769 311.38221,496.22769 C 311.25933,496.22769 311.15877,466.77971 311.15877,430.78773 L 311.15877,430.78774 z"
           id="path10690"
           style="fill:#999999;fill-opacity:1;stroke:#999999;stroke-width:0.45830086;stroke-miterlimit:4;stroke-dasharray:none;stroke-dashoffset:0;stroke-opacity:1" />
        <path
           d="M 309.64379,365.79692 C 391.26496,318.67292 391.71306,318.79691 391.71306,318.79691"
           id="path10692"
           style="fill:none;fill-rule:evenodd;stroke:#000000;stroke-width:1.01230812px;stroke-linecap:butt;stroke-linejoin:miter;stroke-opacity:1" />
        <path
           d="M 310.14271,497.07632 C 390.77148,450.52528 391.21414,450.64775 391.21414,450.64775"
           id="path10694"
           style="fill:none;fill-rule:evenodd;stroke:#000000;stroke-width:1px;stroke-linecap:butt;stroke-linejoin:miter;stroke-opacity:1" />
        <path
           d="M 284.14287,318.87878 C 391.28573,318.87878 391.64287,318.87878 391.64287,318.87878"
           id="path10696"
           style="fill:none;fill-rule:evenodd;stroke:#000000;stroke-width:0.89999998;stroke-linecap:butt;stroke-linejoin:miter;stroke-miterlimit:4;stroke-dasharray:none;stroke-opacity:1" />
        <path
           d="M 391.12893,318.79536 C 391.12893,449.70097 391.12893,450.76525 391.12893,450.76525"
           id="path10698"
           style="fill:none;fill-rule:evenodd;stroke:#000000;stroke-width:0.83681208px;stroke-linecap:butt;stroke-linejoin:miter;stroke-opacity:1" />
      </g>
      <g
         transform="matrix(1.6208173,0,0,1.4383491,16.320392,-3.3140145e-2)"
         id="g10700">
        <rect
           width="29.406229"
           height="9.4390364"
           x="112.89534"
           y="318.89517"
           id="rect10702"
           style="fill:#000000;fill-opacity:1;fill-rule:evenodd;stroke:#ffffff;stroke-width:0.50825578;stroke-linecap:butt;stroke-linejoin:miter;stroke-miterlimit:4;stroke-dasharray:none;stroke-opacity:1" />
        <rect
           width="29.406229"
           height="9.4390364"
           x="112.89534"
           y="330.33093"
           id="rect10704"
           style="fill:#000000;fill-opacity:1;fill-rule:evenodd;stroke:#ffffff;stroke-width:0.50825578;stroke-linecap:butt;stroke-linejoin:miter;stroke-miterlimit:4;stroke-dasharray:none;stroke-opacity:1" />
        <rect
           width="29.406229"
           height="9.4390364"
           x="112.89534"
           y="341.76669"
           id="rect10706"
           style="fill:#000000;fill-opacity:1;fill-rule:evenodd;stroke:#ffffff;stroke-width:0.50825578;stroke-linecap:butt;stroke-linejoin:miter;stroke-miterlimit:4;stroke-dasharray:none;stroke-opacity:1" />
        <rect
           width="11.072716"
           height="45.924541"
           x="130.82951"
           y="357.19589"
           id="rect10708"
           style="fill:#000000;fill-opacity:1;fill-rule:evenodd;stroke:#ffffff;stroke-width:0.50825578;stroke-linecap:butt;stroke-linejoin:miter;stroke-miterlimit:4;stroke-dasharray:none;stroke-opacity:1" />
        <g
           transform="matrix(0.2541279,0,0,0.2541279,100.33416,244.34367)"
           id="g10710">
          <path
             d="M 97.142856,522.00507 A 15.357142,15.357142 0 1 1 66.428571,522.00507 A 15.357142,15.357142 0 1 1 97.142856,522.00507 z"
             id="path10712"
             style="fill:#000000;fill-opacity:1;stroke:#ffffff;stroke-width:2;stroke-miterlimit:4;stroke-dasharray:none;stroke-dashoffset:0;stroke-opacity:1" />
          <path
             d="M 87.857142,567.00507 A 6.0714288,6.0714288 0 1 1 75.714284,567.00507 A 6.0714288,6.0714288 0 1 1 87.857142,567.00507 z"
             transform="translate(0,-10)"
             id="path10714"
             style="fill:#000000;fill-opacity:1;stroke:#ffffff;stroke-width:2;stroke-miterlimit:4;stroke-dasharray:none;stroke-dashoffset:0;stroke-opacity:1" />
        </g>
      </g>
      <g
         transform="matrix(-1.6208173,0,0,-1.4383491,481.94796,1038.4774)"
         id="g10716">
        <rect
           width="29.406229"
           height="9.4390364"
           x="112.89534"
           y="318.89517"
           id="rect10718"
           style="fill:#000000;fill-opacity:1;fill-rule:evenodd;stroke:#ffffff;stroke-width:0.50825578;stroke-linecap:butt;stroke-linejoin:miter;stroke-miterlimit:4;stroke-dasharray:none;stroke-opacity:1" />
        <rect
           width="29.406229"
           height="9.4390364"
           x="112.89534"
           y="330.33093"
           id="rect10720"
           style="fill:#000000;fill-opacity:1;fill-rule:evenodd;stroke:#ffffff;stroke-width:0.50825578;stroke-linecap:butt;stroke-linejoin:miter;stroke-miterlimit:4;stroke-dasharray:none;stroke-opacity:1" />
        <rect
           width="29.406229"
           height="9.4390364"
           x="112.89534"
           y="341.76669"
           id="rect10722"
           style="fill:#000000;fill-opacity:1;fill-rule:evenodd;stroke:#ffffff;stroke-width:0.50825578;stroke-linecap:butt;stroke-linejoin:miter;stroke-miterlimit:4;stroke-dasharray:none;stroke-opacity:1" />
        <rect
           width="11.072716"
           height="45.924541"
           x="130.82951"
           y="357.19589"
           id="rect10724"
           style="fill:#000000;fill-opacity:1;fill-rule:evenodd;stroke:#ffffff;stroke-width:0.50825578;stroke-linecap:butt;stroke-linejoin:miter;stroke-miterlimit:4;stroke-dasharray:none;stroke-opacity:1" />
        <g
           transform="matrix(0.2541279,0,0,0.2541279,100.33416,244.34367)"
           id="g10726">
          <path
             d="M 97.142856,522.00507 A 15.357142,15.357142 0 1 1 66.428571,522.00507 A 15.357142,15.357142 0 1 1 97.142856,522.00507 z"
             id="path10728"
             style="fill:#000000;fill-opacity:1;stroke:#ffffff;stroke-width:2;stroke-miterlimit:4;stroke-dasharray:none;stroke-dashoffset:0;stroke-opacity:1" />
          <path
             d="M 87.857142,567.00507 A 6.0714288,6.0714288 0 1 1 75.714284,567.00507 A 6.0714288,6.0714288 0 1 1 87.857142,567.00507 z"
             transform="translate(0,-10)"
             id="path10730"
             style="fill:#000000;fill-opacity:1;stroke:#ffffff;stroke-width:2;stroke-miterlimit:4;stroke-dasharray:none;stroke-dashoffset:0;stroke-opacity:1" />
        </g>
      </g>
    </g>
    <text
       x="448.15372"
       y="635.00024"
       id="text10732"
       xml:space="preserve"
       style="font-size:60.04455185px;font-style:normal;font-weight:normal;fill:#000000;fill-opacity:1;stroke:none;stroke-width:1px;stroke-linecap:butt;stroke-linejoin:miter;stroke-opacity:1;font-family:Bitstream Vera Sans"><tspan
         x="448.15372"
         y="635.00024"
         id="tspan10734"
         style="font-size:23.10422707px">Servidor 2</tspan><tspan
         x="448.15372"
         y="663.88055"
         id="tspan10736"
         style="font-size:19.8036232px" /></text>
    <path
       d="M 345.6012,584.87863 L 445.21924,584.87863"
       id="path10738"
       style="fill:none;fill-rule:evenodd;stroke:#000000;stroke-width:2;stroke-linecap:butt;stroke-linejoin:miter;marker-end:url(#TriangleOutL);stroke-miterlimit:4;stroke-dasharray:none;stroke-opacity:1" />
    <path
       d="M 401.06758,348.06435 C 395.52019,387.7943 408.33928,401.20428 410.49657,417.93037 C 422.62243,438.06059 413.84775,473.49423 407.81551,500.03653 C 402.24205,529.60971 402.04184,549.16676 403.52603,580.56315 C 402.16789,604.77891 398.96857,628.56487 409.34777,649.59674 C 415.74935,680.67681 414.78234,710.24828 407.28863,737.59779 C 400.31408,760.41061 390.40764,777.46042 399.32869,799.58775 C 403.65955,819.29222 390.63078,853.30112 410.09853,861.39746 C 416.77731,885.57901 409.56638,894.81035 410.92,919.77734"
       id="path3647"
       style="fill:none;fill-rule:evenodd;stroke:#000000;stroke-width:5.35373878;stroke-linecap:butt;stroke-linejoin:miter;stroke-miterlimit:4;stroke-dasharray:none;stroke-opacity:1" />
    <text
       x="197.88087"
       y="378.77536"
       id="text3652"
       xml:space="preserve"
       style="font-size:30.63118362px;font-style:normal;font-weight:normal;fill:#000000;fill-opacity:1;stroke:none;stroke-width:1px;stroke-linecap:butt;stroke-linejoin:miter;stroke-opacity:1;font-family:Bitstream Vera Sans"><tspan
         x="197.88087"
         y="378.77536"
         id="tspan3654">Região 1</tspan></text>
    <text
       x="477.88086"
       y="378.77536"
       id="text3656"
       xml:space="preserve"
       style="font-size:30.63118362px;font-style:normal;font-weight:normal;fill:#000000;fill-opacity:1;stroke:none;stroke-width:1px;stroke-linecap:butt;stroke-linejoin:miter;stroke-opacity:1;font-family:Bitstream Vera Sans"><tspan
         x="477.88086"
         y="378.77536"
         id="tspan3658">Região 2</tspan></text>
    <path
       d="M 456.75275,869.02673 A 136.39145,136.39145 0 1 1 183.96985,869.02673 A 136.39145,136.39145 0 1 1 456.75275,869.02673 z"
       transform="matrix(0.9086511,0,0,0.9086511,156.78987,-15.916502)"
       id="path3705"
       style="fill:none;fill-opacity:1;stroke:#000000;stroke-width:2.20106483;stroke-miterlimit:4;stroke-dasharray:none;stroke-dashoffset:0;stroke-opacity:0.96078431" />
    <g
       transform="matrix(1.650302,0,0,1.650302,292.15131,-622.51964)"
       id="g3707">
      <path
         d="M 132.85714,59.505039 A 38.57143,38.57143 0 1 1 55.714283,59.505039 A 38.57143,38.57143 0 1 1 132.85714,59.505039 z"
         transform="matrix(0.1853894,0,0,0.1853894,76.917801,818.86541)"
         id="path3709"
         style="fill:none;fill-opacity:1;fill-rule:evenodd;stroke:#000000;stroke-width:10.7881031;stroke-miterlimit:4;stroke-dasharray:none;stroke-dashoffset:0;stroke-opacity:1" />
      <path
         d="M 94.397373,838.15537 C 94.397373,860.04262 94.397373,860.04262 94.397373,860.04262 L 94.397373,860.04262"
         id="path3711"
         style="fill:none;fill-rule:evenodd;stroke:#000000;stroke-width:2;stroke-linecap:round;stroke-linejoin:miter;stroke-miterlimit:4;stroke-dasharray:none;stroke-opacity:1" />
      <path
         d="M 94.511385,840.69767 L 104.81132,849.87398"
         id="path3713"
         style="fill:none;fill-rule:evenodd;stroke:#000000;stroke-width:2;stroke-linecap:round;stroke-linejoin:miter;stroke-miterlimit:4;stroke-dasharray:none;stroke-opacity:1" />
      <path
         d="M 94.676665,860.18617 L 104.9766,869.36248"
         id="path3715"
         style="fill:none;fill-rule:evenodd;stroke:#000000;stroke-width:2;stroke-linecap:round;stroke-linejoin:miter;stroke-miterlimit:4;stroke-dasharray:none;stroke-opacity:1" />
      <path
         d="M 94.224016,840.69767 L 83.924078,849.87398"
         id="path3717"
         style="fill:none;fill-rule:evenodd;stroke:#000000;stroke-width:2;stroke-linecap:round;stroke-linejoin:miter;stroke-miterlimit:4;stroke-dasharray:none;stroke-opacity:1" />
      <path
         d="M 94.058736,860.18617 L 83.758799,869.36248"
         id="path3719"
         style="fill:none;fill-rule:evenodd;stroke:#000000;stroke-width:2;stroke-linecap:round;stroke-linejoin:miter;stroke-miterlimit:4;stroke-dasharray:none;stroke-opacity:1" />
    </g>
    <text
       x="720.72028"
       y="860.54669"
       id="text3721"
       xml:space="preserve"
       style="font-size:60.04455185px;font-style:normal;font-weight:normal;fill:#000000;fill-opacity:1;stroke:none;stroke-width:1px;stroke-linecap:butt;stroke-linejoin:miter;stroke-opacity:1;font-family:Bitstream Vera Sans"><tspan
         x="720.72028"
         y="860.54669"
         id="tspan3735"
         style="font-size:19px;text-align:end;text-anchor:end">Área de Interesse</tspan><tspan
         x="720.72028"
         y="884.29669"
         id="tspan3739"
         style="font-size:19px;text-align:end;text-anchor:end">do jogador B</tspan></text>
    <text
       x="82.235077"
       y="860.54669"
       id="text3741"
       xml:space="preserve"
       style="font-size:60.04455185px;font-style:normal;font-weight:normal;fill:#000000;fill-opacity:1;stroke:none;stroke-width:1px;stroke-linecap:butt;stroke-linejoin:miter;stroke-opacity:1;font-family:Bitstream Vera Sans"><tspan
         x="82.235077"
         y="860.54669"
         id="tspan3743"
         style="font-size:19px;text-align:start;text-anchor:start">Área de Interesse</tspan><tspan
         x="82.235077"
         y="884.29669"
         id="tspan3745"
         style="font-size:19px;text-align:start;text-anchor:start">do jogador A</tspan></text>
    <text
       x="447.77621"
       y="831.88373"
       id="text3757"
       xml:space="preserve"
       style="font-size:60.04455185px;font-style:normal;font-weight:normal;text-align:center;text-anchor:middle;fill:#000000;fill-opacity:1;stroke:none;stroke-width:1px;stroke-linecap:butt;stroke-linejoin:miter;stroke-opacity:1;font-family:Bitstream Vera Sans"><tspan
         x="447.77621"
         y="831.88373"
         id="tspan3759"
         style="font-size:23.10422707px;text-align:center;text-anchor:middle">B</tspan></text>
    <path
       d="M 174.2051,767.19418 L 174.2051,582.16933 L 205.84674,582.16933"
       id="path10648"
       style="fill:none;fill-rule:evenodd;stroke:#000000;stroke-width:2;stroke-linecap:butt;stroke-linejoin:miter;marker-mid:none;marker-end:url(#TriangleOutL);stroke-miterlimit:4;stroke-dasharray:none;stroke-opacity:1" />
    <path
       d="M 173.57296,766.33819 L 314.26443,766.33819"
       id="path3761"
       style="fill:none;fill-rule:evenodd;stroke:#000000;stroke-width:2;stroke-linecap:butt;stroke-linejoin:miter;marker-end:none;stroke-miterlimit:4;stroke-dasharray:none;stroke-opacity:1" />
    <path
       d="M 146.20511,795.39173 L 146.20511,564.40502 L 206.31138,564.40502"
       id="path4923"
       style="fill:none;fill-rule:evenodd;stroke:#000000;stroke-width:2;stroke-linecap:butt;stroke-linejoin:miter;marker-mid:none;marker-end:none;stroke-miterlimit:4;stroke-dasharray:none;stroke-opacity:1" />
    <path
       d="M 145.57296,794.3231 L 303.94438,794.3231"
       id="path4925"
       style="fill:none;fill-rule:evenodd;stroke:#000000;stroke-width:2;stroke-linecap:butt;stroke-linejoin:miter;marker-end:url(#TriangleOutL);stroke-miterlimit:4;stroke-dasharray:none;stroke-opacity:1" />
    <path
       d="M 625.7133,767.19418 L 625.7133,582.16933 L 594.07166,582.16933"
       id="path8356"
       style="fill:none;fill-rule:evenodd;stroke:#000000;stroke-width:2;stroke-linecap:butt;stroke-linejoin:miter;marker-mid:none;marker-end:none;stroke-miterlimit:4;stroke-dasharray:none;stroke-opacity:1" />
    <path
       d="M 626.34543,766.33819 L 504.9216,766.33819"
       id="path8358"
       style="fill:none;fill-rule:evenodd;stroke:#000000;stroke-width:2;stroke-linecap:butt;stroke-linejoin:miter;marker-end:url(#TriangleOutL);stroke-miterlimit:4;stroke-dasharray:none;stroke-opacity:1" />
    <path
       d="M 653.71329,795.39173 L 653.71329,564.40502 L 593.60702,564.40502"
       id="path8360"
       style="fill:none;fill-rule:evenodd;stroke:#000000;stroke-width:2;stroke-linecap:butt;stroke-linejoin:miter;marker-mid:none;marker-end:url(#TriangleOutL);stroke-miterlimit:4;stroke-dasharray:none;stroke-opacity:1" />
    <path
       d="M 654.34544,794.3231 L 495.97402,794.3231"
       id="path8362"
       style="fill:none;fill-rule:evenodd;stroke:#000000;stroke-width:2;stroke-linecap:butt;stroke-linejoin:miter;marker-end:none;stroke-miterlimit:4;stroke-dasharray:none;stroke-opacity:1" />
    <path
       d="M 454.45124,562.87863 L 354.8332,562.87863"
       id="path11218"
       style="fill:none;fill-rule:evenodd;stroke:#000000;stroke-width:2;stroke-linecap:butt;stroke-linejoin:miter;marker-end:url(#TriangleOutL);stroke-miterlimit:4;stroke-dasharray:none;stroke-opacity:1" />
    <text
       x="-450.56732"
       y="397.02197"
       transform="matrix(0,-1,1,0,0,0)"
       id="text11220"
       xml:space="preserve"
       style="font-size:40px;font-style:normal;font-weight:normal;fill:#000000;fill-opacity:1;stroke:none;stroke-width:1px;stroke-linecap:butt;stroke-linejoin:miter;stroke-opacity:1;font-family:Bitstream Vera Sans"><tspan
         x="-450.56732"
         y="397.02197"
         id="tspan11222"
         style="font-size:15px;text-align:center;text-anchor:middle">Fronteira entre</tspan><tspan
         x="-450.56732"
         y="415.77197"
         id="tspan11224"
         style="font-size:15px;text-align:center;text-anchor:middle"></tspan><tspan
         x="-450.56732"
         y="434.52197"
         id="tspan11226"
         style="font-size:15px;text-align:center;text-anchor:middle">as regiões</tspan></text>
  </g>
</svg>
